<?xml version="1.0" standalone="no"?>
<!DOCTYPE svg PUBLIC "-//W3C//DTD SVG 1.1//EN" "http://www.w3.org/Graphics/SVG/1.1/DTD/svg11.dtd" >
<svg xmlns="http://www.w3.org/2000/svg" xmlns:xlink="http://www.w3.org/1999/xlink" version="1.1">
<metadata>
Created by FontForge 20161013 at Sat Jan 17 06:24:15 2015
 By ,,,
Copyright (c) 2015 by Cultivated Mind. All rights reserved.
</metadata>
<defs>
<font id="WanderlustLetters-Regular" horiz-adv-x="385" >
  <font-face 
    font-family="Wanderlust Letters"
    font-weight="400"
    font-stretch="normal"
    units-per-em="1000"
    panose-1="2 0 5 6 0 0 0 2 0 4"
    ascent="800"
    descent="-200"
    x-height="357"
    cap-height="667"
    bbox="-151.2 -534.4 1142 917"
    underline-thickness="50"
    underline-position="-150"
    unicode-range="U+0020-FB05"
  />
<missing-glyph horiz-adv-x="239" 
 />
    <glyph glyph-name="ff" unicode="ff" horiz-adv-x="610" 
d="M738 295q2 1 8 5q-2 -5 -3.5 -9t-3.5 -9q-5 -10 -7.5 -18.5t-6.5 -16.5q-4 -7 -7 -11.5t-5 -11.5t-6 -13h1q-1 -1 -1 -2t-1 -2l-9 -12v-2q-5 -6 -7.5 -12t-7.5 -13q-5 -8 -10.5 -16.5t-11.5 -16.5q-3 -3 -6 -5.5t-5 -7.5q-9 -17 -22.5 -30t-24.5 -29q-4 -3 -7 -5.5
t-5 -4.5q-3 -3 -5 -4q2 -5 2.5 -9.5t2.5 -9.5q0 -2 0.5 -2.5t0.5 -2.5q2 -6 2.5 -12t2.5 -12q2 -12 3.5 -21.5t3.5 -21.5q3 -13 2.5 -25.5t1.5 -25.5q1 -12 1 -24t-2 -24t-5.5 -24t-7.5 -24q-4 -11 -5.5 -22t-3.5 -22q-2 -18 -11.5 -37.5t-26.5 -29.5q-6 -4 -12.5 -8
t-14.5 -6q-2 -1 -6 -0.5t-6 -0.5q-4 -2 -7.5 -3t-7.5 -2q-30 -2 -54 16q-22 17 -37 43.5t-24 52.5q-11 32 -16.5 65.5t-7.5 66.5q-1 17 -1.5 34t1.5 34q1 16 2 31t0 30h-1q3 18 3 37q2 11 5 23t4 23q1 6 0.5 11.5t0.5 11.5q1 7 1.5 14t2.5 15q-3 -5 -5.5 -10t-6.5 -10
q-5 -8 -10.5 -16.5t-11.5 -16.5q-3 -3 -6 -5.5t-5 -7.5q-9 -17 -22.5 -30t-24.5 -29q-4 -3 -7 -5.5t-5 -4.5q-3 -3 -5 -4q2 -5 2.5 -9.5t2.5 -9.5q0 -2 0.5 -2.5t0.5 -2.5q2 -6 2.5 -12t2.5 -12q2 -12 3.5 -21.5t3.5 -21.5q3 -13 2.5 -25.5t1.5 -25.5q1 -12 1 -24t-2 -24
t-5.5 -24t-7.5 -24q-4 -11 -5.5 -22t-3.5 -22q-2 -18 -11.5 -37.5t-26.5 -29.5q-6 -4 -12.5 -8t-14.5 -6q-2 -1 -6 -0.5t-6 -0.5q-4 -2 -7.5 -3t-7.5 -2q-30 -2 -54 16q-22 17 -37 43.5t-24 52.5q-11 32 -16.5 65.5t-7.5 66.5q-1 17 -1.5 34t1.5 34q1 16 2 31t0 30h-1
q3 18 3 37q2 11 5 23t4 23q1 6 0.5 11.5t0.5 11.5q2 14 3.5 28.5t3.5 28.5t5.5 27t5.5 27q2 8 2.5 14.5t2.5 14.5q3 13 9 27l10 26l10 26q6 14 15 26.5t19 25.5q9 12 21 20t26 15q4 2 7.5 4t7.5 3q10 0 14 -1q7 -1 13.5 -1.5t11.5 -4.5q4 -3 10 -11q2 -2 4 -5t4 -5
q9 -12 12 -26q3 -15 0.5 -30t-6.5 -30t-9.5 -29.5t-11.5 -28.5l-15 -30q-3 -7 -6 -13.5t-7 -13.5q-5 -7 -9 -13.5t-8 -14.5q-3 -6 -6 -12.5t-8 -12.5q-9 -12 -20.5 -23t-22.5 -22q-6 -6 -12.5 -12t-12.5 -11q-5 -5 -8 -9t-4 -11q-1 -17 2.5 -32.5t8.5 -31.5t7 -31.5t5 -31.5
q7 -32 20 -61t24 -59q5 -13 14 -25t19 -21q5 -5 11 -3.5t9 6.5q5 6 5.5 13.5t2.5 15.5t3.5 17t3.5 17q1 8 0 15.5t-1 14.5l-3 69q-1 8 -2.5 22.5t-3.5 22.5q-1 2 -1 4t-1 4v3.5t-3 1.5q-8 0 -13 -1q-21 -4 -40 -1t-36 18q-17 14 -19 33.5t12 36.5q8 10 19 16.5t24 7.5
q4 1 7.5 2t8.5 0q3 0 6 -1.5t6 -3.5q13 -5 23 -12q10 -6 16 -16.5t15 -16.5q2 -1 7 3t11 9q8 4 14 11t12 15q2 1 2.5 2t2.5 2v1q8 8 14.5 16t13.5 17q8 11 15.5 22t16.5 22q5 5 8 11t7 11q6 9 10.5 16t6.5 18q2 8 2.5 14.5t2.5 14.5q3 13 9 27l10 26l10 26q6 14 15 26.5
t19 25.5q9 12 21 20t26 15q4 2 7.5 4t7.5 3q10 0 14 -1q7 -1 13.5 -1.5t11.5 -4.5q4 -3 10 -11q2 -2 4 -5t4 -5q9 -12 12 -26q3 -15 0.5 -30t-6.5 -30t-9.5 -29.5t-11.5 -28.5l-15 -30q-3 -7 -6 -13.5t-7 -13.5q-5 -7 -9 -13.5t-8 -14.5q-3 -6 -6 -12.5t-8 -12.5
q-9 -12 -20.5 -23t-22.5 -22q-6 -6 -12.5 -12t-12.5 -11q-5 -5 -8 -9t-4 -11q-1 -17 2.5 -32.5t8.5 -31.5t7 -31.5t5 -31.5q7 -32 20 -61t24 -59q5 -13 14 -25t19 -21q5 -5 11 -3.5t9 6.5q5 6 5.5 13.5t2.5 15.5t3.5 17t3.5 17q1 8 0 15.5t-1 14.5l-3 69q-1 8 -2.5 22.5
t-3.5 22.5q-1 2 -1 4t-1 4v3.5t-3 1.5q-8 0 -13 -1q-21 -4 -40 -1t-36 18q-17 14 -19 33.5t12 36.5q8 10 19 16.5t24 7.5q4 1 7.5 2t8.5 0q3 0 6 -1.5t6 -3.5q13 -5 23 -12q10 -6 16 -16.5t15 -16.5q2 -1 7 3t11 9q8 4 14 11t12 15q2 1 2.5 2t2.5 2v1q8 8 14.5 16t13.5 17
q3 4 5.5 8t5.5 9q4 6 8 13h-1q5 7 11.5 17t8.5 15q2 2 1 5l4 4q1 0 3 2q3 2 5.5 5.5t4.5 4.5t4 1.5t4 5.5q3 4 5 7.5t5 5.5q4 2 7 5.5t5 5.5t3.5 5t4.5 6zM522 70q2 2 0.5 6t-5.5 8q-9 8 -16.5 14t-17.5 8q-5 1 -9 1.5t-8 -1.5q-6 -3 -6 -7.5t3.5 -9.5t8 -9.5l6.5 -6.5
q7 -7 16 -8q5 -1 15 0.5t13 4.5zM199 70q2 2 0.5 6t-5.5 8q-9 8 -16.5 14t-17.5 8q-5 1 -9 1.5t-8 -1.5q-6 -3 -6 -7.5t3.5 -9.5t8 -9.5l6.5 -6.5q5 -6 16 -8q5 -1 15 0.5t13 4.5zM90 210q2 2 4 7q2 3 3.5 6.5t3.5 7.5q8 14 14 28q7 15 13.5 30t12.5 30l12 32t14 31
q2 3 5.5 10t6 14t1 12.5t-10.5 6.5q-8 1 -12.5 -4t-8.5 -10q-5 -6 -8.5 -11.5t-7.5 -12.5q-8 -13 -13 -26.5t-10 -28.5q-9 -30 -16.5 -61t-7.5 -63v-2q4 0 5 4zM413 210q2 2 4 7q2 3 3.5 6.5t3.5 7.5q8 14 14 28q7 15 13.5 30t12.5 30l12 32t14 31q2 3 5.5 10t6 14t1 12.5
t-10.5 6.5q-8 1 -12.5 -4t-8.5 -10q-5 -6 -8.5 -11.5t-7.5 -12.5q-8 -13 -13 -26.5t-10 -28.5q-9 -30 -16.5 -61t-7.5 -63v-2q4 0 5 4z" />
    <glyph glyph-name="fi" unicode="fi" horiz-adv-x="551" 
d="M451 399q-8 4 -15.5 7.5t-12.5 10.5q-11 12 -9 30q0 7 3 14.5t9 12.5q2 2 5.5 3.5t6.5 3.5q2 1 7 -0.5t8 -2.5q16 -3 26 -17t12 -29q-1 2 -1 -3t1 -1q-2 -7 -3.5 -15t-8.5 -12q-4 -2 -12 -2q-2 0 -4 -1t-4 -1q-4 0 -8 2zM679 295q4 2 7 5q-2 -5 -3 -9t-3 -9
q-5 -10 -8 -18.5t-7 -16.5q-4 -7 -6.5 -11.5t-5.5 -11.5q0 -1 -0.5 -2t-0.5 -2h-1q-2 -6 -4 -11q-5 -9 -9.5 -20t-9.5 -20q-4 -6 -6.5 -11.5t-5.5 -11.5q-4 -5 -7 -10.5t-6 -10.5t-7.5 -10.5t-6.5 -11.5q-18 -23 -27 -34t-14 -16q-4 -5 -10 -12t-12 -15t-12.5 -14.5
t-12.5 -9.5q-11 -6 -18 -11q-5 -3 -7.5 -5.5t-7.5 -4.5l-12 -4t-12 -1t-12 3.5t-11 5.5q-9 5 -18 15t-14 19q-5 11 -10 22.5t-10 23.5q-7 21 -13 41t-10 41q-2 -4 -8 -12q-3 -3 -6 -5.5t-5 -7.5q-9 -17 -22.5 -30t-24.5 -29q-4 -3 -7 -5.5t-5 -4.5q-3 -3 -5 -4
q2 -5 2.5 -9.5t2.5 -9.5q0 -2 0.5 -2.5t0.5 -2.5q2 -6 2.5 -12t2.5 -12q3 -12 4 -21.5t4 -21.5q2 -13 1.5 -25.5t1.5 -25.5q3 -26 -1 -48q-2 -12 -5.5 -24t-7.5 -24q-4 -11 -5.5 -22t-3.5 -22q-2 -18 -11.5 -37.5t-26.5 -29.5q-6 -4 -12.5 -8t-13.5 -6q-3 -1 -7 -0.5
t-6 -0.5q-4 -3 -15 -5q-30 -2 -54 16q-22 17 -37 43.5t-24 52.5q-11 32 -16.5 65.5t-7.5 66.5q-2 35 0 68q1 16 2 31t0 30h-1q3 18 3 37q3 11 6 23t3 23q2 6 1 11.5t0 11.5q2 14 4 28.5t4 28.5t5 27t5 27q2 8 2.5 14.5t2.5 14.5q3 13 9 27l10 26l10 26q6 14 15.5 26.5
t19.5 25.5q10 12 21 20t25 15q4 2 7.5 4t8.5 3h6.5t7.5 -1q6 -1 13 -1.5t12 -4.5q3 -2 5 -5l4 -6q2 -2 4.5 -5t4.5 -5q8 -13 11 -26q3 -15 0.5 -30t-6.5 -30t-8.5 -29.5t-11.5 -28.5q-4 -8 -8 -15t-8 -15q-3 -7 -6 -13.5t-7 -13.5t-8 -13.5t-9 -14.5q-3 -6 -6 -12.5
t-8 -12.5q-9 -12 -20.5 -23t-22.5 -22l-12 -12t-13 -11q-5 -5 -8 -9t-4 -11q-1 -17 2.5 -32.5t8.5 -31.5t7 -31.5t6 -31.5q6 -32 19.5 -61t24.5 -59q5 -13 14 -25t19 -21q5 -5 10.5 -3.5t9.5 6.5q4 6 4.5 13.5t2.5 15.5t3.5 17t3.5 17t1 15.5t-1 14.5l-3 69q-1 8 -3 22.5
t-4 22.5q0 2 -0.5 4t-0.5 4q-1 2 -1 3.5t-3 1.5q-8 0 -13 -1q-21 -4 -40 -1t-36 18q-17 14 -19 33.5t12 36.5q9 10 19.5 16.5t23.5 7.5l8 2t8 0q3 0 6 -1.5t6 -3.5q12 -5 24 -12q9 -6 15 -16.5t16 -16.5q2 -1 7 3t11 9q8 4 13.5 11t12.5 15l4 4l1 1q8 8 14 16t13 17
q7 8 11 17q4 6 8 13h-1q0 1 0.5 1t0.5 1q0 5 -0.5 11t-0.5 11q-1 11 -2 22.5t1 22.5q1 11 4 20.5t8 19.5q4 9 9.5 17t13.5 13q15 10 36 11.5t36 -9.5q10 -8 14 -19q1 -4 1 -7t1 -6q1 -5 5 -15q2 -8 -0.5 -14.5t-5.5 -13.5q-4 -7 -5.5 -14t-4.5 -15q-5 -17 -13 -29
q-3 -5 -8 -9.5t-6 -9.5q-2 -4 -1 -7.5t2 -7.5t1 -8t1 -8q1 -15 6 -30q5 -16 11.5 -31t11.5 -30q3 -8 5.5 -15t7.5 -13l4.5 -4.5t5.5 -2.5t6 3l5 5q7 6 12.5 12t10.5 12h2q12 12 21 27q1 2 5 6q14 14 24.5 30.5t21.5 33.5q3 5 5.5 7.5t4.5 8.5q0 1 1.5 5t3.5 8.5t4 8.5t3 5
q2 1 4 6l4 10h-1q1 2 1.5 2.5t1.5 2.5t1.5 3.5t2.5 3.5q1 1 1 5q0 1 1 1.5t2 2.5l4 2q3 2 5 5.5t4 4.5t4 1.5t5 5.5q3 4 5 7.5t5 5.5t6 5.5t5 5.5t4 5t5 6zM200 70q2 2 0.5 6t-5.5 8q-9 8 -16.5 14t-17.5 8q-5 1 -9 1.5t-8 -1.5q-6 -3 -5.5 -7.5t3.5 -9.5t7.5 -9.5l6.5 -6.5
q7 -7 16 -8q5 -1 15 0.5t13 4.5zM92 210q2 4 3 7q3 4 7 14q8 14 14 28q7 15 13.5 30t12.5 30q7 16 12.5 32t13.5 31q2 3 5.5 10t6 14t1 12.5t-10.5 6.5q-8 1 -12 -4t-9 -10q-5 -6 -8.5 -11.5t-7.5 -12.5q-8 -13 -13 -26.5t-10 -28.5q-8 -30 -15 -61t-9 -63v-2q3 0 3.5 1
t2.5 3zM416 248q5 7 6.5 17.5t3.5 19.5q0 3 1 7t0.5 8t-2.5 5.5t-7 -0.5q-8 -3 -9.5 -12t-1.5 -17v-10.5t1 -11.5q0 -3 1 -6t4 -5q2 4 3 5z" />
    <glyph glyph-name="fl" unicode="fl" horiz-adv-x="508" 
d="M635 295q2 1 8 5q-2 -5 -3.5 -9t-3.5 -9q-5 -10 -7.5 -18.5t-6.5 -16.5q-4 -7 -6.5 -11.5t-5.5 -11.5q-4 -8 -7 -17q-6 -8 -8 -12q-1 -1 -1 -2q-5 -6 -7.5 -12t-7.5 -13q-10 -15 -17 -29l-2 -4l-2 -4q-1 0 -1 -0.5t-1 -0.5q-5 -12 -10 -18q-6 -6 -9 -14t-7 -15
q-6 -10 -11.5 -19.5t-12.5 -17.5q-15 -17 -35 -18t-37 12q-2 2 -3 2.5t-3 2.5q-2 5 -5 7.5t-6 4.5q-1 0 -1 0.5t-1 0.5q-7 13 -11.5 17.5t-9.5 17.5q-2 7 -4.5 13.5t-5.5 13.5q0 6 -2 9t-2.5 5.5t-2.5 5.5q-4 10 -5 15q-4 9 -7 20l-1 2q-2 -2 -3 -4.5t-3 -4.5
q-5 -8 -10.5 -16.5t-11.5 -16.5q-3 -3 -6 -5.5t-5 -7.5q-9 -17 -22 -30t-24 -29q-4 -3 -7.5 -5.5t-5.5 -4.5q-3 -3 -5 -4q2 -5 2.5 -9.5t2.5 -9.5q1 -2 1 -5q2 -6 3 -12l2 -12q2 -12 4 -21.5t4 -21.5q3 -13 2 -25.5t1 -25.5q1 -12 1 -24t-2 -24t-5.5 -24t-7.5 -24
q-4 -11 -5.5 -22t-3.5 -22q-3 -18 -12 -37.5t-25 -29.5q-7 -4 -13.5 -8t-13.5 -6q-3 -1 -6.5 -0.5t-6.5 -0.5q-4 -3 -14 -5q-14 -1 -28.5 3.5t-25.5 12.5q-23 17 -38 43.5t-24 52.5q-11 32 -16.5 65.5t-7.5 66.5q-1 17 -1.5 34t1.5 34q1 16 2 31t0 30h-1q3 18 3 37
q3 11 5.5 23t3.5 23q2 6 1 11.5t0 11.5q2 14 4 28.5t4 28.5t5.5 27t5.5 27q1 8 1.5 14.5t2.5 14.5q2 7 4.5 13.5t4.5 13.5l10 26l10 26q6 14 15.5 26.5t19.5 25.5q10 12 21 20t25 15q4 2 7.5 4t8.5 3h6.5t7.5 -1q6 -1 13 -1.5t12 -4.5q3 -2 5 -5l4 -6q2 -2 4.5 -5t4.5 -5
q7 -10 11 -26q2 -15 0 -30t-6 -30t-8.5 -29.5t-11.5 -28.5q-4 -8 -8 -15t-7 -15q-4 -7 -6.5 -13.5t-7.5 -13.5q-4 -7 -7.5 -13.5t-8.5 -14.5q-4 -6 -7 -12.5t-8 -12.5q-9 -12 -20.5 -23t-22.5 -22l-12 -12t-12 -11q-5 -5 -8.5 -9t-4.5 -11q-1 -17 3 -32.5t9 -31.5t7 -31.5
t5 -31.5q7 -32 20 -61t24 -59q5 -13 14 -25t19 -21q5 -5 10.5 -3.5t9.5 6.5q4 6 5 13.5t2 15.5q2 8 3.5 17t3.5 17t1 15.5t-1 14.5l-3 69q-1 8 -3 22.5t-4 22.5q0 2 -0.5 4t-0.5 4q-1 2 -1 3.5t-3 1.5q-8 0 -12 -1q-22 -4 -41 -1t-36 18q-16 14 -18.5 33.5t12.5 36.5
q18 21 42 24q5 1 8.5 2t7.5 0q3 0 6.5 -1.5t6.5 -3.5q13 -5 23 -12q9 -6 15.5 -16.5t15.5 -16.5q2 -1 7 3t11 9q8 4 14 11t12 15l4 4l1 1q8 8 14 16t13 17q4 4 6.5 8t4.5 9q2 3 4.5 6.5t4.5 6.5h-2q5 5 9 12t7 12q-1 5 -1.5 9t-0.5 9q-2 14 -3.5 26.5t-4.5 25.5v1v3
q2 14 2 28.5t-4 28.5q0 6 0.5 12t0.5 13q0 8 0.5 15.5t0.5 15.5q1 17 3 33.5t4 33.5q2 10 2 19.5t1 20.5q2 3 4 11q2 17 10.5 32t13.5 31q1 1 1.5 2t1.5 2q5 7 11 12.5t13 10.5q5 5 11 10t14 5t15.5 -0.5t15.5 -3.5q7 -3 11 -8t8 -11q9 -15 14 -29q2 -8 2.5 -15.5t0.5 -15.5
q-1 -17 -1.5 -33.5t-3.5 -33.5q-4 -31 -14 -63q-5 -16 -10 -31.5t-10 -31.5q-5 -15 -11 -30l-12 -30q-3 -8 -6 -16.5t-5 -16.5t-2 -14.5t2 -14.5q2 -16 4 -24t7 -23t9 -29.5t12 -28.5q4 -8 8 -15t8.5 -10.5t10.5 -2t13 11.5q11 15 20 30.5t19 30.5q3 0 5 3q3 4 5 8t4 9
q9 6 15 17t11 19q2 2 1 5q1 1 2 1.5t2 2.5q1 0 3 2q3 2 5.5 5.5t4.5 4.5t4 1.5t5 5.5q2 4 4 7.5t6 5.5q3 2 6 5.5t5 5.5t3.5 5t4.5 6zM198 70q2 2 0.5 6t-5.5 8q-9 8 -16.5 14t-17.5 8q-4 1 -8 1.5t-9 -1.5q-6 -3 -5.5 -7.5t3.5 -9.5t7.5 -9.5l6.5 -6.5q6 -6 16 -8
q6 -1 16 0.5t12 4.5zM90 210q2 4 3 7q2 3 4 6.5t4 7.5q3 7 6.5 14t6.5 14q8 15 14 30l12 30q7 16 12.5 32t13.5 31q2 3 5.5 10t6 14t1 12.5t-10.5 6.5q-8 1 -12 -4t-9 -10q-4 -6 -8 -11.5t-8 -12.5q-8 -13 -13 -26.5t-10 -28.5q-8 -30 -16 -61t-8 -63v-2q3 0 3.5 1t2.5 3z
M420 336q5 15 9 30.5t8 30.5q2 8 3.5 15.5t3.5 15.5q2 7 3.5 13t1.5 13q1 15 3 29.5t3 28.5q0 8 1 14.5t0 14.5q-1 5 -2 11t-6 8q-7 2 -9.5 -4t-4.5 -11q-4 -11 -7 -28q-3 -15 -7 -30t-6 -30q-2 -16 -2.5 -32t0.5 -31q0 -8 0.5 -16t0.5 -16q1 -4 1.5 -14.5t5.5 -11.5z" />
    <glyph glyph-name="ffi" unicode="ffi" horiz-adv-x="865" 
d="M764 399l-15 7.5t-12 10.5q-11 12 -9 30q0 7 3 14.5t9 12.5q3 3 11 7q3 1 8 -0.5t8 -2.5q16 -3 25.5 -17t11.5 -29q0 2 -0.5 -3t1.5 -1q-2 -7 -3.5 -15t-8.5 -12q-4 -2 -12 -2q-2 0 -4 -1t-4 -1q-3 0 -9 2zM992 295q2 1 8 5l-6 -18q-5 -10 -8 -18.5t-7 -16.5
q-4 -7 -6.5 -11.5t-5.5 -11.5q-1 -1 -1 -2t-1 -2q-2 -6 -4 -11q-5 -9 -9.5 -20t-9.5 -20q-4 -6 -6.5 -11.5t-5.5 -11.5q-4 -5 -7 -10.5t-6 -10.5t-7.5 -10.5t-6.5 -11.5q-19 -23 -28 -34t-13 -16t-10 -12t-12.5 -15t-13 -14.5t-11.5 -9.5q-10 -5 -19 -11q-4 -3 -7 -5.5
t-8 -4.5t-11 -4t-12 -1t-12 3.5t-11 5.5q-9 5 -18.5 15t-13.5 19q-5 11 -10 22.5t-10 23.5q-8 23 -14.5 45t-9.5 45q-4 -5 -7 -10t-7 -10q-3 -3 -6 -5.5t-5 -7.5q-9 -17 -22.5 -30t-24.5 -29q-4 -3 -7 -5.5t-5 -4.5q-3 -3 -5 -4q2 -5 2.5 -9.5t2.5 -9.5q0 -2 0.5 -2.5
t0.5 -2.5q2 -6 2.5 -12t2.5 -12q3 -12 4 -21.5t4 -21.5q2 -13 1.5 -25.5t1.5 -25.5q3 -26 -1 -48q-2 -12 -5.5 -24t-7.5 -24q-4 -11 -5.5 -22t-3.5 -22q-2 -18 -11.5 -37.5t-26.5 -29.5q-6 -4 -12.5 -8t-13.5 -6q-3 -1 -7 -0.5t-6 -0.5q-4 -3 -15 -5q-30 -2 -54 16
q-22 17 -37 43.5t-24 52.5q-11 32 -16.5 65.5t-7.5 66.5q-2 35 0 68q1 16 2 31t0 30h-1q3 18 3 37q3 11 5.5 23t3.5 23q2 5 1.5 10.5t-0.5 11.5q-4 -6 -7.5 -11.5t-7.5 -11.5q-3 -3 -6 -5.5t-5 -7.5q-9 -17 -22.5 -30t-24.5 -29q-4 -3 -7 -5.5t-5 -4.5q-3 -3 -5 -4
q2 -5 2.5 -9.5t2.5 -9.5q0 -2 0.5 -2.5t0.5 -2.5q2 -6 2.5 -12t2.5 -12q2 -12 3.5 -21.5t3.5 -21.5q3 -13 2.5 -25.5t1.5 -25.5q1 -12 1 -24t-2 -24t-5.5 -24t-7.5 -24q-4 -11 -5.5 -22t-3.5 -22q-3 -18 -12 -37.5t-26 -29.5q-6 -4 -12.5 -8t-14.5 -6q-3 -1 -6.5 -0.5
t-5.5 -0.5q-4 -2 -7.5 -3t-7.5 -2q-30 -2 -54 16q-22 17 -37 43.5t-24 52.5q-11 32 -16.5 65.5t-7.5 66.5q-3 35 0 68q1 16 2 31t0 30h-1q3 20 2 37q3 11 6 23t4 23q1 6 0.5 11.5t0.5 11.5q2 14 3.5 28.5t3.5 28.5t5.5 27t5.5 27q2 8 2 14.5t2 14.5q2 7 4.5 13.5t5.5 13.5
l10 26l10 26q6 14 15.5 26.5t18.5 25.5q10 12 21.5 20t25.5 15q4 2 7.5 4t7.5 3q10 0 14 -1q7 -1 13.5 -2t11.5 -4q6 -4 9 -11q2 -2 4.5 -5t4.5 -5q9 -12 12 -26q3 -15 0.5 -30t-6.5 -30q-8 -32 -21 -58q-3 -8 -7 -15t-8 -15q-3 -7 -6 -13.5t-7 -13.5q-5 -7 -9 -13.5
t-8 -14.5q-4 -6 -6.5 -12.5t-7.5 -12.5q-9 -12 -20.5 -23t-22.5 -22q-6 -6 -12.5 -12t-12.5 -11q-5 -5 -8 -9t-4 -11q-1 -17 2.5 -32.5t8.5 -31.5t7 -31.5t5 -31.5q7 -32 20 -61t24 -59q5 -13 14 -25t19 -21q5 -5 10.5 -3.5t9.5 6.5q5 6 5.5 13.5t2.5 15.5t3.5 17t3.5 17
q1 8 0.5 15.5t-1.5 14.5q-1 17 -1 34.5t-2 34.5q0 8 -2 22.5t-4 22.5q-1 2 -1 4t-1 4v3.5t-3 1.5h-6.5t-6.5 -1q-21 -4 -40 -1t-36 18q-17 14 -19 33.5t12 36.5q18 21 43 24q4 1 7.5 2t8.5 0q3 0 6 -1.5t6 -3.5q13 -5 23 -12q10 -6 16 -16.5t15 -16.5q2 -1 7 3t11 9
q8 4 14 11t12 15q2 1 2.5 2t2.5 2v1q8 8 14.5 16t13.5 17q3 4 5.5 8t5.5 9q2 3 4 6.5t4 6.5h-1q5 7 11.5 17t8.5 15q1 1 1 5q2 2 3 4h2q2 8 3 14.5t2 14.5q2 8 2.5 14.5t2.5 14.5q3 13 9 27l10 26l10 26q6 14 15.5 26.5t19.5 25.5q10 12 21 20t25 15q4 2 7.5 4t8.5 3h6.5
t7.5 -1q6 -1 13 -2t12 -4q3 -2 5 -5l4 -6q2 -2 4.5 -5t4.5 -5q8 -13 11 -26q3 -15 0.5 -30t-6.5 -30t-8.5 -29.5t-11.5 -28.5q-4 -8 -8 -15t-8 -15q-3 -7 -6 -13.5t-7 -13.5t-8 -13.5t-9 -14.5q-3 -6 -6 -12.5t-8 -12.5q-9 -12 -20.5 -23t-22.5 -22l-12 -12t-13 -11
q-5 -5 -8 -9t-4 -11q-1 -17 2.5 -32.5t8.5 -31.5t7 -31.5t6 -31.5q6 -32 19.5 -61t24.5 -59q5 -13 14 -25t19 -21q5 -5 10.5 -3.5t9.5 6.5q4 6 4.5 13.5t2.5 15.5t3.5 17t3.5 17t1 15.5t-1 14.5l-3 69q-1 8 -3 22.5t-4 22.5q0 2 -0.5 4t-0.5 4q-1 2 -1 3.5t-3 1.5
q-8 0 -13 -1q-21 -4 -40 -1t-36 18q-17 14 -19 33.5t12 36.5q9 10 19.5 16.5t23.5 7.5l8 2t8 0q3 0 6 -1.5t6 -3.5q12 -5 24 -12q9 -6 15 -16.5t16 -16.5q2 -1 7 3t11 9q8 4 13.5 11t12.5 15l4 4l1 1q8 8 14 16t13 17q7 8 11 17q4 6 8 13h-1q2 2 4 4.5t4 5.5q-1 4 -1 7.5
v6.5q-1 11 -2 22.5t0 22.5q2 11 5 20.5t8 19.5q4 9 9.5 17t13.5 13q15 10 36 11.5t36 -9.5q10 -8 14 -19q1 -4 1 -7t1 -6q1 -4 2 -7.5t2 -7.5q2 -8 0 -14.5t-6 -13.5q-3 -7 -5 -14t-4 -15q-5 -17 -13 -29q-3 -5 -8 -9.5t-7 -9.5q-1 -4 0 -7.5t2 -7.5q0 -6 2 -16q1 -8 2 -15
t3 -15q5 -16 12 -31t12 -30q3 -8 5.5 -15t7.5 -13l4.5 -4.5t4.5 -2.5q4 0 7 3l5 5q12 11 22 24h2q7 6 11.5 12.5t9.5 14.5l6 6q14 14 24.5 30.5t21.5 33.5q3 5 5.5 7.5t4.5 8.5q0 1 1.5 5t3.5 8.5t3.5 8.5t3.5 5t3.5 6t3.5 10q2 4 2 5h1q1 2 1.5 3.5t1.5 3.5q2 1 2 5
q0 1 1 1.5t2 2.5q1 0 3 2q4 2 6 5.5t4 4.5t4 1.5t5 5.5q2 4 4.5 7.5t5.5 5.5t6 5.5t5 5.5t4 5zM507 70q2 2 0.5 6t-5.5 8q-9 8 -16.5 14t-17.5 8q-5 1 -9 1.5t-8 -1.5q-6 -3 -5.5 -7.5t3.5 -9.5t7.5 -9.5l6.5 -6.5q7 -7 16 -8q5 -1 15 0.5t13 4.5zM199 70q2 2 0.5 6t-5.5 8
q-9 8 -16.5 14t-17.5 8q-5 1 -9 1.5t-9 -1.5q-6 -3 -5.5 -7.5t4 -9.5t8 -9.5l6.5 -6.5q5 -6 16 -8q5 -1 15 0.5t13 4.5zM90 210q2 2 4 7q2 3 3.5 6.5t3.5 7.5q8 14 14 28q7 15 13.5 30t12.5 30l12 32t14 31q2 3 5.5 10t6 14t1 12.5t-10.5 6.5q-8 1 -12.5 -4t-8.5 -10
q-5 -6 -8.5 -11.5t-7.5 -12.5q-8 -13 -13.5 -26.5t-9.5 -28.5q-9 -30 -16 -61t-8 -63v-2q2 0 5 4zM399 210q2 4 3 7q3 4 7 14q8 14 14 28q7 15 13.5 30t12.5 30q7 16 12.5 32t13.5 31q2 3 5.5 10t6 14t1 12.5t-10.5 6.5q-8 1 -12 -4t-9 -10q-5 -6 -8.5 -11.5t-7.5 -12.5
q-8 -13 -13 -26.5t-10 -28.5q-8 -30 -15 -61t-9 -63v-2q3 0 3.5 1t2.5 3zM730 248q5 7 6.5 17.5t3.5 19.5q0 3 1 7t0.5 8t-2.5 5.5t-7 -0.5q-9 -3 -10 -12t-1 -17v-10.5t1 -11.5q0 -3 1 -6t4 -5q2 5 3 5z" />
    <glyph glyph-name="ffl" unicode="ffl" horiz-adv-x="823" 
d="M951 295q2 2 3.5 2.5t3.5 2.5q-2 -5 -3 -9t-3 -8q-5 -11 -8 -19.5t-7 -16.5q-4 -7 -6.5 -11.5t-5.5 -11.5q-2 -5 -3 -8.5t-3 -8.5l-9 -12q0 -1 -0.5 -1t-0.5 -1q-5 -6 -7.5 -12t-6.5 -13q-5 -7 -9 -14t-9 -15l-2 -4l-2 -4l-1 -1q-5 -12 -11 -18q-5 -6 -8.5 -14t-7.5 -15
q-6 -10 -11 -19.5t-13 -17.5q-14 -17 -34.5 -18t-37.5 12q-2 2 -3 2.5t-3 2.5q-2 5 -5 7.5t-6 4.5l-1 1q-8 13 -12 17.5t-10 17.5l-9 27q0 4 -3 9q-1 6 -5 11q-2 4 -2.5 7.5t-2.5 7.5l-2 6l-2 6q-6 -8 -11.5 -16t-10.5 -16q-3 -3 -6 -5.5t-5 -7.5q-9 -17 -22.5 -30
t-24.5 -29q-4 -3 -7 -5.5t-5 -4.5q-3 -3 -5 -4q2 -5 2.5 -9.5t2.5 -9.5q0 -2 0.5 -2.5t0.5 -2.5q2 -6 2.5 -12t2.5 -12q3 -12 4.5 -21.5t3.5 -21.5q3 -13 2 -25.5t1 -25.5q1 -12 1 -24t-2 -24t-5.5 -24t-7.5 -24q-4 -11 -5.5 -22t-3.5 -22q-2 -18 -11.5 -38t-26.5 -29
q-6 -4 -12.5 -8t-14.5 -6q-2 -1 -6 -0.5t-6 -1.5q-5 -2 -15 -4q-30 -2 -54 16q-22 17 -37 43.5t-24 52.5q-11 32 -16.5 65.5t-7.5 66.5q-1 17 -1.5 34t1.5 34q1 16 2 31t0 30h-1q3 18 3 37q2 11 5 23t4 23q2 6 1 11.5t0 11.5q1 8 1.5 14.5t2.5 14.5q-3 -5 -5.5 -10t-6.5 -10
q-5 -8 -10.5 -16.5t-11.5 -16.5q-3 -3 -6 -5.5t-5 -7.5q-9 -17 -22.5 -30t-24.5 -29q-4 -3 -7 -5.5t-5 -4.5q-3 -3 -5 -4q2 -5 2.5 -9.5t2.5 -9.5q0 -2 0.5 -2.5t0.5 -2.5q2 -6 2.5 -12t2.5 -12q2 -12 3.5 -21.5t3.5 -21.5q3 -13 2.5 -25.5t1.5 -25.5q1 -12 1 -24t-2 -24
t-5.5 -24t-7.5 -24q-4 -11 -5.5 -22t-3.5 -22q-2 -18 -11.5 -38t-26.5 -29q-6 -4 -12.5 -8t-14.5 -6q-2 -1 -6 -0.5t-6 -1.5q-5 -2 -15 -4q-30 -2 -54 16q-22 17 -37 43.5t-24 52.5q-11 32 -16.5 65.5t-7.5 66.5q-1 17 -1.5 34t1.5 34q1 16 2 31t0 30h-1q3 20 2 37
q3 11 6 23t4 23q1 6 0.5 11.5t0.5 11.5q2 14 3.5 28.5t3.5 28.5t5.5 27t5.5 27q2 8 2.5 14.5t2.5 14.5q3 13 9 27q5 14 10 26.5t10 25.5q6 14 15 26.5t19 25.5q9 12 21 20t26 15q4 2 7.5 4t7.5 3q6 1 14 -1q7 -1 13.5 -1.5t11.5 -4.5q4 -3 10 -11q2 -2 4 -4.5t4 -5.5
q9 -12 12 -26q3 -15 0.5 -30t-6.5 -30t-9.5 -29.5t-11.5 -28.5l-15 -30q-3 -7 -6 -13.5t-7 -13.5q-5 -7 -9 -13.5t-8 -13.5q-3 -7 -6 -13.5t-8 -12.5q-9 -12 -20.5 -23t-22.5 -22q-6 -6 -12.5 -12t-12.5 -11q-5 -5 -8 -9t-4 -11q-1 -17 2.5 -32.5t8.5 -31.5t7 -31.5t5 -31.5
q7 -32 20 -61t24 -59q5 -14 14 -25.5t19 -20.5q5 -5 11 -3.5t9 6.5q5 6 5.5 13.5t2.5 15.5t3.5 17t3.5 17q1 8 0 15.5t-1 14.5l-3 69q-1 8 -2.5 22.5t-3.5 22.5q-1 2 -1 4t-1 4v3.5t-3 1.5q-8 0 -13 -1q-21 -4 -40 -1t-36 18t-19 34t12 36q8 10 19 16.5t24 7.5q4 1 7.5 2
t8.5 0q3 0 6 -1.5t6 -3.5q13 -5 23 -12q10 -6 16 -16.5t15 -16.5q2 -1 7 3t11 9q8 4 14 11.5t12 14.5q2 1 2.5 2t2.5 2v1q17 16 31 33.5t26 37.5q9 15 20.5 29.5t14.5 32.5q1 8 2 14.5t3 14.5q3 13 9 27q5 14 10 26.5t10 25.5q6 14 15.5 26.5t19.5 25.5q9 12 20.5 20
t25.5 15q4 2 7.5 4t8.5 3q4 1 14 -1q6 -1 13 -1.5t12 -4.5q3 -2 5 -5l4 -6q6 -6 9 -10q8 -13 11 -26q3 -15 0.5 -30t-6.5 -30t-8.5 -29.5t-11.5 -28.5q-4 -8 -8 -15t-8 -15q-3 -7 -6 -13.5t-7 -13.5t-8.5 -13.5t-8.5 -13.5q-3 -7 -6 -13.5t-8 -12.5q-9 -12 -20.5 -23
t-22.5 -22q-6 -6 -12.5 -12t-12.5 -11q-5 -5 -8 -9t-4 -11q-1 -17 2.5 -32.5t8.5 -31.5t7 -31.5t5 -31.5q7 -32 20.5 -61t24.5 -59q5 -14 13.5 -25.5t19.5 -20.5q5 -5 10.5 -3.5t9.5 6.5q4 6 4.5 13.5t2.5 15.5t3.5 17t3.5 17t0.5 15.5t-1.5 14.5q-1 17 -1 34.5t-1 34.5
q-1 8 -3 22.5t-4 22.5q0 2 -0.5 4t-0.5 4q-1 2 -1 3.5t-3 1.5q-8 0 -13 -1q-21 -4 -40 -1t-36 18t-19 34t12 36q8 10 19 16.5t24 7.5q4 1 7.5 2t8.5 0q3 0 6 -1.5t6 -3.5q12 -5 24 -12q9 -6 15 -16.5t16 -16.5q2 -1 7 3t11 9q8 4 13.5 11.5t12.5 14.5l4 4v1q8 8 14.5 16
t13.5 17q7 8 11 17q4 6 8 13h-1q2 2 4.5 5.5t4.5 6.5q-2 8 -3 15t-2 15q-2 14 -3 26.5t-5 26.5v3q2 14 2 28.5t-4 28.5q1 6 1 12t1 13v32q2 17 3.5 33t3.5 33q2 10 2 20t1 20q4 6 4 11q2 17 10.5 32t13.5 31q1 2 3 4q5 7 11.5 12.5t12.5 10.5q5 5 11 10t14 5h16t15 -4
q7 -3 11 -8t8 -11l8 -14t6 -15q3 -8 3 -15.5v-15.5q0 -17 -1 -33.5t-4 -33.5q-4 -31 -14 -63q-5 -16 -10 -31.5t-10 -31.5q-5 -15 -11 -30l-12 -30q-3 -8 -5.5 -16.5t-5.5 -16.5q-2 -8 -2 -14.5t2 -14.5q2 -16 4 -23.5t7 -23.5q5 -15 9.5 -29.5t11.5 -28.5q4 -8 8 -15
t8.5 -10.5t10.5 -2t13 11.5q11 15 20 30.5t19 30.5q3 0 6 3q2 5 4 8.5t5 8.5q8 6 14.5 17t11.5 19q1 1 1 5q0 1 1 1.5t2 2.5l4 2q3 2 5 5.5t4 4.5t4 1.5t5 5.5t5 8t5 5t6 5.5t5 5.5t4 5t5 6zM523 70q2 2 0.5 6t-5.5 8q-9 9 -16.5 14.5t-17.5 7.5q-5 1 -9 1.5t-8 -1.5
q-6 -3 -6 -7.5t3.5 -9.5t8 -9.5l6.5 -6.5q7 -7 16 -8q5 -1 15 0.5t13 4.5zM200 70q2 2 0.5 6t-5.5 8q-9 9 -16.5 14.5t-17.5 7.5q-5 1 -9 1.5t-8 -1.5q-6 -3 -6 -7.5t3.5 -9.5t8 -9.5l6.5 -6.5q5 -6 16 -8q5 -1 15 0.5t13 4.5zM91 210q2 2 4 7q2 3 3.5 6.5t3.5 7.5
q8 14 14 28q7 15 13.5 30t12.5 30l12 32t14 31q2 3 5.5 10t6 14.5t1 13t-10.5 5.5q-8 1 -12.5 -4t-8.5 -10q-8 -9 -16 -24q-8 -13 -13 -26.5t-10 -28.5q-9 -30 -16.5 -61t-7.5 -63v-1q2 -1 5 3zM415 210q2 4 3 7q2 3 3.5 6.5t3.5 7.5q8 14 14 28q7 15 13.5 30t12.5 30l12 32
t14 31q2 3 5.5 10t6 14.5t1 13t-10.5 5.5q-8 1 -12.5 -4t-8.5 -10q-8 -9 -16 -24q-8 -13 -13 -26.5t-10 -28.5q-9 -30 -16.5 -61t-7.5 -63v-1q3 -1 3.5 0t2.5 3zM730 457q-5 -32 -3 -63q0 -8 0.5 -16t1.5 -16q0 -4 0.5 -14.5t5.5 -11.5q6 15 9.5 30.5t7.5 30.5q2 8 4 15.5
t3 15.5q2 7 3.5 13t2.5 13q0 15 2 29.5t3 28.5q0 8 1.5 15t-0.5 15q-1 4 -1.5 10.5t-5.5 7.5q-8 2 -10 -4t-4 -11q-4 -11 -7 -28q-4 -15 -7.5 -30t-5.5 -30z" />
    <glyph glyph-name=".notdef" horiz-adv-x="239" 
 />
    <glyph glyph-name=".null" horiz-adv-x="0" 
 />
    <glyph glyph-name="nonmarkingreturn" horiz-adv-x="239" 
 />
    <glyph glyph-name="space" unicode=" " horiz-adv-x="239" 
 />
    <glyph glyph-name="exclam" unicode="!" horiz-adv-x="255" 
d="M132 -16q-2 -6 -3 -12t-3 -12q-3 -7 -6 -13t-6 -13q-5 -10 -10.5 -20t-16.5 -13q-12 -4 -21.5 4.5t-17.5 16.5q-9 9 -13 18q-2 6 -1.5 12.5t1.5 12.5q2 6 0 12t-1 12q1 7 2 13t5 12q2 5 4.5 10t6.5 8q5 5 10 4.5t11 -1.5q5 -1 11 -1t11 -2q11 -3 20 -12q4 -4 5.5 -9
t3.5 -10q1 -2 2.5 -3.5t2.5 -3.5t1 -5.5t2 -4.5zM116 102q-2 0 -1 0t-4 -2q-3 -2 -6 -1.5t-6 0.5q-4 0 -7.5 -0.5t-8.5 0.5q-12 2 -23 13t-16 22q-4 7 -3 14t1 15t1 17l2 18q2 17 2.5 33t1.5 33q4 66 11.5 132t16.5 132q2 17 4 33t5 33q2 8 2.5 16t2.5 16t3.5 17t1.5 17
q0 15 7 26q7 12 23 14q7 0 15 -3t14 -6q7 -4 11 -9.5t10 -10.5q5 -5 9.5 -8.5t9.5 -8.5q5 -7 9.5 -13t9.5 -13q9 -14 7.5 -30t-3.5 -31q-2 -17 -6 -32.5t-6 -31.5q-2 -17 -4 -33l-4 -32q-2 -22 -6 -43t-9 -42q-2 -11 -4 -21t-3 -21q-2 -11 -2.5 -23t-1.5 -23
q-2 -20 -3.5 -41t-8.5 -41q-6 -20 -16 -37q-5 -10 -10.5 -20t-11.5 -20q-2 -3 -3 -2.5t-3 -1.5z" />
    <glyph glyph-name="quotedbl" unicode="&#x22;" horiz-adv-x="285" 
d="M119 580q0 -8 -1 -15.5t-3 -15.5t-5.5 -16.5t-5.5 -16.5t-5.5 -14.5t-6.5 -14.5q-2 -6 -5 -13q-3 -4 -7 -12q-1 -3 -1.5 -5.5t-1.5 -5.5q-1 -2 -1.5 -5t-2.5 -4q-6 -3 -6.5 -11t-3.5 -13q-2 -5 -8.5 -3t-8.5 5q-5 6 -6.5 15t-2.5 16q-5 35 -10 68.5t-3 68.5q1 8 1.5 16
t2.5 16q2 6 4 14t9 11q6 3 14 5.5t16 3.5q7 1 12.5 -3.5t10.5 -9.5q6 -6 11 -12.5t7 -14.5q1 -4 3 -7.5t3 -8.5t1 -9v-9zM243 449q-2 2 -3 1t-3 0q-1 -4 -1.5 -1.5t-1.5 -1.5q0 -10 -2 -14q-2 -2 -4.5 -5.5t-5.5 -3.5h-15q-3 0 -4.5 -1t-4.5 -2q-2 -1 -5 0t-5 2
q-12 7 -15 16q-2 7 -3 14.5t-3 14.5l-2 18l-2 18q-2 34 0 69q0 8 1 15.5t2 15.5q2 8 3 15.5t4 14.5q2 5 7 6.5t11 0.5t12 -3l9 -3q3 -2 6.5 -2.5t6.5 -1.5q4 -1 6 0.5t5 1.5q7 2 11.5 -4.5t7.5 -11.5q6 -11 5 -24q0 -8 1 -16t1 -16q0 -30 -3 -58q-2 -13 -2 -22.5t-9 -19.5
q0 -5 -1 -6.5t-4 -5.5z" />
    <glyph glyph-name="numbersign" unicode="#" horiz-adv-x="596" 
d="M219 272q0 -7 3.5 -6.5t8.5 1.5q8 1 17 2t17 2t16.5 1h16.5q5 0 8.5 -0.5t7.5 0.5q7 1 7 10q7 34 16.5 67.5t18.5 67.5q1 2 4 10.5t-3 8.5q-8 1 -16.5 -0.5t-16.5 -1.5q-8 -1 -16.5 -1.5t-17.5 -1.5h-14.5t-13.5 -3t-5.5 -10t-2.5 -12l-9 -33q-2 -8 -4.5 -14.5
t-4.5 -14.5t-4.5 -17t-4.5 -18t-4 -18.5t-4 -18.5q0 -5 0.5 -0.5t-0.5 0.5zM314 -27q-6 3 -10 7q-2 2 -3.5 4.5t-4.5 4.5t-4 -0.5t-4 -0.5q-6 8 -8 13q-8 14 -7.5 29t2.5 31q2 17 6.5 32.5t7.5 32.5t7 33.5t6 33.5q0 3 1.5 7.5t-0.5 7.5q-2 2 -6 1.5t-6 -0.5q-9 -1 -17.5 -1
t-17.5 -1q-8 0 -16.5 0.5t-16.5 0.5q-6 0 -13 0.5t-10 -6.5q-6 -15 -10.5 -31t-9.5 -32q-9 -30 -21 -61q-5 -14 -12 -29t-16 -27q-2 -3 -4 -5.5t-4 -6.5q-2 -6 -6 -10q-2 -2 -4.5 -2.5t-4.5 -2.5q-3 -2 -4 -5t-3 -6q-2 -2 -4 -4.5t-5 -1.5q-2 0 -5 2t-6 1q-2 0 -2.5 -2
t-2.5 -2q-4 -1 -4.5 1.5t-2.5 4.5q-1 4 -7 6q-2 1 -3.5 3.5t-3.5 4.5t-2.5 5t-2.5 5q-2 3 -4.5 5.5t-3.5 6.5q-2 6 -1 13t2 13q2 8 3 16.5t3 16.5q4 17 8.5 32.5t9.5 32.5q2 8 4.5 16t4.5 16l2 8l2 8q1 2 2 5.5t-1 5.5t-5 2h-6q-4 0 -8 -0.5t-9 -0.5q-8 -1 -17 -0.5t-18 0.5
q-12 1 -24 1.5t-24 5.5q-5 2 -8 5t-2 9q0 5 4 8.5t9 6.5q20 11 46 13q14 2 27.5 3.5t27.5 2.5q6 1 12.5 0.5t11.5 1.5t6.5 9t3.5 12q4 13 7.5 26t7.5 26q4 14 7.5 26.5t7.5 25.5q3 11 8 25l4 10t3 11q-17 0 -33.5 -4t-33.5 -5q-8 0 -15 0.5t-14 3.5q-6 3 -12.5 8t-8.5 12
q-3 7 1 12t11 9t15 6t13 3q17 3 33.5 6t33.5 5q8 1 15.5 1t15.5 2q6 1 9 10.5t5 14.5q6 16 12 31.5t11 31.5q2 8 5 15.5t5 15.5l4 16t6 16q2 5 5.5 9.5t9.5 2.5q8 -2 11 -8l6 -12q4 -7 6 -12.5t1 -13.5t-1.5 -16.5t-2.5 -17.5q-2 -8 -1 -15.5t2 -15.5q2 -8 2 -16.5t1 -16.5
q0 -8 6 -7.5t11 1.5q9 1 17.5 1.5t16.5 0.5h16.5t16.5 1q4 0 6.5 -1t5.5 -2q5 0 13 4q5 2 7 6.5t4 9.5q3 9 5.5 17.5t5.5 16.5q2 8 5.5 15t5.5 15q3 8 5 16.5t5 16.5q2 7 5.5 13.5t6.5 13.5q2 5 6.5 9.5t10.5 5.5q7 2 13.5 -2t11.5 -9l10 -10t9 -12q3 -6 5.5 -12t6.5 -11
q4 -7 5 -14t1 -15q0 -5 0.5 -8.5t0.5 -8.5q1 -4 1.5 -8t-0.5 -8t-1 -7.5t-1 -7.5q0 -3 -0.5 -8t1.5 -7t6 -1.5t7 0.5q5 -1 15 -1l18 2t18 1q2 1 4.5 -1.5t4.5 -3.5q6 -3 12 -3q5 -1 12 -1t6 -7q-1 -3 -2.5 -6l-2.5 -5q-2 -4 -3.5 -7.5t-3.5 -6.5q-2 -6 -9.5 -8.5t-12.5 -4.5
q-4 -1 -7.5 -0.5t-7.5 -0.5t-7 -2t-7 -2q-8 -2 -17 -3t-17 -3q-6 -1 -15.5 -2t-13.5 -6q-2 -3 -2.5 -7t-2.5 -8q-1 -5 -2 -9t-3 -9q-5 -16 -10.5 -32t-10.5 -32q-3 -8 -6 -15t-5 -15q-4 -9 -5 -16q-2 -4 -3.5 -8t-1.5 -8q1 -5 10.5 -4t11.5 1q9 1 18 1h17q17 1 34 1t34 -4
q8 -2 15 -2t14 -2q5 -2 12 -5.5t9 -8.5q1 -3 -1 -6.5t-3 -5.5q-1 -3 -1.5 -6.5t-2.5 -5.5q-5 -6 -11 -7t-13 -2q-17 -1 -33.5 -1.5t-33.5 -2.5t-33.5 -2.5t-33.5 -2.5q-4 0 -7.5 -0.5t-8.5 -1.5h-6.5t-5.5 -2t-3 -5l-2 -6q-2 -4 -3 -8t-3 -9q-2 -8 -1.5 -16.5t-1.5 -16.5
t-4 -17.5t-6 -17.5q-5 -8 -4.5 -15.5t-3.5 -15.5q-1 -4 -3 -7t-4 -7q-2 -3 -4 -8t-5 -8q-6 -5 -9 -11.5t-6 -13.5q-2 -4 -3.5 -6.5t-3.5 -6.5q-3 -4 -3 -7.5t-1 -8.5q-1 -6 -8 -11q-2 -2 -4 -5.5t-4 -5.5t-5 -2.5t-5 2.5q-2 4 -4 -1.5t-2 -6.5q-4 2 -2 2t2 -2z" />
    <glyph glyph-name="dollar" unicode="$" horiz-adv-x="459" 
d="M210 41q0 -5 2 -5.5t6 1.5q8 4 14.5 7.5t13.5 7.5q5 3 11 6t8 8q3 7 4 15t2 15q2 7 3.5 14t3.5 14t3.5 14t-0.5 15q-2 15 -8 29.5t-14 27.5q-2 2 -3.5 5t-3.5 5t-3.5 5.5t-4.5 4.5q-2 0 -3.5 -1t-3.5 -2q-2 -2 -2.5 -4t-1.5 -5l-2 -14l-2 -14q-1 -8 -1.5 -16t-1.5 -16
q-2 -30 -6 -60q-1 -8 -1.5 -15.5t-1.5 -15.5q-1 -3 -1 -7t-2 -6q-4 -5 -4 -13zM102 449q1 -7 3 -13t4 -13q3 -13 12 -22q5 -5 10 -7.5t11 -6.5q7 -5 14 -8.5t14 -8.5q2 -2 10 -7t8 1q2 9 2.5 17.5t1.5 17.5q2 17 3.5 33.5t3.5 33.5t3.5 33t3.5 33v6.5t-3 4.5q-6 4 -11 7
q-6 2 -13 0t-12 -5t-8 -7.5t-9 -5.5h-6t-5 -2q-8 -6 -11 -10q-10 -12 -15 -26.5t-8 -30.5q-1 -4 -3 -14q0 -2 0.5 -0.5t0.5 2.5v1zM322 16q-5 7 -10.5 2.5t-10.5 -7.5q-13 -9 -28 -17q-29 -18 -59 -22q-4 -1 -11.5 -0.5t-9.5 -4.5q-1 -3 -1 -6.5v-6.5q-1 -5 -1.5 -9.5
t-1.5 -9.5q-2 -15 -6 -29.5t-6 -30.5q0 -7 -5 -9t-10.5 -0.5t-10 6t-5.5 9.5q-1 7 -0.5 15t1.5 15q1 9 2 17.5t2 17.5q1 4 1.5 7.5t1.5 8.5q1 2 2 5.5t0 6.5q-2 3 -7 3l-18 6l-14 4t-13 6q-8 5 -15.5 8t-15.5 7q-14 8 -27 16.5t-24 19.5q-5 5 -10 9.5t-7 11.5q-4 8 -6 15
t-4 15q-3 8 -6.5 14.5t-5.5 14.5t-2.5 16.5t-0.5 16.5q0 7 0.5 14.5t5.5 12.5t13.5 4t14.5 -3l12 -4t11 -7q10 -12 15 -26q6 -15 14 -28.5t16 -27.5q5 -7 8.5 -13t8.5 -13q5 -6 9.5 -11t11.5 -8l14 -6l14 -6q3 -2 6 -3.5t6 -1.5t3.5 3.5t0.5 5.5q1 17 3.5 34t4.5 34
t4.5 33.5t3.5 33.5q2 17 3 34.5t4 34.5q1 7 2.5 13.5t-5.5 11.5q-8 4 -15 8t-15 8q-14 8 -28.5 13.5t-28.5 13.5t-25.5 17t-20.5 22q-5 4 -8.5 10t-6.5 12q-4 7 -4.5 14t-1.5 15t-2.5 14.5t-0.5 14.5q0 4 1 7.5t2 7.5q1 5 1.5 9t1.5 8q7 30 21.5 58.5t39.5 47.5q12 10 25 18
t27 15q7 3 13.5 6t13.5 5q17 5 31 5q10 1 12 13q2 8 2.5 16t2.5 16q2 17 4.5 33.5t7.5 32.5q5 15 16.5 10t16.5 -15q4 -8 7 -12q5 -5 5 -11q2 -8 -2 -14.5t-7 -13.5t-4 -14.5t-3 -15.5q-1 -2 -2 -6t0 -7q2 -3 6 -3.5t7 -1.5q16 -4 31 -8t29 -12q13 -7 25 -16.5t20 -21.5
q9 -13 15.5 -26.5t11.5 -28.5q2 -7 4.5 -13.5t3.5 -14.5q2 -8 2 -17v-17v-13.5t-6 -10.5q-2 -2 -4.5 -2t-4.5 -2t-4 -4.5t-4 -4.5q-6 -5 -13 -6t-14 0.5t-14 4.5t-13 5q-14 5 -23.5 12t-11.5 21q-1 8 -2.5 14t-6.5 12q-6 7 -12 13l-12 12q-1 1 -3.5 4t-6 6.5t-6.5 5.5t-4 0
q-2 -3 -1.5 -7.5t-0.5 -7.5q-1 -4 -2.5 -7l-3.5 -7q-4 -16 -3.5 -32.5t-0.5 -32.5q0 -17 -4 -30q-3 -8 -3 -14q1 -5 3 -8t3 -8q2 -8 0 -14t3 -8q8 -3 15.5 -5.5t14.5 -6.5l30 -15q7 -4 13 -7.5t11 -9.5q5 -7 8.5 -12.5t10.5 -9.5q4 -2 7.5 -4.5t6.5 -4.5q7 -3 14 -8
q2 -2 2.5 -5t2.5 -5q2 -3 4.5 -5.5t4.5 -5.5q11 -12 15 -28q1 -4 1.5 -7t-0.5 -7t0 -8.5t2 -8.5q2 -9 2.5 -17.5t1.5 -16.5v-16.5t-1 -16.5q0 -4 -1.5 -6t-3.5 -5q-2 -4 -1 -8t-1 -8q-3 -7 -10.5 -11.5t-12.5 -9.5q-6 -5 -12 -9l-12 -8q-7 -4 -9.5 -8.5t-4.5 -11.5
q-1 -2 -3 -2t-4 -1q-2 0 -4.5 -2t-4.5 -4q-2 4 0 2.5t0 -2.5z" />
    <glyph glyph-name="percent" unicode="%" horiz-adv-x="562" 
d="M151 437q0 1 3 1h5q6 0 9 4q3 5 6 9t5 9q3 5 3.5 10.5t2.5 10.5q2 7 3.5 13t3.5 13q4 11 6.5 23t-2.5 23q-3 10 -12 17q-5 3 -9.5 2.5t-9.5 -2.5q-4 -2 -9 -2q-2 0 -5 0.5t-5 -0.5t-6 -7q-3 -3 -7 -9q-7 -10 -10.5 -21.5t-6.5 -22.5q-6 -22 -1 -47q2 -11 14 -16t22 -8z
M141 640q15 -1 28.5 -5t25.5 -13q5 -5 11.5 -8.5t11.5 -8.5t7.5 -12t4.5 -14q2 -8 4 -14.5t4 -14.5q3 -17 0 -34q-2 -15 -6.5 -29.5t-11.5 -27.5q-8 -14 -19.5 -25.5t-23.5 -21.5q-6 -5 -11.5 -5t-13.5 -1t-16.5 -1.5t-17.5 -1.5q-8 -1 -14 -0.5t-13 5.5q-7 3 -13 8
q-2 2 -3.5 5.5t-3.5 6.5q-2 2 -5 4t-5 4q-6 8 -8 11q-4 8 -6.5 15t-6.5 15q-6 14 -8 26.5t0 27.5q2 14 5.5 28.5t11.5 27.5q8 12 19 19t22 15q6 4 12 8.5t13 6.5q11 4 26 4q5 0 3.5 0h-4h-3.5t4 0zM509 101v12t-1 11t-1 14q-1 3 -0.5 6t-1.5 6q-2 4 -9 5.5t-12 3.5
q-11 4 -27 -1q-6 -2 -12.5 -4t-12.5 -5q-5 -2 -9 -7.5t-7 -10.5t-5.5 -11t-4.5 -12q-3 -6 -5 -12t0 -13q3 -12 6.5 -24t9.5 -23q11 -23 39 -13q11 5 18 15.5t14 20.5q4 5 7 10.5t7 10.5l6 10t1 11q0 1 0.5 0t0.5 -2v-1zM454 -6q-8 -1 -15.5 -1.5t-15.5 0.5t-15.5 3t-15.5 4
q-6 2 -11.5 3.5t-10.5 6.5q-7 6 -13 12l-12 12q-10 14 -13 26l-4 16t-1 16q1 16 4 32t9 30t15 26.5t19 24.5q9 11 21 22t26 17q13 4 28 3q17 -2 32 -7q6 -2 11 -5.5t10 -7.5q5 -3 10.5 -4.5t9.5 -6.5q2 -3 2 -6t2 -6q1 -2 2 -3.5t2 -3.5t0 -3t-1 -3q0 -3 2.5 -6t4.5 -5
q2 -4 3.5 -8t3.5 -9q5 -18 5.5 -38.5t-3.5 -39.5q-4 -9 -5 -17q-1 -5 -2 -8.5t-3 -7.5q-3 -3 -6 -4.5t-4 -5.5q-3 -8 -9 -16q-6 -7 -13 -14t-15 -12q-7 -4 -17 -6q-2 0 -9.5 -1t-7.5 1zM131 1q11 32 23.5 62.5t24.5 61.5q13 32 24 64t25 64q26 63 53.5 125t56.5 125
q14 31 28.5 61.5t28.5 60.5q4 8 7 14.5t7 13.5q3 6 6.5 14t10.5 10t12.5 -4t9.5 -9q5 -5 10.5 -9t8.5 -11q4 -13 -2 -25q-3 -8 -6 -15.5t-6 -15.5q-6 -15 -12.5 -30.5t-14.5 -29.5q-16 -29 -32.5 -57.5t-32.5 -57.5q-2 -3 -3.5 -6.5t-4.5 -5.5q-4 -4 -7 -10q-4 -6 -6 -13
l-4 -14q-5 -16 -10 -31t-10 -31q-6 -16 -11.5 -31.5t-13.5 -31.5q-2 -6 -4 -13t-7 -12q-8 -11 -15 -26l-12 -30q-2 -8 -6.5 -13.5t-7.5 -12.5q-6 -16 -11.5 -31t-11.5 -31q-3 -7 -7.5 -12t-8.5 -11q-5 -7 -8.5 -14t-7.5 -14t-7.5 -14t-7.5 -14q-2 -4 -5 -11t-8 -7
q-11 1 -19 8.5t-6 19.5q1 3 0 -1t0 1z" />
    <glyph glyph-name="ampersand" unicode="&#x26;" horiz-adv-x="590" 
d="M238 414q-5 4 -9.5 7.5t-9.5 8.5q-9 9 -16 23q-8 13 -10.5 28t-2.5 29q-2 31 14 55q8 12 16.5 23t21.5 19q14 8 29 9.5t30 3.5q8 1 15 0t15 -2q7 -1 15 -2.5t13 -6.5q2 -2 5 -2.5t5 -2.5t3.5 -4t3.5 -4q3 -5 4.5 -11.5t3.5 -12.5q4 -13 2 -30q-1 -8 -2.5 -16.5
t-5.5 -14.5t-9 -10.5t-10 -8.5q-5 -5 -11 -8.5t-13 -4.5q-5 -2 -11 -1.5t-10 5.5t-3 13t2 14q1 8 1 16t2 16q0 4 1 7t1 8q0 9 -3 17q-2 6 -5.5 13.5t-10.5 9.5q-5 3 -12.5 2.5t-12.5 -3.5q-13 -7 -21.5 -18.5t-16.5 -22.5q-5 -7 -6 -12t-1 -13q0 -15 6 -31q6 -12 12.5 -26
t17.5 -23q2 -2 5 -3.5t5 -3.5t4 -5t4 -5q11 -11 24 -17q5 -3 10.5 -6t9.5 -8l2 -4t-1 -4t-6 -3t-7 -1q-8 -1 -15.5 -0.5t-15.5 -0.5q-4 -1 -7.5 -1.5t-8.5 -0.5q-5 -1 -7.5 -3t-6.5 -4q-6 -5 -12.5 -7t-12.5 -6q-7 -4 -13 -10t-12 -11q-12 -11 -22 -23.5t-19 -26.5
q-4 -7 -6.5 -14t-4.5 -15t-5 -16.5t-5 -16.5t-4.5 -15.5t-3.5 -15.5v-35v-33q0 -8 3 -16t5 -16q2 -7 6 -12.5t6 -12.5q2 -3 2.5 -6t2.5 -5q2 -3 5 -6l6 -6q10 -10 16.5 -21.5t17.5 -19.5q6 -4 12 -6t12 -6q7 -5 14.5 -7t15.5 -4q8 -3 16 -4.5t16 -3.5t16.5 -4.5t16.5 -2.5
q16 0 31.5 2t31.5 4q33 2 60 15q14 7 28.5 13t26.5 16q5 5 9.5 11.5t8.5 12.5q5 7 10.5 13.5t9.5 14.5q4 6 5.5 13t3.5 15t4 16.5t1 17.5q-1 16 -4 32.5t-7 32.5q-4 15 -9.5 30t-14.5 28q-8 12 -18.5 23t-24.5 18q-13 6 -28.5 8.5t-29.5 1.5q-4 0 -7.5 -1t-6.5 -2
q-10 -2 -14 -4q-7 -3 -14 -3t-13 -4q-12 -6 -20.5 -18.5t-15.5 -23.5q-4 -6 -4.5 -12.5t-1.5 -14.5t-1 -16.5t2 -16.5q3 -13 14 -23t22 -16q7 -3 13 -5.5t14 -1.5q4 1 7 2t7 3t8 3.5t7 4.5q4 4 4 12.5t-5 11.5q-5 4 -11.5 8t-10.5 10q-8 10 -6 25t13 22q15 10 30.5 5.5
t28.5 -12.5q6 -4 11 -7.5t7 -10.5q3 -19 -3 -32q-3 -7 -7 -13.5t-9 -12.5l-4 -6t-5 -5q-4 -2 -7.5 -4.5t-8.5 -4.5q-14 -8 -28 -15t-31 -5q-14 2 -27.5 9t-23.5 17q-22 20 -26.5 49.5t5.5 56.5q5 14 16 25t22 20q5 5 11.5 8.5t12.5 7.5q3 2 6.5 4t6.5 4t6.5 3t7.5 3
q14 7 28.5 13.5t31.5 9.5q7 1 14 6t13 9q7 5 14.5 9t13.5 10q5 5 8 11.5t5 13.5q7 14 12 32q5 11 2 28q-1 6 -3.5 14t-8.5 12q-5 3 -13 4t-14 2q-14 2 -24 -7q-5 -4 -8 -9.5t-5 -11.5q-1 -2 -2 -4.5t1 -4.5t6 -1.5t7 0.5q6 0 12.5 -2t10.5 -7q5 -5 4.5 -11.5t-5.5 -11.5
q-9 -9 -23 -11q-8 -2 -14 1.5t-11 8.5q-5 4 -9 9t-5 12q-1 5 1 13l3 15q6 24 32 34q13 6 28 6q15 1 29 -7q6 -3 12.5 -6t11.5 -8t9.5 -11t9.5 -12q6 -9 5 -19.5t-2 -20.5q-2 -21 -14 -40q-11 -18 -27 -31t-33 -27q6 -3 12.5 -5.5t12.5 -6.5q15 -8 27 -18q6 -5 10 -10.5
t9 -10.5q5 -6 10 -12.5t10 -12.5q19 -27 23 -55q0 -4 0.5 -7.5t0.5 -8.5l3 -15q4 -16 1 -35q-1 -8 -2.5 -15t-3.5 -15t-5 -12q-2 -3 -3 -7t-3 -8q-5 -14 -14 -25.5t-19 -24.5q-9 -12 -19 -22.5t-22 -19.5q-6 -4 -12 -7.5t-12 -6.5q-7 -4 -14 -5t-14 -4q-6 -3 -12 -6.5
t-13 -5.5q-4 -1 -7.5 -1t-7.5 -2q-8 -5 -16 -6q-16 -4 -31.5 -2t-31.5 0q-8 -2 -16 -3.5t-16 -2.5q-8 0 -16.5 1t-16.5 3l-30 4t-29 9q-6 3 -12 6.5t-13 6.5q-8 4 -15 7t-14 7q-12 7 -25 12.5t-24 13.5q-12 8 -21.5 19.5t-17.5 22.5q-8 12 -16.5 26t-10.5 29q-1 6 -3 12.5
t-4 12.5q-5 15 -5 28v28q0 7 -0.5 13.5t-0.5 12.5q0 23 11 45q4 11 14 21q4 5 6.5 11t6.5 11q13 19 29 34q11 8 21.5 15t21.5 14q11 8 21.5 15t22.5 12q6 2 12 3.5t13 3.5q5 1 9 1.5t8 3.5q-2 1 -2.5 -0.5t2.5 0.5z" />
    <glyph glyph-name="quotesingle" unicode="'" horiz-adv-x="141" 
d="M101 458q-2 2 -2.5 3.5t-2.5 3.5q0 -4 -0.5 -8t-0.5 -8q-1 -3 -1 -7t-2 -6t-4 -5.5t-5 -3.5h-15q-3 0 -5 -1t-4 -3q-2 -1 -5 0.5l-5 2.5q-12 5 -16 16q-2 7 -3 14.5t-2 14.5q-2 9 -2.5 18t-1.5 18q-2 17 -1.5 34.5t1.5 34.5q0 16 3 31q1 8 2 15.5t4 13.5q5 11 18.5 8
t21.5 -6q8 -4 12 -5q4 0 6.5 1t5.5 2q6 2 11 -4.5t7 -11.5q6 -11 6 -24q0 -8 0.5 -16.5t0.5 -16.5q1 -14 0 -28.5t-3 -28.5q-2 -13 -3.5 -22t-8.5 -20q-4 -6 -6 -6z" />
    <glyph glyph-name="parenleft" unicode="(" horiz-adv-x="278" 
d="M255 -162q-2 -2 -2 0q-4 1 -8 1.5t-8 1.5q-8 3 -14.5 7t-14.5 7q-7 3 -14 5t-14 5q-14 6 -22 17l-16 22q-5 7 -10 13.5t-9 14.5q-5 6 -7.5 13t-6.5 14q-8 15 -13 31t-12 32q-6 15 -11 31l-10 32q-2 8 -4.5 16t-4.5 16q-1 6 -5 11q-2 5 -2 13q-1 17 -4 32.5t-5 32.5
q-2 8 -1.5 16.5t0.5 17.5q0 8 -0.5 15.5t-1.5 15.5q-1 9 -0.5 17.5t0.5 17.5q0 8 -1.5 15.5t-2.5 15.5v31t4 31q2 8 3.5 17t3.5 17t4 15t2 15q1 5 0 8.5t-2 8.5q0 4 2 14q4 13 11 28q4 8 8 15t6 15q2 7 4 13.5t6 12.5q8 14 17.5 24.5t20.5 21.5t24 19t28 11q8 2 15.5 4
t16.5 4q7 1 14 2.5t14 -0.5q6 -1 11 -4.5t7 -9.5t-2 -9t-9 -6q-4 -2 -7.5 -3.5t-6.5 -3.5q-4 -2 -7.5 -3.5t-7.5 -3.5q-3 -2 -6.5 -2.5t-5.5 -2.5l-6 -4l-6 -4t-6 -4.5t-5 -6.5q-3 -4 -3 -14q0 -8 -0.5 -15.5t-0.5 -15.5q-1 -17 -2.5 -33.5t-3.5 -33.5t-3.5 -33.5
t-1.5 -33.5q1 -8 1 -17v-17t-0.5 -15t1.5 -15q4 -33 6 -67q1 -17 1.5 -34t1.5 -34q2 -34 1 -67.5t0 -67.5q0 -17 0.5 -34t1.5 -34q1 -9 1 -17t2 -16t3.5 -15.5t3.5 -15.5q2 -9 4 -17.5t4 -16.5t5 -13t10 -9q14 -8 29.5 -13t30.5 -9l14 -4t12 -6q5 -3 8 -8.5t1 -10.5
q-5 -8 -11 -7.5t-12 2.5q-8 3 -12.5 1.5t-12.5 -3.5z" />
    <glyph glyph-name="parenright" unicode=")" horiz-adv-x="288" 
d="M30 -162q-8 2 -12 3.5t-12 -1.5q-7 -2 -13 -2.5t-10 7.5q-3 5 0.5 10.5t7.5 8.5q6 4 13 6t13 4q16 4 31.5 9t29.5 13q11 7 14 22q2 8 4 16.5t4 17.5q2 8 4 15.5t4 15.5t2 16v17l2 34t1 34q0 34 -1 67.5t1 67.5q1 17 1.5 34t1.5 34q2 17 2.5 33.5t3.5 33.5q2 8 1.5 15
t-0.5 15t0.5 17t0.5 17q0 17 -1 33.5t-3 33.5q-4 32 -6 67q-1 8 -1 15.5t-1 15.5q0 10 -2 14t-5 6.5t-6 4.5l-6 4l-6 4t-6.5 2.5t-6.5 2.5q-4 2 -7.5 3.5t-6.5 3.5q-10 4 -14 7q-5 3 -9 6t-2 9q3 12 17 14q7 2 14.5 0.5t14.5 -2.5l16 -4l16 -4q14 -3 27.5 -11t24.5 -19
t20.5 -21.5t17.5 -24.5q3 -6 5 -12.5t4 -13.5q3 -8 6.5 -15l7.5 -15q7 -15 11 -28q1 -4 2 -7.5t0 -6.5q-1 -5 -1.5 -8.5t-0.5 -8.5q1 -8 2.5 -15t3.5 -15t3.5 -17t3.5 -17q3 -16 3.5 -31t0.5 -31q0 -8 -1.5 -15.5t-1.5 -15.5q-1 -9 -0.5 -17.5t-0.5 -17.5q0 -8 -0.5 -15.5
t-0.5 -15.5v-17.5t-1 -16.5q-2 -17 -5.5 -32.5t-3.5 -32.5q0 -8 -2 -13q-4 -5 -5 -11q-4 -8 -6 -16l-4 -16l-10 -32t-11 -31q-7 -16 -12 -32t-13 -31q-4 -7 -6.5 -14t-6.5 -13q-5 -8 -9.5 -14.5t-9.5 -13.5q-9 -11 -17 -22t-22 -17q-7 -3 -13.5 -5t-13.5 -5q-8 -3 -15 -7
t-15 -7q-4 -1 -7.5 -1.5t-8.5 -1.5q0 -2 -2 0z" />
    <glyph glyph-name="asterisk" unicode="*" horiz-adv-x="299" 
d="M182 563q10 7 14 9.5t14 10.5q5 3 10.5 6.5t10.5 5.5q6 3 12.5 3.5t13.5 1.5q-2 -5 -2.5 -11.5t-3.5 -9.5q-4 -4 -7.5 -7t-7.5 -7h9q-4 -7 -10 -12.5t-11 -11.5l-9 -9q-3 -2 -5 -5.5t-4 -5.5q-4 -4 -9.5 -7.5t-7.5 -8.5q-1 -2 -1 -5t2 -5q4 -2 7.5 -4.5t7.5 -4.5
q14 -8 27.5 -17t24.5 -20q5 -5 10 -11.5t10 -12.5q2 -2 2 -6v-7t-2 -4q2 -2 2.5 -4t2.5 -4q-2 -1 -2.5 -0.5t-2.5 -0.5t-2.5 -1.5t-2.5 -1.5q-3 -1 -5.5 0.5t-4.5 3.5q-6 4 -13 7t-13 7q-7 4 -12.5 9t-11.5 9q-14 11 -28 18q-3 2 -6.5 3t-6.5 3q-4 2 -4.5 -2t-0.5 -6
q-1 -9 -2 -17l-2 -16q-1 -4 -0.5 -8t-0.5 -8q0 -3 -1.5 -6.5t-3.5 -6.5q-3 -5 -6.5 -9t-9.5 1q-11 7 -12.5 21t-2.5 26v13.5t-5 10.5q-3 0 -6 -2t-5 -4q-5 -5 -13 -11q-5 -4 -11 -7t-11 -8t-9 -8.5t-11 -5.5q-5 -2 -12.5 -2t-12.5 2q-5 3 -3 10t4 12q3 5 7 9.5t8 9.5l18 21
q10 10 21 18.5t22 16.5q-9 11 -23.5 16.5t-25.5 15.5q-5 5 -10 10.5t-10 10.5q-4 5 -9 10.5t-4 11.5q0 6 5 7.5t10 1.5q8 0 15.5 -3t15.5 -8q27 -14 56 -31q2 11 3 22.5t2 22.5q0 3 0.5 9.5t1.5 13t4 11t8 4.5q8 0 12.5 -10t6.5 -16q2 -5 2 -10t1 -10l2 -12l2 -12q8 5 7.5 5
t3.5 3z" />
    <glyph glyph-name="plus" unicode="+" horiz-adv-x="444" 
d="M224 130h-6.5t-5.5 -3q-2 -1 -2 -2.5t-1 -3.5q-2 -5 -6 -9q-1 -1 -5.5 -6t-6.5 -5q-4 1 -5.5 -2.5t-3.5 -6.5q-2 3 -6 11q-2 -2 -5 -3t-5 -3l-4 -4t-4 -3q-8 -2 -11 2.5t-4 10.5q-1 7 -4 12q-5 5 -6 11q-2 8 -1.5 17t1.5 17l2 34l2 34q1 8 1 16t1 16q0 7 -5 8
q-4 0 -8 0.5t-9 1.5l-14 4l-14 4q-8 2 -15 5.5t-14 6.5l-13 6.5t-12 8.5q-6 6 -2.5 12t9.5 8q16 6 31 10t32 8q8 2 15.5 4t15.5 3q2 1 6 1t6 2t2 7t1 8q4 34 8.5 67.5t12.5 66.5q2 6 5.5 8t8.5 4q8 2 15 4.5t15 1.5q7 -1 13.5 -3t11.5 -7q3 -2 4.5 -4.5t3.5 -4.5
q3 -2 6.5 -4t6.5 -4q11 -9 15 -20q4 -8 3 -15t-3 -15q-2 -17 -5 -34t-5 -34q-2 -8 1 -9.5t11 -0.5t17 2l18 2q16 2 32 2.5t31 -4.5q11 -5 17 -12.5t13 -15.5t14.5 -19t2.5 -22q-5 -13 -17.5 -13.5t-23.5 -0.5q-14 -1 -28.5 -1t-28.5 -2t-27.5 -4t-27.5 -3q-3 0 -6 -0.5
t-6 -0.5q-2 -1 -5 -1q-3 -1 -3 -2t-1 -4q-2 -7 -3 -13t-2 -14q-2 -14 -2 -27.5t-2 -27.5q-1 -7 -2.5 -12.5t-2.5 -12.5q-2 -8 -3 -14.5t-3 -14.5q-4 -1 -4 -0.5t-2 0.5z" />
    <glyph glyph-name="comma" unicode="," horiz-adv-x="108" 
d="M24 -156q-1 0 -1.5 1.5t-3.5 2.5q-3 0 -5 1q-1 1 -2 1.5t-2 1.5q-8 6 -10 10t-2 8.5v8.5q0 8 0.5 16t1.5 16q2 9 2.5 18t2.5 18q3 17 6 33.5t7 33.5q2 8 3.5 14.5t3.5 14.5q2 5 9.5 8.5t12.5 3.5q13 1 23 -9.5t15 -21.5q3 -6 5.5 -12.5t3.5 -12.5q1 -8 -1.5 -15.5
t-4.5 -14.5q-3 -8 -5.5 -14.5t-6.5 -13.5q-4 -8 -8 -14.5t-6 -14.5q-5 -14 -6 -28q-2 -6 -5 -7q-3 -2 -4.5 -2.5t-2.5 -4.5q0 -11 -4 -17t-12 -12q-2 4 -2 2.5t-2 0.5z" />
    <glyph glyph-name="hyphen" unicode="-" horiz-adv-x="462" 
d="M443 334q2 -1 1.5 -1t1.5 -2q-4 -1 -7 -2t-7 -2q-3 -1 -2.5 -5.5t0.5 -7.5l-3.5 -3.5t-5.5 -2.5q-2 -1 -2.5 -1t-2.5 -1q-3 -1 -3 -1.5t-1 -2.5q-2 -3 -7 -3q-4 0 -10 -2q-2 0 -3.5 -0.5t-3.5 -0.5q-1 0 -2.5 1t-2.5 0q-4 -2 -7.5 -4t-7.5 -4q-6 -3 -12.5 -6.5
t-13.5 -3.5q-4 0 -7 1t-6 1q-5 0 -8 -1.5t-7 -2.5q-7 -3 -14 -4.5t-15 -3.5t-12 0q-4 0 -5 3q-2 -1 -5 -1.5t-5 -1.5q-4 0 -7 -1t-6 0q-6 3 -13 1q-8 -1 -15 -1h-15t-14 3q-5 1 -13 -1q-6 -2 -9 0q-2 0 -3 3q-1 2 -8 0q-2 0 -6 -1.5t-6 -0.5q-4 4 -11 0q-15 -6 -31 -1
q-8 2 -14.5 4.5t-14.5 4.5q-14 1 -28 9q-11 6 -21 16t-8 24q2 15 15.5 19t25.5 6q17 2 33 4t33 3q8 1 16.5 0.5t16.5 -0.5q9 0 17.5 0.5t17.5 1.5q34 2 67.5 2t67.5 -3q17 -2 34 -3t34 -1q15 -2 31 0q7 1 13.5 -0.5t8.5 -9.5q1 -5 -5 -11q1 -2 1 -1.5t1 -0.5z" />
    <glyph glyph-name="period" unicode="." horiz-adv-x="130" 
d="M108 33q2 -5 3.5 -5t3.5 -4q4 -5 4.5 -11.5t-0.5 -12.5q-1 -14 -7.5 -25t-13.5 -22q-3 -5 -6 -10.5t-8 -8.5t-12.5 -2.5t-12.5 0.5q-5 1 -9.5 2t-9.5 4q-5 4 -7.5 9t-7.5 8q-9 7 -11 18t0.5 23t8 23t10.5 19t13 14.5t19 6.5q15 1 22.5 -5t18.5 -14q2 -4 2.5 -4.5
t-0.5 -2.5z" />
    <glyph glyph-name="slash" unicode="/" horiz-adv-x="245" 
d="M7 -36q7 32 14.5 60.5t15.5 60.5q8 33 16 66.5t16 66.5q17 66 36.5 131.5t39.5 131.5q10 32 20 64.5t21 64.5q2 8 4.5 15.5t5.5 15.5q2 6 5 14.5t11 10.5q6 2 12.5 -4t11.5 -8q6 -4 11 -7.5t8 -10.5q5 -11 1 -27q-3 -9 -5 -17.5t-4 -16.5q-5 -17 -9.5 -33t-10.5 -32
q-7 -17 -13.5 -32t-13.5 -31q-6 -16 -11.5 -31.5t-12.5 -30.5q-1 -3 -3 -5.5t-4 -5.5q-2 -4 -4 -12t-3 -17t-3 -17q-2 -17 -6 -33t-7 -33l-4 -16l-4 -16t-4 -15.5t-4 -15.5q-2 -7 -5.5 -12.5t-5.5 -11.5q-6 -18 -9 -32q-2 -8 -3.5 -15t-5.5 -14q-3 -7 -5 -14.5t-4 -15.5
t-4 -15.5t-4 -15.5t-3 -16t-6 -15q-9 -13 -14 -27.5t-11 -29.5q-2 -7 -5.5 -14t-5.5 -15q-2 -5 -6 -5t-9 1q-8 1 -13.5 8t-5.5 15q1 3 0.5 3.5t1.5 5.5z" />
    <glyph glyph-name="zero" unicode="0" horiz-adv-x="499" 
d="M479 336q2 -17 0.5 -33t-3.5 -33t-4 -33l-4 -32q-2 -17 -8 -33t-11 -32l-12 -36q-3 -9 -6.5 -17.5t-8.5 -16.5q-5 -6 -10 -12.5t-11 -12.5l-11 -11q-2 -3 -4.5 -7t-5.5 -7q-2 -3 -5 -5.5t-5 -5.5q-3 -2 -5 -5t-4 -5q-12 -9 -29 -16q-8 -4 -17 -6l-18 -4l-18 -3
q-7 0 -10 -1q-2 0 -5 -0.5t-3 1.5q-8 -2 -14.5 -3t-14.5 0q-16 3 -30 11q-14 7 -27.5 10t-27.5 11q-13 8 -22.5 18.5t-17.5 23.5q-16 26 -29 57q-14 31 -19 63t-7 65q-2 34 0.5 68t11.5 67q9 32 19 63.5t27 60.5q15 28 35 52.5t43 47.5q12 12 24.5 22t25.5 20q6 5 12.5 9
t12.5 9l14 8t15 6t13.5 0.5t13.5 -3.5t15.5 -1.5t15.5 -0.5q16 -2 28.5 -10.5t25.5 -18.5q9 -8 11 -20q2 -8 4.5 -13.5t6.5 -12.5q4 -6 7.5 -12.5t5.5 -13.5q1 -4 1 -7.5t1 -6.5q1 -5 2.5 -8l3.5 -7q8 -14 11 -29t8 -30q4 -15 7 -31t5 -32q1 -8 1 -15.5v-15.5q0 -9 -0.5 -18
t0.5 -17zM437 236q-1 8 -2.5 16t-0.5 16q1 16 4 32t1 32t-4.5 31.5t-4.5 31.5l-4 32t-6 32l-8 30t-11 29q-2 4 -3 7t-3 7q-2 3 -3 6t-3 5q-4 4 -11.5 4h-12.5q-1 0 -3 0.5t0 -0.5q-7 2 -12.5 -3t-10.5 -9q-6 -5 -12.5 -10t-12.5 -10q-11 -11 -19.5 -24t-19.5 -24
q-20 -23 -34.5 -50.5t-23.5 -56.5q-5 -16 -9 -32t-6 -32q-2 -8 -2 -15.5t-1 -15.5q-2 -8 -3 -16.5t-1 -16.5t0.5 -15t0.5 -15q0 -3 -0.5 -6.5t0.5 -6.5q-6 -14 -4.5 -27.5t5.5 -27t9 -27t7 -27.5q1 -7 4.5 -11t8.5 -6l9 -9q3 -4 6.5 -6.5t7.5 -4.5q5 -6 14 -8q6 -3 12 -5.5
t12 -1.5q5 1 10.5 3.5t10.5 5.5q24 2 41 23q3 4 5.5 7.5t4.5 7.5q5 5 9.5 8.5t9.5 6.5q6 5 10.5 9t8.5 11t7 14.5t5 15.5q6 17 11.5 33t10.5 32q2 8 4.5 15.5t1.5 15.5z" />
    <glyph glyph-name="one" unicode="1" horiz-adv-x="351" 
d="M115 55h9.5t6.5 6q2 9 2.5 18t2.5 18q2 17 5 33t4 33q1 33 8 66t13 65q3 17 5.5 33.5t4.5 33.5t3 33t3 33t3.5 33t4.5 32q2 8 3 15.5t3 15.5q0 4 -1 6t-5 1q-5 -1 -8.5 -3.5t-7.5 -4.5q-7 -4 -14 -6.5t-15 -5.5t-15 -6t-15 -7q-8 -3 -14.5 -6t-13.5 -6q-5 -2 -11.5 -4
t-11.5 3q-4 5 -3.5 10.5t5.5 8.5q8 5 15.5 8.5t14.5 8.5q14 8 26.5 18t25.5 20t26 19t27 19q6 4 13 8t10 10q3 7 4.5 14t4.5 14q2 5 6.5 11.5t9.5 9.5t13.5 0.5t13.5 -4.5q16 -5 27 -13q8 -6 12 -8q3 -2 5 -6t4 -7q9 -13 14 -27.5t3 -30.5q0 -8 -2 -15.5t-4 -15.5
q-2 -9 -3.5 -17.5t-3.5 -17.5q-2 -17 -6 -33.5t-6 -33.5q-1 -8 -0.5 -16t-0.5 -16l-3 -36q-2 -8 -1.5 -16t-1.5 -16q-1 -8 -2.5 -17t-3.5 -18q-3 -16 -5 -32t-7 -32q-5 -17 -9.5 -32.5t-7.5 -32.5q-6 -30 -15 -64q-2 -7 -4.5 -13.5t-5.5 -14.5q-2 -3 -5 -13t1 -13
q2 -2 5.5 -1t6.5 1q8 2 14 4q16 4 33 3q18 -2 30 -7q5 -2 8.5 -5t5.5 -8q1 -5 -1 -9.5t0 -9.5q2 -8 -2 -10.5t-9 -4.5q-6 -2 -7.5 -6.5t-7.5 -5.5q-14 -3 -27 5q-6 5 -11 7.5t-13 4.5q-15 1 -34 -2q-8 -1 -15 -2t-15 -2q-14 -1 -28 -10q-7 -5 -12 -2t-10 7q-7 4 -13 2.5
t-13 -1.5q-6 0 -12.5 -0.5t-12.5 -0.5q-7 0 -13 1l-12 2t-11.5 1.5t-10.5 3.5q-6 3 -10 7.5t-8 9.5q-3 4 -5.5 7t-0.5 8t7 6t10 3q14 4 28 5t28 3h1h2q1 0 1.5 -0.5t1.5 -0.5h2z" />
    <glyph glyph-name="two" unicode="2" horiz-adv-x="482" 
d="M121 104q-8 -2 -16.5 -3t-16.5 -6q-3 -2 -6 -2t-7 -1q-5 -2 -7 -6l-4 -8q-3 -6 -6.5 -14t0.5 -14t11 -8.5t12 -3.5t9 -2t8 -1q5 -1 9 2t7 6q8 6 14 13.5t11 15.5q3 3 10.5 11.5t3.5 13.5q-2 2 -5.5 2.5t-6.5 1.5q-5 1 -10 1.5t-10 1.5q-3 -1 1.5 -1t-1.5 1zM511 13
q-3 -4 -1 -9t4 -8q-6 -1 -11 -5q-3 -2 -3.5 -4t-2.5 -4q-5 -5 -13 -5t-14 -5q-5 -4 -11 -5t-12 -1q-8 0 -15 0.5t-15 1.5q-31 4 -59.5 18t-54.5 31q-6 4 -12 8.5t-13 7.5q-4 2 -12 4q-4 1 -7 -2.5t-5 -5.5q-5 -5 -10 -11t-12 -11q-6 -5 -13 -9t-14 -9q-7 -4 -14 -5.5
t-15 -3.5t-17 -3t-17 0q-17 2 -33 4t-31 9q-30 13 -50 34q-5 5 -6 11t-1 13q-1 8 -2.5 15t-0.5 15q2 15 12.5 24.5t21.5 17.5q11 10 24 16.5t29 6.5q16 1 31.5 -3.5t32.5 -4.5h6.5t6.5 2t5 5.5t4 6.5q5 8 8.5 15t8.5 15q17 30 30.5 60.5t27.5 61.5q8 15 15 30l14 30
q6 15 10.5 30.5t8.5 31.5q8 33 15 65.5t14 65.5q1 3 2 6.5t0 6.5q-1 4 -7 12q-5 7 -9 11t-12 6t-14.5 2.5t-13.5 1.5h-4t-3 -2q-2 -3 -2.5 -7t-2.5 -7q-7 -13 -18 -23l-22 -20q-11 -11 -16.5 -23t-10.5 -26q-6 -14 -8.5 -29t-12.5 -27q-9 -11 -22 -20t-28 -9q-17 0 -31.5 3
t-28.5 12q-6 3 -11.5 9t-10.5 11q-7 5 -9 11q-2 4 -1.5 8t0.5 9q1 16 4 32.5t8 32.5q5 15 12 28t16 26t18.5 25t22.5 21q11 9 24.5 13t27.5 7l30 6q9 2 17.5 2t16.5 1q16 3 29 -2q3 -1 6 -2.5t7 -2.5t8 -0.5t9 -0.5q14 -3 28 -7.5t26 -12.5q11 -8 21.5 -18t20.5 -21
q22 -23 34.5 -51.5t17.5 -60.5q3 -17 2.5 -33.5t-2.5 -33.5t-4 -33t-5 -33q-6 -32 -13.5 -62.5t-24.5 -59.5q-16 -29 -36 -53q-4 -5 -8.5 -10t-6.5 -13q-2 -7 -6 -12.5t-9 -11.5q-4 -5 -6.5 -11t-7.5 -11l-4 -4t0 -5t6 -4.5t7 -3.5q15 -7 30 -13.5t30 -12.5l30 -12
q8 -3 16 -4t16 -3t16 -3t16 -3q3 -1 6 -1t7 -1t7 -7q2 -2 4 -2.5t-1 -4.5q-2 -3 -1 -6l2 -6q-2 -3 -1.5 0.5t1.5 -0.5z" />
    <glyph glyph-name="three" unicode="3" horiz-adv-x="497" 
d="M383 334q-2 -2 -3.5 -3t-3.5 -3q-5 -4 2 -6.5t9 -3.5q5 -2 9.5 -4.5t8.5 -4.5q16 -10 28 -27q13 -17 19 -37t8 -42q2 -26 0 -51.5t-8 -50.5q-2 -10 -5.5 -21.5t-10.5 -19.5q-8 -10 -16 -15q-10 -6 -13 -15q-2 -6 -7.5 -10t-10.5 -7q-6 -5 -12 -9t-13 -8
q-14 -8 -29.5 -12.5t-30.5 -9.5q-8 -2 -16 -4.5t-16 -3.5t-15 -0.5t-15 1.5l-16 4l-16 4t-14.5 4.5t-14.5 2.5q-31 0 -61 14q-7 4 -13.5 8.5t-11.5 10.5q-13 10 -25 15q-12 7 -21 20t-12 26q-5 14 -4 28t5 28q5 12 12.5 25t18.5 21q8 5 14 3t13 -8q4 -3 3.5 -8t-2.5 -10
q-1 -4 -3 -6t-4 -5q-3 -4 -5 -12t-2.5 -15t-2.5 -14q0 -5 -0.5 -8.5t1.5 -7.5q1 -6 5 -13q7 -13 17 -21q6 -5 12 -9.5t12 -9.5t13.5 -6.5t14.5 -3.5q16 -3 32.5 -4t33.5 2q6 1 14.5 2t13.5 6t9 9.5t9 9.5q11 11 18 24.5t13 27.5q10 26 12 54.5t0 55.5q-2 22 -9.5 43
t-29.5 31q-8 4 -16.5 6t-16.5 4q-10 2 -19.5 3.5t-19.5 0.5q-3 0 -6.5 -0.5t-6.5 -2.5q-5 -2 -8.5 -4.5t-8.5 -2.5q-8 0 -13 4t-10 9t-9 10.5t3 10.5q6 5 13 6t14 4q7 2 11.5 6t9.5 8q6 5 12.5 8t13.5 6q7 2 13 5t13 4q6 1 12 4l12 6q13 5 20 15q11 13 20.5 26.5t20.5 27.5
q4 5 7 12.5t5 14.5q5 15 2 29l-4 16t-3 16q-2 7 -4.5 12.5t-6.5 11.5q-5 6 -9 11t-12 7q-7 2 -11 5.5t-9 8.5q-4 3 -13 3q-10 2 -15 2q-17 2 -29 -1q-8 -1 -14.5 -6t-12.5 -9q-8 -4 -10 -8q-2 -3 -3 -6t-3 -5q-5 -5 -10 -8t-8 -9q-7 -12 -17 -24q-12 -15 -22 -24
q-6 -4 -11 -3q-3 2 -4 4t-3 4t-5.5 1t-6.5 -1q-7 0 -14 3q-5 3 -8.5 8t-6.5 10q-4 8 -1.5 14.5t6.5 14.5q7 13 15 23q6 6 12.5 11.5t12.5 10.5t12 9.5t12 9.5q6 4 13.5 8.5t14.5 5.5q4 1 7 0.5t7 -0.5t14 2q31 9 63 9q17 0 33.5 -3.5t32.5 -8.5q8 -2 15.5 -4.5t15.5 -6.5
q6 -4 12 -8.5t13 -6.5q3 -1 6 0t5 -3q2 -2 2 -5t2 -5q4 -6 10 -11t11 -10q6 -6 11.5 -12t12.5 -11q5 -4 9.5 -7t7.5 -9q4 -7 3.5 -13t1.5 -13q1 -4 2.5 -6.5t3.5 -5.5q2 -4 2 -12q1 -16 -3.5 -30.5t-10.5 -28.5q-3 -8 -7.5 -14t-8.5 -13q-5 -7 -8.5 -13.5t-8.5 -12.5
q-4 -7 -9.5 -12t-10.5 -10l-6.5 -6.5t-7.5 -6.5z" />
    <glyph glyph-name="four" unicode="4" horiz-adv-x="476" 
d="M258 72q-2 16 -2.5 19t1.5 11q3 17 2.5 33t1.5 33q1 4 1.5 7.5t-0.5 8.5l-3 15q-2 8 -2 16.5t-1 16.5t-9 8h-13q-8 1 -17 1t-17 2q-31 4 -65 14q-13 4 -28 11q-8 4 -16 6.5t-16 5.5q-7 3 -13.5 6.5t-13.5 7.5q-3 2 -6 3.5t-6 1.5q-4 -1 -6.5 -1.5t-5.5 1.5q-5 2 -9 9
q-2 2 -5 4.5t-5 4.5q-5 5 -10.5 12t-6.5 14t1.5 14.5l4.5 13.5q4 14 11 31q12 31 25 59q13 30 26 60.5t28 60.5q7 14 15.5 27.5t17.5 27.5q4 5 7.5 10.5t11.5 5.5q7 0 14 -3t13 -6q28 -13 38 -38q6 -13 5 -26q-2 -8 -6 -13t-9 -10q-10 -11 -16 -24.5t-11 -27.5
q-5 -15 -12.5 -29t-15.5 -28q-9 -14 -18.5 -27t-18.5 -27l-18 -24q-2 -4 -6.5 -11t1.5 -11t13.5 -5t14.5 -3q9 -2 17.5 -4.5t17.5 -4.5q17 -4 32.5 -6.5t32.5 -5.5q8 -1 15.5 -2.5t15.5 -3.5q3 -1 6.5 -2t6.5 0q3 2 3 5.5v5.5q2 17 3 33.5t3 33.5q4 33 10.5 66t10.5 66
q5 33 15 64q2 7 4.5 14t6.5 14q3 7 11 5.5t13 -0.5q4 0 6.5 1.5t4.5 2.5q4 2 7 2h6q9 2 13 0q7 -5 14 -11l12 -10t13 -9q6 -4 11.5 -8t10.5 -9q11 -11 16.5 -26t6.5 -30q2 -16 -4 -31t-9 -31q-3 -17 -5.5 -33t-5.5 -33t-6 -33t-7 -33q-2 -8 -3.5 -15.5t-3.5 -15.5
q0 -3 -0.5 -6t2.5 -4q7 -3 17 -3q8 -2 14.5 -2.5t14.5 -2.5t16 -4.5t16 -4.5q5 -1 14 -3t12 -8q2 -2 0.5 -4.5t-2.5 -4.5q-4 -7 -11 -8q-7 -2 -13.5 -3.5t-14.5 0.5t-16.5 2h-16.5h-14l-6 -2l-6 -2q-8 -2 -14.5 -2.5t-10.5 -8.5q-4 -6 -5.5 -13t-2.5 -14q-1 -8 -2 -16.5
t-3 -16.5q-4 -23 -8 -46.5t-8 -46.5q-2 -11 -3 -21.5t-2 -21.5q-1 -6 -0.5 -12t0.5 -12q0 -4 -1.5 -6.5t-3.5 -6.5q-3 -8 -9 -11q-2 -2 -3.5 -1.5t-3.5 -0.5q-4 -1 -7 -6q-2 -4 -5 -7q-2 -2 -4 -1t-4 1q-2 -1 -3.5 -1.5t-3.5 -0.5q-4 -1 -6 5q-2 4 -4.5 7.5t-6.5 6.5
q-3 4 -7 6t-7 6q-7 8 -10.5 24t-6.5 27q-2 6 1 13t1 13z" />
    <glyph glyph-name="five" unicode="5" horiz-adv-x="472" 
d="M44 110q1 16 3 24.5t10 22.5q5 10 17.5 19.5t25.5 4.5q6 -2 5 -8.5t-3 -10.5q-1 -3 -3 -5.5t-3 -5.5q-2 -4 -2.5 -8t-1.5 -8q-2 -8 -4.5 -14.5t-0.5 -15.5q2 -8 2 -16t3 -16q6 -12 17 -19q6 -5 12.5 -10t14.5 -8q8 -2 15 -4.5t15 -6.5q2 -1 3.5 -3t3.5 -4q3 -3 11 -3
t15 2t15 4t15 5.5l15 7.5q6 3 9.5 8t7.5 11q5 8 8.5 15l7.5 15q6 16 12.5 33t8.5 34t2 34.5t1 34.5q2 35 -2.5 69t-18.5 66q-3 7 -6.5 14.5t-8.5 13.5q-3 5 -11 7.5t-13 2.5q-7 -1 -12.5 -4.5t-10.5 -6.5q-6 -4 -11.5 -10t-10.5 -11t-9.5 -9t-6.5 -12q-2 -6 -5 -11.5
t-9 -9.5q-2 -2 -5 -2t-5 -2q-4 -4 -12 -6q-17 -3 -32 1q-14 4 -28.5 10.5t-25.5 17.5t-11 27.5t-1 30.5q-2 17 -1 35t2 35t3 33.5t3 33.5q0 8 0.5 16.5t0.5 16.5t-0.5 16.5t1.5 17.5q1 5 3 12t5 13.5t8 10.5t13 3q7 -2 14.5 -4t12.5 -5q3 -2 5.5 -4t4.5 -4q4 -2 7.5 -2.5
t6.5 -1.5q18 -2 36 -2.5t36 0.5q17 1 35.5 2t35.5 3q18 2 35.5 5.5t34.5 6.5q8 2 14.5 5.5t14.5 8.5q5 3 11 6t12 -3q6 -5 6.5 -12t-2.5 -13.5t-8 -13t-9 -9.5q-6 -5 -12 -7t-13 -4q-8 -3 -16 -5.5t-17 -4.5q-8 -2 -16.5 -2t-16.5 -2q-17 -5 -36 -6q-18 -2 -35.5 -2.5
t-36.5 0.5q-2 0 -5 0.5t-5 -1.5t-1.5 -6t0.5 -6q2 -9 4 -17.5t4 -17.5q3 -18 3 -35.5t-1 -35.5q-1 -8 -1 -16.5v-16.5t5 -5q4 2 8 3.5t9 3.5q18 5 33 5q9 1 17.5 0t17.5 -1q7 0 12.5 3.5t12.5 4.5q8 0 16 -2.5t16 -5.5q30 -10 50 -37q5 -6 7.5 -12.5t6.5 -13.5l8 -14t8 -15
q2 -4 3 -7t2 -8q1 -3 1 -6.5t2 -7.5q2 -8 4 -15.5t4 -16.5q2 -8 3.5 -15.5t2.5 -15.5v-18.5t1 -18.5q1 -18 1 -36t-3 -36q-2 -17 -7.5 -33t-12.5 -31l-15 -30q-3 -7 -7 -13.5t-11 -11.5q-2 -2 -5.5 -3t-6.5 -3q-4 -2 -11 -9q-5 -5 -11.5 -8.5t-14.5 -4.5q-3 -1 -6.5 -0.5
t-6.5 -0.5q-4 -2 -6.5 -3.5t-4.5 -3.5q-7 -5 -14.5 -4t-14.5 -1l-16 -4t-16 -1q-10 1 -17.5 1.5t-16.5 -1.5q-8 -2 -15.5 -1.5t-15.5 1.5t-15.5 1t-15.5 3q-16 6 -28 16.5t-26 17.5q-6 3 -11 6t-10 8t-8.5 11t-6.5 12q-7 14 -11 28t-6 30q-1 11 -0.5 10t0.5 3z" />
    <glyph glyph-name="six" unicode="6" horiz-adv-x="501" 
d="M355 162q-2 1 -2 6.5v7.5q0 4 -0.5 7.5t-1.5 8.5q-2 8 -4.5 16.5t-4.5 17.5q-2 7 -3.5 13.5t-4.5 12.5q-4 8 -9.5 14.5t-10.5 13.5t-9.5 13t-9.5 13q-2 2 -4 4.5t-5 4.5t-7 1.5t-7 0.5q-8 2 -13.5 5.5t-13.5 1.5t-15 -6.5t-14 -7.5q-8 -4 -13 -3q-2 1 -5 2t-5 -1
q-2 -3 -2 -7v-7q-1 -5 -1 -9t-1 -9q-1 -8 -1.5 -15t-2.5 -15q0 -5 -2 -15q0 -5 0.5 -8.5t-0.5 -8.5q-1 -8 -2 -15.5t0 -15.5q-1 -9 0.5 -18t3.5 -17q3 -17 9 -31.5t11 -30.5q2 -4 2 -7.5t1 -6.5q2 -5 4.5 -10t4.5 -10q4 -8 7.5 -16t11.5 -14q12 -11 30 -14q9 -1 13.5 3
t9.5 11q12 16 24.5 30.5t22.5 31.5q11 17 13.5 38t5.5 40zM470 198q1 -8 1.5 -14.5t-0.5 -14.5t-3 -15.5t-4 -15.5q-7 -31 -25 -56q-3 -7 -8 -11q-6 -5 -9 -9q-4 -7 -7.5 -12.5t-8.5 -10.5q-6 -5 -11.5 -10t-10.5 -10t-10.5 -9t-11.5 -8q-2 -2 -5 -3t-5 -3q-2 -1 -4 -3
t-4 -3q-7 -3 -11 -2q-5 0 -8 -1t-7 -2q-15 -5 -31 -11t-32 -6q-32 -1 -64 8t-61 21q-26 11 -41.5 36.5t-24.5 50.5q-2 8 -3 15t-3 15q-3 8 -6 15t-4 15q-5 15 -5.5 31t-1.5 33q-1 33 4.5 66t13.5 65q4 17 10 31.5t12 29.5q15 32 31 57q18 27 38.5 52t45.5 45q12 11 25 20.5
t27 17.5q7 4 13.5 7t13.5 6q2 2 5 3t5 3q3 2 4.5 5t3.5 5q4 4 10.5 5t11.5 2q8 1 17 1.5t18 -0.5q13 0 28 -5q8 -2 12 -6q2 -2 5.5 -4.5t3.5 -5.5q2 -7 -5 -10.5l-11 -5.5q-8 -5 -14 -9.5t-13 -9.5q-5 -5 -10.5 -9.5t-10.5 -10.5q-10 -13 -17 -26q-2 -2 -4 -4.5t-3 -5.5
q-2 -6 -6 -12q-3 -5 -6.5 -9.5t-7.5 -9.5q-3 -5 -7.5 -9t-9.5 -9t-8.5 -11t-7.5 -12q-5 -5 -8 -11t-7 -11q-2 -5 -6.5 -9t-7.5 -9t-5.5 -11t-4.5 -12t-5.5 -11.5t-4.5 -12.5q11 -1 21.5 1.5t21.5 4.5q11 3 23 3.5t24 -1.5q5 -1 10.5 -2.5t11.5 -1.5q5 0 10 1t10 -1
q11 -3 20.5 -8t18.5 -10q9 -6 17 -12.5t16 -14.5t14 -16t13 -16t12.5 -19t9.5 -21q5 -11 6.5 -23.5t3.5 -23.5h-2q1 -4 1 -2t-1 2z" />
    <glyph glyph-name="seven" unicode="7" horiz-adv-x="423" 
d="M403 332q8 -1 9.5 -1t9.5 -2q7 -2 12.5 -7t10.5 -10t8.5 -10.5t9.5 -7.5q5 -2 10.5 -4.5t2.5 -9.5q-2 -5 -6 -10.5t-9 -7.5q-8 -2 -11 -4q-4 -2 -6 -4.5t-6 -3.5q-5 -2 -9 -6.5t-9 -8.5q-5 -5 -11 -8.5t-12 -7.5q-15 -8 -30.5 -8.5t-31.5 -2.5l-30 -6q-3 -1 -6.5 -1
t-5.5 -2q-3 -2 -4 -5.5t-2 -6.5q-3 -8 -5 -15t-7 -14q-4 -7 -6.5 -14.5t-5.5 -14.5q-8 -15 -11 -31t-7 -32q-2 -8 -3 -15.5t-3 -15.5q-3 -17 -9 -32q-2 -8 -3.5 -14.5t-6.5 -12.5q-2 -3 -3.5 -5.5t-3.5 -6.5q-2 -6 -6 -9q-3 -2 -6 -1.5t-5 -1.5q-2 -1 -4.5 -3t-5.5 0
q-6 2 -8 10.5t-3 13.5q-1 7 -3.5 12.5t-1.5 13.5q2 8 4.5 16.5t4.5 16.5q10 33 19.5 65.5t20.5 64.5q2 8 5 16t5 16l2 4t0 4q-2 2 -5.5 1.5t-5.5 -0.5q-17 -2 -33.5 -3.5t-33.5 -2.5q-7 -1 -14 -0.5t-15 1.5q-15 0 -27 6q-6 4 -11.5 9t-10.5 10l-11 11t-11 13
q-8 11 -15 25.5t-10 28.5q-2 8 2 12.5t10.5 7t14 3t13.5 0.5q8 0 15 -0.5t15 1.5t15.5 2.5t15.5 2.5q17 2 33 4t33 1q16 -1 32 -3.5t32 -0.5h6.5t5.5 3q4 5 5.5 12.5t3.5 13.5q2 8 4 15.5t4 15.5q1 8 1.5 16.5t2.5 16.5l2 16t3 16q1 4 1.5 7.5t1.5 8.5q1 2 2 6.5t-1 6.5
t-6 2.5t-7 1.5q-5 1 -15 1q-3 -1 -6 -0.5t-6 0.5h-19q-8 1 -16 1t-16 1q-8 2 -16 1l-16 -2t-15 -0.5t-14 -0.5q-8 -2 -16 -4.5t-16 -5.5q-8 -2 -15.5 -4.5t-15.5 -4.5t-16.5 0t-16.5 4q-7 2 -13.5 3.5t-13.5 3.5t-12 -1t-12 -1q-5 2 -9 5.5t-2 9.5t-5 10t-11 8
q-4 5 -8.5 10.5t-6.5 11.5q-1 13 7 25t22 19t26 12q30 12 60 21q16 5 32.5 5.5t32.5 1.5q16 2 32 0.5t32 -2.5q8 0 16 1t16 -1q8 0 16.5 -1.5t16.5 -3.5q14 -3 29.5 -6t28.5 -10q7 -3 10.5 -8.5t8.5 -10.5q5 -6 10.5 -12t9.5 -14q4 -7 6 -14.5t4 -15.5q1 -9 0 -18t-3 -17
q-3 -17 -5.5 -34.5t-7.5 -34.5t-10 -34.5t-10 -34.5q-1 -2 -2 -6t2 -6q2 -2 6.5 -2h8.5q9 -1 18 -1.5t19 -1.5l4 1q6 0 5.5 1t1.5 -1z" />
    <glyph glyph-name="eight" unicode="8" horiz-adv-x="461" 
d="M256 607q-8 -2 -15.5 -3.5t-14.5 -4.5q-8 -3 -13 -8t-10 -11q-8 -11 -12 -24q-2 -4 -3 -7t-1 -6q-1 -5 0 -9.5t3 -8.5q2 -8 5 -15t5 -15t6 -14.5t9 -13.5q10 -14 20 -27t21 -27q2 -2 4.5 -5.5t5.5 -2.5q3 0 6 2.5t5 4.5q7 6 13.5 11.5t13.5 11.5l5.5 5.5t4.5 6.5l6 15
q3 8 5.5 16.5t5.5 16.5q2 8 1 15.5t-3 15.5q-3 18 -9 34q-2 6 -5 12t-8 11t-12 7q-3 2 -5 4t-5 4q-2 2 -5 2.5t-6 1.5q-5 1 -9 2t-9 3q-3 -1 -2.5 -1.5t2 -0.5t2.5 0.5t-2 1.5zM227 30q0 -1 3.5 -0.5t8 1.5t8.5 2t5 2q8 4 15 7t15 7q7 4 8.5 7.5t3.5 11.5q1 9 0 18l-2 18
q0 8 -0.5 15.5t-5.5 14.5q-5 8 -9.5 15.5t-9.5 15.5q-18 25 -44 51q-2 3 -4.5 5t-4.5 4l-9 12q-5 8 -12 12.5t-14 9.5t-13 10l-12 10t-14 -0.5t-13 -9.5q-5 -5 -9.5 -11.5t-9.5 -11.5q-6 -8 -10 -14l-3 -6q-1 -2 -2.5 -3.5t-1.5 -3.5q0 -4 -1 -7.5t-1 -6.5q0 -4 1.5 -7
t0.5 -7q-2 -3 -3 -6t-3 -6q-2 -4 2 -10q4 -5 3.5 -12.5t-0.5 -12.5q1 -8 1.5 -15.5t2.5 -15.5q2 -7 5 -13.5t6 -13.5q2 -5 4 -12t7 -12t12.5 -7t13.5 -5t12.5 -6.5t13.5 -5.5q3 -1 6 -0.5t7 -0.5t7.5 -2t7.5 -2q8 -2 15.5 -3t15.5 0l-2.5 -0.5t-4 -0.5t-0.5 0.5t7 0.5z
M338 414q0 3 1 4q-7 -2 -9 -7t-6 -10q-5 -6 -11 -11.5t-12 -10.5q-5 -5 1 -10l12 -9q8 -5 15 -10t15 -10q14 -10 24.5 -22t21.5 -24q5 -6 9.5 -12.5t9.5 -13.5q2 -3 5 -6t5 -6q3 -5 3.5 -6.5t0.5 -6.5q1 -8 3.5 -16t4.5 -16q1 -8 0.5 -17t-1.5 -17l-3 -33q-1 -5 -1.5 -8.5
t-1.5 -7.5q0 -5 -2 -8t-4 -7l-5 -12.5t-8 -11.5q-3 -2 -7 -8q-2 -4 -5 -7t-6 -7q-4 -6 -8.5 -11.5t-9.5 -12.5q-11 -15 -23 -25q-5 -5 -10.5 -9t-11.5 -8q-16 -7 -32 -16q-7 -3 -14.5 -6.5t-15.5 -5.5q-8 -1 -16 0.5t-16 1.5t-15.5 1t-15.5 3t-16.5 3t-16.5 4
q-15 5 -30.5 11.5t-27.5 15.5q-13 10 -24 19.5t-21 22.5q-5 6 -8.5 12t-8.5 13q-4 7 -7.5 13.5t-5.5 14.5q-5 17 -4.5 32t3.5 31q2 8 4 15.5t4 15.5q2 4 2.5 7.5t2.5 6.5l3 6q1 2 0.5 4t-0.5 4q1 3 3 7t4 6q2 4 4 7.5t4 6.5q5 7 10.5 12.5t11.5 10.5t12.5 10t12.5 10
q2 2 6 4.5t5 5.5t-3.5 7t-6.5 6q-23 24 -39.5 53t-20.5 62q-2 17 -2.5 33t4.5 33q4 14 11 31q3 8 5.5 15.5t7.5 14.5q4 6 9.5 10t10.5 9t10 11t11 11q27 23 57 31q7 2 13.5 3.5t14.5 3.5q7 1 13.5 2.5t13.5 0.5t14 -0.5t14 1.5q5 1 12.5 -1t12.5 -4q12 -4 22.5 -11t22.5 -12
q2 -1 4.5 -1.5t4.5 -2.5t3 -4t3 -4l4 -4l4 -4t4.5 -5t4.5 -5q8 -11 15.5 -21t12.5 -22q2 -6 4 -12.5t2 -12.5q0 -5 -2 -13q-2 -4 -1 -7t0 -7q-1 -5 -4.5 -9.5t-5.5 -9.5q-6 -15 -13 -25q-3 -5 -5.5 -10.5t-6.5 -10.5q-2 -2 -9 -10t-9 -6z" />
    <glyph glyph-name="nine" unicode="9" horiz-adv-x="408" 
d="M234 577q-5 1 -11 1t-12 -2q-6 -3 -9.5 -8.5t-6.5 -10.5q-4 -6 -8 -10.5t-6 -11.5q-2 -8 -2.5 -16t-2.5 -16q-2 -17 -3.5 -33.5t-0.5 -33.5q0 -18 4 -31q2 -8 7 -14l10 -12q9 -11 21 -19.5t27 -10.5q14 -2 28 4.5t25 14.5q5 4 10.5 8t10.5 9t6 12.5t3 14.5q5 17 9 33
t9 33q5 14 8.5 28t7.5 28q4 11 -1 17q-3 5 -7.5 7.5t-9.5 4.5l-24 14t-27 6q-14 0 -27.5 -3.5t-27.5 -2.5q-1 0 1 0h3.5t1 0h-5.5zM372 597q5 11 11 24t20 14q5 0 10.5 -0.5t8.5 -5.5q2 -2 5 -3t5 -2q5 -2 13 -8q5 -4 9.5 -8.5l9.5 -9.5q12 -10 13 -22q0 -7 -1 -13.5
t0 -13.5q1 -8 2 -16.5t0 -17.5q-3 -34 -10 -67.5t-13 -67.5l-6 -34t-7 -34q-6 -31 -9 -65q-2 -11 -3 -21t-3 -21q-4 -19 -12 -41l-6 -20t-8 -19t-9 -17.5t-7 -18.5q-2 -10 -5 -19.5t-6 -19.5q-3 -9 -7 -18.5t-10 -17.5q-4 -4 -7.5 -7t-6.5 -7q-4 -4 -7 -4t-8 1q-9 0 -16 -4
q-7 -6 -15 -1q-1 -5 -5.5 -7t-2.5 -9q-15 7 -26 22q-7 8 -7 16.5t2 17.5q5 23 8.5 45.5t8.5 45.5q4 23 7.5 46t5.5 46q2 22 6.5 44t4.5 44q-7 -2 -13 -5l-12 -6q-7 -3 -14 -4t-15 -2h-15t-15 2t-16 4.5t-17 2.5q-7 0 -14 -1t-15 0q-8 0 -14 3.5t-12 9.5l-4.5 4.5t-5.5 3.5
t-6 1t-6 1q-6 2 -10.5 6.5t-8.5 9.5q-9 13 -16 28t-12 29q-6 15 -10 31t-3 33q1 16 6 31q2 8 3.5 15.5t5.5 15.5q5 13 15 22.5t21 17.5q4 3 8 5.5t8 4.5q7 6 13 13q13 12 30 21q8 5 17 7.5t18 6.5l18 8t19 7q10 4 19.5 3t20.5 0h21.5t21.5 -1q5 0 9.5 0.5t9.5 -1.5
q5 -1 8 -3.5t7 -5.5q7 -7 14 -13t14 -11q2 3 0 2.5t0 -2.5z" />
    <glyph glyph-name="colon" unicode=":" horiz-adv-x="130" 
d="M108 435q2 -5 3.5 -5t3.5 -5q4 -5 4.5 -11t-0.5 -12q-1 -14 -7.5 -25t-13.5 -23q-3 -4 -6 -10t-8 -8q-5 -3 -12.5 -2.5t-12.5 0.5q-10 0 -19 6q-5 3 -7.5 8t-7.5 9q-9 7 -11 18t0.5 22.5t8 22.5t10.5 19q6 9 13.5 15.5t18.5 6.5q15 0 22.5 -6t18.5 -14q2 -3 2.5 -3.5
t-0.5 -2.5zM108 33q2 -5 3.5 -5t3.5 -4q4 -5 4.5 -11.5t-0.5 -12.5q-1 -14 -7.5 -25t-13.5 -22q-3 -5 -6 -10.5t-8 -8.5t-12.5 -2.5t-12.5 0.5q-5 1 -9.5 2t-9.5 4q-5 4 -7.5 9t-7.5 8q-9 7 -11 18t0.5 23t8 23t10.5 19t13 14.5t19 6.5q15 1 22.5 -5t18.5 -14q2 -4 2.5 -4.5
t-0.5 -2.5z" />
    <glyph glyph-name="semicolon" unicode=";" horiz-adv-x="108" 
d="M108 435q2 -5 3.5 -5t3.5 -5q4 -5 4.5 -11t-0.5 -12q-1 -14 -7.5 -25t-13.5 -23q-3 -4 -6 -10t-8 -8q-5 -3 -12.5 -2.5t-12.5 0.5q-10 0 -19 6q-5 3 -7.5 8t-7.5 9q-9 7 -11 18t0.5 22.5t8 22.5t10.5 19q6 9 13.5 15.5t18.5 6.5q15 0 22.5 -6t18.5 -14q2 -3 2.5 -3.5
t-0.5 -2.5zM24 -156q-1 0 -1.5 1.5t-3.5 2.5q-3 0 -5 1q-1 1 -2 1.5t-2 1.5q-8 6 -10 10t-2 8.5v8.5q0 8 0.5 16t1.5 16q2 9 2.5 18t2.5 18q3 17 6 33.5t7 33.5q2 8 3.5 14.5t3.5 14.5q2 5 9.5 8.5t12.5 3.5q13 1 23 -9.5t15 -21.5q3 -6 5.5 -12.5t3.5 -12.5
q1 -8 -1.5 -15.5t-4.5 -14.5q-3 -8 -5.5 -14.5t-6.5 -13.5q-4 -8 -8 -14.5t-6 -14.5q-5 -14 -6 -28q-2 -6 -5 -7q-3 -2 -4.5 -2.5t-2.5 -4.5q0 -11 -4 -17t-12 -12q-2 4 -2 2.5t-2 0.5z" />
    <glyph glyph-name="less" unicode="&#x3c;" horiz-adv-x="318" 
d="M236 96q-2 0 -3 1t-3 1q1 -3 -0.5 -3.5t-0.5 -3.5q-2 -2 -5 -4t-2 -4q0 -2 0.5 -4.5t-3.5 -2.5q-2 0 -4.5 1.5t-5.5 1.5q1 -2 1 -7q-14 4 -25 14.5t-19 21.5q-9 14 -17.5 28t-16.5 28t-15 28t-17 27q-11 13 -20.5 26t-19.5 27q-9 13 -18.5 27t-16.5 29q-5 10 5 17
q2 2 4.5 3t4.5 3t3.5 5.5t3.5 5.5q11 11 22 22.5t22 22.5l23.5 23.5t23.5 22.5t24 20t25 18q12 8 25.5 16.5t27.5 13.5q12 4 23.5 2t21 -9t16 -17t7.5 -22q2 -16 -7 -28.5t-20 -21.5q-12 -10 -25.5 -18t-26.5 -18q-6 -5 -12 -9.5t-12 -9.5t-13 -9t-13 -9q-13 -10 -22.5 -21
t-20.5 -22q-4 -4 -9 -8t0 -10t9.5 -12t9.5 -12q9 -13 17 -26t15 -27t14 -26.5t15 -26.5t14.5 -28.5t12.5 -29.5q2 -2 1.5 -2.5t1.5 -4.5z" />
    <glyph glyph-name="equal" unicode="=" horiz-adv-x="396" 
d="M373 217q-4 -2 -6.5 -2t-4.5 -4q-1 -6 2 -11q1 -3 2.5 -5.5t1.5 -5.5q-1 -3 -3.5 -3t-4.5 -2q-2 -1 -1.5 -2.5t-0.5 -2.5q-2 -2 -5.5 -2h-6.5q-15 -3 -34 -1q-8 1 -15 2t-15 1h-35q-17 0 -34 -1l-34 -2t-33.5 0.5t-33.5 3.5q-16 2 -32.5 3t-32.5 6q-4 0 -6 5q-1 2 -3 3.5
t-4 3.5q-9 5 -13 18q-2 8 -0.5 16t11.5 10q10 3 20.5 4t21.5 2q12 1 24 1.5t25 -0.5q24 -1 48.5 -3.5t48.5 -3.5q25 -2 49.5 -2.5t49.5 -3.5q5 -1 10 -1.5t10 -1.5t8.5 -3t8.5 -3q8 -2 11 -4.5t6 -8.5q-3 -1 -3.5 3.5t3.5 -3.5zM364 362q-2 0 -4.5 -0.5t-3.5 -2.5
q-2 -3 0.5 -4t4.5 -1q5 -2 6.5 -5.5t1.5 -8.5q-2 0 -3 -0.5t-3 -0.5t-2 -4v-3t-2 -3t-5 0t-5 1q-5 0 -9 -0.5t-9 -0.5q-4 -1 -4 -3.5t-1 -4.5q-2 -5 -5 -8q-5 -5 -11.5 -6.5t-13.5 -3.5q-8 -2 -15.5 -2h-15.5q-9 0 -18 0.5t-18 1.5q-17 1 -34 3t-34 3q-6 1 -14.5 1.5
t-14.5 -1.5q-3 -2 -5.5 -3t-6.5 -1q-6 -1 -16 1q-8 2 -14.5 2.5t-14.5 1.5q-12 0 -23 8q-2 2 -4 4.5t-4 4.5t-4.5 3.5t-4.5 3.5q-4 5 -5.5 12.5t-3.5 13.5q-3 9 -3 20t11 16q5 2 11 2.5t12 0.5h13.5t13.5 1q14 1 27 1.5t27 0.5q15 1 29.5 0t28.5 -1t28 1t28 0q14 0 27 -1
t27 -2q5 -1 9.5 -2t8.5 -4l6.5 -6.5t8.5 -1.5q9 2 17 -3q6 -4 7 -9t1 -11q-1 0 -0.5 2t0.5 -2z" />
    <glyph glyph-name="greater" unicode="&#x3e;" horiz-adv-x="318" 
d="M88 96q2 4 1.5 4.5t0.5 2.5q7 15 13 29.5t14 28.5t16 26.5t14 26.5q14 29 32 53q5 6 9.5 12t9.5 12q4 6 -0.5 10t-9.5 8q-11 11 -20.5 22t-21.5 21q-7 5 -13.5 9t-12.5 9t-12 9.5t-12 9.5q-13 10 -26.5 18t-26.5 18q-11 9 -20 21.5t-7 28.5q3 24 24 39t45 7
q14 -5 27 -13.5t26 -16.5q13 -9 25 -18t23 -20q13 -11 24.5 -23t22.5 -23t22 -22.5t22 -22.5q2 -2 3.5 -5.5t3.5 -5.5t5 -3t5 -3q9 -6 4 -17q-6 -15 -15.5 -29t-18.5 -27q-10 -14 -19.5 -27t-20.5 -26q-10 -13 -17 -27t-15 -28q-15 -27 -35 -56q-8 -11 -19 -21.5t-25 -14.5
q1 3 1 7q-2 0 -4.5 -1.5t-5.5 -1.5q-4 0 -3.5 2.5t1.5 4.5q0 2 -3 4t-5 4q2 3 0 3.5t0 3.5q-2 0 -3 -1t-3 -1z" />
    <glyph glyph-name="question" unicode="?" horiz-adv-x="432" 
d="M48 -8q1 8 3.5 20.5t12.5 16.5q2 1 4 5q4 4 7 5q10 5 20 5q6 1 11.5 0t10.5 -3t10 -3.5t9 -5.5q8 -8 12 -19t4 -21q1 -11 -1.5 -20.5t-9.5 -17.5q-7 -9 -15.5 -14.5t-19.5 -0.5q-9 4 -17 5.5t-14.5 4t-12.5 8t-11 17.5q-2 5 -3 5.5t0 12.5zM137 105q-2 -1 -3 -1t-3 -1
l-3 -3q-2 -2 -5 -2t-6 -1q-2 0 -4.5 -0.5t-4.5 1.5t-2 5.5t-2 6.5q-3 4 -8 6t-8 7q-5 7 -6.5 14.5t-1.5 15.5q-2 16 0 32.5t4 32.5q2 8 3.5 15t3.5 14t5.5 15t9.5 13q2 2 4 2.5t4 3.5q1 3 1 6t1 5q3 13 13 23q18 22 44 36q13 8 25.5 14.5t23.5 15.5t20.5 20t18.5 23t18.5 23
t14.5 26q2 6 3 12.5t2 13.5q1 8 2 16.5t0 16.5q0 8 -2 15.5t-4 15.5q-2 6 -3 13t-8 10q-13 6 -29 7.5t-29 -5.5t-21 -20.5t-15 -24.5q-4 -7 -8 -13.5t-9 -13.5t-8 -13.5t-7 -14.5q-7 -11 -19.5 -17.5t-25.5 -9.5q-8 -2 -15 -2h-15h-15t-14 2q-11 5 -22 15t-11 22q-1 16 3 31
t11 29q13 26 31.5 48.5t44.5 36.5q27 14 59 17.5t62 1.5q32 -3 61.5 -11.5t55.5 -27.5q22 -16 36 -43q6 -14 12.5 -28.5t9.5 -29.5q3 -17 5.5 -33t1.5 -33q0 -16 -5 -30.5t-11 -28.5q-3 -7 -6 -13.5t-7 -12.5q-5 -7 -10.5 -12.5t-10.5 -12.5q-10 -12 -20 -24.5t-22 -23.5
q-22 -20 -47 -32q-14 -8 -28.5 -14.5t-30.5 -10.5q-6 -1 -11.5 -2t-11.5 -3q-5 -2 -6 -8.5t-3 -11.5q-4 -13 -7.5 -26t-7.5 -26q-1 -3 -1.5 -6.5t-1.5 -6.5q0 -2 0.5 -5t-0.5 -5q-2 -4 -5.5 -7t-8.5 -2q-4 1 -7 -3t-5 -7q-3 -5 -3 -8.5v-8.5q-2 -1 -1 0.5t1 -0.5z" />
    <glyph glyph-name="at" unicode="@" horiz-adv-x="686" 
d="M661 354q1 -8 0.5 -16t0.5 -16v-29q0 -16 -4 -30t-9 -29q-5 -14 -7.5 -28t-6.5 -28q-4 -13 -12 -22t-13 -21q-4 -7 -8.5 -12.5t-9.5 -10.5t-9 -10t-10 -9q-5 -5 -12.5 -6.5t-13.5 -3.5q-8 -2 -15 0q-3 1 -7 0.5t-7 0.5q-16 1 -29 10q-7 4 -13.5 7t-12.5 8q-10 8 -20 22
q-2 3 -3.5 6t-2.5 6q-2 3 -2.5 6t-2.5 5q-1 2 -4 0.5t-7 -4t-7.5 -5t-4.5 -3.5q-14 -7 -26 -11q-8 -2 -14.5 -2.5t-13.5 -5.5q-11 -8 -22 -8q-8 0 -16 -2t-16 -1q-8 2 -14 4.5t-13 5.5q-25 12 -42 39q-5 7 -7 14t-5 15q-2 8 -4 15.5t-4 15.5q-3 17 -1.5 33t4.5 32q4 16 9 31
t13 29t18.5 27t21.5 25q21 24 45 41l12 8t13 6q6 2 13.5 1.5t12.5 -3.5q5 -2 6.5 -1.5t6.5 1.5q4 1 7.5 0.5t7.5 -0.5q8 -1 15.5 -2t14.5 -3q6 -2 9.5 -8t8.5 -11q3 -3 4.5 -1t3.5 4q2 4 4 7l4 6q4 5 9 12t12 9q6 1 12.5 -2t11.5 -5q12 -6 22.5 -16.5t8.5 -26.5
q-2 -17 -4.5 -33.5t-6.5 -33.5q-3 -17 -6 -32.5t-7 -32.5q-4 -16 -5.5 -32.5t-3.5 -33.5q-2 -8 -5.5 -14.5t-5.5 -14.5q-1 -8 -1 -16.5v-16.5q-1 -8 1 -14t7 -14q2 -3 7 -4t8 -2q11 -2 19.5 5t13.5 17q3 7 5.5 14t5.5 15q2 7 5 14t6 15q2 8 4.5 16t4.5 16q1 8 1 16t1 16
q1 17 4 33.5t2 33.5q0 17 -2 32.5t-2 32.5t-2 33t-4 33q-1 8 -2 15t-5 15q-3 8 -7 14.5t-8 13.5q-8 13 -15 27t-20 23q-4 3 -10 9q-6 4 -13 6q-10 4 -14 5q-2 1 -3.5 0.5t-3.5 0.5q-8 5 -15.5 6.5t-15.5 3.5q-4 0 -7.5 0.5t-8.5 0.5h-7t-7 2q-6 3 -14.5 1.5t-14.5 -3.5
q-4 -1 -12 -5q-3 -2 -6.5 -2.5t-6.5 -1.5q-14 -3 -26 -12q-6 -4 -11 -8.5t-11 -7.5q-7 -4 -13.5 -8t-12.5 -9t-11.5 -10.5l-10.5 -10.5q-12 -12 -23 -24t-21 -26q-5 -7 -10 -13.5t-10 -13.5q-4 -5 -8.5 -10t-8.5 -12q-3 -7 -5 -14t-4 -15t-5 -15t-6 -15q-6 -15 -11 -30.5
t-8 -31.5q-2 -8 -2.5 -17t-2.5 -17q-3 -14 -1 -31q1 -16 1 -31.5v-30.5q1 -16 6 -30t10 -29q2 -8 4 -15.5t4 -15.5q3 -7 6 -13.5t5 -14.5q4 -13 15 -27q3 -6 7 -11.5t10 -10.5q11 -9 21 -18t24 -12q16 -3 32 -4.5t32 -3.5q32 -3 64 8q8 3 16 5.5t16 5.5l15 6q3 2 6 3.5
t6 1.5q7 1 9.5 -6.5t0.5 -12.5q-1 -3 -1 -6.5t-2 -5.5q-2 -3 -5 -6l-5 -5q-7 -6 -13.5 -10.5t-13.5 -9.5q-6 -5 -13 -5.5t-15 -0.5q-8 -1 -17 -2t-17 -2t-13.5 -4.5t-12.5 -5.5q-32 -8 -64 -3q-8 -1 -16.5 1t-16.5 4t-15 4.5t-15 3.5q-9 1 -17 1.5t-16 2.5q-13 3 -28 11
q-27 13 -48 36q-11 11 -19.5 23.5t-15.5 26.5q-4 7 -7 14t-8 13q-4 5 -8.5 10t-6.5 12q-6 14 -7.5 30.5t-3.5 31.5q-1 9 -2 17.5t-2 17.5v16q0 6 -2 14q-1 16 0 32.5t2 32.5q2 17 5 33.5t8 32.5q5 17 10.5 32t12.5 31q6 15 13 30t15 29q32 58 81 104q24 22 48 42
q13 11 28 19q7 4 12 4h13q8 1 15 4t15 6q8 2 14 4t14 3q17 2 34 3.5t34 0.5q26 -2 52 -3t51 -11v3l12 -6t11 -6t9 -5.5t9 -6.5q7 -6 15.5 -6.5t15.5 -5.5q8 -5 13.5 -14t10.5 -17q6 -11 12.5 -21t11.5 -21q11 -21 21 -47q2 -5 4.5 -10t3.5 -11q1 -5 1.5 -10.5t2.5 -11.5
q3 -11 7 -22.5t8 -22.5q7 -21 9 -44zM432 364q1 3 0.5 1l-1 -4t-1 -2.5t1.5 5.5q2 5 2.5 10.5t-2.5 10.5q-4 11 -12 15q-8 5 -18 2t-15 -11q-7 -14 -18 -23.5t-18 -23.5l-7.5 -15t-5.5 -15t-2.5 -15t-2.5 -15q-3 -17 -9 -34q-2 -8 -4 -15t-2 -15t3 -16t5 -16q1 -5 5 -15
q2 -8 6 -10q4 -3 11.5 -2t11.5 3q6 4 11.5 9.5l10.5 10.5q13 10 26 23l6 4t3 6q-2 10 -2 14q-1 17 -1.5 34.5t2.5 34.5q2 17 6.5 32t9.5 32z" />
    <glyph glyph-name="A" unicode="A" horiz-adv-x="456" 
d="M254 466l-16 -22t-17 -22q-4 -5 -7 -10t-6 -11q-3 -8 -6 -15l-6 -14q-5 -14 -11.5 -26.5t-11.5 -26.5t-11 -28t-8 -28h9.5t9.5 2t10.5 2.5t10.5 2.5l20 4t21 4t21 3t21 2q5 1 10.5 0.5t8.5 1.5q4 2 2 8t-3 8q-8 21 -14.5 41t-10.5 42q-3 21 -9 42q-1 5 -2 10.5t-2 10.5
t-1 9.5t-2 9.5q-5 -6 -2 -4t2 4zM30 159q-12 2 -21 6q-8 3 -13 9t-2 14q5 13 13 19q5 5 11.5 7.5t12.5 5.5q7 4 14 7t15 7q7 3 13.5 6t9.5 11t5.5 15.5t5.5 15.5t6.5 16t3.5 16q0 15 6.5 29.5t13.5 27.5q8 15 15.5 30t15.5 29l16 30t13 32q5 16 10.5 31t12.5 30t14 29.5
t15 28.5l18 24q5 6 9.5 12.5t10.5 10.5q5 4 12.5 4t13.5 1q8 2 15 1.5t13 -5.5q5 -4 11 -5.5t11 -5.5q10 -5 18 -19q6 -9 8 -25q2 -8 3 -16.5t3 -17.5q2 -16 6.5 -31t8.5 -32q8 -32 9.5 -66t8.5 -67q7 -32 12 -64.5t6 -64.5q0 -17 1.5 -32.5t3.5 -32.5l6 -66q2 -17 4 -33.5
t4 -33.5q1 -3 0 -6.5t0 -7.5q2 -10 2 -15q2 -9 3 -17.5t3 -17.5q1 -6 2.5 -14t-0.5 -13q-2 -4 -8.5 -10t-9.5 -3q-2 2 -3.5 5.5t-5.5 3.5q-2 0 -3.5 -3t-3.5 -5q-4 -5 -10.5 0.5t-9.5 7.5l-12 8t-11 9q-6 8 -8 12q-2 2 -4 6t-1 7q0 4 1 7t0 7q0 5 -2 15q-1 16 -7 30
q-5 14 -9 29.5t-10 29.5q-6 15 -8 31.5t-5 32.5q-2 8 -3.5 15t-3.5 15q-1 4 -2.5 7.5t-2.5 6.5q-4 7 -11 7q-32 -3 -64 -9q-17 -4 -33.5 -7.5t-33.5 -8.5q-8 -2 -15.5 -3.5t-15.5 -3.5q-7 -2 -11.5 -3t-7.5 -9q-7 -15 -13.5 -30t-11.5 -31q-5 -17 -11 -32.5t-11 -31.5
q-2 -3 -3 -6.5t-3 -5.5q-2 -3 -4.5 -5t-4.5 -4q-5 -6 -6.5 -13.5t-3.5 -14.5q-4 -16 -8.5 -31.5t-12.5 -30.5q-2 -5 -7.5 -6.5t-10.5 0.5q-7 2 -10 6.5t-6 10.5q-3 8 -3 14t2 14t3 17t3 17t4 15.5t4 15.5t3.5 16.5t3.5 16.5l8 30t10 30q2 2 4 7t0 7q-1 2 -5 1.5t-6 -0.5h-2z
" />
    <glyph glyph-name="B" unicode="B" horiz-adv-x="468" 
d="M523 240q2 -8 3 -17t0 -17t-1.5 -15.5t-2.5 -15.5t-6 -14.5t-7 -13.5q-2 -7 -3.5 -13.5t-3.5 -13.5q-2 -8 -6 -14.5t-8 -12.5q-5 -6 -8 -12.5t-6 -13.5t-9 -12.5t-11 -10.5q-11 -10 -24 -18l-26 -16q-7 -3 -13.5 -6.5t-13.5 -5.5q-3 -1 -6.5 -1t-6.5 -1q-8 -5 -16 -6
q-6 -2 -16 -4q-2 -1 -3.5 -3t-4.5 -3q-2 0 -5 0.5t-5 0.5q-5 2 -9 1t-8 0q-8 1 -15.5 2t-15.5 2q-15 1 -30 9q-14 7 -23 16l-10 10q-3 7 -9 8q-5 1 -9.5 -2.5t-9.5 -5.5q-3 -2 -6 -3t-5 -4q-7 -5 -12 -6q-15 -3 -29.5 -6t-30.5 -4q-15 0 -30.5 4t-28.5 12q-5 4 -10.5 8
t-11.5 7q-2 2 -3 2q-9 10 -13.5 24t-10.5 26q0 6 -0.5 12t-0.5 12q2 14 4 29t11 27q2 3 7.5 7.5t10.5 7t9.5 1t5.5 -8.5q1 -5 -3.5 -8t-7.5 -6q-5 -5 -6 -10q-1 -4 -0.5 -5.5t0.5 -4.5l1 -3v-2q0 -22 9 -42t32 -25q1 -1 1.5 -1t1.5 -1q5 -4 12.5 -3.5t12.5 2.5q9 -1 17 4
q17 13 27 28.5t15.5 32.5t8 35.5t5.5 37.5q3 8 6 17t5 19q3 17 6.5 33t7.5 33t8 32.5t6 32.5q2 13 3 26t3 26v12.5t1 13.5q2 14 3.5 26.5t3.5 24.5q3 17 6 33.5t5 33.5t4.5 33.5t5.5 33.5q1 6 1.5 13.5t2.5 13.5q3 11 16 7l15 -6q3 -2 7 -3t6 -3q3 -2 5 -9q3 -7 9 -11
q5 -4 9.5 -6t9.5 2q9 9 23 16q12 5 27 7q9 2 17 0.5t16 -3.5l15 -3q3 -1 6 -2.5t5 -3.5q8 -4 15 -8t14 -9q9 -7 21 -20q5 -5 6.5 -12t2.5 -14q2 -8 2 -15.5v-15.5q1 -8 1.5 -16.5t-0.5 -16.5q-2 -15 -8 -29.5t-14 -27.5q-8 -14 -16.5 -27.5t-17.5 -27.5q-5 -7 -10 -12.5
t-11 -10.5q-5 -6 -11 -11q-2 -3 -5.5 -6t-4.5 -7t3 -3t6 1q5 1 15 -1q8 -2 16.5 -2t16.5 -2q14 -2 25 -8q3 -2 5.5 -4.5t5.5 -4.5q4 -2 7.5 -4t7.5 -4l6 -4t5 -5t3.5 -6t3.5 -6q4 -7 4 -13.5t1 -14.5t3.5 -15t3.5 -14zM315 384q0 -3 -1 -7t1 -7t6 0t6 5q13 9 23 21t20 23
q11 11 18 25t13 28q13 29 16 63q1 4 1 13q0 -2 0.5 2t-0.5 7q-1 5 -1 9t-4 9t-12 5.5t-13 -0.5q-8 -1 -14 -5t-12 -9t-9.5 -11.5t-7.5 -13.5q-4 -8 -7.5 -14.5t-6.5 -13.5q-4 -8 -8 -15.5t-5 -15.5q-1 -17 -0.5 -33t-0.5 -32q-1 -8 -1 -16.5t-1 -16.5zM395 232q0 1 0.5 1.5
t0.5 2.5q-1 0 -2 5.5t-2 6.5q-1 5 -2 8.5t-2 7.5q-2 6 -4.5 12.5t-7.5 11.5t-10.5 6t-11.5 2q-8 2 -17 2.5t-17 1.5t-7.5 -8.5t0.5 -13.5v-16.5t-2 -16.5l-6 -32t-5 -32q-5 -35 -13 -64q-3 -8 -5.5 -15.5t-4.5 -15.5q-3 -5 4 -7q3 -2 8 -4.5t8 -1.5q27 6 46 27q5 5 8.5 12
t7.5 14t8.5 13.5t7.5 14.5q5 9 7 19.5t5 20.5q2 10 4 19t4 19z" />
    <glyph glyph-name="C" unicode="C" 
d="M510 303q2 3 7 5q-2 -4 -3 -8t-3 -9q-5 -11 -8 -19.5t-7 -16.5q-4 -7 -6.5 -11.5t-5.5 -11.5q-2 -4 -3.5 -8t-3.5 -9q-2 -4 -8 -12q-1 -1 -1 -2q-1 -2 -1.5 -2.5t-1.5 -2.5q-5 -10 -13 -25.5t-15.5 -30t-13 -25.5l-5.5 -11q-4 -8 -7 -11q-7 -11 -14 -21.5t-16 -20.5
q-5 -5 -8 -9.5t-8 -9.5t-10.5 -7.5t-10.5 -5.5q-12 -5 -23.5 -10.5t-24.5 -8.5q-14 -3 -27 -3q-7 0 -13 1t-12 1q-3 0 -6.5 -1t-6.5 -1t-6.5 0.5t-6.5 0.5q-6 2 -12 2t-12 1q-14 2 -28 7.5t-24 15.5q-5 5 -12 8.5t-12 8.5t-9 10.5t-7 11.5q-8 14 -15.5 29t-12.5 31t-9.5 31
t-7.5 31q-5 33 -5 66.5t-1 67.5v33t2 33q0 8 2 16t3 16t1.5 15t2.5 14q2 8 5.5 16t5.5 16t3.5 15t3.5 15q4 15 11.5 29t15.5 28q10 17 19 27q7 12 18 21q2 3 10.5 7t6.5 9q-1 3 -3 5l-4 4q-7 7 -11 10q-5 6 -8.5 13t-5.5 15q-2 7 1 11q3 3 8 2q14 -6 25 -14.5t22 -17.5
q2 -2 5 -4.5t6 -3.5q4 -1 6.5 0t5.5 3q10 7 26 10q14 4 29.5 6.5t29.5 -1.5q13 -3 23.5 -10.5t19.5 -17.5q0 -6 0.5 -12t1.5 -12v-2q-1 -1 -1 -2t-1 -2q-2 -6 -6 -11.5t-9 -10.5q-7 -4 -14 -5t-15 -3q-3 -1 -5.5 -1.5t-5.5 -1.5q-11 1 -23 1.5t-23 2.5q-4 0 -6 -1
q-2 2 -4 2.5t-4 2.5t-5 4.5t-6 1.5q-5 -2 -10 -9.5t-7 -12.5q-3 -7 -5.5 -14t-4.5 -14q-3 -17 -5 -33t-4 -33q-2 -16 -6.5 -31.5t-3.5 -31.5q0 -9 1 -17.5t1 -16.5t0.5 -16.5t0.5 -16.5q2 -17 5 -33t6 -33q3 -16 4.5 -32t4.5 -32q2 -8 5.5 -14.5t6.5 -14.5t6 -14.5t5 -14.5
q6 -15 11.5 -30.5t13.5 -29.5q4 -7 9 -12.5t10 -10.5q8 -6 16 -9q6 -6 17 -6q5 0 8.5 0.5t7.5 1.5q11 5 20.5 11t18.5 15q12 8 22 19t20 23q8 8 15.5 16.5t12.5 17.5q3 5 6.5 8.5t5.5 8.5q2 3 5 6t6 8q9 13 15.5 27t9.5 19q3 4 7 10.5t8 13.5q2 1 5 5q3 5 5 8.5t5 5.5t6 5
l5 5l4 6t5 5zM246 626q-1 -1 -2 -1t-2 -1q-2 -2 -1.5 -3.5t2.5 -1.5q3 -1 6.5 -1t6.5 -1q13 -2 27 -6q0 2 1 1.5t3 -0.5q4 0 6 1q3 1 9 5q8 5 2.5 10.5t-9.5 8.5q-5 4 -12.5 1l-12.5 -5t-10 -3t-10 -3q-1 0 -1.5 -0.5t-2.5 -0.5z" />
    <glyph glyph-name="D" unicode="D" horiz-adv-x="423" 
d="M167 591q16 -2 26.5 -2.5t25.5 -5.5q8 -2 15 -5t15 -5q7 -3 13.5 -6t13.5 -5q8 -2 14 -5.5t13 -8.5q6 -5 13 -8t14 -7q6 -4 11.5 -9t10.5 -10q11 -11 23 -20q11 -10 19 -21t16 -25t13.5 -30t10.5 -32q5 -15 10 -31t5 -32q-1 -18 -0.5 -35.5t-3.5 -34.5q-6 -35 -23 -60
q-10 -14 -17.5 -28.5t-17.5 -28.5q-5 -7 -10 -13.5t-10 -12.5q-2 -3 -4 -5.5t-4 -5.5q-2 -4 -3 -7.5t-4 -6.5q-4 -5 -8.5 -9.5l-9.5 -9.5l-12 -12t-12 -13q-5 -5 -10.5 -9.5t-11.5 -8.5q-7 -4 -13.5 -5.5t-14.5 -3.5q-7 -2 -13.5 -5.5t-12.5 -7.5q-8 -4 -15.5 -7t-15.5 -7
q-7 -2 -14 -5t-15 -5t-14 -2q-5 0 -8.5 -1.5t-7.5 -3.5l-15 -6q-2 -1 -4.5 -3.5t-5.5 -2.5q-2 -1 -3.5 1.5t-1.5 4.5q-1 4 -2.5 6t-3.5 5q-3 8 -4.5 16.5t-3.5 16.5t-4 14q-2 4 -2.5 8t-1.5 9q-2 18 -3.5 36t-3.5 36q-1 3 -0.5 7.5t-1.5 7.5q-2 4 -4 14q-1 9 -1 18t-1 18
q0 8 -1 16.5t-1 16.5t-3 14t-4 14q-2 18 -1 36l2 36q1 9 1.5 18t-0.5 18q0 9 -1 18.5t-1 18.5q-1 18 -1 36t-1 36q0 9 -0.5 18t-0.5 17v18q0 5 1.5 7l4.5 6q3 2 3 5.5t-1 6.5q0 6 -0.5 11.5t-0.5 11.5v8t3 6q3 3 7 2.5t8 0.5q3 1 4.5 4.5t4.5 5.5q8 4 13 5q11 3 22 4.5
t22 -0.5h5h6zM339 321q0 3 -0.5 6t-0.5 6q-2 15 -5 29.5t-5 29.5q-2 17 -5.5 32.5t-11.5 29.5t-17 28t-21 25q-12 10 -24 18q-8 5 -15.5 7t-15.5 4q-11 2 -19.5 1t-8.5 -6q1 -15 0.5 -37t0.5 -41q2 -36 0 -72t2 -71q2 -17 3 -34.5t2 -34.5q1 -8 1 -16.5v-16.5q-1 -8 0 -17
t0 -17q-1 -17 -1 -34.5v-34.5v-11t7 -4q8 2 14.5 3.5t13.5 6.5q6 4 10.5 10t9.5 11t11 10.5t11 10.5t9 11.5t9 12.5q4 7 7.5 13.5t7.5 14.5q8 14 11 29t8 30q3 11 5.5 26l4.5 27q2 10 2 15z" />
    <glyph glyph-name="E" unicode="E" horiz-adv-x="447" 
d="M315 -17q-5 0 -22.5 -0.5t-33.5 -4.5q-15 -3 -30 -7.5t-31 -6.5q-7 -2 -14.5 -2.5t-14.5 1.5q-4 1 -7 2.5t-6 2.5q-5 2 -8.5 3t-7.5 3t-6.5 4.5t-5.5 4.5l-12 6q-15 5 -16 16q0 4 -1 8l-2 8q-1 2 -1.5 6t-3.5 6q-2 1 -4.5 1t-4.5 2q-2 4 -2.5 8.5t-1.5 8.5q0 8 -3 14
q-1 3 -3 5t-4 5q-2 7 -1.5 14.5t1.5 14.5q0 8 0.5 15.5t1.5 15.5v16.5t-2 16.5q-6 16 -7.5 32t-2.5 33q0 17 1 33t3 33q2 8 2.5 16t1.5 16v17t1 17q2 17 2.5 32.5t1.5 32.5q1 8 1.5 15.5t2.5 15.5t1.5 15t-0.5 15q3 34 10 63q2 8 3.5 15.5t3.5 15.5q2 6 3.5 11.5t6.5 9.5
t11.5 6t11.5 4q8 3 16 3.5t16 -0.5q5 0 15 -2q4 -2 7 -1t7 2q8 2 17 2.5t17 2.5q17 3 33.5 3.5t33.5 0.5q8 0 15 -0.5t15 0.5q9 1 17.5 1.5t16.5 2.5q8 1 15.5 0.5t15.5 0.5t14.5 3.5t14.5 4.5q6 1 12.5 -2t10.5 -8q6 -8 3.5 -12t-7.5 -9q-11 -9 -24 -17t-27 -11
q-7 -2 -14 -3.5t-14 -3.5q-8 -2 -16 -2t-16 -1q-7 0 -14 -1l-14 -2q-9 -1 -16.5 -3t-15.5 -4q-3 -1 -5.5 -1.5t-2.5 -4.5l3 -12q2 -9 3.5 -18t3.5 -17q1 -8 0 -15.5t-2 -15.5l-3 -33q-2 -17 -4 -33t-4 -33q-2 -16 -5.5 -31.5t-6.5 -31.5q0 -3 -2.5 -12.5t0.5 -11.5
q2 -1 6 -0.5t6 1.5q5 0 9 0.5t9 1.5q17 2 34 1.5t34 0.5q4 0 6.5 1.5t6.5 1.5q4 1 7.5 1t7.5 1q4 0 7.5 0.5t7.5 0.5t7.5 -2.5t6.5 -4.5q5 -4 11.5 -9t5.5 -11q-1 -7 -8.5 -10.5t-12.5 -6.5q-14 -8 -28.5 -12t-30.5 -7q-16 -4 -32 -6.5t-32 -6.5q-7 -2 -14 -5t-14 -5
q-7 -3 -10 -6t-4 -11q0 -7 -1.5 -14t-1.5 -14q0 -8 -3 -15.5t-5 -15.5q-5 -14 -3.5 -30t2.5 -31v-15.5t-2 -15.5q-2 -7 -1 -10.5t9 -5.5t15.5 -1.5t15.5 0.5q8 1 17 1h18q17 1 33.5 3t33.5 2h16t16 -1q8 0 15.5 -0.5t14.5 3.5q8 3 16.5 0.5t10.5 -12.5q0 -6 -4.5 -7t-7.5 -3
q-5 -2 -9.5 -5t-9.5 -5q-5 -3 -9.5 -5t-9.5 -4t-9.5 -5t-9.5 -5q-11 -5 -22.5 -6t-22.5 -1h-9z" />
    <glyph glyph-name="F" unicode="F" horiz-adv-x="348" 
d="M195 551q2 -16 4 -23t2 -23q1 -17 0 -34t-3 -34t-4 -34.5t-4 -34.5q-1 -5 -0.5 -8.5t6.5 -3.5q8 -1 17 -1h18q8 0 15.5 1.5t15.5 1.5q9 0 18 -0.5t17 0.5q8 0 16.5 1t16.5 3q4 1 13 0.5t4 -8.5q-3 -5 -6.5 -10t-8.5 -9q-6 -5 -13.5 -6t-15.5 -2q-8 -2 -15 -3.5t-15 -2.5
t-15.5 -2.5t-15.5 -3.5t-15.5 -3t-15.5 -2q-5 0 -12.5 1.5t-12.5 -0.5q-3 -2 -3.5 -6.5t-0.5 -7.5q0 -5 0.5 -8t0.5 -8v-9t-1 -9q-4 -17 -8 -32.5t-6 -32.5t-4 -33.5t-6 -33.5t-7.5 -33t-8.5 -32q-2 -8 -4.5 -15.5t-4.5 -15.5q-2 -5 -4 -12.5t-9 -8.5q-5 0 -9 5t-9 3
q-6 -2 -10.5 -8t-11.5 -4q-3 0 -5.5 2.5t-5.5 0.5q-2 -1 -3 -4.5t-2 -5.5q-5 -17 -17 -7q-12 11 -12.5 26.5t1.5 29.5q1 8 0.5 16t0.5 16q0 8 1 17l2 18q2 17 3.5 34t-0.5 34q-1 17 1 34l4 34q8 68 16 135t19 135l2 16t3 16q1 4 3 11t-3 10t-12 2t-13 0q-7 1 -12.5 4
t-10.5 8q-4 3 -8 7.5t-2 10.5q2 7 10 9t14 3q17 3 34 2.5t34 -0.5q8 0 15 -2t15 -3t17 -1.5t17 -1.5l16 -2t16 0t16.5 -0.5t16.5 -2.5q34 -2 67.5 0t67.5 -2q11 -1 22.5 -1h23.5q4 0 9 1t8 -2q4 -5 1.5 -9.5t-5.5 -7.5q-7 -6 -15.5 -8t-16.5 -2q-19 -1 -37 -12
q-11 -6 -20.5 -7t-20.5 0l-51 3h-22.5t-23.5 1q-11 1 -22.5 2t-22.5 1q2 -8 1 -9.5t1 -7.5z" />
    <glyph glyph-name="G" unicode="G" horiz-adv-x="494" 
d="M406 -90l-5 2.5t-5 -1.5q-2 -2 -2.5 -3.5t-1.5 -3.5q-3 -2 -8 -7q-3 -2 -6 -6.5t-6.5 -9t-8 -6.5t-8.5 0q-8 4 -11 15.5t-4 19.5q-1 11 2 22t-2 22q-13 -7 -25.5 -13.5t-27.5 -8.5q-7 -1 -14 -1.5t-15 -1.5q-3 0 -5.5 -1.5t-5.5 -3.5q-8 -2 -14 -2q-7 0 -13 -1t-13 -1
q-8 0 -15.5 3t-14.5 5q-8 3 -14 6t-11 9t-10.5 12.5t-11.5 12.5q-5 5 -11 7t-12 5t-10.5 7t-9.5 9q-18 22 -24 52q-7 31 -7 66q1 17 -0.5 33t-3.5 33t0 33t4 33t4 33t6 33q7 32 15 63.5t22 61.5q3 7 6.5 13.5t6.5 14.5q3 7 5 14t5 14q11 23 32 44q11 11 23 20.5t26 18.5
q6 4 12.5 6.5t14.5 6.5q7 3 13.5 7t13.5 6t14 2.5t14 2.5q8 3 16.5 3.5t17.5 -0.5q8 -2 15 -3.5t15 -3.5q7 -2 13.5 -3.5t12.5 -5.5q6 -5 10.5 -10t9.5 -10l10.5 -10.5t7.5 -13.5v-7l4 -4q2 -3 4 -11t4.5 -15.5t3.5 -15.5q2 -7 0 -14.5t-4 -14.5l-4 -12t-9 -9
q-6 -2 -11.5 0.5t-10.5 4.5q-10 7 -10 15q0 4 1 8.5t-3 6.5q-5 4 -11 7.5t-13 3.5q-13 0 -26.5 -6t-24.5 -14q-6 -4 -12 -7t-11 -8q-8 -10 -16 -22q-7 -14 -14 -27t-13 -27t-11.5 -28t-6.5 -30q-2 -17 -6 -32.5t-9 -31.5q-2 -8 -4.5 -15.5t-4.5 -15.5q-2 -9 -2 -18t-1 -17
q-1 -17 -2 -34.5t-1 -34.5q0 -33 14 -61q8 -14 16 -27t22 -21q6 -4 12.5 -2.5t13.5 4.5q3 2 6 3.5l7 3.5q3 2 7 4.5t6 5.5q11 14 20.5 27t20.5 27l8 12t7 13t5 13q1 4 3 7t4 7q2 7 4 13.5t4 14.5q1 4 3 14q1 4 2.5 8t1.5 8q0 5 -3.5 5t-6.5 -1h-16q-9 -1 -18 -1h-17t-15 3.5
t-14 7.5l-14 7t-10 11q-3 7 4 10t11 4q8 2 16.5 4t16.5 4q17 2 33 1.5t33 1.5q8 2 15.5 3.5t15.5 2.5h17h8q1 0 5 -4q5 -2 12 -0.5t12 3.5q8 2 15 3.5t15 -1.5q5 -2 8 -6t1 -10q-7 -13 -5 -32q1 -8 2 -14.5t-1 -14.5t-4.5 -16t-4.5 -16l-2 -8l-2 -8q-1 -2 -3 -6.5t-1 -6.5
q2 -7 -1 -13t-4 -13q-3 -17 -8 -32.5t-10 -31.5q-2 -8 -4.5 -15t-5.5 -14q-2 -3 -2.5 -6.5t-2.5 -7.5t-3.5 -8t-3.5 -8q-3 -7 -6 -13.5t-7 -13.5q-5 -6 -9.5 -12t-5.5 -14q-1 -4 -0.5 -7t-1.5 -7q-2 2 -1 1t-1 0z" />
    <glyph glyph-name="H" unicode="H" horiz-adv-x="541" 
d="M423 74q0 6 -1.5 19t0.5 28q1 8 2.5 14.5t2.5 14.5t0.5 16.5t1.5 16.5t3.5 14.5t3.5 14.5q1 4 0 7l-2 6v9.5t1 9.5q0 8 0.5 16t0.5 16q0 5 0.5 8.5t0.5 8.5q0 2 0.5 5.5t-1.5 5.5t-4 1.5t-4 -0.5q-4 0 -5.5 -1l-4.5 -3q-3 -1 -6.5 -0.5t-7.5 0.5q-5 -1 -9 -1h-9
q-17 0 -34.5 -1t-34.5 -3q-8 -1 -16 -1t-16 -1q-6 -1 -10.5 -2t-5.5 -8q-2 -17 -4 -33.5t-4 -33.5l-4 -34l-4 -34q-1 -8 -1.5 -16.5t-0.5 -16.5q1 -8 1.5 -17t-0.5 -17q-1 -16 -4.5 -31t-5.5 -30q-1 -7 -1 -13t-2 -13q-5 -14 -13 -22q-4 -5 -9.5 -8t-11.5 -5
q-3 -1 -6.5 -1.5t-6.5 0.5q-5 0 -8 1.5t-8 1.5q-8 -1 -15 -2.5t-15 -3.5q-15 -4 -33 -4q-3 1 -6.5 0.5t-6.5 0.5q-2 2 -2.5 4t-1.5 4q-2 3 -6 3q-4 -1 -7 -2t-7 1q-3 1 -5.5 2.5t-5.5 3.5q-6 2 -7 5q-2 2 -1.5 5t0.5 5q0 5 0.5 8.5t0.5 8.5q0 17 -1 33t0 32q1 5 1 8.5t1 8.5
q0 3 1 7.5t0 8.5q-2 8 -0.5 15.5t3.5 15.5q2 17 2.5 33.5t3.5 33.5q3 16 5 32l4 32q2 17 5.5 32t5.5 32t4 32.5t4 32.5t5 33.5t6 33.5q2 16 7.5 30.5t9.5 29.5q4 13 2.5 28t6.5 26q2 2 4.5 4t4.5 4t1.5 5t-0.5 6q-2 6 -3 13.5t3 12.5q3 5 9 6t11 2q8 0 14 3l7 3.5l7 3.5
q6 2 14 0.5t13 -6.5q2 -2 3 -4.5t3 -4.5t5 -3l6 -2q8 -2 11 -5t6 -10q4 -8 6.5 -15.5t3.5 -15.5q2 -8 1.5 -15.5t0.5 -15.5q1 -9 2.5 -17.5t2.5 -17.5q2 -17 2.5 -34t-0.5 -34l-3 -33q0 -8 0.5 -17t1.5 -17q0 -5 0.5 -8.5t0.5 -8.5q0 -2 -1 -6.5t1 -6.5q1 -2 5 -2t8.5 0.5
t8 2t5.5 1.5q16 2 33 2h34t33 -2t33 -3q3 0 6 -0.5t4 3.5t2 7.5t2 8.5q2 8 3.5 16.5t3.5 16.5t3.5 15.5t2.5 15.5q2 9 2 17.5t1 17.5q2 16 6 31t7 30q2 6 4.5 12t2.5 12q0 3 1.5 6t2.5 6q1 5 1.5 8.5t0.5 7.5l2 12t4 11q4 5 9.5 5.5t10.5 2.5q3 1 5 2.5t4 2.5q5 0 13 -2
q6 -2 14.5 -4t13.5 -7q3 -4 1 -11q0 -6 -2 -16q-1 -8 -2.5 -16.5t-3.5 -16.5q-8 -32 -12 -65.5t-12 -65.5q-2 -8 -3.5 -15t-3.5 -15t-4.5 -15.5t-3.5 -15.5q-1 -6 5 -7.5t14 -2.5t14.5 -4t6.5 -10q0 -5 -8 -5.5t-12 -1.5q-5 -1 -13 -2t-9 -9q-1 -17 -1 -33.5t-1 -33.5
q-2 -29 -5 -58t-5 -58q-1 -14 -1.5 -29t-0.5 -29q-1 -15 0 -29.5t7 -28.5q2 -7 5 -13.5t5 -13.5q2 -5 4 -13q1 -5 -8 -7q-3 0 -6 0.5t-6 -0.5q-3 0 -6 -1t-6 -1q-4 1 -12 5l-15 6q-13 8 -19 18q-3 6 -6.5 12t-5.5 12q-6 14 -6 29t-2 29q-1 9 -1.5 10.5t-0.5 4.5z" />
    <glyph glyph-name="I" unicode="I" horiz-adv-x="259" 
d="M393 307q2 2 4 2.5t4 2.5q-2 -5 -3.5 -9t-3.5 -8q-5 -11 -7.5 -19.5t-6.5 -16.5q-4 -7 -7 -11.5t-6 -11.5q-2 -5 -3 -8.5t-3 -8.5q-2 -4 -4 -7l-4 -6t-4 -5t-4 -5l-4 -8l-4 -8q-2 -2 -3.5 -5t-3.5 -6q-2 -4 -5 -8.5t-5 -8.5q-3 -4 -6 -9q-5 -8 -9.5 -15t-9.5 -15
t-10.5 -14t-7.5 -15q-7 -11 -14 -21.5t-15 -21.5q-1 -1 -2 -1.5t-2 -1.5q-4 -4 -7 -12q-3 -4 -5.5 -7.5t-5.5 -7.5q-2 -1 -2.5 -2t-1.5 -2q-5 -4 -8 -9l-6 -10q-2 -3 -4.5 -5.5t-4.5 -5.5h-1q-6 -6 -8 -9q-3 -5 -6 -6q-7 -6 -9 -8t-3.5 -3t-3.5 -2q-8 -4 -12 -5
q-6 -3 -7.5 -5t-7.5 -4h-2h-1h-3q-2 0 -2 0.5t-3 1.5q-1 0 -5 2q-8 3 -9.5 3.5t-2.5 1.5q-11 4 -14.5 7t-11.5 11q-17 18 -23 41.5t-11 46.5l-3 15h1q-1 10 -0.5 20t0.5 20q1 17 0 32.5t1 32.5l4 34t3 34l4 68t7 68q5 33 12.5 65.5t11.5 66.5q2 17 4.5 33.5t4.5 33.5
q1 8 1.5 16.5t2.5 16.5q1 8 2 17.5t1 17.5q0 5 -2 11.5t2 10.5q4 5 12 4t13 -3q8 -2 8 -4t8 -4t8.5 -5t8.5 -5q13 -3 14.5 -8t9.5 -16q9 -12 16 -25.5t11 -27.5q2 -8 3 -15t3 -14q2 -8 4.5 -16.5t1.5 -16.5t-2.5 -15t-3.5 -15q-1 -8 -1.5 -16t-1.5 -16q0 -4 -0.5 -7t-1.5 -7
q-2 -3 -3 -5.5t-1 -6.5q-1 -8 -1.5 -17t-1.5 -18l-3 -33q-1 -9 -0.5 -18t-1.5 -17t-3.5 -15t-3.5 -15t-3 -16l-2 -16q-2 -17 -4 -33t-4 -33t-3.5 -32.5t-3.5 -32.5q-3 -18 -6.5 -36t-3.5 -36q-1 -18 8.5 -14t21.5 18q1 0 3 2q1 1 2 1.5t2 2.5q7 7 13 16h1q7 5 7 12q1 1 3 5
q7 4 11.5 12t7.5 14q4 9 11 14q5 4 6.5 8t3.5 9q4 4 5 6l2 4q1 1 1 2t1 2q0 1 1 1l2 3q4 5 7.5 9.5t7.5 9.5v1q1 0 3 2q2 4 4.5 8t4.5 9q2 1 6 5q5 7 11 16.5t9 14.5q1 1 1 5q2 2 3 4q2 0 4 2q3 2 5.5 5.5t4.5 4.5t4 1.5t4 5.5q3 5 5 8t5 5q4 2 7 5.5t5 5.5t3.5 5t4.5 6z
" />
    <glyph glyph-name="J" unicode="J" horiz-adv-x="407" 
d="M506 524q-6 -6 -10 -8t-17 -4q-17 -3 -33 -4t-33 1q-8 2 -15.5 0.5t-15.5 -3.5q-9 -2 -18 -3.5t-17 -2.5q-8 -2 -15.5 -2.5t-15.5 -1.5q-7 -2 -6.5 -6t1.5 -9q5 -17 8.5 -33t6.5 -33t5.5 -34t5.5 -34q2 -8 2.5 -16.5t2.5 -16.5q2 -9 1.5 -17.5t0.5 -17.5q1 -8 2 -14.5
t2 -14.5q0 -9 -1 -17.5t1 -17.5q3 -17 4 -33.5t0 -33.5q0 -17 -3 -32q-1 -9 -4 -17t-7 -16q-3 -7 -5.5 -14t-6.5 -14q-7 -11 -20 -21q-21 -17 -52 -25q-7 -2 -13.5 -4t-12.5 -4q-16 -6 -32 -1l-30 12q-7 3 -12.5 7.5t-10.5 9.5t-9 10t-7 11q-2 3 -3 6t-3 6t-4.5 6t-4.5 6
q-17 26 -12 57q3 27 27 40q6 4 12.5 4t13.5 1t11.5 1t8.5 -8q8 -13 11 -26q2 -8 -0.5 -15.5t-0.5 -15.5t3 -16t3 -16q2 -7 4.5 -12t9.5 -9q9 -6 20.5 -5.5t18.5 9.5q11 11 11 26t-2 29q-2 17 -4.5 33.5t-5.5 33.5q-2 16 -5.5 32t-6.5 33q-7 33 -14 66.5t-12 67.5
q-2 17 -5.5 32.5t-7.5 31.5l-4 16l-4 16q-1 3 -2 8.5t-6 5.5q-7 -1 -13 -2t-13 -2q-8 -1 -16.5 0t-16.5 1t-14.5 1t-14.5 3q-5 2 -13.5 2.5t-10.5 7.5q-2 5 2.5 11t6.5 9q5 6 12.5 9.5t14.5 5.5l16 4l16 4t15.5 3.5t15.5 4.5q6 2 6 7t2 10q2 8 8 11q7 3 9 8q2 7 6.5 8.5
t11.5 2.5q7 0 15 -1.5t13 -6.5q3 -5 2.5 -11.5t4.5 -10.5q2 -2 4.5 -1.5t4.5 0.5q4 1 8 1.5t8 1.5q6 2 10 4l3.5 3.5t4.5 2.5t6.5 0.5t6.5 -0.5q4 1 7.5 2t8.5 2q15 4 31.5 6t32.5 4q32 4 64 12q34 9 65 1q8 -2 14.5 -4.5t14.5 -5.5q7 -3 13 -6.5t9 -11.5q2 -4 3 -8t-1 -8
q-2 -5 -6.5 -6.5t-7.5 -6.5q-2 -3 -2.5 -7t-2.5 -8q-2 -2 -6.5 -2.5t-7.5 -0.5q-5 -9 -7.5 -9.5t-10.5 -3.5z" />
    <glyph glyph-name="K" unicode="K" horiz-adv-x="443" 
d="M579 306q2 1 8 5q-2 -5 -3.5 -9t-3.5 -9q-5 -10 -7.5 -18.5t-6.5 -16.5q-4 -7 -7 -11.5t-5 -11.5l-8 -20h-1q-4 -6 -7 -9v-2q-5 -7 -7.5 -12.5t-7.5 -12.5q-10 -15 -17 -29q-2 -2 -4 -8q-1 0 -1 -0.5t-1 -0.5q-5 -12 -10 -18l-13 -13l-8 -8v-1h-1q-11 -7 -19.5 -12.5
t-17 -8t-18.5 -1t-24 7.5q-17 8 -33 18t-33 19q-18 10 -34 23t-33 27q-8 6 -16.5 9.5t-16.5 10.5q-5 5 -9.5 10t-9.5 10q-2 -8 -2 -15v-15t0.5 -16t1.5 -16q1 -17 3 -32.5t0 -32.5q-3 -32 -1.5 -64t-0.5 -64q-1 -17 -4.5 -32.5t-8.5 -31.5q-5 -14 -9.5 -27.5t-15.5 -24.5
q-9 -9 -24 -13t-26 7q-5 5 -7 13t-3 15q-2 8 -2 16.5t-1 16.5q-2 17 -2.5 33.5t-1.5 33.5q-2 17 -3 34t-3 34q-1 17 -2 33.5t-3 33.5t-1 33.5t1 33.5q-15 -7 -30.5 -13t-29.5 -14q-8 -5 -13 -4q-7 1 -5 9q1 4 4 6.5t5 5.5q3 3 6 5.5t6 5.5q13 12 25.5 24t24.5 24q6 6 6.5 12
t0.5 14q0 10 1 14t2.5 7t2.5 6q3 8 2 15t-1 14q0 8 -0.5 16t-1.5 16q-2 8 -3.5 16.5t-2.5 16.5t-0.5 15.5t0.5 15.5v69t4 69q1 9 1.5 18t2.5 17q2 6 2 13t2 13q2 5 9 6t12 3q6 2 12 5l12 6q3 2 6.5 1.5t5.5 0.5t3.5 2.5t3.5 1.5t3.5 -3t3.5 -5t4.5 -5t4.5 -5q9 -13 15 -27
t8 -29q2 -17 2 -34.5v-34.5v-17t-1 -17q0 -8 1 -15t2 -15q1 -9 1 -18v-17v-17q0 -2 -1 -7t1 -7t6.5 1.5t6.5 5.5q3 3 6 5.5t6 5.5l24 21l51 45q13 12 25 25q6 4 7 11q2 7 6 11q9 11 22 20t25 17q7 5 13.5 9.5t13.5 6.5q3 1 4 -1q1 -1 1 -2.5t2 -0.5q3 0 6.5 2.5t5.5 3.5
q7 5 14.5 6.5t14.5 6.5q5 4 9 9t9 10q11 10 25 19q5 5 9 2q2 -2 0 -6t-4 -6q-4 -7 -8.5 -14t-9.5 -13q-5 -5 -10.5 -9.5t-10.5 -9.5q-11 -11 -21 -23l-20 -24q-11 -13 -21 -26t-21 -26q-11 -11 -21 -22.5t-21 -23.5q-21 -23 -47 -40.5t-49 -40.5q-3 -3 -6.5 -6t-5.5 -7
q-3 -5 3 -11q7 -12 18 -21q10 -12 23.5 -20t25.5 -18l24 -20t25 -20q13 -9 23.5 -19.5t25.5 -15.5q8 -2 12 -4q12 5 21 14q1 0 1 1q24 13 37 33q3 0 5 3q2 4 4.5 8t4.5 9q3 2 7 6h-1q5 6 11 15.5t9 14.5q2 2 1 5l4 4q1 0 3 2q3 2 5.5 5.5t4.5 4.5t4 1.5t5 5.5q2 4 4 7.5
t6 5.5q6 5 11 11q2 2 3.5 5t4.5 6z" />
    <glyph glyph-name="L" unicode="L" horiz-adv-x="264" 
d="M255 690q1 0 -1 3.5t-1 3.5q-2 2 -3 2t-4 1q-6 1 -11 -4q-10 -6 -17 -18q-7 -11 -12.5 -22.5t-8.5 -24.5q-2 -8 2 -6.5t8 4.5q5 5 10 10.5t10 10.5q8 8 15.5 17t9.5 15q1 2 2.5 3.5t0.5 4.5zM-6 -126q0 -4 0.5 -8t2.5 -7q3 -3 5 -4q3 -2 5 -3t4 -3q5 -3 9 -2.5t9 2.5
t10.5 4.5t11.5 4.5q9 5 16 10.5t11 14.5q5 10 9 20t9 20l4.5 9t0.5 9t-8 3.5t-10 -0.5q-12 -1 -23 -3.5t-22 -6.5q-19 -6 -29 -21q-6 -9 -11.5 -18.5t-3.5 -20.5q0 -4 -0.5 -2.5t-0.5 4v3t1 -4.5zM485 -86q14 1 27 -1t27 -4q8 -1 15.5 -1t14.5 2q8 0 15 3t15 5t8 -4t-5 -11
t-11.5 -10.5t-11.5 -10.5q-2 -2 -3.5 -5t-3.5 -5q-3 -3 -11 -7l-14 -8t-15 -9q-14 -7 -26 -7q-9 1 -17.5 -1t-17.5 -2q-7 0 -14.5 -1t-14.5 0q-17 1 -33 0q-16 -2 -31.5 1.5t-30.5 8.5q-16 5 -31.5 10t-30.5 12q-8 3 -14.5 5.5t-14.5 4.5q-10 2 -15 4q-4 2 -7 4.5t-7 4.5
q-5 3 -12 7t-13 3q-5 -1 -8 -9t-6 -12q-8 -9 -17 -17q-12 -9 -22 -19q-11 -11 -25 -16.5t-29 -8.5q-16 -3 -32.5 -5.5t-32.5 0.5q-8 1 -14 4t-13 5q-8 3 -14.5 5.5t-11.5 7.5q-12 9 -15.5 22t-3.5 27q0 15 5 30q2 8 4 15t6 14q7 12 17 21t22 17q14 8 28.5 14t30.5 9
q8 2 15 3t15 2q8 0 9 6q1 5 1.5 9t0.5 8l-3 66q-2 17 -2.5 34.5t-2.5 34.5q-1 8 -2.5 16t-2.5 16q0 9 -0.5 18t-1.5 18q-1 17 -2 34.5t0 34.5t3 33.5t3 33.5t4 33t6 33t5.5 33.5t4.5 33.5q0 7 2 14t2 14q0 6 -9.5 5t-13.5 -1h-16t-16 -1q-9 -2 -17.5 -1t-16.5 3q-14 2 -28 6
t-25 15q-5 5 -4 9t9 2q2 -1 5.5 0.5t6.5 1.5q4 -1 7.5 -2t7.5 -1q7 -2 14 -3t15 -1h15.5t15.5 2q8 1 14 3t13 5t14 4.5t14 3.5q9 4 12 17q3 8 6 15.5t6 15.5q2 7 5.5 13t6.5 13q3 8 6.5 14.5t8.5 12.5q2 4 4.5 7t4.5 6t4.5 7t4.5 6q8 5 14.5 9t14.5 9q12 8 28.5 7t28.5 -7
q5 -2 11 -5.5t7 -10.5q1 -5 -1 -13v-9t-1 -9q0 -14 -7 -25q-4 -7 -6.5 -14t-7.5 -13q-5 -5 -9 -9.5t-8 -10.5q-9 -12 -21 -21l-24 -18q-3 -2 -6.5 -4.5t-5.5 -5.5q-3 -2 -6 -5t-5 -6t-1.5 -6t0.5 -5q2 -5 2 -15v-35q0 -8 -0.5 -16t1.5 -16q3 -18 3 -34q0 -17 2.5 -33.5
t5.5 -33.5q3 -16 5.5 -32t4.5 -33q2 -8 1.5 -15t1.5 -15l4 -16t3 -16q2 -16 5 -31.5t6 -31.5q2 -8 3 -16.5t2 -16.5q2 -10 2 -15t1 -8t2 -8q3 -15 0.5 -31.5t-4.5 -31.5q0 -4 1.5 -8t0.5 -8q-1 -5 -2.5 -9t-3.5 -9q-1 -3 -2.5 -8.5t0.5 -7.5q2 -4 7 -5t8 -2q10 -4 19 -8
t19 -9q9 -5 18 -7.5t19 -5.5q20 -5 38.5 -12.5t38.5 -12.5q20 -6 39.5 -8.5t39.5 -4.5q8 0 8 0.5t-3 0.5t-5.5 -0.5t0.5 -0.5z" />
    <glyph glyph-name="M" unicode="M" horiz-adv-x="540" 
d="M287 160l3 -18q1 -2 1.5 -6.5t3.5 -5.5q8 -2 11 6.5t3 13.5q-1 8 -2.5 16.5t-5.5 16.5q-2 5 -4 2t-3 -5q-4 -9 -7 -20q0 -3 0.5 -2.5t1 2t0 2.5t-1.5 -2zM303 290q12 33 21 64q5 16 10 31.5t10 32.5q4 16 8.5 32t9.5 33q2 8 3.5 15t1.5 15v16q0 5 1 9t2 9q1 8 -1 15
t-2 15q0 3 1.5 5t3.5 4q2 3 3 6.5t2 6.5q1 15 16 18q8 2 15.5 1t15.5 -3q14 -3 28 -9q11 -5 13 -21q1 -8 0 -15q-2 -8 1 -11q6 -5 8.5 -11t7.5 -11q10 -11 13 -26t5 -29q2 -17 3 -33.5t5 -33.5q6 -32 6 -64v-16t2 -16q1 -8 2 -16.5t3 -17.5q2 -17 4.5 -32.5t5.5 -32.5t6 -33
t4 -33q2 -33 5 -65.5t7 -64.5q1 -8 4.5 -15t5.5 -15t3.5 -17t3.5 -17l4 -16t6 -16q2 -6 4 -13.5t8 -10.5q-1 -1 -5 -7q6 -2 4 -7.5t-2 -10.5q-1 -8 -2 -15t-6 -15q-3 -6 -6.5 -12.5t-11.5 -6.5h-6.5t-7.5 -1l-7 -3.5t-7 -2.5q-5 -1 -13 2t-13 -1q-2 -2 -3.5 -4t-3.5 -4
q-6 -3 -12 -3q-3 1 -5.5 2.5t-5.5 2.5q-7 2 -10 5q-6 4 -8 10.5t-4 13.5q-5 15 -7.5 30.5t-4.5 31.5q-3 17 -6 32.5t-5 32.5q-5 32 -10 65t-11 66q-6 36 -12 72.5t-11 73.5q-2 19 -4.5 37.5t-3.5 37.5q-1 10 -2 18.5t-3 17.5q-1 5 -1.5 9t-1.5 8t-1.5 8t-2.5 6
q-8 -15 -13.5 -31t-11.5 -32q-2 -8 -4.5 -15.5t-4.5 -15.5t-3.5 -16.5t-4.5 -16.5q-2 -7 -6 -14.5t-4 -14.5q0 -8 3 -16t5 -16l6 -30q2 -8 3.5 -16.5t2.5 -16.5q0 -6 -4.5 -10.5t-6.5 -9.5q-3 -5 -11 -7.5t-13 -3.5q-11 -2 -20.5 3.5t-11.5 16.5q-3 15 -3 30q0 8 2.5 16.5
t4.5 16.5q1 3 1.5 6.5t2.5 7.5q1 3 2.5 5.5t2.5 6.5q0 8 -3 15t-5 14q-14 38 -28.5 75.5t-35.5 72.5q-3 -6 -3 -13q-1 -4 0 -7l2 -6q2 -8 0.5 -17t-2.5 -17t-1 -15.5t-2 -15.5t-2.5 -16t-1.5 -16t-0.5 -16t0.5 -16q1 -8 0.5 -17t-0.5 -17q0 -4 0.5 -7.5t0.5 -8.5l-3 -15
q-2 -8 -4.5 -16.5t-2.5 -16.5q-1 -8 0.5 -15.5t1.5 -15.5t-1 -17l-2 -18q-2 -16 -1.5 -31.5t-3.5 -31.5q-5 -17 -8 -33t-7 -33q-2 -8 -4.5 -15t-5.5 -15q-2 -8 -6.5 -15t-8.5 -14q-8 -11 -18 -22t-23 -15q-4 -2 -8 -2t-8 -1l-8 -2t-8 0q-8 0 -15 3t-15 5q-7 1 -14.5 2.5
t-12.5 5.5q-3 2 -4.5 5.5t-3.5 6.5q-3 4 -5.5 7.5t-4.5 7.5q-9 14 -18.5 26.5t-17.5 25.5t-15.5 27t-12.5 28q-2 7 -4.5 13t-4.5 13t3 11t11 4h14t13 -4q5 -4 10.5 -7.5t10.5 -8.5q10 -12 19 -24.5t18 -25.5q5 -6 8.5 -13t9.5 -12q4 7 5 15t3 16t3 17t3 17q4 17 7.5 33.5
t5.5 33.5q5 34 6 67.5t3 67.5t6.5 67.5t6.5 67.5q1 17 2.5 32.5t0.5 31.5q-1 17 0.5 33t3.5 33q3 17 4 34.5t2 34.5q1 7 1 13.5t4 11.5q4 7 9 9t12 5q7 2 13.5 4t14.5 4q16 4 24 -6q11 -11 16.5 -23.5t10.5 -26.5q11 -31 20 -62t17 -63q3 -14 12 -26.5t15 -25.5
q7 -15 11.5 -30.5t11.5 -30.5q2 -2 3 -5t3 -3z" />
    <glyph glyph-name="N" unicode="N" horiz-adv-x="591" 
d="M725 306q4 2 7 5q-2 -5 -3 -9t-3 -9q-5 -10 -8 -18.5t-7 -16.5q-3 -7 -6 -11t-5 -11q-3 -9 -8 -22t-10 -25.5t-8.5 -22t-3.5 -10.5q-1 -2 -3.5 -8t-5.5 -12.5t-5 -12.5t-3 -8q-5 -16 -12 -25t-12 -24q-2 -8 -4 -14.5t-4 -13.5q-2 -4 -5 -10.5t-6 -13.5t-6.5 -13.5
t-4.5 -10.5q-2 -4 -4 -12h-1q-6 -8 -11.5 -16t-11.5 -16q-6 -7 -13.5 -12.5t-14.5 -11.5q-1 -1 -1 -1.5t-1 -1.5q-5 -4 -11.5 -8t-11.5 -3q-3 0 -6 1t-5 0q-3 0 -4.5 -2t-3.5 -3q-7 -1 -15 0.5t-14 3.5q-2 2 -5 3.5t-6 1.5q-4 0 -10 4q-5 5 -8.5 10.5t-8.5 10.5q-4 5 -9 8
t-9 8q-5 6 -7.5 13.5t-5.5 14.5t-5.5 14t-4.5 15q-1 5 -2 8.5t-2 8.5q-1 3 -2.5 5.5t-2.5 6.5q-3 7 -3 14t-2 14q-1 4 -2.5 8t-2.5 8v13q-2 8 -2.5 16t-2.5 16q-2 17 -0.5 33t-0.5 33q-3 34 0 68q2 17 4.5 33.5t3.5 33.5q2 33 1.5 66t-2.5 66q-1 9 -1.5 17.5t-2.5 17.5
q-2 8 -3.5 15.5t-3.5 15.5q-2 4 -10 6q-4 2 -7 3l-6 2q-7 2 -14 -0.5t-14 -4.5q-8 -2 -13 -7.5t-10 -11.5t-9 -12.5t-9 -12.5q-5 -7 -9.5 -12.5t-9.5 -12.5l-15 -27q-10 -15 -14 -29l-9 -30q-2 -8 -3 -16.5t-3 -16.5q-2 -7 -3.5 -14t-3.5 -14q-2 -8 -4 -16.5t-2 -16.5
q1 -8 2 -15.5t1 -15.5q1 -9 1.5 -18t-0.5 -18q-1 -8 -1.5 -16t-1.5 -16q0 -17 -0.5 -33t-2.5 -33q0 -5 -1 -9t-1 -8t1 -7t1 -6q1 -8 2 -16.5t1 -16.5q0 -17 -5 -32t-3 -32q0 -3 2 -6t0 -7q-1 -3 -3.5 -6t-4.5 -5q-6 -4 -8 -6q-4 -4 -10 -6q-8 -2 -14.5 1t-13.5 5
q-3 2 -6 3.5t-7 2.5q-2 1 -5.5 -0.5t-5.5 -1.5q-9 0 -15 6q-2 2 -5 1.5t-5 -0.5q-5 0 -10 5q-2 3 -4.5 5t-4.5 4q-5 5 -5 13.5v16.5t-0.5 16.5t-0.5 16.5q1 8 0.5 17t-0.5 17q0 7 -1 14.5t3 13.5t3.5 15t-0.5 17q1 8 1.5 15.5t1.5 15.5q2 17 4 33.5t4 33.5t2.5 34t2.5 34
q1 8 2 16.5t2 16.5t0.5 15.5t1.5 15.5q1 8 2.5 16.5t2.5 16.5t1 16t2 16q2 17 5 32.5t5 32.5t3 33.5t3 33.5q1 7 0.5 16t3.5 15t10 3t11 -2q3 0 6 1.5t6 1.5q6 -2 9 -5q2 -2 2.5 -5t2.5 -5q1 -3 2.5 -6.5t2.5 -6.5q1 -8 3 -16.5t4 -16.5q1 -8 1 -15.5t1 -15.5
q2 -8 3.5 -15.5t4.5 -15.5q2 -1 4 3.5t4 6.5l4 6l4 6q9 14 20 27t22 25q5 5 10.5 9.5t12.5 8.5l12 6q2 2 5 1t6 0t6 3l6 4q4 2 7 3t7 3q5 3 10 5.5t12 1.5q5 -1 6.5 1t3.5 5q3 3 13 3h14.5t14.5 -1q14 -1 30.5 -5.5t28.5 -12.5q6 -5 9.5 -10.5t6.5 -11.5q3 -8 6 -15.5
t6 -15.5q5 -16 7 -31.5t2 -32.5q-1 -17 0 -33.5t0 -33.5q0 -8 -1 -17t-1 -17q1 -8 0.5 -17t-0.5 -17q1 -17 1.5 -33t0.5 -33q0 -7 1 -16t-3 -15q-5 -7 -4.5 -12.5t1.5 -13.5q2 -17 1 -33t0 -33q0 -9 0.5 -18t1.5 -18q1 -8 2 -15.5t2 -15.5q1 -16 3 -31t7 -29q2 -5 5.5 -13.5
t9.5 -8.5q4 0 7.5 -1t6.5 -1q4 0 7 2.5t6 4.5q6 4 12 8.5t11 10.5q5 5 9 15t7 16q3 8 11 17.5t11 17.5q2 6 4.5 12t4.5 12q0 2 1 4q1 0 1 1q3 5 6 12.5t4 9.5q5 10 8 18t7 17q4 10 8.5 19t8.5 19q2 3 4 6.5t4 6.5q0 1 1 1q3 4 7 12q1 1 1 5q2 2 3 4q2 0 4 2q3 2 5 5.5t4 4.5
t4 1.5t5 5.5q3 4 5 7.5t5 5.5t6 5t5 6q2 2 4 5t5 6z" />
    <glyph glyph-name="O" unicode="O" horiz-adv-x="499" 
d="M400 482q0 2 -1 3q-2 8 -4 15.5t-4 15.5q-3 8 -5.5 16t-5.5 16q-2 7 -6.5 12t-8.5 10q-10 15 -24 20q-6 2 -12 2t-11 -5q-2 -2 -4.5 -3.5t-4.5 -3.5q-8 -6 -5 -13q4 -8 9 -15t11 -14l18 -18l3.5 -3.5l3.5 -3.5q5 -4 9.5 -8t9.5 -8q11 -10 26 -18q6 -3 6 3zM406 380h1v20
q0 4 -2 5q-7 6 -14 5q-5 -1 -9.5 -1.5t-9.5 -0.5q-11 1 -20 5t-17 10q-6 4 -11.5 8t-10.5 9q-3 2 -6 5t-6 5q-2 2 -3.5 3t-3.5 3q-16 5 -23 18q-13 18 -20 36q-2 9 -7 2q-4 -6 -8.5 -12t-6.5 -13q-13 -22 -17 -45q-2 -8 -4.5 -14.5t-4.5 -14.5q-5 -12 -3 -24v-9.5t-2 -9.5
l-4 -8t-3 -8q-2 -8 -3 -16t-3 -16q-2 -14 5 -25q1 -1 1 -5t-0.5 -7t-0.5 -7q-1 -2 -1 -3t-1 -3q-2 -4 -2 -7q0 -7 2 -17q1 -8 1 -14.5t2 -13.5q1 -5 1.5 -9t2.5 -9q2 -6 4 -12.5t2 -13.5q-1 -4 -0.5 -7t0.5 -7q1 -5 1 -10v-10q0 -4 1 -6l6 -16l6 -16q2 -5 3.5 -9t3.5 -9
q1 -3 1.5 -6.5t2.5 -5.5q5 -9 11 -17.5t11 -16.5q3 -7 8 -10q7 -5 13.5 -9.5t13.5 -10.5q4 -4 9 -4q13 0 26 5q21 6 29 24q2 5 5.5 10.5t6.5 10.5q2 5 5 10t5 10q2 4 3 8t3 9q3 11 7 22t5 23q0 8 1.5 15.5t2.5 15.5q2 11 3 20.5t3 19.5q1 10 1.5 19t1.5 18q1 3 1 6.5v6.5
q2 9 2.5 18t1.5 18q1 10 1.5 19t0.5 19q1 12 0 23.5t-1 23.5zM303 -52q-16 4 -33 5q-1 1 -3 1q-4 0 -8 0.5t-9 1.5h-3q-6 -2 -11.5 0t-10.5 4q-19 7 -38 21q-8 6 -16.5 13t-16.5 13q-11 9 -19 20.5t-14 23.5q-1 1 -1.5 2t-2.5 2q-10 8 -15 18t-10 21q-2 7 -5 13t-6 13
q-4 6 -6.5 12.5t-4.5 13.5q-1 5 -2.5 9t-3.5 9q-1 5 -2 11t-2 11t-2 8.5t-2 7.5q-1 7 -1.5 13.5t-2.5 13.5q0 4 -0.5 7.5t-0.5 7.5q0 2 0.5 5t-0.5 6q-2 16 -1.5 32t0.5 33q0 8 1 15t2 15t2 16.5t2 16.5q2 15 6 29.5t9 28.5q3 6 5.5 12.5t4.5 13.5q7 22 22 43
q9 13 17.5 25.5t17.5 25.5q4 5 7 10.5t8 10.5q5 7 11.5 13.5l12.5 12.5q5 6 11 11.5t12 10.5l9 9q7 5 13 4q2 -1 7 1l7 3.5l7 3.5q7 4 14 2q4 -2 7 -1l6 2q10 5 19 5q3 1 6.5 0t6.5 -2q4 -2 7 -3t7 -1q21 2 38 -4q11 -5 21 -11t18 -14q7 -8 12.5 -17t11.5 -17q2 -4 5.5 -7.5
t5.5 -7.5q3 -5 6 -9t5 -9q3 -6 5.5 -11.5t4.5 -11.5q4 -11 6 -21q1 -8 2 -12.5t3 -12.5l1 -4q3 -9 6 -10t11 4q9 7 17.5 14t16.5 14q12 10 18 24q2 4 4 7t4 7q6 8 13 5q8 -1 10 -12q1 -5 1.5 -9.5t0.5 -9.5q1 -16 -10 -27q-7 -8 -13.5 -14t-13.5 -13q-3 -3 -11 -7
q-4 -2 -7.5 -4.5t-7.5 -6.5q-5 -5 -10.5 -9.5t-11.5 -9.5q-5 -3 -3 -10q1 -8 1.5 -16.5t2.5 -16.5q1 -9 1.5 -17.5t1.5 -17.5q1 -8 1.5 -15t0.5 -15q0 -11 -0.5 -22t-1.5 -22q0 -7 -0.5 -13t-1.5 -13q-2 -9 -2.5 -17.5t-2.5 -17.5q-2 -10 -3.5 -19.5t-3.5 -19.5
q-1 -5 -5 -15q-2 -8 -4 -14.5t-4 -14.5q-2 -9 -4 -18.5t-5 -18.5q-2 -7 -5.5 -14t-6.5 -14q-4 -11 -9.5 -20.5t-12.5 -18.5q-11 -17 -26 -32q-4 -4 -7 -8.5t-8 -8.5q-2 -3 -5.5 -5t-6.5 -4q-2 -2 -8 -6l-2 -2q-7 -3 -13 -6.5t-14 -3.5q-5 -1 -9 -1.5t-11 -1.5z" />
    <glyph glyph-name="P" unicode="P" horiz-adv-x="388" 
d="M205 462q0 -17 2 -33.5t3 -33.5v-13t4 -11q2 -1 4.5 0t4.5 2l18 6q6 3 13.5 5.5t13.5 7.5t10 11.5t8 12.5q8 13 15 25.5t9 27.5q2 16 2 33t-5 32q-2 8 -5 15t-6 15q-2 7 -5 14.5t-8 13.5q-3 5 -8 10.5t-11 6.5q-13 3 -23 -9q-5 -5 -7.5 -11t-4.5 -12q-2 -9 -4.5 -14.5
t-4.5 -13.5l-4 -20l-4 -20q-2 -11 -4.5 -23.5t-2.5 -19.5v-4zM131 -111q-6 7 -12 12t-14 9q-8 5 -17 9.5t-17 10.5t-11 10q-2 4 -2 8.5v8.5q1 17 3 33t0 33q-1 17 -1.5 34t1.5 34q1 33 0 66q-1 35 -1.5 70t-1.5 70q0 17 -0.5 33.5t-0.5 33.5t-1 34t-1 34v32v8.5t1 8.5
q0 4 0.5 8t-0.5 8q-4 16 -4 32.5t-2 32.5q0 4 -0.5 11.5t0.5 15t4.5 13t9.5 5.5h14t14 -1q8 -1 15 -1.5t15 -2.5q4 -1 5 -4.5t3 -6.5q2 -8 4 -15l4 -14q1 -4 2 -7.5t2 -6.5q7 12 9.5 26t7.5 27t13 25t17 23t21 20t26 14q7 3 13.5 3.5t14.5 1.5l15 3q4 2 8 1.5t9 -0.5
q26 -4 48 -23q5 -5 10.5 -9t11.5 -9q12 -9 16 -20q2 -6 5 -12t5 -12q1 -4 5 -10q4 -2 5 -4l3 -6q3 -8 3 -15v-15q0 -9 0.5 -17.5t1.5 -17.5q3 -32 -5.5 -62.5t-25.5 -56.5q-4 -6 -8.5 -11.5t-9.5 -11.5q-4 -5 -9.5 -9t-10.5 -9q-22 -21 -49 -38q-7 -5 -13 -6t-13 -3
q-8 -1 -15.5 -4t-15.5 -6q-5 -2 -11.5 -3.5t-8.5 -6.5q-2 -8 -1.5 -17.5t-0.5 -17.5q0 -8 0.5 -16.5t1.5 -16.5q0 -9 -0.5 -17.5t-0.5 -17.5v-33q0 -8 0.5 -16.5t0.5 -17.5q0 -10 1 -19.5t2 -20.5q2 -11 2 -20.5t-1 -20.5q0 -5 0.5 -10t-0.5 -10l-2 -10l-2 -10q-2 -5 -3 -9
t-3 -9q-5 -8 -6 -16q-2 -8 -3 -15.5t-6 -14.5q-5 -6 -11 -12t-14 -7q-3 -1 -6.5 -1t-6.5 -2q-2 -2 -2.5 -5t-1.5 -5q-2 -7 -8 -10q-3 0 -7 -2q-2 -2 -3 -3.5t-3 -3.5q-2 2 0.5 2t-0.5 -2z" />
    <glyph glyph-name="Q" unicode="Q" horiz-adv-x="492" 
d="M339 61q-2 -1 -5 -1t-5 -1q-7 -2 -11.5 -6.5l-9.5 -9.5q-4 -5 -8 -10.5t-9 -10.5l-9 -15q-2 -3 -3.5 -5.5t-2.5 -5.5q-3 -5 1 -8q5 -3 8.5 -6.5t8.5 -6.5l8 -6t9 -5q6 -2 12 0q3 3 9 3l12 2t11 5l12 6l6 4t5 4q5 5 8.5 11t7.5 12q2 2 0 7q-10 20 -24 31q-14 12 -31 12z
M421 74q3 3 3 6t1 6q4 11 4 22.5t2 22.5q1 5 1 10.5t1 10.5q2 9 3.5 18t3.5 18q2 12 4.5 24t4.5 23q1 5 1.5 8.5t0.5 8.5q-1 12 -1 24t-1 23v3q0 4 0.5 8t0.5 8q-2 11 -3.5 21t-2.5 21q-2 11 -2 22.5t-1 22.5q0 8 -2 16.5t-4 16.5q-8 24 -16 44q-2 4 -6 9t-8 8.5t-9 8.5
q-3 4 -5.5 8t-5.5 8q-7 7 -14 8q-6 1 -11.5 3t-11.5 0q-4 -1 -7 -2t-7 -2q-18 -5 -31 -15q-6 -5 -11.5 -9.5t-11.5 -9.5q-2 -2 -4.5 -5t-4.5 -5q-5 -8 -10 -17t-11 -17q-7 -9 -11 -19t-9 -21q-4 -9 -7 -18l-6 -18q-3 -8 -5.5 -15t-4.5 -15q-3 -12 -5 -24.5t-5 -25.5
q-2 -8 -3 -14.5t0 -14.5v-3q-5 -21 -3 -44q0 -2 2 -8q1 -2 2.5 -4.5t1.5 -4.5q1 -5 1 -9v-9q0 -2 -0.5 -3.5t-0.5 -3.5q3 -7 3 -13v-13q1 -5 1 -9v-9q1 -4 1.5 -7t0.5 -7q1 -11 4 -21.5t5 -21.5q3 -9 6.5 -17.5t7.5 -16.5q2 -2 2.5 -4.5t2.5 -4.5q2 -4 8 -12q3 -6 6 -1
q4 5 7 9t6 9q5 7 10.5 14t10.5 14q3 3 7 5.5t7 6.5q8 8 17 12t18 9q5 2 9.5 3t9.5 3q16 5 32 2q16 -1 26 -16q4 -5 8 -9.5t8 -9.5zM541 -1q2 8 2.5 15.5t2.5 15.5q1 2 1 3t1 3q2 7 9 5q4 -1 8 -4q7 -5 13.5 -10t13.5 -10q9 -9 9 -20q1 -9 -2 -16t-6 -15q-2 -5 -3.5 -9
t-4.5 -7q-11 -14 -24 -24q-4 -4 -8.5 -6.5t-9.5 -4.5q-4 -2 -7 -2t-7 -1q-8 -2 -15 -3t-15 0q-13 0 -23 9q-4 3 -7.5 6t-7.5 5q-7 4 -11.5 9t-9.5 10l-7.5 7.5t-7.5 6.5q-2 3 -5 0q-5 -5 -10.5 -10t-10.5 -10q-1 -1 -1.5 -2t-1.5 -2q-2 -1 -2.5 -2t-2.5 -2q-12 -8 -24.5 -14
t-26.5 -10q-5 -2 -9 -1.5t-8 -0.5q-11 -2 -22.5 -2t-22.5 2q-11 1 -20.5 3t-20.5 1q-23 -2 -43 11q-8 5 -15.5 10.5t-14.5 10.5q-9 8 -16 16.5t-14 17.5l-24 39q-5 7 -9 14t-9 15q-2 2 -2.5 5t-2.5 5q-3 8 -6.5 15.5t-6.5 15.5l-4 16l-4 16q-2 9 -2.5 18.5t-2.5 18.5
q-1 9 -1.5 18t-0.5 17q-1 12 -1.5 24.5t-0.5 24.5q0 8 1 16l2 16q2 17 5.5 34t8.5 34q5 19 9.5 37.5t9.5 36.5q5 15 11.5 29.5t14.5 28.5q6 11 12 21.5t13 21.5t19 23q11 12 21.5 23t21.5 22q12 12 30 25q2 2 4.5 1.5t4.5 0.5q4 2 8 3.5t8 3.5q9 4 18.5 5.5t18.5 2.5
q9 2 18 1l18 -2q5 -1 9.5 -1t9.5 -1q14 -1 28 -9q6 -4 12 -7.5t12 -8.5q2 -1 5 -4q11 -11 22 -21t22 -21t17.5 -23t8.5 -27q1 -4 1 -7.5t1 -7.5q2 -6 3.5 -12t3.5 -12q3 -10 5.5 -19t3.5 -19q0 -6 0.5 -11.5t1.5 -10.5v-42q0 -2 0.5 -3t0.5 -3q0 -7 0.5 -13.5t0.5 -13.5v-29
q0 -3 0.5 -6.5t0.5 -7.5q0 -3 -1 -5q-2 -7 1 -12q3 -6 3 -12t-1 -13q-1 -5 -1 -9t-1 -9q-2 -8 -2 -16t-2 -16q-1 -8 -2 -15.5t-3 -15.5q-2 -9 -3 -18.5t-5 -18.5q-1 -4 -2 -7t-2 -7q-1 -5 -1.5 -8.5t-1.5 -8.5q-2 -8 -3.5 -15t-3.5 -15q-5 -21 -12 -41q-2 -8 1 -14
q2 -5 3 -9t4 -8q7 -11 21 -18q7 -6 17 -9q29 -5 35 23q1 4 1 12h-1z" />
    <glyph glyph-name="R" unicode="R" horiz-adv-x="485" 
d="M596 -97q0 -9 -5 -13q-31 -27 -67.5 -24.5t-68.5 28.5q-19 15 -31.5 37.5t-22.5 42.5q-4 7 -7.5 14t-5.5 15q-5 14 -10.5 28t-11.5 28q-3 8 -6 16.5t-5 16.5q-1 2 -1 5q1 1 1 1.5t1 1.5l-4 8t-4 9l-15 24q-4 5 -7 10.5t-6 10.5q-5 7 -9 13.5t-8 14.5q-2 4 -3 5
q-5 10 -13 14q-4 2 -6 4q-6 5 -12 5t-12 -2t-12 -3t-13 0q-6 0 -9 1q-5 0 -5 -5q-1 -5 -1 -9v-9q1 -15 1 -30.5t-2 -29.5q-1 -8 -1 -16.5t-1 -16.5v-37q1 -11 0 -20.5t-2 -20.5q0 -5 -0.5 -11t0.5 -11q0 -11 0.5 -21t1.5 -21q1 -10 1 -19v-18q-1 -4 0 -7t1 -6
q0 -2 -0.5 -4.5t-0.5 -4.5q-1 -5 -1.5 -10t-1.5 -10q0 -2 -2 -6q-1 -2 -1.5 -2.5t-1.5 -2.5q-3 -5 -9 -2l-2 2q-3 4 -6 7.5t-8 5.5q-4 2 -4.5 5.5t-1.5 6.5q-1 1 -1 2q-1 11 -12 8q-10 -3 -16 4q-5 5 -10 5.5t-10 0.5q-14 0 -20 12l-2 4t-1 4q-1 3 -1 5.5t-1 5.5h-1
q-1 11 -1.5 22.5t-0.5 22.5q-1 13 -0.5 25.5t0.5 25.5q0 8 0.5 16.5t-0.5 16.5q0 5 3.5 4t2.5 4q-1 6 -1.5 12.5t-0.5 12.5q0 8 0.5 16.5t0.5 16.5q0 9 -0.5 18.5t-0.5 18.5q0 8 -0.5 16.5t-0.5 16.5q0 7 -8 9q-9 3 -18 5.5t-18 5.5q-10 3 -15 10q-4 4 -3 7.5t6 4.5t9 1.5
t9 2.5q2 1 9 -1q4 -2 8 -3t9 -3h2q8 -1 9 0.5t1 9.5q1 18 1.5 36.5t2.5 36.5q0 9 0.5 21.5t1 25.5t1 25.5t1.5 21.5q1 28 6 59q2 17 1 26.5t2 26.5q1 3 1.5 6.5t1.5 6.5q0 4 -1 6h-4q-5 -1 -9.5 -1.5t-9.5 -1.5q-2 0 -3 -0.5t-3 -0.5q-3 -2 -6.5 -4t-7.5 -4q-5 -3 -9.5 -8.5
t-9 -10t-10 -5.5t-12.5 6q-6 6 -6 12.5t3 13t7.5 12.5t8.5 10q8 7 16 13.5t16 13.5q11 9 27 14q4 1 7.5 3t7.5 4q10 5 21 8.5t22 5.5q5 2 9.5 2.5t9.5 2.5q6 1 12.5 2t12.5 2q9 1 18.5 1.5t18.5 0.5q11 0 22.5 -0.5t22.5 -0.5q12 -1 24 -2.5t23 -4.5q11 -2 21 -5l20 -6
q5 -1 10.5 -1.5t10.5 -0.5q21 -3 34 -15q9 -7 16 -15t15 -17q7 -8 13.5 -16.5t12.5 -17.5l4 -8t5 -7q7 -7 10.5 -14.5t6.5 -15.5q3 -9 3 -19q0 -11 -2.5 -22t-4.5 -22q-2 -7 -4.5 -13t-4.5 -13q-1 -1 -1 -1.5t-1 -1.5q-12 -11 -20 -30q-2 -5 -5.5 -10t-6.5 -10
q-12 -17 -24 -30q-8 -10 -16.5 -19.5t-19.5 -17.5q-4 -3 -8 -5.5t-9 -4.5q-6 -2 -12 -5.5t-12 -5.5q-12 -4 -23 -15q-4 -5 3 -9q17 -9 29 -19q29 -23 46 -48.5t27.5 -57t18.5 -71.5t19 -92l4 -14t7 -13l4 -4l4 -4q4 -4 6 -7q1 -3 6 -5q4 0 7 -0.5t7 -0.5h11t12 1l10 2l10 2
q5 2 10 -2q6 -2 7 -8zM317 290q19 11 27 27q5 10 10.5 19.5t10.5 19.5q3 5 5.5 9.5t3.5 11.5q1 11 1 22t-2 22q-2 7 -2 14v15v6.5t-1 6.5q0 3 -1 6l-2 6q-1 6 -1.5 12t-2.5 12q-2 12 -10 22q-5 6 -9.5 12t-8.5 12q-4 5 -18.5 14t-31 14.5t-29.5 4t-13 -16.5v-13
q0 -2 -0.5 -4.5t-0.5 -4.5v-1q0 -1 -0.5 -2t-0.5 -2q-2 -6 0 -12q-1 -1 -1 -4q-1 -3 -1 -11q0 -10 0.5 -20t-1.5 -20q-2 -15 -3 -30t-2 -31q-1 -18 -3.5 -36t-4.5 -37q-1 -5 2.5 -12t2.5 -13q-2 -7 -2.5 -14t-1.5 -15q-1 -5 -1 -16q0 -6 6 -4q6 1 11.5 2t11.5 1q16 2 25 8
q10 5 19.5 10t18.5 10z" />
    <glyph glyph-name="S" unicode="S" 
d="M455 520q1 -26 -7 -42q-6 -7 -14 -13q-5 -4 -7 -2.5t-7 0.5q-4 -1 -6 -3t-6 -4t-7 -0.5t-8 0.5q-4 -1 -7 -4t-7 -1q-6 2 -4.5 7t2.5 10q1 1 1 3q0 5 3 10t3 11q0 5 -2.5 10.5t-0.5 10.5q4 18 1.5 34t-20.5 30q-26 18 -54.5 10.5t-46.5 -31.5q-4 -5 -5.5 -9t-5.5 -8
q-12 -13 -22 -26.5t-15 -30.5q-11 -32 -0.5 -62t33.5 -53q25 -26 55.5 -49.5t53 -53.5t32 -70.5t-5.5 -98.5q-9 -35 -35 -63t-60 -45t-72.5 -21t-74.5 8q-17 6 -32.5 13t-29.5 18q-5 5 -11 9.5t-11 10.5t-8 13t-6 15q-6 15 -11 29t0 31q2 10 8 19.5t12 18.5q5 8 12 14.5
t19 6.5q5 0 10.5 0.5t10.5 -0.5q18 -6 25 -15t8 -20t-2 -24t-7 -27q-2 -8 -3 -15t3 -15q4 -7 7.5 -13t10.5 -11q6 -5 13 -8l14 -6t15.5 -7t16.5 -3q4 0 7 1.5t7 2.5t8 1t8 1q4 2 6.5 4t5.5 4q3 3 7.5 6t7.5 6q2 3 3.5 5.5t3.5 5.5q6 5 9 10q18 31 18 57.5t-12.5 50t-35 43
t-48.5 36.5q-8 5 -15.5 9t-15.5 9q-7 5 -13 10t-13 10q-11 9 -18.5 15t-14.5 18q-17 32 -30 61q-7 15 -7.5 31t3.5 32q1 3 2 6.5t2 6.5t3 5t3 5q2 8 1 15.5t1 15.5q5 28 20 52.5t38 42.5q11 8 21.5 15t21.5 15q12 9 21.5 13.5t23.5 10.5q8 3 9.5 3h9.5q13 0 25 3t24 3
t25.5 -3t24.5 -6q8 -2 16 -4.5t16 -6.5q8 -3 15 -6t14 -8q6 -5 9 -10.5t8 -10.5q14 -14 19.5 -34t7.5 -40z" />
    <glyph glyph-name="T" unicode="T" horiz-adv-x="325" 
d="M180 -29q-5 2 -5.5 3t-5.5 3q-2 2 -5 1.5t-5 1.5q-2 4 -4 7t-4 8q-2 7 -2 14v15v17.5t-1 17.5q0 17 1 32.5t3 32.5q2 8 3 15t2 15l4 16t0 17q0 8 -1.5 16.5t-2.5 16.5t-2.5 17t-0.5 17t2 14.5t1 14.5q1 9 1 18v18q1 17 2 33t3 33l2 16t1 16l4 16t3 16q3 16 5.5 32t2.5 33
q1 5 0 12.5t2 12.5q1 2 3.5 2.5t2.5 2.5q1 5 1.5 8.5t0.5 8.5q1 5 1 15v7q0 3 -1 3h-4q-8 1 -16.5 1h-16.5q-16 0 -31.5 1t-32.5 6q-15 5 -26 12q-5 4 -12 10t-5 13q2 6 10 3t13 -5q18 -5 33 -5q17 1 33 3t33 2q17 1 34.5 0.5t34.5 -0.5q35 1 68 5t67 7q17 2 34 3t34 3
q4 1 12 0t7 -8q0 -3 -1.5 -5t-3.5 -4q-1 -4 -0.5 -6.5t-4.5 -4.5q-6 -4 -12.5 -7t-13.5 -6q-8 -4 -16 -5.5t-16 -3.5q-8 -1 -16 -1.5t-16 -2.5l-16 -2t-16 -3q-13 -4 -14 -17.5t-2 -24.5q-1 -17 -1 -34t-2 -34q-1 -34 -4.5 -67t-7.5 -66q-1 -8 -1.5 -15.5t-1.5 -15.5
q-1 -9 -1 -17.5t-1 -16.5v-16t-2 -16q0 -8 -1 -15.5t-2 -15.5t-1.5 -16t-1.5 -16v-16t-2 -16q-3 -15 -6.5 -29.5t-6.5 -28.5q-1 -8 -2.5 -15.5t-2.5 -15.5t-1 -15.5t-4 -14.5q-3 -6 -3.5 -13t-2.5 -14q-2 -3 -10 -7q-2 0 -3 -1t-2 0q-2 0 -3 1.5t-4 2.5q-2 1 -6.5 2t-7.5 1
q-5 0 -6.5 -3.5t-3.5 -6.5q-4 -8 -8 -15t-11 -13q-8 2 -7 3.5t-1 1.5z" />
    <glyph glyph-name="U" unicode="U" horiz-adv-x="524" 
d="M657 306q3 3 8 5q-2 -5 -3 -9t-3 -8q-5 -11 -8 -19.5t-7 -16.5q-4 -7 -6.5 -11.5t-5.5 -11.5q-8 -19 -16 -37.5t-15 -37.5q-2 -6 -4.5 -11.5t-4.5 -10.5q-3 -5 -5 -11t-5 -11q-5 -5 -5.5 -9.5t-2.5 -11.5q-5 -16 -12.5 -30t-15.5 -29q-7 -14 -14.5 -28.5t-15.5 -29.5
q-4 -7 -8.5 -13.5t-9.5 -14.5q-6 -9 -19 -14q-7 -2 -23 -1t-24 1q-13 0 -25 6q-13 6 -20.5 18.5t-12.5 24.5q-7 15 -10 31t-7 32q-3 16 -3 33q-1 5 -1.5 8.5t-1.5 7.5q-2 1 -4 -3t-2 -7q0 -8 -1.5 -16t-3.5 -16q-2 -7 -4.5 -13.5t-5.5 -13.5q-7 -14 -14 -28.5t-15 -28.5
q-8 -15 -18 -27q-5 -5 -9 -10.5t-10 -9.5q-6 -5 -14 -7l-16 -4q-15 -3 -31 -3q-16 1 -28.5 7t-25.5 14q-26 16 -45.5 42.5t-30.5 54.5q-4 9 -7.5 18.5t-5.5 20.5q2 4 1 7q-1 12 -3.5 23t-5.5 22v19.5t2 18.5q2 17 0.5 32.5t-0.5 32.5t3 33t5 32q3 17 5 36t5 36t6 33.5
t5 33.5t4.5 30.5t5.5 30.5q2 9 3.5 17.5t3.5 17.5q2 8 5.5 14.5t7.5 13.5q3 7 6.5 14t8.5 13l9 12q3 4 5 4.5t7 1.5q8 1 15 3t15 4q7 2 14.5 3.5t15.5 1.5q6 0 11 -7.5t8 -11.5q5 -6 8 -12t4 -14q2 -8 1 -15.5t-2 -15.5q-2 -8 -3 -16l-2 -16q-2 -17 -3 -33t-5 -32
q-3 -16 -6 -31.5t-4 -32.5t-1.5 -33.5t-3.5 -33.5t-5 -33t-4 -33q-2 -8 -3 -16.5t-2 -17.5q-1 -7 -3 -14.5t0 -14.5l2 -4q-1 -1 -1 -4q2 -11 2 -21.5t2 -21.5q0 -6 4 -8q0 -1 0.5 -1.5t0.5 -1.5q1 -18 6.5 -37.5t14 -31t21 -9.5t27.5 26q8 13 13 26t10 27q11 31 23 61.5
t23 61.5q3 9 6 17.5t5 16.5t3 15.5t3 15.5q4 16 10.5 31t9.5 32q2 16 8 33t9 34q3 16 6 33.5t8 32.5q5 17 8 29.5t8 28.5q2 3 3 7t4 6q2 2 5 3t5 3l6 4t6 3q3 2 6.5 2.5t6.5 2.5q7 3 12.5 -0.5t7.5 -9.5q1 -1 1 -1.5t1 -1.5q-11 -27 -14.5 -56t-7.5 -58q0 -4 1 -6
q-2 -8 -4 -17t-3 -17q-1 -17 -2.5 -33t-3.5 -32q-2 -17 -4.5 -33.5t-3.5 -33.5q-2 -17 -2 -33.5t-2 -33.5q-1 -8 -1.5 -16t0.5 -16q2 -8 1.5 -16t-0.5 -16q0 -17 -0.5 -33.5t0.5 -33.5q1 -2 1 -4t1 -4q-2 -9 0 -18v-2q-2 -13 3 -26.5t18 -18.5q4 -1 9 1q2 -3 7 2t10.5 9.5
t10.5 11.5q8 13 16 31t15 32q8 15 13 30t12 30q2 4 5.5 11.5t7.5 15.5t7.5 15.5t6.5 12.5l1 2v1q1 1 1 1.5t1 1.5l1 3q7 9 10 16q2 2 1 5l4 4q1 1 1.5 1t1.5 1q3 2 5.5 5.5t4.5 4.5t4 1.5t5 5.5q2 5 4 8.5t6 5.5q3 2 6 5l5 5t4 5.5t4 5.5z" />
    <glyph glyph-name="V" unicode="V" horiz-adv-x="400" 
d="M270 202q8 32 11 62t13 62q5 16 10.5 30.5t12.5 29.5q7 16 12.5 31.5t10.5 32.5q5 16 12 29q4 8 8.5 14t7.5 14q6 16 13 30.5t14 29.5q14 30 26.5 60t29.5 59q8 14 17.5 28t18.5 28q5 7 9 14t9 14l9 12q3 4 5 5l6 3q1 -5 -0.5 -7.5t-3.5 -6.5q-4 -7 -8 -13q-5 -8 -7 -15
t-6 -15q-3 -7 -7 -13t-6 -14t-4 -15.5t-5 -15.5q-12 -31 -24 -61.5t-25 -61.5q-11 -28 -19 -61q-5 -17 -10 -32.5t-10 -32.5q-5 -16 -11 -31.5t-11 -31.5q-3 -8 -3.5 -15t-2.5 -15q-1 -8 -2 -16.5t-3 -16.5q-5 -33 -13 -65.5t-14 -65.5q-3 -17 -5 -33.5t-4 -33.5
q-2 -16 -5 -31.5t1 -30.5q2 -8 3.5 -16t3.5 -16t4.5 -14.5t4.5 -14.5q2 -6 1 -12.5t-8 -8.5q-2 -1 -4 -1.5t-4 -3.5q-2 -6 -8 -11q-4 -4 -9.5 -8t-11.5 0q-6 5 -12.5 8.5t-12.5 9.5q-5 5 -8.5 10.5t-7.5 11.5t-8 11t-9 11q-9 12 -14 26l-10 28q-6 17 -13.5 31.5t-14.5 30.5
q-7 15 -12.5 30.5t-11.5 32.5q-5 15 -10 31t-10 31l-24 63q-6 16 -10.5 31.5t-8.5 31.5q-5 16 -9 31.5t-9 30.5q-6 16 -11.5 31t-8.5 32t-6.5 33t-6.5 33t-4.5 33.5t-4.5 33.5q-2 8 0.5 12.5t8.5 9.5q6 6 12.5 10t14.5 8q5 3 12 8t13 3q3 -1 5.5 -2.5t6.5 -1.5q3 -1 6 -1.5
t5 -2.5q5 -5 7.5 -12t5.5 -13q5 -8 9 -14.5t9 -13.5q8 -14 12.5 -29t9.5 -30q12 -31 21.5 -63t17.5 -64q8 -30 15.5 -59t18.5 -58q2 -7 4 -13.5t3 -13.5q2 -10 1 -15q0 -4 -0.5 -7.5t-0.5 -7.5q1 -7 4 -14.5t5 -15.5q1 -3 3.5 -14t7.5 -11q0 2 0.5 3.5t0.5 2.5z" />
    <glyph glyph-name="W" unicode="W" horiz-adv-x="620" 
d="M631 414q0 -8 2 -17t0 -17q-2 -17 -2 -33.5t-2 -32.5q-2 -17 -3.5 -33.5t-3.5 -33.5q-2 -8 -3.5 -14.5t-3.5 -13.5q-2 -8 -4 -16.5t-4 -16.5q-4 -16 -8.5 -31.5t-9.5 -31.5q-4 -13 -11 -28q-2 -4 -3 -7t-3 -7q-2 -3 -1.5 -6.5t-0.5 -6.5q-2 -6 -7.5 -12t-9.5 -11
q-4 -3 -11 -10q-5 -4 -8 -11q-8 -11 -21 -19t-27 -10q-14 -3 -29 -3t-29 8q-27 15 -43 40q-2 2 -4 5.5t-4 3.5q-3 0 -4 -3.5t-2 -5.5q-5 -8 -9 -14.5t-9 -14.5q-2 -3 -5 -10t-6.5 -15t-7 -15t-5.5 -10q-5 -7 -11.5 -10.5t-12.5 -6.5q-8 -5 -15.5 -8.5t-15.5 -6.5l-3 3
l-20 -1q-26 -5 -44.5 -0.5t-34.5 15.5t-30 26.5t-29 33.5q-9 11 -16 23q-4 7 -7 13.5t-7 14.5q-7 15 -12.5 29.5t-10.5 30.5t-8 31.5t-6 31.5q-3 17 -5.5 33t-3.5 33t2 32.5t5 32.5q1 8 0 16l-2 16q0 9 -0.5 17.5t0.5 17.5q2 29 5 57t17 55l4 11q5 7 6 15.5t-1 16.5
q3 9 6.5 18.5t6.5 18.5q4 9 11 15.5t14 11.5h1q10 2 15 -0.5t9 -10.5q2 -5 2.5 -9.5t2.5 -8.5q3 -5 7.5 -9.5t6.5 -9.5q5 -11 5.5 -24.5t2.5 -24.5q4 -26 8 -62t11 -62q9 -38 19 -75t18 -75v-2q-2 -14 5.5 -22.5t12.5 -22.5q0 -17 6 -35.5t17 -32.5q1 -2 1 -5t1 -5
q0 -8 9 -12q6 -11 14 -16q4 -3 3.5 -9.5t3.5 -5.5q7 -2 11 -1q5 -2 14 3q7 3 10 8t7 12q2 6 7 13t4 14q0 4 -1.5 7l-3.5 7q-2 7 -4 17q-4 17 -7.5 32.5t-7.5 32.5q-2 8 -4 15t-4 15t-2 16t-2 16q-2 17 -4 33.5t-2 32.5q0 18 4 31q3 8 6 16.5t7 16.5q9 22 30 35q11 7 25.5 8
t23.5 -11q2 -2 3 -4.5t3 -5.5q6 -8 7 -12q5 -12 7 -29t1.5 -33t0.5 -32q1 -8 2 -14.5t1 -14.5t-0.5 -17t-0.5 -18q-2 -17 -3 -33t-4 -33q-1 -7 -2.5 -14t0.5 -14q2 -8 7.5 -13t10.5 -11q17 -23 44 -25q13 0 23.5 6.5t17.5 16.5l16 26t14 27q5 14 9.5 29.5t6.5 30.5
q1 5 1.5 11t0.5 12q1 4 1 11q0 2 1 3t2 3q0 13 1 26t2 25q1 28 2 55t3 54q0 6 0.5 12.5t0.5 12.5t1 13t0 13q-2 6 -4 11t-2 12v52q0 3 -1 12.5t2 11.5q4 2 10 -2.5t8 -6.5l8 -9l2 -2l2 -2l1 -1v-1q-2 -2 4 -8t7 -11q2 -8 3.5 -16.5t3.5 -17.5q3 -17 4 -33.5t3 -33.5v-16
t1 -16zM366 250q1 20 1.5 39.5t-0.5 38.5q-1 5 -1 9t-1 9t-2 9.5t0 9.5q2 9 0 17.5t-5 16.5q-3 -5 -6.5 -10t-5.5 -11q0 -5 -2 -11q0 -2 1 -7.5t-1 -7.5q0 1 -0.5 1t-0.5 1q-1 -4 -1 -11q1 -5 1.5 -8.5t0.5 -8.5q1 -4 1.5 -7.5t1.5 -8.5t2.5 -9.5t2.5 -9.5q2 -8 2.5 -17
t2.5 -17q1 -8 5 -17q0 -2 1 -2t1 2q2 6 2 10z" />
    <glyph glyph-name="X" unicode="X" horiz-adv-x="401" 
d="M268 352q11 12 18 23.5t16 25.5q10 14 19 27.5t20 26.5t22.5 24.5t22.5 23.5q6 6 11.5 12t11.5 12q10 12 23 12q7 0 11.5 -4t9.5 -8q7 -6 1.5 -12t-9.5 -10q-11 -12 -21.5 -24t-20.5 -25q-9 -12 -20 -23t-21 -23t-17.5 -26t-16.5 -27t-19 -25t-18 -26q-4 -5 -5.5 -9
t3.5 -9q6 -5 10 -11.5t9 -13.5q17 -26 29 -55.5t24 -58.5q7 -15 11.5 -30.5t10.5 -30.5q3 -7 6.5 -13.5t5.5 -13.5q3 -8 5.5 -15t6.5 -14q4 -5 7 -11t-1 -13q-2 -3 -3 -5t1 -6q2 -3 4.5 -6t4.5 -7t0 -7q-2 -4 -3 -5q-2 -2 -3 -2h-3q-4 0 -7.5 0.5t-6.5 0.5q-5 0 -15 4
q-8 2 -15.5 2t-15.5 2q-9 3 -18 4t-19 1q-8 0 -15 1t-13 7q-7 6 -12.5 13t-10.5 14q-21 32 -36.5 66.5t-32.5 67.5q-12 -11 -22 -23.5t-21 -24.5q-11 -14 -21 -26.5t-20 -26.5q-9 -12 -20.5 -21.5t-22.5 -18.5q-4 -3 -11 -5.5t-11 0.5q-7 5 -4 12t7 12q9 14 18.5 26.5
t17.5 26.5l18 28l18 28l18 28t19 28l8 12t0 14t-7.5 16t-7.5 16q-14 32 -29.5 62t-28.5 62q-7 16 -13 31.5t-12 31.5q-6 17 -12.5 32.5t-12.5 32.5q-4 12 -4 29q0 6 -1 14.5t4 13.5q4 5 11 5t12 2q18 3 32 2t28 -6t25 -15l10 -10l10 -10q5 -6 10.5 -11.5t10.5 -11.5
q6 -8 10 -17t8 -19q5 -11 9.5 -21.5t9.5 -21.5q9 -20 17.5 -40.5t19.5 -40.5z" />
    <glyph glyph-name="Y" unicode="Y" 
d="M428 241q-3 -5 -6 -9t-5 -9l-48 -36q-11 -7 -14 -22q-2 -9 -4.5 -18.5t-4.5 -18.5t-4.5 -17.5t-5.5 -16.5q-3 -9 -7 -17.5t-8 -16.5q-14 -34 -24 -68.5t-29 -66.5q-17 -27 -41 -50q-6 -5 -12.5 -9t-13.5 -9t-12.5 -10.5t-13.5 -9.5q-17 -7 -31 -4q-5 1 -8.5 1.5t-8.5 0.5
h-9.5t-9.5 1q-8 3 -15 7.5t-14 9.5t-12.5 9.5t-10.5 10.5q-9 14 -13 29.5t-4 31.5q0 8 0.5 17t2.5 17q2 9 6.5 17.5t7.5 16.5q4 7 7 14t8 13q6 7 11.5 14t12.5 13q7 5 14 8t14 8q8 5 15.5 10t15.5 10l30 22t32 19q7 2 12 5.5t7 11.5t3 17.5t1 18.5q-8 -3 -15 -6t-15 -4
q-19 -2 -37 0q-9 2 -17.5 4t-16.5 4q-10 2 -17 2q-5 0 -8.5 -0.5t-8.5 3.5q-12 12 -26.5 24t-19.5 29q-6 18 -11 35.5t-10 35.5t-5 36v36q1 38 9 74q5 19 8.5 37t8.5 37q5 18 11.5 35.5t12.5 35.5q2 6 8 11t10 10q5 -1 9 -2l8 -2q3 -2 5.5 -3t5.5 -1t4 -4t3 -6q4 -4 10 -7
q5 -3 11.5 -6.5t8.5 -9.5h-3q-1 -1 5 -4.5t8 -2.5v-3h-2l3.5 -3.5t-0.5 -5.5q-1 -3 -0.5 -7t0.5 -7q1 -9 -1.5 -18t-4.5 -17l-18 -72q-9 -37 -6.5 -75t6.5 -75q2 -16 5 -33t16 -29q4 -3 10 -10t12 -5q7 2 15 7t12 12q3 7 9 12t11 10q11 11 14 26q2 8 1.5 15.5t1.5 15.5
q2 10 4.5 19t5.5 18q5 18 10.5 35t9.5 36q3 18 7 36.5t8 36.5q4 19 7.5 37.5t7.5 36.5q2 9 4 17.5t5 16.5t6.5 15.5t8.5 14.5q8 9 19.5 11.5t22.5 -0.5q6 -2 12 -5.5t12 -6.5q8 -4 17.5 -7.5t17.5 -8.5q3 -2 4.5 -4.5t4.5 -4.5t5 -1t6 1q2 0 2.5 -4.5t0.5 -10.5v-11v-7
q-1 -19 -6 -37.5t-10 -36.5q-4 -17 -7.5 -34.5t-10.5 -34.5l-6 -16t-5 -16t-3.5 -17t-3.5 -17q-4 -17 -10 -34.5t-11 -34.5q-3 -9 -5.5 -17.5t-5.5 -17.5q0 -2 -2 -6.5t-3.5 -10t-2 -10t1.5 -5.5q1 0 1 1q14 6 27 15t27 18q4 2 6 4q-2 -7 -4 -13.5t-6 -13.5zM214 58
q3 8 4.5 15t3.5 15q-14 -5 -27 -13t-25 -17q-26 -18 -48 -37q-20 -18 -26 -46q-2 -7 -3.5 -14.5t-1.5 -14.5q1 -11 11 -21q4 -4 8.5 -7.5t10.5 -3.5q8 0 12.5 4t9.5 9l9.5 9.5t7.5 10.5q4 7 6.5 13.5t5.5 13.5q6 14 13 28t15 28q4 7 7.5 13.5t6.5 14.5z" />
    <glyph glyph-name="Z" unicode="Z" horiz-adv-x="547" 
d="M680 305q3 3 7 5q-2 -4 -3 -8t-3 -9q-5 -11 -7.5 -19.5t-7.5 -16.5q-4 -6 -6.5 -10.5t-5.5 -12.5q-1 -2 -2 -5l-2 -6q0 -2 -1.5 -4.5t-9.5 -13.5v-1q-5 -7 -7.5 -12.5t-7.5 -12.5q-10 -15 -17 -29q-2 -2 -4 -8q-1 -1 -2 -1q-2 -5 -4.5 -10t-5.5 -8q-2 -2 -6 -9.5
t-8 -15.5q-2 -6 -3 -7q-2 -2 -8.5 -11t-8.5 -11l-9 -10.5t-6 -6.5t-6 -6.5l-9 -10.5q-5 -5 -8.5 -9t-8.5 -8q-10 -8 -23 -15q-7 -4 -13 -7.5t-13 -7.5q-5 -2 -10 -4.5t-10 -4.5q-1 0 -2 -1q-5 -2 -10.5 -3t-11.5 -2t-11.5 -4t-12.5 -2q-5 0 -8 -3q-12 -2 -24 -2.5t-24 0.5
q-8 0 -16.5 -0.5t-17.5 0.5q-8 1 -15 1.5t-15 2.5t-15 5t-15 5t-15.5 3.5t-15.5 3.5q-7 2 -15.5 5t-14.5 -1q-5 -4 -10.5 -8t-10.5 -8l-15 -9q-2 -1 -4.5 -2.5t-4.5 -3.5q-6 -5 -14.5 -5.5t-15.5 -2.5q-9 -2 -17.5 -4t-16.5 -4t-15.5 -0.5t-15.5 3.5q-14 5 -27.5 10.5
t-21.5 17.5q-18 27 -4 56q5 12 16 22.5t23 16.5t26.5 10t28.5 2q8 -1 17 -2t17 -2q5 0 13 -0.5t12 4.5q5 7 8 14.5t6 14.5q4 8 7 14.5t7 14.5q7 15 15 29.5t16 30.5l14 30t12 30q5 16 11 30.5t11 30.5t12 31t13 30q7 16 13 31.5t13 30.5t12.5 30.5t10.5 31.5q5 15 10.5 30.5
t9.5 30.5q-8 -2 -15.5 -3.5t-15.5 -3.5t-16 -2t-16 -2q-16 -3 -31.5 -6.5t-32.5 -4.5q-8 -1 -16.5 -1.5t-17.5 -0.5h-15t-14 1q-15 2 -28 8t-26 13q-5 2 -13.5 6.5t-8.5 9.5q-1 7 5.5 9t11.5 4q8 2 15.5 3t15.5 -1q7 -2 12 -5t13 -4q8 0 15.5 0.5t15.5 0.5q18 0 31 4
q17 4 32.5 8t31.5 9q9 2 17 4.5t16 7.5q13 6 27 8q8 0 15 3t14 8q5 2 13 8q4 2 7 3t6 3q4 2 7 3t5 4q3 5 7 6q5 2 12 -1t12 -5q8 -2 14.5 -5.5t14.5 -5.5q10 -2 14 -2q5 -1 13 -5q13 -5 26.5 -11t16.5 -22q1 -4 0 -8l-2 -8q-2 -3 -2 -6.5t-2 -6.5q-2 -6 -6 -12l-8 -12
q-9 -14 -15 -28.5t-14 -28.5t-16 -26.5t-15 -26.5q-15 -30 -27 -60q-7 -15 -14.5 -28.5t-15.5 -27.5q-5 -8 -8.5 -15t-6.5 -15q-6 -15 -13 -25q-7 -15 -13 -29.5t-15 -28.5q-8 -14 -16.5 -27t-16.5 -27q-5 -8 -8.5 -14t-7.5 -14q-9 -15 -14 -29q-4 -7 -7 -13.5t-8 -13.5
q-2 -4 -8 -12q-2 -2 -4 -5t-3 -6q0 -4 12 -5t15 -2q8 -2 15.5 -4t15.5 -4t16.5 -4.5t17.5 -4.5q15 -3 30 -3q8 -1 16.5 -2t16.5 1q7 2 13 4.5t13 4.5q7 3 16 8t18 9.5t15.5 8t7.5 4.5q11 8 19 17t19 17q14 10 24 24t21 26q7 8 11 16l8 16q5 8 12.5 20.5t12.5 21.5v1q1 2 2 3
t2 3q1 1 1.5 2t2.5 4l1 2q2 4 3 5q1 2 1 5q1 1 1.5 2t1.5 2q2 1 4 3q3 2 5 5t4 5q2 1 4 1t5 5t5 8.5t5 5.5t6 5l5 5l4 6t5 5zM100 9q2 2 3 4q2 5 -4.5 8.5t-11.5 4.5q-6 1 -12.5 1t-13.5 1q-8 1 -12.5 -3t-9.5 -9q-5 -4 -7.5 -7t-3.5 -9q0 -9 9 -18q5 -5 10.5 -3.5t10.5 3.5
q6 2 12.5 4.5t12.5 5.5q5 3 8.5 7.5t8.5 9.5z" />
    <glyph glyph-name="bracketleft" unicode="[" horiz-adv-x="292" 
d="M145 563q3 -14 2 -21.5t0 -23.5q1 -17 0 -34l-2 -34q-1 -34 -1.5 -67.5t-1.5 -68.5q-2 -69 -3.5 -138.5t-3.5 -138.5q0 -17 -0.5 -34.5t-1.5 -35.5q-1 -17 -1.5 -33.5t-3.5 -33.5q-1 -4 -1.5 -8.5t5.5 -5.5q8 -2 15.5 -3t15.5 0q12 3 24 -4q7 -4 12 -8.5t11 -8.5
q5 -4 11 -6.5t6 -10.5q-1 -7 -7.5 -11t-11.5 -6q-15 -6 -31 -4.5t-31 -0.5q-8 0 -15.5 -0.5t-15.5 0.5t-16.5 2.5t-16.5 3.5t-15.5 3.5t-15.5 3.5q-7 2 -14 3.5t-12 6.5q-8 6 -13.5 19.5t5.5 21.5q6 5 4.5 12.5l-2.5 12.5q-2 9 -2.5 17.5t-0.5 17.5q0 34 1.5 68t3.5 69
q1 17 2.5 33.5t3.5 33.5t1.5 33t1.5 33t3 34t3 34t5 33t5 33t5 33.5t5 33.5t3.5 33.5t5.5 33.5q2 8 4 15.5t2 15.5t1 16.5t2 17.5q1 7 2.5 14t0.5 14q-1 3 -1.5 7t-2.5 6q-2 3 -4.5 5t-4.5 5q-2 4 1 8.5l5 7.5q7 12 17 12h31.5t31.5 2q17 2 32.5 5t32.5 0q6 -1 13.5 -1.5
t14.5 -2.5t12.5 -6t5.5 -12q1 -9 -4.5 -14t-14 -7.5t-17 -3.5t-14.5 -2q-11 -1 -21 -1.5t-20 -0.5q-8 -1 -15.5 0t-13.5 -4q4 -10 3.5 -11.5t0.5 -6.5z" />
    <glyph glyph-name="backslash" unicode="\" horiz-adv-x="245" 
d="M257 -36q2 -5 1.5 -5.5t0.5 -3.5q0 -8 -5.5 -15t-13.5 -8q-5 -1 -8.5 -1t-5.5 5q-3 8 -6.5 15t-5.5 14q-6 15 -11 29.5t-14 27.5q-5 7 -6 15t-3 16t-4 15.5t-4 15.5t-3.5 15.5t-5.5 14.5t-5.5 14t-3.5 15q-3 14 -9 32q-2 6 -5.5 11.5t-5.5 12.5q-2 8 -4 15.5t-4 15.5
l-4 16l-4 16q-3 17 -7 33t-6 33q-2 8 -3 17t-3 17t-4 12q-2 3 -3.5 5.5t-3.5 5.5q-7 15 -12.5 30.5t-11.5 31.5q-7 16 -13.5 31t-13.5 32q-6 16 -10.5 32t-9.5 33q-2 8 -4 16.5t-5 17.5q-4 16 1 27q3 7 8 10.5t11 7.5q5 2 11.5 8t12.5 4q8 -2 11 -10.5t5 -14.5
q3 -8 5.5 -15.5t4.5 -15.5q11 -32 21 -64.5t20 -64.5q20 -66 39.5 -131.5t36.5 -131.5q9 -33 16.5 -66.5t15.5 -66.5q8 -32 15.5 -60.5t14.5 -60.5z" />
    <glyph glyph-name="bracketright" unicode="]" horiz-adv-x="259" 
d="M138 563q1 5 0.5 6.5t3.5 11.5q-5 5 -13 4t-16 0q-10 0 -20 0.5t-21 1.5q-6 1 -14.5 2t-17 3.5t-14 7.5t-4.5 14q0 8 5.5 12t12.5 6t14.5 2.5t13.5 1.5q17 3 32.5 0t32.5 -5q16 -2 31.5 -2h31.5q10 0 17 -12l5 -7.5t1 -8.5q-2 -3 -4.5 -5t-4.5 -5q-2 -2 -2.5 -6t-1.5 -7
q-1 -7 0.5 -14t2.5 -14q1 -9 2 -17.5t1 -16.5t2 -15.5t4 -15.5q4 -17 5.5 -33.5t3.5 -33.5t5 -33.5t5 -33.5t5 -33t5 -33q3 -17 3.5 -34t2.5 -34t1.5 -33t1.5 -33t3.5 -33.5t2.5 -33.5q2 -35 3 -69l2 -68q0 -9 -0.5 -17.5t-2.5 -17.5l-2.5 -12.5t4.5 -12.5q11 -8 6 -21.5
t-14 -19.5q-5 -5 -12 -6.5t-14 -3.5q-8 -2 -15.5 -3.5t-15.5 -3.5t-16.5 -3.5t-16.5 -2.5t-15.5 -0.5t-15.5 0.5q-15 2 -31 0.5t-31 4.5q-5 2 -11.5 6t-7.5 11q0 8 6 10.5t11 6.5q6 4 11 8.5t12 8.5q12 7 24 4q8 -1 15.5 0t15.5 3q6 1 5.5 5.5t-1.5 8.5q-3 17 -3.5 33.5
t-1.5 33.5q-1 18 -1 35.5v34.5q-2 69 -4 138.5t-4 138.5q-1 35 -1 68.5t-1 67.5q-1 17 -2.5 34t-0.5 34q1 16 0 23.5t2 21.5z" />
    <glyph glyph-name="asciicircum" unicode="^" 
d="M39 365q-6 1 -10 10q-3 8 -5.5 15.5t-3.5 15.5q-2 17 7.5 30t17.5 25q19 28 38.5 54t41.5 51q10 12 19 24t23 20q3 2 6.5 3.5t7.5 0.5q3 0 6 -2l6 -4q7 -5 13 -10.5t13 -10.5q12 -10 22 -21l20 -22q11 -12 21.5 -23t20.5 -23q6 -8 11.5 -16t11.5 -16q6 -9 12.5 -17.5
t13.5 -16.5q5 -7 10 -16.5t6 -17.5q0 -6 -1 -9q0 -3 -3 -2.5t-5 0.5h-25q-5 0 -9 0.5t-8 4.5q-4 5 -8 9l-9 9q-8 8 -15.5 16.5t-15.5 16.5t-14.5 16t-13.5 17q-6 8 -11.5 16.5t-12.5 16.5q-11 -12 -21.5 -23.5t-21.5 -24.5q-11 -14 -21 -27t-21 -27q-9 -12 -19 -22.5
t-24 -17.5q-3 -2 -11 -6q-5 -2 -8 -2h-8q-2 0 -5 -1t-6 0q-2 1 -3.5 3t-3.5 4q-2 -1 -2.5 -0.5t-2.5 0.5z" />
    <glyph glyph-name="underscore" unicode="_" horiz-adv-x="490" 
d="M445 -196q-1 3 0 4.5t-2 1.5q-2 -1 -7 -0.5t-6 -1.5q-2 -2 -2 -3t-2 -1q-3 1 -8 1t-9 -1t-9 -2q-8 -1 -15 -2t-15 0t-16.5 2.5t-16.5 0.5q-17 -1 -34 -3l-34 -4t-34.5 -2h-34.5t-34.5 0.5t-34.5 1.5h-15.5t-15.5 -2q-10 -2 -15 -2q-4 -1 -7.5 0.5t-7.5 2.5q-7 2 -14.5 1
t-14.5 -2q-8 0 -14.5 0.5t-13.5 4.5q-6 4 -12 5t-12 3q-7 2 -12 5t-10 7q-3 2 -8.5 5t-10 7t-6.5 8.5t2 9.5t11 7.5t12 4.5q8 3 16.5 5.5t16.5 4.5q32 8 65 13.5t66 7.5q35 2 69.5 3t69.5 2h34t34 1l34 2t34 3q13 1 27 0q6 0 12 0.5t12 0.5t12 -1.5t12 -3.5q4 -2 12 -4
q2 -1 5.5 -1.5t5.5 -2.5q8 -8 19.5 -9.5t21.5 -2.5q9 -1 22.5 -1.5t17.5 -11.5q-5 -2 -9.5 -3.5t-6.5 -7.5l-2 -4t0 -4q3 -3 4 -5q-2 -1 -2.5 -2t-2.5 -3l3 -3t-3 -3q-6 -3 -14 -3q-6 -1 -10.5 -1t-9.5 -4t-10 -6.5t-10 -4.5q-2 -2 -5 -3.5t-5 0.5q-3 2 -6 3.5t-6 3.5
q-6 -2 -12 -4.5t-13 -2.5q-2 0 -5 0.5t-5 -0.5l-9 -6q0 1 -1 1z" />
    <glyph glyph-name="grave" unicode="`" horiz-adv-x="128" 
d="M99 705q-2 -1 -2 -0.5t-4 -0.5q-10 2 -17 6q-5 4 -7.5 8.5t-5.5 9.5q-6 10 -13 20t-12 21q-3 5 -5.5 10t-4.5 10t-4 10.5t-3 11.5q-1 2 -1 4t-2 4q-3 3 -3 8q1 4 5.5 6t7.5 2q11 0 20 -9.5t15 -15.5q13 -15 24 -33q5 -10 9.5 -19.5t7.5 -20.5q2 -8 2.5 -19t-7.5 -13z" />
    <glyph glyph-name="a" unicode="a" horiz-adv-x="372" 
d="M499 295q3 3 8 5q-2 -4 -3 -8.5t-3 -8.5q-5 -11 -8 -19.5t-7 -16.5q-4 -7 -6.5 -11.5t-5.5 -11.5q-3 -9 -7 -17q-2 -4 -8 -12q0 -1 -0.5 -1t-0.5 -1q-5 -6 -7.5 -12t-7.5 -13l-2 -4q-1 -2 -1 -2.5t-1 -2.5q-8 -14 -15.5 -29t-15.5 -30q-7 -14 -15.5 -23t-21.5 -19
q-4 -2 -6.5 -4t-6.5 -2q-3 0 -6.5 0.5t-5.5 -1.5q-7 -3 -12.5 -5t-13.5 0l-12 4l-12 4q-1 1 -3 1l-3 6q-1 1 -1.5 2t-2.5 2q-2 2 -6 10t-8 17.5t-7 18t-1 11.5q-3 -6 -9.5 -13t-8.5 -14v-4q-8 -5 -14 -12q-2 -2 -4.5 -5t-4.5 -6q-4 -2 -7.5 -4t-7.5 -4q-7 -4 -14.5 -7
t-15.5 -3q-16 -2 -30.5 6.5t-28.5 15.5q-3 2 -7 4t-7 1q-2 -1 -2.5 -1.5t-2.5 1.5q-1 2 -5 4q-2 4 -4.5 7t-4.5 6q-2 2 -2.5 3t-2.5 3v4q-2 7 -5.5 13t-5.5 14q-3 15 -2 29q1 17 3.5 33.5t4.5 33.5q5 32 16 63t28 59q5 7 10 13l10 12q5 5 11 6.5t13 4.5q13 5 27 10.5
t28 -5.5q5 -4 8 -9.5t8 -9.5q2 -1 7 1q10 4 15 5q8 3 16.5 3.5t17.5 -0.5q3 0 6.5 -0.5t5.5 -2.5q7 -7 10 -11q5 -6 9.5 -12t7.5 -14q3 -7 3.5 -14t2.5 -15q2 -17 3.5 -33.5t3.5 -33.5q3 -17 4.5 -33.5t2.5 -33.5v-22t5 -21q4 -9 13 -1t19 21t18.5 26.5t11.5 15.5q9 6 15 17
t11 19q2 2 2 5q0 1 3 4q2 2 3 2q4 2 6 5.5t4 4.5q2 2 4 2t5 5t5 8.5t5 5.5t6 5l5 5l4 6t4 5zM253 202q1 5 0.5 8.5t-0.5 8.5q-1 4 -1 12q0 2 -0.5 3.5t1.5 1.5l-2 28t-3 28l-6 24q-2 5 -6.5 3.5t-8.5 -3.5q-5 -2 -8 -6.5t-6 -9.5q-4 -6 -7.5 -11.5t-7.5 -11.5
q-3 -5 -4.5 -11.5t-3.5 -12.5q-2 -7 -3 -13.5t-3 -12.5q-3 -14 -4 -27t-3 -27q0 -7 -0.5 -14t-0.5 -14v-12t4 -11q2 -4 7 -9t10 -6q5 -2 10 4t7 9q8 12 16.5 26.5t9.5 16.5t2.5 4.5t2.5 4.5q3 7 4.5 14.5t3.5 15.5z" />
    <glyph glyph-name="b" unicode="b" horiz-adv-x="353" 
d="M482 295q3 3 7 5q-2 -4 -3 -8.5t-3 -8.5q-5 -11 -7.5 -19.5t-7.5 -16.5q-4 -7 -6.5 -11.5t-5.5 -11.5q-2 -5 -3 -8.5t-3 -8.5l-9 -12q0 -1 -1 -2q-5 -6 -7.5 -12t-6.5 -13q-2 -2 -6 -8q-1 0 -4 -3q-17 -21 -33.5 -42t-40.5 -34q-3 -1 -4 -4q-8 -5 -15 -9t-16 -9
q-3 -2 -18.5 -8.5t-33.5 -13t-34 -12.5t-20 -6q-12 -1 -23 5.5t-20 11.5q-23 15 -37 35q-5 7 -9 14t-9 14q-4 6 -8 11.5t-8 12.5q-2 4 -4 7.5t-4 7.5q-2 3 -2.5 6.5t-2.5 6.5q-3 7 -6 13.5t-6 14.5q-4 7 -6.5 14.5t-4.5 15.5q-1 5 -5 15q1 4 0 7l-2 6q-5 17 -7 33t-4 33
q-1 8 -0.5 17t1.5 18q0 3 0.5 6.5t-0.5 7.5q0 3 -1 5.5t-2 6.5v33t-1 33q0 16 4 31l8 30q8 29 23 55q16 24 44 40q14 8 29.5 11.5t30.5 -1.5q7 -2 13.5 -4t11.5 -9q4 -5 5.5 -12t2.5 -13q2 -10 -1 -16q-1 -2 -2 -2.5t-2 -2.5t-0.5 -3.5t0.5 -3.5q-1 -8 -2.5 -15.5
t-3.5 -15.5t-4 -16.5t-4 -16.5t-5 -15t-6 -15q-5 -14 -11.5 -28.5t-4.5 -29.5q2 -8 5.5 -15t1.5 -15q-1 -8 1 -14.5t4 -13.5q2 -8 4.5 -16.5t2.5 -16.5q1 -7 3 -13.5t4 -14.5q5 5 9 8.5t9 8.5q5 4 8.5 8t7.5 9q8 8 19 12.5t22 6.5q5 2 10.5 4t10.5 4q12 3 26 3q10 0 18 -6.5
t14 -14.5q17 -21 14 -46.5t-9 -49.5l-6 -26t-8 -25q-5 -11 -9.5 -22.5t-9.5 -22.5q9 6 18.5 11t18.5 11q1 1 1.5 2.5t1.5 3.5t2 3q11 6 19.5 13t15.5 18q2 0 6 3t5 5q2 5 2 8.5t2 7.5q8 6 14.5 17t11.5 19q1 2 1 5q0 1 3 4q2 2 4 2q3 2 5 5.5t4 4.5q2 2 4 2t5 5t5 8.5t5 5.5
t6 5l5 5l4 6t5 5zM139 454l3 -15q1 -2 1 -3t1 -3q0 3 2 5q4 8 6.5 16.5t5.5 16.5q4 10 7 19.5t3 20.5q1 11 0.5 21.5t-0.5 21.5q0 2 -1 6.5t-3 8t-4.5 6t-5.5 0.5t-7.5 -2t-6.5 -4q-5 -8 -7 -19t-3 -21t0 -21q0 -5 0.5 -10.5t1.5 -10.5v-8t1 -8q2 -5 3.5 -8.5t2.5 -8.5z
M287 211q2 12 3 16t0 16q-1 8 -1.5 19.5t-8.5 14.5q-10 2 -20 0q-9 -1 -18 -10q-14 -12 -23 -29q-5 -11 -11.5 -20.5t-12.5 -19.5q-3 -4 -5.5 -7.5t-1.5 -8.5q2 -5 3 -9t2 -9t3 -9.5t4 -9.5q1 -5 3 -9.5t4 -9.5q4 -9 7.5 -17.5t9.5 -16.5q7 5 13 10.5t12 10.5q5 5 8.5 12.5
t6.5 13.5q9 15 14 29q3 8 3 9.5t2 9.5l2 12z" />
    <glyph glyph-name="c" unicode="c" horiz-adv-x="303" 
d="M431 295q3 3 8 5q-2 -4 -3.5 -8.5t-3.5 -8.5q-5 -11 -7.5 -19.5t-6.5 -16.5q-4 -7 -7 -11.5t-6 -11.5q-2 -5 -3 -8.5t-3 -8.5l-9 -12v-2q-5 -6 -7.5 -12t-7.5 -13q-9 -13 -17 -28q-2 -3 -4 -9q-1 0 -1 -0.5t-1 -0.5q-2 -5 -4.5 -9.5t-5.5 -8.5q-4 -3 -7 -6l-6 -6
q-2 -2 -3 -3.5t-3 -3.5l-2 -2l-1 -1q-7 -4 -12 -7.5t-10 -8.5l-1 -1l-1 -1l-3 -3q-7 -6 -12.5 -9.5t-13.5 -8.5q-3 -2 -6 -5t-6 -5q-10 -4 -15 -5l-12 -9q-9 -3 -18.5 -5.5t-19.5 -4.5q-14 -3 -28.5 0.5t-28.5 5.5l-3 3l-2 2q-1 1 -2 1.5t-2 1.5q-10 10 -20 11q-3 4 -6 7
t-5 7q-9 13 -16.5 25.5t-12.5 28.5q-5 14 -7 29l-4 30q-3 48 16 89q5 12 11.5 24t13.5 23q7 13 15.5 24.5t20.5 19.5q13 9 27 16t30 9q8 1 16.5 -0.5t16.5 -2.5q8 -2 16 -2.5t16 -2.5q5 -2 12 -5t11 -8q2 -2 2.5 -5t2.5 -5l4.5 -4.5l4.5 -4.5q10 -9 15 -22q0 -1 1 -5t1.5 -8
t0 -6.5t-3.5 -1.5q0 -5 0.5 -9t-5.5 -6q-9 -2 -14 6l-6 10t-8 8t-9.5 3.5t-9.5 2.5q-8 4 -16 3t-16 -3q-3 -2 -6.5 -3t-5.5 -4t-3.5 -6.5t-3.5 -6.5l-7.5 -15t-6.5 -15t-5 -15t-4 -15q-4 -17 -7 -33t-3 -33v-20q0 -3 3 -6q-2 -14 6 -26t22 -13q27 0 52 13q1 1 2 1.5t2 1.5
q6 4 11 8t10 9q5 2 11 5.5t11 8.5l1 1q23 13 37 33q3 0 5 3q2 5 4.5 9t4.5 8q9 6 15 17t11 19q1 2 1 5q1 1 1.5 2t1.5 2l4 2q3 2 5.5 5.5t4.5 4.5q2 2 4 2t4 5q3 5 5 8.5t5 5.5q4 2 7 5l5 5q2 3 3.5 6t4.5 5z" />
    <glyph glyph-name="d" unicode="d" horiz-adv-x="428" 
d="M556 295q4 2 7 5q-2 -5 -3 -9t-3 -9q-5 -10 -7.5 -18.5t-7.5 -16.5q-3 -6 -5 -9.5t-5 -9.5l-1 -2l-1 -3q-2 -4 -3 -8t-3 -8l-9 -12q0 -1 -1 -2q-5 -7 -7.5 -12.5t-6.5 -12.5l-4.5 -6t-3.5 -6l-2 -3q-3 -5 -6 -9t-7 -8q-7 -8 -12.5 -16.5t-11.5 -16.5l-1 -2v1q-1 -2 -4 -5
q-7 -8 -16 -16.5t-19.5 -15t-22 -10t-22.5 -1.5q-8 2 -14 8t-11 12q-3 4 -5.5 7.5t-5.5 7.5q-2 3 -4 6.5t-5 5.5q-5 4 -8.5 -3t-4.5 -10l-1.5 -7.5t-2.5 -6.5l-9 -12q-5 -5 -9.5 -10.5t-10.5 -10.5q-12 -8 -27 -13.5t-29 -9.5q-15 -5 -32 -4.5t-32 3.5q-14 3 -27.5 7
t-25.5 11q-21 10 -35 31q-7 10 -11.5 20.5t-8.5 22.5q-4 14 -7.5 37.5t-0.5 37.5t4 29.5t9 28.5t16.5 26t20.5 22q6 5 11.5 9t12.5 6q8 2 15.5 3t14.5 1q6 -1 11 -2l10 -2q6 -4 11 -4q14 2 26.5 -5.5t25.5 -14.5q11 -10 20 -20.5t17 -16.5q2 -1 5.5 -4.5t5.5 -1.5q3 2 4 5.5
t1 6.5q0 7 -1.5 13.5t-1.5 14.5t-3 24t-5 24q-3 16 -3 32q-2 17 -5 32.5t-2 32.5t0.5 33.5t1.5 33.5q1 17 4.5 32t8.5 30q2 8 4 14t8 11q5 5 11.5 7.5t13.5 5.5q3 2 7 3.5t8 1.5q6 0 14 -2q16 -2 28 -7q25 -13 36 -41q4 -13 6 -31q0 -8 -1 -15t-2 -15q-2 -17 -3 -33.5
t-2 -33.5q-1 -8 -2 -16.5t-2 -16.5t-1.5 -15t-2.5 -15t-4 -13t-3 -13t-1.5 -15.5t-2.5 -15.5q-1 -4 -2.5 -7l-3.5 -7q-2 -10 -4 -15q-2 -8 -4 -15t-5 -14q-3 -8 -6 -18.5t-5 -18.5q-2 -11 2.5 -25.5t10.5 -24.5q5 -7 7.5 -14.5t7.5 -12.5q11 -11 22 -4t19 16q5 5 8.5 10
t8.5 10q1 1 4 4.5l6 7l6 7t4 3.5q3 0 5 3q2 4 4.5 8t4.5 9q1 0 1 1q4 4 9 9.5t8 11.5l3 4l1 1l3 6q1 1 1 5q0 1 1 1.5t2 2.5q2 0 4 2q3 2 5 5.5t4 4.5t4 1.5t5 5.5q3 4 5 7.5t5 5.5q6 5 11 11q2 2 4 5t5 6zM244 105q3 5 7.5 16t8 23.5t4.5 23.5t-3 17q-5 6 -17 19
t-25.5 24.5t-26 17t-17.5 -3.5q-7 -11 -7.5 -23.5t-2.5 -25.5q-2 -12 -3 -34.5t0 -35.5q1 -14 5.5 -24.5t9.5 -23.5q7 -18 20.5 -14t25.5 16q7 7 13 15t8 13zM332 526q1 5 0.5 10t-0.5 10q2 9 -8 14q-9 4 -14.5 -3.5t-8 -19.5t-3 -23.5t-0.5 -15.5q0 -6 -1.5 -11.5
t-0.5 -10.5q1 -6 2 -11t0 -10q-1 -6 -1 -16t0.5 -20.5t1 -20t1.5 -15.5q0 -6 3 -10q2 0 2 3t1 5l2 12l2 12q2 12 4.5 28t5.5 32.5t6 32t6 27.5v1z" />
    <glyph glyph-name="e" unicode="e" horiz-adv-x="283" 
d="M411 295q2 2 3.5 2.5t3.5 2.5q-2 -5 -3 -9t-3 -8q-5 -11 -8 -19.5t-7 -16.5q-3 -7 -6 -11.5t-6 -11.5q-2 -5 -3 -8.5t-3 -8.5l-9 -12v-2q-5 -6 -7.5 -12t-7.5 -13q-9 -13 -17 -28q-2 -2 -2.5 -4.5t-2.5 -4.5l-1 -1q-2 -5 -4.5 -9.5t-5.5 -8.5q-4 -3 -7 -6l-6 -6
q-2 -2 -2 -2.5t-1 -1.5l-1 -1l-2 -2l-2 -2l-4 -3q-7 -4 -8.5 -5t-6.5 -6q-2 -1 -3 -2l-3 -2l-2 -2l-1 -1l-2 -2q-7 -6 -11.5 -9t-12.5 -8q-6 -6 -10 -8q-8 -3 -16 -5t-16 -2q-12 0 -24.5 4t-23.5 8h-3q-2 2 -5 3.5t-6 3.5q-6 4 -9 7q-3 2 -6.5 4t-7.5 4q-3 2 -5.5 5t-5.5 5
l-11 11q-2 2 -4 4.5t-4 2.5q-1 1 -4 6l-3.5 7l-3.5 7q-3 5 -6 10.5t-6 11.5q-15 27 -20.5 58.5t-3.5 62.5q1 17 5 33t9 32q8 28 31 52q5 5 8.5 10.5t8.5 10.5q7 6 21 13q8 3 15 5t15 5q7 2 13 4t14 0q7 -2 13.5 -5.5t13.5 -5.5q11 -5 19 -14q9 -10 13 -22.5t6 -25.5
q1 -8 0.5 -16t-3.5 -16l-9 -27q-5 -14 -11.5 -27.5t-17.5 -24.5q-6 -6 -11.5 -12.5t-11.5 -12.5q-2 -3 -4.5 -5.5t-4.5 -5.5t-3 -5t1 -7q3 -8 5.5 -15t7.5 -14q3 -7 10 -15v-2q3 -6 5 -9q4 -8 10 -11q0 -2 2 -4q15 -15 31 -5h1q20 3 33 19q2 2 4 4.5t4 5.5q16 10 29 28
q3 0 5 3q2 5 4.5 8.5t4.5 8.5q9 6 15 17t11 19q1 1 1 5q2 2 3 4l4 2q3 2 5 5.5t4 4.5t4 1.5t5 5.5t5 8.5t5 5.5t6 5l5 5t4 5.5t5 5.5zM156 240l1 1q5 11 13 20.5t13 20.5q5 10 7 20.5t4 21.5t3.5 23.5t-1.5 23.5q-2 8 -7 16t-15 8q-5 -1 -9 -5l-7 -7q-3 -5 -6.5 -8.5
t-6.5 -8.5q-12 -17 -14 -40q0 -11 2.5 -22t6.5 -22q2 -6 4 -11.5t4 -11.5q2 -4 3.5 -9t3.5 -9z" />
    <glyph glyph-name="f" unicode="f" horiz-adv-x="288" 
d="M415 295q2 1 8 5q-2 -5 -3.5 -9t-3.5 -9q-5 -10 -7.5 -18.5t-6.5 -16.5q-4 -7 -7 -11.5t-5 -11.5q-2 -2 -3 -5.5t-3 -7.5h1q-1 -1 -1 -2t-1 -2l-9 -12v-2q-5 -6 -7.5 -12t-7.5 -13q-5 -8 -10.5 -16.5t-11.5 -16.5q-3 -3 -6 -5.5t-5 -7.5q-9 -17 -22.5 -30t-24.5 -29
q-4 -3 -7 -5.5t-5 -4.5q-3 -3 -5 -4q2 -5 2.5 -9.5t2.5 -9.5q0 -2 0.5 -2.5t0.5 -2.5q2 -6 2.5 -12t2.5 -12q2 -12 3.5 -21.5t3.5 -21.5q3 -13 2.5 -25.5t1.5 -25.5q1 -12 1 -24t-2 -24t-5.5 -24t-7.5 -24q-4 -11 -5.5 -22t-3.5 -22q-2 -18 -11.5 -37.5t-26.5 -29.5
q-6 -4 -12.5 -8t-14.5 -6q-3 -1 -6.5 -0.5t-5.5 -0.5q-4 -2 -7.5 -3t-7.5 -2q-30 -2 -54 16q-22 17 -37 43.5t-24 52.5q-11 32 -16.5 65.5t-7.5 66.5q-1 17 -1.5 34t1.5 34q1 16 2 31t0 30h-1q3 20 2 37q3 11 6 23t4 23q1 6 0.5 11.5t0.5 11.5q2 14 3.5 28.5t3.5 28.5
t5.5 27t5.5 27q2 8 2.5 14.5t2.5 14.5q3 13 9 27l10 26l10 26q6 14 15 26.5t19 25.5q9 12 21 20t26 15q4 2 7.5 4t7.5 3q10 0 14 -1q7 -1 13.5 -2t11.5 -4q4 -3 10 -11q2 -2 4 -5t4 -5q9 -12 12 -26q3 -15 0.5 -30t-6.5 -30t-9.5 -29.5t-11.5 -28.5l-15 -30q-3 -7 -6 -13.5
t-7 -13.5q-5 -7 -9 -13.5t-8 -14.5q-3 -6 -6 -12.5t-8 -12.5q-9 -12 -20.5 -23t-22.5 -22q-6 -6 -12.5 -12t-12.5 -11q-5 -5 -8 -9t-4 -11q-1 -17 2.5 -32.5t8.5 -31.5t7 -31.5t5 -31.5q7 -32 20 -61t24 -59q5 -13 14 -25t19 -21q5 -5 11 -3.5t9 6.5q5 6 5.5 13.5t2.5 15.5
t3.5 17t3.5 17q1 8 0 15.5t-1 14.5l-3 69q-1 8 -2.5 22.5t-3.5 22.5q-1 2 -1 4t-1 4v3.5t-3 1.5q-8 0 -13 -1q-21 -4 -40 -1t-36 18q-17 14 -19 33.5t12 36.5q8 10 19 16.5t24 7.5q4 1 7.5 2t8.5 0q3 0 6 -1.5t6 -3.5q13 -5 23 -12q10 -6 16 -16.5t15 -16.5q2 -1 7 3t11 9
q8 4 14 11t12 15q2 1 2.5 2t2.5 2v1q8 8 14.5 16t13.5 17q3 4 5.5 8t5.5 9q2 3 4 6.5t4 6.5h-1q5 7 11.5 17t8.5 15q1 1 1 5q2 2 3 4q2 0 4 2q3 2 5.5 5.5t4.5 4.5t4 1.5t4 5.5q3 4 5 7.5t5 5.5q4 2 7 5.5t5 5.5t3.5 5t4.5 6zM199 70q2 2 0.5 6t-5.5 8q-9 8 -16.5 14
t-17.5 8q-5 1 -9 1.5t-8 -1.5q-6 -3 -6 -7.5t3.5 -9.5t8 -9.5l6.5 -6.5q5 -6 16 -8q5 -1 15 0.5t13 4.5zM90 210q2 2 4 7q2 3 3.5 6.5t3.5 7.5q8 14 14 28q7 15 13.5 30t12.5 30l12 32t14 31q2 3 5.5 10t6 14t1 12.5t-10.5 6.5q-8 1 -12.5 -4t-8.5 -10q-5 -6 -8.5 -11.5
t-7.5 -12.5q-8 -13 -13 -26.5t-10 -28.5q-8 -30 -16 -61t-8 -63v-2q2 0 5 4z" />
    <glyph glyph-name="g" unicode="g" horiz-adv-x="306" 
d="M434 295q2 1 8 5q-2 -5 -3.5 -9t-3.5 -9q-5 -10 -7.5 -18.5t-6.5 -16.5q-4 -7 -6.5 -11.5t-5.5 -11.5q-2 -3 -2.5 -6t-2.5 -6v-1q-3 -3 -2 -3q-2 -2 -2 -4q-2 -2 -3 -4t-1.5 -2.5t-1.5 -2.5l-1 -1q-2 -2 -4 -6q-3 -4 -5.5 -7.5t-5.5 -7.5q-2 -3 -2.5 -6t-2.5 -6
q-2 -2 -2.5 -3.5t-2.5 -3.5q-8 -13 -17 -24t-17 -23q-3 -5 -5 -10t-6 -10q-7 -9 -13.5 -18.5t-13.5 -19.5q1 -12 0.5 -23.5t0.5 -22.5q0 -8 -1 -16t-1 -16q-1 -17 -2 -33t-2 -33q-1 -8 0 -16.5t0 -16.5t-1.5 -16t-1.5 -16v-8.5t-2 -8.5q-1 -5 -1 -14q-1 -4 0 -7.5t1 -7.5
t-0.5 -7.5t-0.5 -7.5q-1 -8 -1 -15t-2 -14q-4 -13 -13 -23q-8 -10 -21 -15t-26 -3q-4 0 -12 -2q-15 5 -28 11.5t-29 8.5q-7 10 -19 20q-3 3 -6.5 5.5t-6.5 4.5t-6.5 4t-5.5 4q-5 5 -10 11t-9 13q-5 7 -8.5 13.5t-7.5 13.5t-6.5 12.5t1.5 13.5q8 14 14.5 29t14.5 29
q4 7 7 14.5t8 13.5q5 5 9 10l8 10q11 13 21 24t21 24q2 2 3.5 5t5.5 5q6 4 13 8q6 5 9 9t4 12q0 7 1 19.5t1.5 26t1 26t0.5 20.5q-8 -2 -14.5 -4.5t-13.5 -4.5q-10 -2 -14 -4q-3 -1 -5 -2.5t-5 -2.5q-6 -2 -13 1t-12 5q-13 6 -25 11q-7 3 -12 6t-10 8q-11 11 -16 20
q-8 11 -13.5 23t-7.5 26q-4 26 -1 52.5t17 49.5t34.5 38.5t43.5 27.5q7 4 14 7t15 2q13 -3 23 -13q5 -5 7 -11t7 -10q5 -3 10 -5q2 -1 2.5 -1t2.5 3q2 4 2 7q2 4 2.5 7.5t2.5 7.5l6 12q2 5 5 9.5t9 4.5q6 -1 12.5 -5t11.5 -7q6 -4 11 -8t8 -10q3 -8 4 -15.5t2 -15.5t1 -15
t2 -15q4 -16 3.5 -31t-2.5 -31q-9 -63 -9 -128l9 9t7 9t5 10t7 11q9 10 21 27t20 29q6 7 13 21q2 2 1 5q1 1 2 1.5t2 2.5q1 0 3 2q3 2 5.5 5.5t4.5 4.5t4 1.5t5 5.5q2 4 4 7.5t6 5.5q3 2 6 5.5t5 5.5t4 5zM206 -52q1 5 3.5 10t1.5 10q-8 -9 -17.5 -15t-12.5 -18
q-2 -8 -6 -11q-3 -2 -6.5 -3.5t-5.5 -4.5q-5 -5 -5.5 -13t-6.5 -13q-4 -4 -4.5 -6.5l-1.5 -7.5q0 -5 -1.5 -9t-3.5 -9q-4 -9 -6 -17t2 -18q2 -4 4 -7.5t4 -7.5q2 -2 7 -4t8 -4q18 -10 30 -23q4 6 3 12q-1 4 -0.5 8t0.5 8q1 10 2 19.5t2 19.5t1.5 19t2.5 19q2 8 4 16.5
t2 16.5v21q0 3 -0.5 6t0.5 6zM220 271q-1 -11 -0.5 -8.5t1 9t1.5 13.5t0 4q2 5 -1 9.5t-8 7.5q-2 2 -5.5 3.5t-6.5 0.5q-2 -1 -4.5 -2.5t-4.5 -2.5q-12 -5 -19.5 -12.5t-13.5 -18.5q-6 -13 -14 -24.5t-10 -25.5t-3 -29t1 -29q2 -7 4 -13t8 -10q5 -3 11 -2.5t11 2.5q6 2 11 7
t10 9q5 5 10 9.5t10 9.5q5 7 5 13t1 14q0 7 0.5 13.5t1.5 13.5q2 14 2 19.5t2 19.5z" />
    <glyph glyph-name="h" unicode="h" horiz-adv-x="389" 
d="M517 295q2 1 8 5q-2 -5 -3.5 -9t-3.5 -9q-5 -10 -7.5 -18.5t-6.5 -16.5q-2 -2 -2.5 -4t-2.5 -4h1l-9 -18l-2 -4l-4 -6t-4 -7q-4 -1 -7 -6q-3 -7 -7 -13.5t-9 -13.5q-5 -5 -9.5 -10t-6.5 -13v-5q-11 -14 -18.5 -31t-15.5 -33q-6 -14 -13 -26.5t-15 -26.5q-1 -2 -2 -3.5
t-1 -3.5h-1l-6 -12q-3 -4 -6.5 -7.5l-6.5 -6.5q-5 -5 -8 -13q-4 1 -7 1.5t-7 1.5v1v3q-6 2 -12.5 4t-12.5 5q-8 3 -14.5 8t-14.5 7q-5 2 -10 3t-7 7q4 4 4 9q0 23 -3.5 45t-5.5 45q2 2 2 4q6 17 -2 33q0 1 -3 4q1 5 1.5 9t0.5 8q0 8 -0.5 15.5t-1.5 15.5l-2 32l-2 32
q-1 7 -1 14.5t-2 13.5q-2 5 -7 6t-10 -1q-15 -4 -26 -12.5t-22 -18.5q-6 -5 -8.5 -9t-0.5 -12t3 -15t0 -15q-1 -17 -0.5 -32.5t0.5 -32.5v-33t-2 -32q-1 -8 -2 -16.5t-2 -16.5q-1 -5 -1 -15q0 -9 -2 -13q-3 -5 -8.5 -8.5t-10.5 -3.5q-3 1 -5 -1t-5 0q-2 1 -3 3.5t-3 4.5
q-4 4 -11 6q-2 1 -5.5 0.5t-5.5 1.5t-5 4.5t-5 5.5l-4 4t-5 2q-3 1 -5.5 0t-5.5 1q-2 2 -3.5 5t-3.5 5q-2 7 -2.5 13.5t-1.5 13.5q-1 8 0.5 16.5t2.5 16.5q1 4 1 7.5t1 7.5q0 2 0.5 7.5t-2.5 3.5q2 8 2.5 16.5t1.5 16.5q1 5 1 9v9q0 6 1 7t1 5l3 30q0 8 -0.5 16t-0.5 16
t-0.5 15.5t-0.5 15.5q0 66 12 129q2 8 3.5 15.5t0.5 15.5q-2 17 1 30q2 8 1.5 16t1.5 16q1 8 2 15t3 15q2 15 4 30.5t7 30.5q1 2 2 5t4 4q2 1 3 4t2 5q4 5 7.5 10t8.5 10t11 10t13 7q6 3 12.5 4t13.5 3q9 2 14.5 1.5t13.5 -5.5q11 -8 16 -18q6 -14 6 -29t-3 -30
q-2 -8 -4 -15t-7 -14q-4 -5 -7.5 -10.5t-7.5 -11.5q-6 -13 -12.5 -25.5t-13.5 -24.5q-2 -5 -8 -13q-2 -3 -4 -5t-4 -5q-2 -7 -1.5 -14t-0.5 -13q-1 -5 -1 -9t-2 -9q-1 -6 1 -14q0 -8 0.5 -15t1.5 -14q2 -15 2.5 -30.5t1.5 -30.5q5 4 10 8.5t11 8.5q2 2 5.5 3.5t5.5 3.5
q5 5 8 7q6 3 12.5 5.5t13.5 4.5q4 0 7.5 0.5t7.5 -0.5q3 -1 5.5 -2t5.5 -2q4 0 7.5 1t7.5 0q6 0 12 -4q6 -3 11 -7.5t10 -9.5q18 -23 23 -53q3 -16 5 -31.5t4 -31.5q1 -8 1.5 -16t1.5 -16q1 -5 2.5 -10t1.5 -10q0 -2 -1 -4.5t0 -4.5t2.5 -3.5t2.5 -3.5q1 -3 0 -5.5t0 -5.5
l2 -6t1 -7q0 -8 1 -19t3 -19q0 -2 0.5 -3.5t0.5 -3.5q3 5 5 8.5t6 8.5q9 11 13 20q1 2 1 3.5t2 3.5t4.5 3.5t4.5 4.5q2 2 2.5 4.5t2.5 4.5q5 4 5.5 4.5t2.5 6.5q1 3 2.5 4t3.5 3q4 6 6.5 12.5t6.5 11.5t7.5 10t7.5 10l1 1q0 1 1.5 3t1.5 3q1 1 1 1.5t1 1.5q0 1 1 1l3 6
q1 1 1 1.5t1 1.5v4l4 4q1 0 3 2q3 2 5.5 5.5t4.5 4.5t4 1.5t4 5.5q3 4 5 7.5t5 5.5q4 2 7 5.5t5 5.5t3.5 5t4.5 6zM178 547q0 -3 -0.5 -8t1.5 -6q3 4 7 14q3 8 6.5 17t6.5 17q8 17 9 33q1 7 2.5 15.5t-1.5 14.5q-4 8 -10 6q-3 0 -5.5 -3t-4.5 -5q-5 -6 -7 -12.5t-3 -14.5
t-0.5 -17t0.5 -17q0 -9 -0.5 -17.5t-0.5 -16.5z" />
    <glyph glyph-name="i" unicode="i" horiz-adv-x="280" 
d="M160 400q-8 3 -15.5 7t-12.5 11q-11 14 -9 29q0 17 12 28q2 2 5.5 3t6.5 3q2 2 7 0.5t8 -2.5q16 -3 26 -17t12 -30v-3q0 -1 -2 -12t-10 -15q-5 -3 -12 -3q-2 1 -4 0t-4 -1q-5 -2 -8 2zM408 295q3 3 8 5q-2 -4 -3.5 -8t-3.5 -9q-5 -11 -7.5 -19.5t-6.5 -16.5
q-4 -7 -7 -11.5t-6 -11.5q0 -2 -1 -3l-2 -6l-3 -6q-4 -9 -8.5 -20t-9.5 -19q-5 -7 -7.5 -12.5t-5.5 -11.5q-4 -5 -6.5 -10t-5.5 -10q-4 -6 -8 -11.5t-7 -11.5q-18 -23 -27 -34t-14 -16q-4 -5 -10 -12t-12 -15t-12.5 -14.5t-12.5 -9.5q-5 -2 -9 -5t-9 -6t-7.5 -5.5t-7.5 -4.5
t-11.5 -4t-12.5 -1t-12 3.5t-11 5.5q-9 5 -18 15t-14 19q-5 11 -10 22.5t-10 23.5q-10 29 -18 56.5t-9 58.5q-1 11 -1 22t-1 22t-2 23t1 23q1 11 4 20.5t8 18.5q9 20 23 31q15 9 36 10.5t36 -9.5q11 -6 14 -19q1 -3 1 -6t1 -7t2 -7t3 -7q2 -8 -0.5 -15t-5.5 -14
q-4 -7 -5.5 -14t-4.5 -14q-3 -8 -5.5 -15t-7.5 -15q-3 -5 -7.5 -9t-6.5 -10q-2 -4 -1 -7.5t2 -7.5t1 -7.5t1 -7.5q1 -16 6 -31q5 -16 11.5 -31t12.5 -30q3 -8 5 -15t7 -13l4.5 -4.5t5.5 -2.5t6 3l5 5q7 6 12.5 12t10.5 12h2q7 6 11.5 12.5t9.5 14.5l6 6q13 15 23.5 31
t21.5 33q4 5 6 8t4 8q2 3 6 14t7 13q2 1 3.5 6.5t3.5 10.5h-1q2 2 3 4v1q2 2 4 6q1 2 1 5q1 1 1.5 2t1.5 2l4 2q3 2 5.5 5.5t4.5 4.5q2 2 4 2t4 5q3 5 5 8.5t5 5.5q4 2 7 5l5 5q2 3 3.5 6t4.5 5zM145 249q5 7 6.5 17.5t3.5 18.5q0 3 1 7.5t0.5 8t-2.5 5.5t-7 0
q-8 -4 -9.5 -12.5t-1.5 -16.5v-11.5t1 -10.5q0 -8 5 -12z" />
    <glyph glyph-name="j" unicode="j" horiz-adv-x="291" 
d="M130 412q-1 4 -3.5 7t-3.5 8q-2 10 2 16q5 7 10.5 12.5t15.5 6.5q5 0 9 -0.5t9 0.5h8.5t5.5 -4q5 -8 7 -17.5t4 -18.5q0 -2 -0.5 -3.5t-0.5 -0.5q-1 -9 -3 -18t-4 -17q-2 -6 -10 -9q-3 -1 -6.5 0t-6.5 -1q-6 -4 -10 -1q-3 2 -3.5 6t-2.5 6q-5 8 -10 13.5t-7 14.5z
M419 295q3 3 8 5q-2 -4 -3.5 -8t-3.5 -9q-5 -11 -8 -19.5t-7 -16.5q-3 -7 -6 -11.5t-6 -11.5q-1 -1 -1 -3v-1l-1 -3q0 -1 -2 -4.5t-2 -5.5l-9 -12v-2q-2 -2 -3 -4l-2 -4q-12 -14 -22.5 -28t-21.5 -29l-26 -34t-27 -34q-4 -4 -6 -5q-3 -4 -5.5 -7.5t-4.5 -5.5
q-11 -13 -19.5 -24t-13.5 -16q-2 -3 -8 -8q5 -16 9 -31.5t9 -32.5t9 -32.5t8 -32.5q2 -9 3.5 -17.5t3.5 -17.5v-6t2 -6q4 -6 6 -13q1 -5 1.5 -8.5t1.5 -7.5q1 -3 0 -7t0 -7q0 -8 1.5 -15t2.5 -15q1 -9 3 -17t2 -17v-33q1 -8 1.5 -15.5t3.5 -15.5t3 -15t1 -15q0 -8 1 -16
t0 -16q0 -8 -1 -15.5t-3 -15.5t-5 -15t-7 -15q-2 -6 -6 -11.5t-6 -11.5q-5 -13 -15 -17q-3 -2 -5.5 -4t-5.5 -4q-6 -5 -12 -6q-8 -2 -16 -3.5t-16 -0.5q-8 2 -14 2q-4 1 -7 0.5t-7 0.5q-8 2 -14.5 5.5t-13.5 6.5q-7 4 -14 6.5t-14 6.5t-13 8.5t-12 9.5q-5 4 -8 1
q-2 -2 -5 0.5t-5 3.5q-5 5 -9.5 11t-7.5 12q-6 12 -13 28q-2 8 -7 12q-5 3 -8 8q-4 5 -3.5 10.5t-1.5 11.5q-1 5 -2.5 8t-2.5 8q0 3 0.5 6.5t0.5 7.5q1 8 1 15t2 15q2 17 5.5 33t7.5 32q5 17 10.5 32t11.5 30q7 16 12 31t13 30q7 14 17 29q4 7 10 21t11 21q3 4 7.5 12.5
t9 17.5t8.5 18t6 15q2 5 0 11t-1 8q3 4 3.5 5t0.5 1.5t-0.5 2t-1.5 7.5v5q0 2 -0.5 3.5t-0.5 3.5q0 4 -3 9v9.5v6.5t-0.5 6.5l-1.5 10.5q-1 8 -2.5 14.5t-2.5 14.5t-1.5 15t-2.5 14q-2 16 -5.5 31t-6.5 30q-3 13 -1 28q0 4 -1.5 6.5t-2.5 6.5q-2 5 0 11q2 13 8 27t17 22
q4 2 7 4t7 4q3 2 4.5 1.5t5.5 -0.5q5 0 10 3t10 5q11 3 22.5 0t18.5 -14q3 -5 4 -9.5t2 -9.5v-10q0 -8 -1.5 -15.5t-2.5 -15.5t-1 -16.5t-2 -17.5q-1 -8 -2.5 -15.5t-3.5 -15.5q-3 -16 -7 -32t-9 -31q-6 -17 -4.5 -34t6.5 -34q4 4 6 7q12 5 19 12q0 1 2 3q9 7 16.5 15.5
t14.5 17.5q4 1 8 7q2 3 4.5 5.5t4.5 5.5q11 10 21 21t17 25q3 3 4.5 5t3.5 4q3 0 5 3q2 5 4.5 9t4.5 8q4 3 8.5 9t7.5 11q3 4 5.5 8t4.5 8q1 2 1 5q1 1 1.5 2t1.5 2l4 2q3 2 5.5 5.5t4.5 4.5q2 2 4 2t4 5q3 5 5 8.5t5 5.5t6.5 5t5.5 5q2 3 3.5 6t4.5 5zM148 -349q1 5 1.5 8
t-0.5 8q-3 9 -3 18q-3 19 -3 37q1 20 1.5 39t-1.5 39q0 4 0.5 11.5t1.5 16t1 16.5v12v5t-0.5 7.5t-1.5 6t-4 1.5q-3 -2 -5 -6t-4 -7q-1 -2 -2.5 -7t-3 -11.5t-3 -12t-2.5 -6.5q-3 -8 -5 -14.5t-4 -14.5q-5 -15 -11.5 -30t-11.5 -31q-4 -14 -7 -26t-9 -25q-4 -9 -4.5 -18.5
t-2.5 -19.5q-2 -12 -1.5 -15.5t7.5 -12.5q2 -2 0.5 -4.5t-0.5 -4.5q3 -7 7 -9.5t9 -7.5q8 -6 12 -7q4 0 7.5 0.5t7.5 0.5q5 0 12.5 -2t11.5 2q2 2 2.5 6t1.5 7q0 6 2 16q1 8 2 15.5t2 15.5v4zM186 215l2 9q4 14 4 24.5t-2 24.5q-1 6 -5 6t-7 -4q-4 -5 -6.5 -10.5t-4.5 -11.5
t-1.5 -12.5t1.5 -13.5q0 -8 0.5 -15t1.5 -15q2 -8 4 -14q1 -4 2.5 -1t1.5 5q2 7 4.5 14t4.5 14z" />
    <glyph glyph-name="k" unicode="k" horiz-adv-x="465" 
d="M593 295q4 2 7 5q-2 -5 -3 -9t-3 -9q-5 -10 -7.5 -18.5t-7.5 -16.5q-4 -7 -6.5 -11.5t-5.5 -11.5q-2 -5 -3 -8.5t-3 -8.5l-9 -12q0 -2 -1 -2q-2 -4 -3 -7q-13 -15 -22.5 -30.5t-22.5 -30.5q-6 -8 -13 -16.5t-16 -16.5l-7 -7t-5 -7q-4 -3 -4 -3.5t-2 -1.5l-2 -1l-2 -2
l-4 -4q-2 -1 -2 -1.5t-2 -1.5l-2 -1q-5 -3 -8.5 -5.5t-7.5 -5.5q-6 -5 -14.5 -9t-16.5 -6l-24 -6q-7 -2 -21.5 1.5t-19.5 5.5q-22 11 -43 35q-8 11 -16 21.5t-16 21.5q-5 6 -12 16t-14.5 19.5t-13.5 16t-8 6.5q-2 -1 -2.5 -1t-2.5 -2q-3 -3 -5 -10t-3.5 -15.5t-2.5 -17
t-2 -12.5q-3 -16 -6 -31.5t-4 -32.5v-17t-1 -17q0 -8 1 -15.5t1 -15.5q0 -18 -3 -34q-2 -6 -4.5 -11.5t-8.5 -7.5q-8 -2 -15.5 2.5t-13.5 6.5t-8.5 8t-6.5 11q-5 6 -11 7t-13 2q-6 2 -12.5 3.5t-11.5 6.5t-4 14t1 15q-1 7 -2.5 14t-1.5 14q-1 18 3 34q0 1 1 5.5l2 9t2 8
t2 3.5q2 23 5 46t5 46q5 38 5.5 75.5t5.5 74.5q2 17 5.5 33.5t5.5 33.5t3.5 33t3.5 33t5 33t7 33q3 16 7 31.5t10 29.5q5 14 12 28.5t18 25.5q22 22 51 33q14 4 32 1q8 -2 14 -3t12 -6q11 -10 14.5 -23t2.5 -28q-2 -17 -3.5 -32t-7.5 -31q-3 -8 -6 -15t-8 -14
q-4 -6 -8 -11.5t-8 -11.5q-8 -14 -18 -27t-18 -27q-8 -13 -11 -27q-2 -8 -2 -15.5t-2 -15.5t-2.5 -16.5t-1.5 -16.5q-1 -7 -2 -13.5t1 -13.5q8 8 15 17t15 17t14.5 17t14.5 17q15 18 30 29q5 3 9.5 6t8.5 6q6 6 13 9q20 8 42.5 16.5t43.5 -0.5q9 -3 20 -8q2 -2 5 -3t5 -3
q2 -1 2 -2.5t2 -3.5q5 -6 11 -10t8 -12v-5q1 -1 1 -4q0 -6 -1 -12.5t-3 -11.5q-3 -13 -9 -25t-12 -23.5t-15 -21.5q-10 -11 -20 -21t-19 -21q-5 -5 -9 -9.5t-9 -8.5t-11 -6.5t-11 -6.5q-6 -5 -12 -9t-13 -8q-5 -4 -10 -7t-10 -7t-2.5 -10.5t4.5 -10.5q4 -7 7.5 -13t7.5 -12
q5 -7 8.5 -13.5t8.5 -12.5l8.5 -8.5t7.5 -8.5q2 -2 2 -3q1 -3 5 -7q7 -5 12 -10.5t13 -7.5q14 -3 25 -2.5t22 10.5q6 5 15.5 12t14.5 13l1 1q1 0 2 1q11 5 18 12.5t14 17.5q4 2 6 4q2 4 6.5 9t6.5 10q8 6 14.5 17t11.5 19q1 1 1 5q0 1 1 1.5t2 2.5q2 0 4 2q3 2 5 5.5t4 4.5
t4 1.5t5 5.5q3 4 5 7.5t5 5.5q6 5 11 11q2 2 4 5t5 6zM230 526q0 -3 1 -3.5t3 2.5q1 2 1.5 3.5t1.5 3.5q4 8 7 16l6 16q7 16 12 30.5t7 31.5q1 6 0.5 13.5t-8.5 0.5q-6 -6 -9 -13t-5 -15t-2.5 -16.5t-2.5 -16.5q-2 -6 -3.5 -14t-3.5 -13q0 -2 -0.5 -3t-0.5 -2
q0 -2 -0.5 -3.5t-0.5 -2.5zM270 256q11 7 21.5 16t20.5 18t19 18.5t19 19.5l9 9t8 10q3 3 5 6.5t4 6.5q1 2 3.5 6t3.5 6q2 5 1.5 9.5t-5.5 6.5q-5 3 -10.5 0.5t-10.5 -5.5q-15 -10 -26.5 -21t-24.5 -24t-26 -25.5t-24 -26.5q-5 -8 -9.5 -15t-9.5 -14q-4 -6 -9 -12t-7 -13
q7 2 13.5 5.5t12.5 7.5q5 3 11 5.5t11 5.5z" />
    <glyph glyph-name="l" unicode="l" horiz-adv-x="231" 
d="M358 295q2 2 4 2.5t4 2.5q-2 -5 -3.5 -9t-3.5 -8q-5 -11 -7.5 -19.5t-6.5 -16.5q-4 -7 -6.5 -11.5t-5.5 -11.5q-4 -8 -7 -17l-9 -12v-2q-5 -6 -7.5 -12t-7.5 -13q-10 -15 -17 -29q-2 -2 -4 -8q-1 0 -1 -0.5t-1 -0.5q-5 -12 -10 -18q-6 -6 -9 -14t-8 -15
q-5 -10 -10.5 -19.5t-12.5 -17.5q-15 -17 -35 -18t-37 12q-2 2 -3 2.5t-3 2.5q-3 7 -12 12q0 1 -1 1q-7 13 -11.5 17.5t-9.5 17.5q-3 7 -5.5 13.5t-4.5 13.5q0 3 -2 9q-4 8 -5 11l-6 15q-3 11 -7 20l-2 6v2q0 4 -1 7q-2 13 -5 25.5t-5 26.5q-1 14 -2 22.5t-4 22.5l-1 8v3
q2 14 2 28.5t-4 28.5q0 6 0.5 12.5t0.5 12.5v16t1 16q1 17 2.5 33t4.5 33q1 10 1.5 20t1.5 20q2 3 4 11q1 17 9.5 32t14.5 31q1 2 3 4q5 7 11 12.5t12 10.5l12 10t14 5h15.5t15.5 -4q11 -6 18 -19q8 -13 15 -29q2 -8 2.5 -15.5t0.5 -15.5q-1 -17 -2 -33.5t-4 -33.5
q-2 -16 -5.5 -32t-7.5 -31q-5 -16 -10.5 -31.5t-10.5 -30.5q-5 -16 -11 -31t-11 -30q-3 -8 -6 -16.5t-5 -16.5t-2 -14.5t2 -14.5q2 -16 3.5 -23.5t6.5 -23.5q5 -15 9.5 -29.5t12.5 -28.5q4 -8 8 -15t8.5 -10.5t10 -2t13.5 12.5q11 14 20 29.5t19 30.5q3 0 5 3q2 5 4.5 8.5
t4.5 8.5q9 6 15 17t11 19q2 2 1 5l4 4q1 1 1.5 1t1.5 1q3 2 5.5 5.5t4.5 4.5t4 1.5t4 5.5q3 5 5 8.5t5 5.5q4 2 7 5l5 5t3.5 5t4.5 6zM143 336q5 15 9 30.5t8 30.5q2 8 3.5 15.5t3.5 15.5q1 7 3 13t2 13q1 15 3 29.5t3 28.5q0 8 1 15t0 15q-1 4 -2 10.5t-6 8.5
q-7 2 -9.5 -4.5t-4.5 -11.5q-4 -11 -7 -28q-3 -15 -7 -30t-6 -30t-2.5 -31.5t-0.5 -31.5q1 -8 1 -16t1 -16q1 -4 1.5 -14.5t5.5 -11.5z" />
    <glyph glyph-name="m" unicode="m" horiz-adv-x="606" 
d="M733 295q2 2 4 2.5t4 2.5q-2 -5 -3 -9t-3 -8q-5 -11 -8 -19.5t-7 -16.5q-3 -5 -5.5 -9t-4.5 -9q0 -1 -1 -2.5t-1 -2.5q-2 -6 -3 -8q-5 -5 -8 -11q-2 -4 -5 -7.5t-4 -8.5q-11 -14 -21 -29t-21 -32q-5 -4 -8 -9q-2 -4 -2 -6q-12 -18 -25 -34t-28.5 -27.5t-33.5 -17.5
t-39 -3q-6 0 -9 -4q-3 1 -6.5 1.5t-6.5 1.5h-2q-7 1 -16 5t-17 7t-13 12q-3 5 -4.5 9.5t-3.5 9.5v15q-1 17 -2 33.5t1 33.5q0 8 1 19.5t2.5 24t2.5 24t1 20.5q0 16 -3 33q-4 24 -12 25t-22 -19q-18 -26 -24 -58t-8 -63l-3 -33q-1 -5 1 -15q1 -5 -0.5 -7.5t-2.5 -7.5
q-2 -8 -1.5 -15t-1.5 -14q-1 -5 -1 -8.5t-1 -7.5q-1 -2 -1 -3.5t-1 -3.5q0 -2 0.5 -4t0.5 -4q0 -5 -4 -11.5t-7 -10.5q-9 -12 -19 -16t-22 1q-7 3 -13.5 5.5t-11.5 8.5q-9 10 -9.5 25.5t-1.5 27.5q-1 7 -1 13t-1 12q1 16 2.5 31.5t3.5 31.5q2 17 0.5 33t-3.5 32l2 24l2 24
q1 8 1.5 16t0.5 16q1 4 1 8v8q0 3 -0.5 7.5t-2.5 6.5q-4 5 -10 4t-12 -5t-11 -9.5t-7 -8.5q-10 -12 -18 -26l-16 -28t-14 -29t-8 -31q-2 -8 -1 -15.5t0 -15.5q0 -9 -1 -17.5t-3 -16.5q-2 -16 -3.5 -31.5t-3.5 -32.5q-1 -7 -3 -13.5t-2 -13.5t-6 -14t-9 -12q-8 -14 -22.5 -16
t-27.5 6q-14 6 -23 17q-4 4 -6 11q-2 4 -2 7.5t-2 7.5q-2 2 -2 5q2 2 2 5q0 22 4.5 43t3.5 42q1 2 1 5t1 5q2 13 5.5 25.5t5.5 25.5q2 14 4 27t4 27t4.5 27t4.5 27q1 7 2.5 20.5t6 25.5t12 18t19.5 -3q5 -3 6 -7.5t5 -8.5q5 -4 8.5 -8t7.5 -9q8 -10 11 -20q1 -4 1 -11.5
t4 -9.5q11 11 22.5 23t24.5 22q5 4 11 9.5t13 7.5t14 -0.5t14 -1.5q7 2 13 -1t11 -6q7 -4 13.5 -6t13.5 -5q5 -3 9 -6t6 -8q4 -6 5 -13t3 -14q1 -2 2 -5t3 -4t4 2t4 4q6 6 11.5 12t11.5 12q11 11 22.5 21t25.5 15q12 5 25.5 4.5t24.5 -5.5q9 -4 18 -13q5 -5 7.5 -11t7.5 -11
t7.5 -11t5.5 -12q3 -7 5.5 -13.5t2.5 -14.5q1 -8 0.5 -16t-0.5 -16q1 -9 1 -18v-18q0 -8 -0.5 -20.5t-1 -26t-1.5 -26t-2 -20.5q-3 -19 0 -25t9.5 -4t15 9.5t17.5 15.5q15 15 28 33.5t25 36.5q3 0 5 3q3 5 5 8.5t4 8.5q8 5 13.5 14t10.5 17q0 1 1 2.5t1 2.5q2 1 2 5
q0 1 1 1.5t2 2.5q1 1 1.5 1t1.5 1q4 2 6 5.5t4 4.5t4 1.5t5 5.5t5 8.5t5 5.5t6 5l5 5t4 5z" />
    <glyph glyph-name="n" unicode="n" horiz-adv-x="430" 
d="M430 297q7 -10 9 -21t3 -23v-33v-27t-1 -26q-2 -26 -10 -51t-19 -49q-5 -11 -10 -23.5t-12 -23.5q-4 -5 -7 -10.5t-7 -11.5q-4 -5 -7.5 -10t-8.5 -9q-5 -3 -8.5 -7.5t-8.5 -6.5t-11.5 -0.5t-11.5 3.5q-11 2 -21 6.5t-18 12.5q-5 5 -8 12.5t-4 14.5q-1 8 -1.5 15t-1.5 14
q-1 9 0 17.5t3 16.5q1 8 1 15.5v15.5q0 17 1.5 33t2.5 33q0 9 0.5 18t1.5 18q1 8 2 15.5t-1 15.5q-1 5 -4 15t-8 12q-6 2 -12.5 -4t-10.5 -10q-11 -11 -21.5 -22t-17.5 -25q-8 -14 -14 -29t-13 -29q-3 -8 -6 -15.5t-5 -15.5q-1 -6 -1 -12.5t-2 -13.5t-6 -12t-9 -10
q-4 -5 -8 -11.5t-9 -8.5q-3 -1 -6 0.5l-6 3t-6 2t-6 -3.5q-7 -10 -19 -1q-6 5 -12 9.5t-10 11.5q-5 10 -3 26q1 9 2.5 17.5t1.5 16.5v16t2 16q4 17 4 34v34t-0.5 34t-0.5 34v36q0 4 -0.5 8t-0.5 8q0 3 -0.5 7.5t1.5 7.5t5.5 3h7.5q3 0 6.5 0.5t7.5 -0.5q13 0 23 -10l10 -10
t8 -12q2 -7 2.5 -14t0.5 -15t0.5 -17t0.5 -18q1 -2 0.5 -6.5t1.5 -6.5q6 6 8 9q10 12 19.5 25.5t21.5 22.5q6 5 13 8.5t12 8.5q6 5 11.5 8.5t12.5 6.5q14 8 27.5 12.5t28.5 3.5q9 -1 17.5 -2.5t16.5 -2.5l14 -2t14 -3q15 -5 25 -15l21 -21q6 -6 12 -11t11 -12z" />
    <glyph glyph-name="o" unicode="o" horiz-adv-x="311" 
d="M436 302h1q-3 -10 -8.5 -19.5t-11.5 -18.5q-7 -8 -14.5 -13.5t-15.5 -13.5q-4 -4 -8 -6t-9 -5q-8 -5 -15 -7.5t-17 -3.5l-10 -2t-10 -1q0 -4 0.5 -7t0.5 -6v-14q0 -7 1 -13.5t-1 -13.5l-2 -12l-2 -12l-2 -12t-3 -12q0 -4 -4 -10q-2 -3 -2 -5.5t-2 -5.5q-5 -14 -14 -29
l-8 -12t-9 -11q-11 -12 -26 -18t-30 -11q-14 -5 -29 -9t-31 0q-8 2 -14 6t-14 7q-6 4 -12.5 7t-12.5 8q-11 9 -21 20.5t-15 25.5q-2 7 -4 17q-2 6 -5 13q-2 8 -3 16l-2 16q-2 17 -3.5 33.5t1.5 33.5l6 33q1 3 0.5 6.5t-0.5 7.5q1 4 1 7.5t1 7.5q3 15 9.5 28.5t15.5 26.5
q8 12 15.5 25t21.5 21q3 2 6.5 3.5t6.5 3.5q4 3 10 9q8 4 12 5q2 1 5 0.5t6 1.5q8 2 15 4.5t15 3.5q10 0 15 -1q3 0 6 1t6 0q4 -1 6.5 -3t5.5 -4l12 -6q6 -3 11 -7.5t10 -9.5q22 -24 36 -50q3 -7 4.5 -14.5t3.5 -15.5q1 -5 1.5 -8.5t1.5 -8.5q1 -6 1.5 -12.5t0.5 -13.5
q6 0 11.5 -0.5t10.5 1.5q6 2 11.5 3t10.5 3q7 2 11 6.5t9 8.5l7.5 7.5t7.5 5.5t6 2q2 2 3 3.5t2 3.5l2 2q1 0 3 3q2 -1 7 1t8 6t9 3zM205 340q-3 -3 -3 -6q-2 -4 -3 -8t1 -7q2 -4 4 -6t4 -7q3 -6 8 -11l10 -10q5 -6 13 -10q3 -2 5.5 -4t5.5 -3q4 -1 11.5 -5t6.5 1
q-2 22 -9 37t-17 26q-7 11 -19 16q-4 2 -9.5 1t-8.5 -4zM272 179q2 5 3.5 10.5t0.5 11.5q-1 3 -1 6.5t-1 7.5q-5 0 -7 1q-8 2 -16 5t-16 7t-11 7q-16 7 -25 15q-8 7 -13 15.5t-13 15.5q-3 -5 -3 -12t-1 -14t-1 -14t-1 -15q0 -14 1 -27t3 -27q1 -8 1.5 -15t0.5 -15
q0 -6 0.5 -12t0.5 -13q-1 -5 -1 -15q0 -3 -0.5 -6t-0.5 -5q0 -6 2.5 -11t4.5 -10q3 -5 5.5 -10t7.5 -8q4 -2 8.5 -5t8.5 -1q27 10 39 34t17 50q2 10 3 21t3 22q0 2 0.5 3t0.5 3z" />
    <glyph glyph-name="p" unicode="p" horiz-adv-x="408" 
d="M535 295q2 2 4 2.5t4 2.5q-2 -5 -3.5 -9t-3.5 -8q-5 -11 -7.5 -19.5t-6.5 -16.5q-4 -7 -6.5 -11.5t-5.5 -11.5q-4 -8 -7 -17l-9 -12v-2q-5 -6 -7.5 -12t-7.5 -13q-10 -15 -17 -29q-2 -2 -4 -8q-1 0 -1 -0.5t-1 -0.5q-2 -5 -4 -7.5t-5 -6.5q-4 -3 -7.5 -8t-6.5 -9
q-2 -2 -3 -2t-3 -2l-2 -2l-2 -2l-2 -1q-6 -5 -7 -5.5t-6 -5.5q-2 -2 -3 -2l-1 -1l-4 -2l-6 -5q-7 -5 -11 -9t-12 -9q-3 -3 -10.5 -6.5t-10.5 -5.5q-5 -3 -19 -8t-25 -10q-5 -2 -9 -3.5t-9 -3.5q-4 -1 -7.5 -2t-7.5 -2q-3 -2 -7.5 -4t-7.5 -1q-8 1 -14.5 -1.5t-14.5 -4.5
q-8 -1 -15.5 -2t-15.5 -2q-8 -2 -15.5 0t-15.5 3q-2 1 -6.5 1.5t-6.5 -1.5t-2 -6.5v-6.5q-1 -18 0 -35q1 -16 2 -31.5t-4 -31.5q-3 -8 -3.5 -15t-1.5 -15q-2 -17 0 -32q0 -17 0.5 -32.5t-0.5 -31.5q-1 -15 -1 -30t-6 -29q-6 -13 -16 -21q-6 -5 -9.5 -10t-6.5 -11
q-4 -10 -7 -14q-2 -7 -5 -8q-2 -2 -6.5 -0.5t-6.5 2.5h-17t-17 -4q-2 -1 -2.5 -2t-2.5 -2q-3 0 -6.5 -0.5t-5.5 -2.5q-3 -3 -4.5 -6.5t-6.5 -3.5t-11.5 1t-11.5 4q-5 4 -6 9v2q0 1 -0.5 1.5t-0.5 2.5v7t1 7q0 6 0.5 12.5t0.5 12.5q1 9 2 17t3 16q3 16 3 32t2 32q2 17 4 33.5
t7 33.5q4 16 4.5 32t2.5 33q1 4 2 7.5t0 6.5q-1 5 -1.5 8.5t-0.5 7.5q-1 8 0 17t2 17q2 17 4 33l4 32q2 33 6 65.5t7 64.5q1 8 1.5 16t0.5 16q1 9 0 17.5t0 17.5q0 8 0.5 16t0.5 16q1 5 3.5 16t6.5 14q7 5 15 6l16 2q4 0 6.5 0.5t5.5 -1.5q6 -3 6.5 -16.5t1.5 -19.5
q1 -2 1.5 -5t4.5 -1q2 2 3 6t3 7q3 7 6.5 13.5t7.5 14.5q6 14 14.5 26t19.5 22q23 19 54 25q8 2 15 3.5t15 0.5t15.5 -3t15.5 -4q5 0 9 0.5t9 -0.5t8 -4.5t8 -6.5q8 -6 15 -12.5t13 -15.5q7 -9 9.5 -18.5t7.5 -20.5q9 -21 12 -44q1 -5 1.5 -9.5t1.5 -9.5v-8q0 -2 1.5 -4.5
t2.5 -4.5q1 -5 -1 -10.5t-3 -10.5l-2 -12l-2 -12q-2 -11 -4.5 -23t-7.5 -23q-2 -5 -4.5 -10t-4.5 -10q-2 -4 -5 -7q-2 -4 -2 -11q7 2 12.5 6t10.5 9l14 10t13 10q4 3 7 5.5t6 5.5l1 2q11 6 18 19.5t14 24.5q3 0 5 3q2 5 4.5 8.5t4.5 8.5q9 6 15 17t11 19q2 2 1 5l4 4
q1 1 1.5 1t1.5 1q3 2 5.5 5.5t4.5 4.5t4 1.5t5 5.5q2 5 4 8.5t6 5.5q3 2 6 5l5 5t3.5 5t4.5 6zM269 184q1 8 2 17t-1 18q-3 16 -6.5 32t-6.5 33q-3 16 -10 28q-4 7 -6.5 11t-10.5 6q-14 2 -22 -12.5t-14 -24.5q-8 -14 -13.5 -28.5t-10.5 -30.5q-1 -4 -2.5 -7.5t-3.5 -8.5
t-2 -10t-1 -10q-1 -10 -1.5 -19.5t-2.5 -19.5q-1 -13 -1.5 -26t-1.5 -26q-1 -11 -1.5 -21.5t0.5 -20.5q0 -4 4 -6q7 0 15 3.5t14 6.5q8 3 14.5 7t13.5 9q7 4 13 7.5t11 9.5q22 23 28 54q3 13 3 29z" />
    <glyph glyph-name="q" unicode="q" horiz-adv-x="414" 
d="M542 295q2 2 4 2.5t4 2.5q-2 -5 -3.5 -9t-3.5 -8q-5 -11 -7.5 -19.5t-7.5 -16.5q-3 -6 -5.5 -10.5t-4.5 -9.5h-1q-2 -4 -6 -10.5t-8 -13.5t-7.5 -12.5t-3.5 -6.5q-2 -4 -4.5 -7t-4.5 -6q0 -1 -1 -2q-7 -9 -9.5 -16t-8.5 -18t-16 -25.5t-18 -25.5l-14 -18l-14 -18
q-5 -6 -14.5 -18.5l-19 -25t-16.5 -23t-8 -13.5q-3 -8 1 -20q6 -17 11 -34t8 -33q2 -6 5 -11t4 -12q2 -11 3.5 -19.5t4.5 -19.5q1 -5 1 -14q1 -8 2.5 -14.5t1.5 -14.5q-1 -17 0 -33t-3 -32q-2 -8 -3.5 -16.5t-4.5 -16.5q-1 -2 -1.5 -3.5t-1.5 -3.5q-8 -12 -16 -22.5
t-17 -21.5l-10 -4t-9 -3q-14 -5 -30.5 -7.5t-31.5 1.5q-7 2 -14.5 5t-12.5 8q-6 4 -11.5 12.5t-9.5 13.5q-5 7 -10.5 23t-8.5 24q-3 7 -5.5 16.5t-4.5 17.5q-2 7 -1 15.5t-1 16.5q-5 17 -5 30q0 8 -0.5 16.5t0.5 16.5t1.5 16t2.5 16q2 17 5 33t5 33q2 8 3 16t4 16t5.5 14.5
t5.5 14.5q2 5 4 15.5t2 12.5q1 3 -9 -2.5t-14 -5.5q-9 0 -14 -1q-8 -1 -15.5 1t-15.5 4q-1 1 -5 1q-11 5 -21.5 11.5t-21.5 12.5q-5 5 -9.5 10t-8.5 11q-9 13 -14.5 27.5t-9.5 28.5q-5 17 -3.5 32.5t3.5 32.5q1 8 0 16t0 16q2 16 7 28q6 15 11.5 30t10.5 30q5 14 11.5 27.5
t16.5 24.5q5 5 9.5 10t10.5 9q5 4 11 6t11 7q20 20 48 25q8 2 15 5t15 5t14 2t14 -2t17 -1.5t17 0.5t15 -1t15 -3q14 -4 23.5 -14t15.5 -23q7 -14 4.5 -29t-0.5 -30q2 -17 0 -33.5t-4 -33.5q-2 -8 -3.5 -20t-3.5 -25t-4 -24.5t-4 -19.5q-2 -9 -4.5 -18t-4.5 -17
q-1 -4 -2.5 -14.5t-3.5 -22.5t-3.5 -22.5t-1.5 -14.5q1 -4 -2.5 -7t-2.5 -8q1 -6 0 -13q0 -2 -0.5 -4.5t-0.5 -4.5q15 10 25 20q2 2 10 12.5t17.5 22.5t17.5 22.5t10 12.5t3 3.5t3 3.5h1q2 3 4.5 5.5t4.5 5.5q8 10 16.5 23.5t17.5 27.5q2 3 6.5 10.5t9.5 16.5t10 17t7 11h1
q0 1 0.5 1.5t0.5 1.5q1 1 1 5q2 2 3 4l4 2q3 2 5.5 5.5t4.5 4.5t4 1.5t4 5.5q3 5 5 8.5t5 5.5t6.5 5t5.5 5t3.5 5.5t4.5 5.5zM279 213l3 8q2 8 4.5 12t5.5 12t5 16.5t4 17.5l8 38t8 39q3 16 -8.5 24t-25.5 7q-17 0 -36 -7q-4 -2 -6.5 -5.5t-5.5 -6.5q-6 -8 -11 -13
q-10 -11 -18 -26q-4 -7 -6.5 -14t-7.5 -13q-5 -7 -8.5 -13.5t-5.5 -14.5q-2 -7 -4 -13.5t-3 -13.5q-2 -9 -3 -17.5t-3 -16.5t-2.5 -16t-1.5 -16q-2 -17 -1 -33.5t3 -33.5q1 -8 2.5 -15t6.5 -14q2 -3 6 -9.5t8 -6.5t7 1.5t6 3.5l15 6q2 2 5 3t5 3l9 9q5 6 8 13t6 15
q4 7 7.5 13.5t6.5 13.5q3 8 5 16l4 16t3 10.5t3 10.5zM346 -209q-1 17 -3.5 33t-5.5 33q0 2 -0.5 3t-0.5 2q0 -2 0.5 -2.5t0.5 -2.5q-2 12 -4.5 23.5t-5.5 23.5q-2 6 -5.5 18t-11.5 14q-3 0 -4.5 -3t-2.5 -7.5t-1.5 -8.5t-0.5 -6q-1 -8 -2 -15t-3 -15q-2 -17 -4 -33.5
t-4 -33.5q0 -8 -0.5 -16.5t-1.5 -16.5q-2 -8 -3 -16.5t0 -16.5q2 -17 2.5 -32.5t2.5 -32.5q1 -7 2 -15t8 -12q7 -2 11 2t6 9q5 8 11.5 12.5t11.5 19.5q2 8 4 13t3 13q1 17 2 33t-1 33z" />
    <glyph glyph-name="r" unicode="r" horiz-adv-x="405" 
d="M533 295q2 3 7 5q-2 -5 -3 -9t-3 -8q-5 -11 -8 -19.5t-7 -16.5q-4 -7 -6.5 -11.5t-5.5 -11.5q-3 -9 -7 -17q-2 -4 -8 -12q0 -1 -0.5 -1t-0.5 -1q-5 -6 -7.5 -12t-7.5 -13t-8.5 -14t-8.5 -15l-2 -4l-2 -4l-1 -1q-4 -9 -11 -18l-13 -13q-2 -2 -1 -2t-2 -2l-5 -4l-4 -4
q-7 -5 -9.5 -6t-7.5 -6l-3 -3l-2 -2l-5 -4q-7 -6 -11 -8t-12 -7q-4 -5 -12 -10q-7 -4 -15 -5.5t-16 -2.5h-3h-2h-6q-3 -1 -6 -0.5t-6 0.5q-11 1 -16.5 4t-13.5 8q-12 7 -23 19q-2 2 -4.5 3.5t-4.5 3.5q0 1 -2 3q-1 2 -2 3t-2 3q-9 12 -15 27v2q0 8 -2 15t-4 15t-2.5 15
t-1.5 15q-2 17 -2.5 33t-0.5 33q0 8 -0.5 16.5t-0.5 16.5q2 18 -1 33q0 6 -1 15t-9 11q-5 2 -13 -0.5t-13 -4.5q-8 -2 -15 -5t-12 -9q-5 -5 -6 -10q-1 0 -1 -0.5t-1 -0.5q-10 -10 -18 -23l-3.5 -3.5l-3.5 -3.5q-5 -5 -8 -11l-1 -1q-1 0 -1 -0.5t-1 -0.5l-2 -2q-2 -1 -2 -1.5
t-1 -1.5q-4 -4 -6 -5q-4 -4 -13 -10v3l2.5 2.5t1.5 2.5l5.5 11t4.5 11q6 13 11 25q2 5 -6.5 6t-11.5 1q-11 3 -24.5 9t-18.5 17q-4 7 -5.5 14.5t-3.5 15.5t-3 15.5t1 15.5q3 14 9.5 26.5t20.5 17.5q8 2 15.5 3t15.5 3q7 2 13.5 3.5t13.5 3.5q8 1 17 2.5t16 -2.5
q10 -6 15 -18q3 -8 1 -16l-4 -16t-3.5 -16t-3.5 -16t7.5 -4.5t12.5 5.5q8 3 14.5 6t14.5 6q8 4 16.5 7.5t16.5 6.5l14 6t15 4h8t9 -2q3 -1 6.5 -0.5t7.5 0.5q16 2 28 -2q14 -5 21.5 -17.5t7.5 -26.5q0 -8 0.5 -16t-1.5 -16q-1 -8 -2 -15.5t-1 -15.5v-66v-8v-3
q0 -17 -0.5 -35t7.5 -32q4 -7 7.5 -9.5t8.5 -3.5h1q7 1 14 5.5t13 9.5q1 0 2 1q22 11 36 33q3 0 5 3q3 5 5 8.5t4 8.5q9 6 15.5 17t11.5 19q1 1 1 5q0 1 1 1.5t2 2.5q1 1 1.5 1t1.5 1q4 2 6 5.5t4 4.5t4 1.5t5 5.5t5 8.5t5 5.5t6 5l5 5t4 5.5t5 5.5zM113 379q0 1 0.5 3.5
t0.5 1.5q2 8 -2.5 9.5t-10.5 2.5q-4 0 -11.5 1.5t-9.5 -3.5q-1 -3 -2 -5.5t-1 -6.5q0 -5 2 -11q1 -6 1 -11.5t1 -10.5q2 -6 8 -9q2 -1 7 -2.5t8 0.5q4 2 4.5 9.5t0.5 10.5q2 7 2 10.5t2 10.5z" />
    <glyph glyph-name="s" unicode="s" horiz-adv-x="240" 
d="M337 285q1 -1 1 -2q0 -2 -1 -4q-2 -6 -2 -9q-2 -4 -2 -5t-0.5 -1.5t-0.5 -1.5t-1 -1v-1q-1 -2 -1.5 -3.5t-1.5 -3.5v-1q-1 -2 -2 -3t-2 -3q-1 -1 -1 -1.5t-1 -1.5q-2 -1 -4 -5l-1 -1q0 -1 -1 -1l-2 -1l-2 -1q-2 -1 -4 -3q-7 -4 -14 -7t-16 -5q-11 -2 -20 -5t-17 -6l1 -1
l4 -12l4 -12q4 -8 7 -12q6 -12 6 -25q1 -9 1 -18v-17q0 -2 1 -2.5t2 -2.5q0 -4 1 -8.5t-1 -6.5q-5 -8 -5.5 -15.5t-2.5 -15.5l-6 -18t-7 -17q-1 -2 -2 -2.5t-2 -2.5q-2 -1 -6 -5q-2 -2 -6 -8l-2 -1q2 -4 0 -5t-4 -3q-12 -10 -30 -17q-5 -2 -10.5 -4t-10.5 -4q-4 -1 -12 -1
t-17 -0.5t-17 0.5q-5 1 -11 2.5t-11 3.5q-8 2 -11 4q-17 8 -26.5 21t-14.5 30v3q-1 6 -1 12v11q0 18 6 35h-1q1 2 1.5 2.5t1.5 2.5l3 9l2 2q12 22 23.5 36.5t25 25t30.5 19.5t40 21l-3.5 8.5t-8.5 19.5t-9 20.5t-5 11.5q-4 9 -8 17.5t-9 16.5l-4 -3q-2 -4 -2 -5
q-1 0 -1 -0.5t-1 -0.5q-4 -5 -8.5 -10.5t-8.5 -10.5l-1 -2l-3.5 -3.5l-3.5 -3.5q-5 -5 -8 -11l-2 -2l-2 -1l-1 -1l-3 -3q-4 -4 -6 -5q-2 -2 -5 -4.5t-7 -4.5l-1 -1v3l2.5 2.5t1.5 2.5l5.5 11t4.5 11q6 13 11 25q1 2 4.5 7.5t6.5 10.5l14 32q-8 15 -12 33q-2 7 -2.5 13.5
t-1.5 13.5q0 2 2 8q1 2 1.5 5t2.5 5q4 7 6.5 12.5t7.5 11.5q6 8 11 10t14 4q8 1 14 2t13 -1q7 -3 13 -6.5t10 -11.5q5 -8 6 -16l2 -16v-8q-1 -7 -3.5 -13t-4.5 -12q-2 -8 -6.5 -18.5t-10.5 -15.5q-5 -4 -9 -12q-1 -1 1 -4t3 -5q2 -5 4 -9l4 -8q11 -17 22 -36t21 -38
q5 2 10 2.5t10 2.5q8 2 14.5 3.5t14.5 3.5q5 1 10 3l10 4q2 0 3 1q8 3 12.5 8t6.5 6q5 4 5.5 6t5.5 9q0 2 1 2q1 3 3 7zM160 366q5 9 8 18t2 20q-1 6 -8 9.5t-12 -1.5q-6 -5 -6.5 -13.5t-0.5 -15.5q1 -8 4 -11.5t6 -10.5q1 -1 1 -2q4 4 6 7zM202 114q1 5 0.5 10t-1.5 10
q-1 9 -1.5 18.5t-2.5 17.5q-1 10 -6 19q-42 -20 -56 -39q-11 -16 -17 -32q-5 -9 -2 -19q1 -12 8 -27q2 -5 6 -8.5t10 -2.5h9.5t9.5 1q7 1 12.5 3t9.5 7q2 2 3.5 4t3.5 4q8 7 10.5 15.5t3.5 18.5z" />
    <glyph glyph-name="t" unicode="t" horiz-adv-x="159" 
d="M280 295q2 2 3.5 2.5t3.5 2.5q-2 -5 -3 -9t-3 -8q-4 -8 -6.5 -15.5t-5.5 -14.5q-5 -5 -11 -12.5t-8 -15.5q-9 -6 -11 -16q-15 -22 -31 -49q-8 -14 -16 -29t-17 -29q-5 -7 -8.5 -13.5t-8.5 -13.5t-10.5 -12.5t-10.5 -12.5q-9 -10 -18 -17l-12 -6q-4 -2 -7 -1.5t-8 1.5
q-7 2 -13 2t-13 2q-8 2 -11.5 7.5t-9.5 10.5t-9 9t-6 12t-5 15.5t-3 16.5q-1 7 -2.5 13.5t-2.5 14.5t-1.5 17t-0.5 18q-1 17 1.5 33t4.5 33t2.5 34.5t2.5 34.5q1 17 3 33.5t5 33.5q1 3 3 11.5t-2 10.5q-3 1 -6.5 0t-5.5 -1q-5 -2 -9 -2.5t-9 -2.5q-5 -1 -13.5 -2.5
t-13.5 3.5q-2 2 -4 4.5t-1 4.5q2 2 6 2.5t6 0.5q8 2 16.5 3t16.5 2q5 1 12 0.5t8 6.5q0 13 7 29q3 8 4 15.5t3 15.5q3 17 6.5 33t6.5 33q2 5 4 10.5t8 8.5q2 2 2.5 4t1.5 4q0 5 6 7q3 2 5 0.5t5 -1.5q4 1 6 0.5t5 -3.5q2 -2 4.5 -5t4.5 -4q8 -3 13 -7t8.5 -8.5t7.5 -9.5
q5 -7 8.5 -13t4.5 -14q2 -16 -1 -31.5t-5 -30.5q-1 -4 -1 -10v-3q8 0 15.5 1.5t15.5 2.5l7 1q0 -4 -1 -6t-2 -3.5t-2 -3.5q-5 -2 -13 -4q-3 0 -12 -1t-10 -5q-2 -8 -2 -15.5t-2 -15.5l-3 -15q0 -10 -2 -14q-1 -4 -2 -6t0 -6q1 -5 1.5 -9t0.5 -8q-1 -9 -1.5 -17.5t-1.5 -16.5
q0 -4 -0.5 -8t-0.5 -9q-1 -3 -0.5 -7t-1.5 -7t-3.5 -5.5t-2.5 -6.5q-2 -8 -2 -12q-2 -8 -0.5 -17t1.5 -17v-31q0 -8 -1 -16.5t-1 -16.5v-15.5t3 -15.5q1 -4 4 -2.5t5.5 4.5t4.5 6.5t3 4.5q5 7 9 13t9 12q2 3 4.5 5t4.5 5t4 6.5t4 6.5q5 5 8 11q2 3 5 5t5 4q8 13 15 29
q2 4 3 5l2 2v1l1 1q2 2 2.5 3t2.5 2q7 8 11 18q0 2 1 3q1 2 4 5q2 1 4 1.5t5 5.5t5 8t5 5t6 5.5t5 5.5t4 5t5 6z" />
    <glyph glyph-name="u" unicode="u" horiz-adv-x="350" 
d="M478 295q3 3 7 5q-2 -4 -3 -8t-3 -9q-5 -11 -8 -19.5t-7 -16.5q-4 -7 -6.5 -11.5t-5.5 -11.5q-2 -4 -3 -8t-3 -9q-3 -3 -9 -11q0 -8 -5.5 -20.5t-12 -25.5t-12.5 -24t-9 -16q-4 -7 -9 -17.5t-10 -15.5q-6 -8 -11 -16.5t-12 -16.5q-6 -7 -10 -12t-13 -9l-2 -2q-4 1 -8 -1
q-12 -6 -26.5 -8t-26.5 4h-2q-4 3 -7 6t-5 4q-13 11 -19.5 26t-7.5 32q-10 -8 -18 -18t-19 -18q-16 -12 -34 -14.5t-37 2.5q-6 1 -11.5 0.5t-11.5 3.5q-7 4 -14 13q-16 18 -26.5 41.5t-9.5 47.5q0 15 3 29l6 28q4 14 6.5 28.5t5.5 28.5q3 15 7 31.5t1 32.5q-1 7 -3.5 15.5
t0.5 14.5q2 5 11.5 5.5t14.5 1.5q15 1 26.5 -7t19.5 -20q4 -6 7 -13t5 -14q2 -8 1.5 -15t-1.5 -15q-2 -17 -4 -32.5t-1 -32.5q1 -8 1 -16.5v-17.5q-1 -5 -1 -15q1 -17 12 -15t21 10q7 5 10.5 11t8.5 13t7.5 14t5.5 15q2 8 5.5 15t6.5 15q8 16 13 32t11 33q3 8 6.5 15.5
t8.5 14.5q2 3 4.5 6t4.5 6q2 2 2 5.5t2 5.5q3 4 9 2t12 -7t11 -11t7 -8q10 -13 8.5 -29t-0.5 -31q0 -5 1 -8.5t0 -8.5q-1 -4 -2 -7.5t-2 -6.5q-1 -4 -2 -7.5t-2 -7.5q0 -4 0.5 -7.5t0.5 -6.5q0 -4 -0.5 -7t-0.5 -7q-1 -2 -1 -3t-1 -3q0 -14 -1.5 -28.5t-2.5 -29t1 -29
t8 -27.5q2 -3 5 -5q3 2 5 5h2q5 3 13 16.5t16 29t15 30t10 19.5q4 0 6 3q2 5 3 9.5t3 9.5q5 9 9.5 19.5t9.5 18.5q1 2 1 5q0 1 3 4q2 2 3 2q4 2 6 5.5t4 4.5q2 2 4 2t5 5t5 8.5t5 5.5t6 5l5 5l4 6t5 5z" />
    <glyph glyph-name="v" unicode="v" horiz-adv-x="349" 
d="M60 283q0 2 -0.5 6t-2.5 9q-2 7 -3 13.5t-2 13.5q-2 7 -2 13.5t-1 13.5q-1 3 -1.5 6.5t-1.5 6.5q-2 8 -1 12q3 5 7.5 5h9.5q2 0 4 1.5t4 3.5q8 6 12 8q10 4 22 6q7 0 14 -2.5t13 -4.5q26 -10 40 -32q3 -5 7 -10t6 -10q3 -7 3 -13.5v-13.5q-1 -15 3 -29.5t7 -28.5t4 -29
t3 -29q2 -13 5.5 -25t7.5 -24q2 -6 3.5 -12.5t3.5 -12.5t2.5 -13t4.5 -12q5 5 7.5 11.5t4.5 12.5q4 8 7 14.5t7 14.5q6 14 12.5 27t12.5 26q6 14 13.5 26.5t13.5 26.5t11.5 26.5t11.5 26.5q6 12 10 25t11 25q3 5 6.5 10t6.5 10q2 5 6.5 9.5t9.5 -1.5q5 -4 2 -11t-5 -11
q-3 -8 -6 -14.5t-6 -14.5q-3 -7 -4.5 -13t-3.5 -13q-2 -8 -5 -14.5t-6 -13.5q-5 -14 -11 -27t-11 -27q-3 -8 -5.5 -14.5t-4.5 -13.5t-6 -12t-6 -12q-2 -5 -4 -11t-4 -11q-2 -7 -3.5 -14t-3.5 -14q-5 -14 -10 -27.5t-10 -27.5t-9 -28.5t-11 -27.5q-2 -7 -5 -9q-2 -2 -4.5 -1
t-4.5 0l-4 -2t-4 -3q-3 -3 -11 -5q-7 -1 -13.5 -1h-13.5q-8 0 -15 -1t-15 0q-15 2 -24 7q-6 4 -9 9.5t-5 12.5l-9 30q-2 8 -5.5 14.5t-5.5 14.5q-5 16 -7.5 32t-6.5 33q-4 16 -8 31t-8 31q-5 16 -6.5 31.5t-3.5 32.5q-1 1 -1 8z" />
    <glyph glyph-name="w" unicode="w" horiz-adv-x="559" 
d="M464 205v10q0 2 1 4q0 5 1 6q1 2 0.5 4t-0.5 4q0 5 -5 6q-17 4 -33 14q-21 14 -31 35.5t-8 46.5q2 26 17.5 41.5t41.5 19.5q25 3 49 -4.5t40 -27.5q19 -24 24.5 -57.5t5.5 -66.5q14 -1 27.5 1t22.5 8l14 9q8 5 14 10.5t9 13.5q1 0 2 -0.5t2 -0.5q1 1 4 1q0 1 1 1h1
q2 0 2.5 0.5t1.5 0.5h2l1 1q1 0 1 -0.5t1 -0.5q0 1 1 1h2q1 1 1.5 1t1.5 1q1 0 3.5 0.5t3.5 1.5q-1 -1 -1.5 -2t-2.5 -2q-4 -9 -13 -20q-6 -8 -14 -14t-15 -14q-4 -4 -8 -6t-9 -4q-8 -5 -15.5 -7.5t-16.5 -4.5q-5 0 -10 -1.5t-10 -1.5h-5q0 -4 -0.5 -10.5l-1 -13t-1 -11.5
t-0.5 -6q-2 -11 -6 -20q-3 -6 -3 -12.5t-2 -13.5q-4 -14 -10 -26t-13 -25q-6 -12 -13.5 -23.5t-17.5 -22.5q-9 -10 -20 -18l-22 -16q-23 -15 -50.5 -19t-54.5 5q-25 8 -42 28q-6 7 -13 21q-2 7 -5 14.5t-8 13.5q-3 -5 -6 -9.5t-6 -9.5t-7 -8t-8 -8q-18 -21 -45 -33
q-8 -3 -15.5 -6.5t-15.5 -5.5q-7 -2 -14.5 -2t-14.5 -2q-16 -3 -28 3t-23 16q-24 22 -35 46q-7 13 -10 30q-2 8 -1.5 16t0.5 16q-1 17 -3.5 33.5t-1.5 33.5q0 5 0.5 8t2.5 7t2 13v16t1 16q1 5 1.5 9.5t1.5 9.5q0 5 1 6.5l3 4.5q5 5 6.5 10.5t2.5 12.5v9t1 8q0 3 1.5 5t3.5 4
q4 5 2.5 12t1.5 12q8 14 15.5 28t16.5 28q2 4 4 7.5t6 5.5q2 2 5 3t6 3q6 4 10.5 6.5t12.5 2.5q7 -2 14 0q3 2 5.5 3.5t5.5 3.5q5 4 12 2.5t13 0.5q7 2 14.5 3.5t12.5 -3.5q10 -8 13 -21q1 -3 0 -6.5t-2 -6.5q-1 -4 -1 -8v-7q0 -4 0.5 -7.5t-0.5 -6.5q0 -4 -1.5 -6.5
t-3.5 -5.5q-3 -7 -4 -14t-2 -15t-2 -15t-3 -15q-5 -15 -10.5 -29.5t-9.5 -30.5q-1 -4 -2.5 -7.5t-3.5 -7.5q-4 -10 -5 -14q-2 -8 -3 -15.5t-2 -15.5q-2 -8 -4 -16.5t-4 -17.5q-1 -8 -0.5 -15.5t-1.5 -15.5q-2 -4 -3 -7.5t0 -8.5q1 -4 2.5 -6.5t0.5 -6.5q0 -6 3 -12
q2 -3 3 -6.5t3 -5.5t6.5 -3.5t6.5 -1.5q2 1 2.5 3t2.5 3q2 2 4.5 1.5t5.5 1.5q6 4 10 8q9 10 15 24q3 6 7 11t9 10q11 13 17 26q4 7 5.5 14t3.5 15q5 18 10 32q2 6 3 12.5t3 13.5q1 4 1 7.5t1 8.5q1 4 5 12q1 4 2 7t1 7q0 7 2 10q4 8 12 4.5t13 -6.5t10 -7t8 -11
q7 -14 3.5 -30.5t-4.5 -31.5q-1 -9 -1 -17.5v-17.5q0 -8 -0.5 -16.5t0.5 -16.5q2 -8 2.5 -17t1.5 -18q0 -8 0.5 -15.5t2.5 -14.5q3 -9 8 -14q4 -5 12 -3q4 1 6 0.5t6 2.5q2 2 5 4.5t5 4.5q5 5 9.5 11.5t9.5 11.5q8 10 13 26q1 4 2.5 7.5t2.5 7.5q2 3 2.5 6t2.5 5
q5 5 5.5 12.5t1.5 13.5q2 8 5.5 15t4.5 15q1 4 0 7.5t0 7.5v3q1 1 1 2zM434 348q-1 -2 -2 -3q-1 -2 -2 -2.5t-2 -2.5q-1 -1 -1 -2q-9 -19 1 -41q7 -13 17.5 -20.5t24.5 -12.5q3 21 -3 41q-1 3 0 7t1 7q0 9 -2 14t-4.5 11t-8.5 9q-9 4 -19 -5z" />
    <glyph glyph-name="x" unicode="x" horiz-adv-x="500" 
d="M628 295q3 3 8 5q-2 -5 -3.5 -9t-3.5 -8q-5 -11 -7.5 -19.5t-6.5 -16.5q-4 -7 -7 -11.5t-5 -11.5q-1 -1 -1 -2v-1q-4 -10 -13 -25t-19.5 -30.5t-20.5 -29t-16 -21.5q-10 -14 -20 -27.5t-20 -27.5q-5 -6 -10 -12.5t-10 -12.5q-7 -8 -16 -17.5t-19 -18.5t-20 -16.5
t-20 -11.5q-5 -2 -10.5 -4t-10.5 -4q-12 -3 -28 -1q-7 4 -15 11t-13 9t-8.5 6.5t-6.5 9.5t-6.5 12t-6.5 12q-2 2 -2 3q-5 14 -12 27t-12 27q0 4 -1 5q-2 6 -7 2q-8 -6 -15 -12l-14 -12q-11 -9 -21.5 -18t-22.5 -17q-8 -5 -17 -8l-18 -6q-5 -1 -9 0t-9 1q-29 -3 -49 20
q-7 8 -13.5 15t-8.5 18v8q3 3 5 1q4 0 8 -2q3 -2 5.5 -3t4.5 -3q14 -17 34 -15q8 1 14.5 4.5t13.5 6.5q13 7 20.5 17.5t15.5 21.5q2 3 4 5.5t4 4.5q8 8 13.5 16.5t11.5 17.5q9 12 23 24q5 5 4 11q-4 16 -7.5 32t-6.5 32q-2 11 -2 20.5t-2 19.5q-2 13 -3.5 25t-6.5 23
q-2 4 -2 5q0 8 -4.5 11.5t-9.5 5.5t-11.5 -0.5t-9.5 -6.5q-4 -4 -8 -7.5t-8 -8.5q-6 -8 -12 -14.5t-12 -14.5l-1 -1q-1 -2 -1.5 -2.5t-1.5 -2.5l-1 -1q-5 -5 -10 -11t-9 -12l-7 -7q-6 -6 -7 -11l-1 -1l-1 -1l-4 -2l-3 -3l-5 -5q-2 -2 -5.5 -4.5t-7.5 -5.5v3q0 1 1.5 2.5
l2.5 2.5q2 6 4 10l5 10q1 2 2 4.5t2 4.5l1 2q0 1 1 1q0 2 2 6q2 2 2.5 3.5l1.5 4.5l1 3q1 1 3 5h1l6 12q12 19 30 40q7 5 14 15q1 0 1 0.5t1 0.5q10 9 20 18.5t21 17.5q8 5 16.5 8t19.5 0q7 -2 13.5 -4t12.5 -6q11 -7 17.5 -17t11.5 -21q2 -6 4.5 -12t4.5 -12q2 -5 3 -11
t1 -11q-1 -11 2.5 -24.5t6.5 -23.5q1 -2 3.5 1t5.5 6q7 8 14 17t15 17q9 11 17.5 21t19.5 18q5 3 7.5 7t6.5 8l30 24q25 16 54 24q9 3 20 -1.5t13 -20.5q2 -6 2 -9q2 -6 -0.5 -11t-5.5 -10q0 1 -3 -2q-1 6 -1 10.5t-2 9.5q-1 6 -7 12q-5 5 -8 5t-8 -5q-8 -8 -15.5 -17
t-11.5 -20q-3 -7 -7 -13.5t-8 -13.5q-4 -5 -5 -11q-1 -13 -7.5 -22t-12.5 -20l-8 -12t-8 -13q-6 -14 -15.5 -25.5t-18.5 -23.5q-8 -9 -13 -15t-12 -15q-3 -3 -2.5 -7t0.5 -8q-1 -10 1.5 -19t5.5 -18t7.5 -17.5t9.5 -17.5q1 -2 2.5 -4.5t2.5 -5.5q2 -10 8 -16t13 -12
q5 -4 8 -3t8 3q11 6 19 6t16 10q5 5 9.5 10t9.5 10q5 6 13 14.5t13 15.5q9 11 16 19.5t16 19.5q3 5 6.5 8.5t6.5 8.5q6 8 11.5 17.5t12.5 17.5q2 2 6.5 12t7.5 14q3 3 5 8q2 2 1 5l4 4q1 1 1.5 1t1.5 1q3 2 5.5 5.5t4.5 4.5t4 1.5t5 5.5q2 5 4 8.5t6 5.5q3 2 6 5l5 5
t3.5 5.5t4.5 5.5z" />
    <glyph glyph-name="y" unicode="y" horiz-adv-x="356" 
d="M480 20v-2q-6 -2 -12 -3t-11 -3q-8 -2 -12.5 -5t-12.5 -6t-19 -6t-18 -8q-1 -1 -8.5 -4t-16.5 -6t-15.5 -6.5t-6.5 -5.5q2 -3 2 -8t1 -8q1 -2 1.5 -9.5t1.5 -15.5t1.5 -15t1.5 -9q3 -17 5.5 -30t0.5 -30v-16t1 -16q2 -19 -1 -35q-1 -16 -5.5 -31.5t-10.5 -30.5
q-5 -13 -10.5 -23t-18.5 -17q-5 -3 -12 -5.5t-13 -6.5q-6 -3 -12.5 -7.5t-14.5 -4.5q-17 -1 -33 1t-31 5q-14 3 -28 7t-24 15q-3 5 -7.5 10.5t-8.5 10.5q-4 7 -7 13.5t-7 13.5l-6 12t-6 13l-3 9q0 4 -1 6q-4 11 -2.5 25.5t-1.5 26.5q0 1 1 7t2.5 13.5t2.5 15t1 12.5q4 4 4 7
q4 1 8 7q2 7 3 13.5t3 13.5h2q3 2 5.5 4t5.5 4q5 5 11 10.5t12 10.5q22 19 48 33q6 2 11.5 4t10.5 4q4 1 8.5 2t6.5 3q4 3 2 9q-1 7 -2 13t-2 13q-2 14 -3 28.5t-2 28.5q0 6 -1.5 7t-2.5 7q-1 7 -1 18t-2 17q-9 -12 -15 -24q-2 -3 -4.5 -6.5t-4.5 -7.5q-2 -3 -3 -6t-3 -6
q-3 -5 -9 -7.5t-11 -4.5q-8 -3 -16 -4l-16 -2h-13.5t-13.5 4q-5 3 -10.5 8t-10.5 10q-10 12 -18 24.5t-14 27.5t-12 30.5t-11 31.5t-7 32t-5 33t-3.5 33.5t-0.5 33.5v33q0 5 -0.5 12.5t2.5 12.5q5 6 14 2t15 -2t11 1.5t11 -2.5q5 -2 9 -4t9 -5q18 -11 25 -30t10 -39
q2 -12 4 -23.5t4 -23.5q3 -13 5.5 -25.5t2.5 -25.5q1 -13 3.5 -25.5t5.5 -24.5q4 -12 7 -23.5t8 -22.5q11 6 19 19t13 24q3 7 6 13.5t5 13.5q5 8 6 14q2 5 1.5 9t-1.5 8q-5 33 -9.5 67t0.5 68q2 13 10.5 24t22.5 14q14 2 28 -1.5t25 -10.5q13 -8 22 -18t11 -25
q4 -16 4.5 -32t2.5 -33q2 -8 1.5 -16t-0.5 -16q-1 -8 -1.5 -16t-2.5 -16q-2 -17 -1.5 -33.5t0.5 -33.5q1 -8 -0.5 -15t-1.5 -15t0.5 -17t0.5 -18q1 -8 0.5 -18t1.5 -18q2 -5 1 -13t6 -8q1 0 8 2t15 5t15 6t9 4q2 0 3.5 -0.5t3.5 0.5q5 0 9.5 1.5t9.5 2.5h2q6 1 9 -0.5
t8 -3.5q2 0 4.5 0.5t5.5 0.5q4 0 6 -1t5 -2t6 0t6 0q2 0 4 -0.5t4 -0.5zM274 -263q0 1 -0.5 1.5t-0.5 1.5q2 5 2 17q-1 2 -1 3t-1 2q1 5 0 10.5t-2 10.5q-2 16 -3 32t-3 32q-1 16 -3.5 31t-5.5 30q-5 -3 -10 -6.5t-11 -7.5q-6 -5 -13 -9t-13 -9q-11 -9 -14.5 -22.5
t-7.5 -27.5l-4 -14t-2 -14q2 -8 2 -16t2 -16q0 -4 2 -10v-1q0 -10 3.5 -20.5t9.5 -19.5t14.5 -14.5t19.5 -5.5q5 0 11.5 2t9.5 7l1 1q20 10 18 32z" />
    <glyph glyph-name="z" unicode="z" horiz-adv-x="407" 
d="M57 380q2 -16 10 -27q4 -7 14 -12q3 -2 5 2q1 3 1.5 5.5t0.5 5.5q1 5 1.5 10.5t2.5 10.5q2 8 -1.5 16t-11.5 11q-4 2 -9 1t-7 -6q-6 -8 -6 -17zM89 -124v-17v-5q0 -5 3.5 -9t2.5 -9l1 -2q6 -10 22 -17q2 -1 5 -2l6 -2q2 -2 5 -2q2 -1 5 -1.5t5 -1.5q16 -6 32 -2
q13 4 25.5 7.5t25.5 8.5q17 5 25 16q10 13 17 26q4 6 7 12l6 12q9 17 17 34l3 6q0 5 1 6q3 6 4 12l2 12q2 5 2 9t1 8q1 6 1.5 12.5t0.5 12.5q0 4 -4 5q-5 0 -7 2q-4 2 -7.5 3t-8.5 2q-8 2 -11 2h-19q-6 -1 -11.5 -1.5t-11.5 -0.5q-2 0 -4 -1q-5 -1 -10 -1t-10 -2
q-5 0 -13 -2q-5 -2 -10.5 -4.5t-10.5 -5.5q-5 -2 -9.5 -5t-9.5 -6q-3 -2 -6 -4.5t-7 -4.5q-4 -3 -8 -5.5t-8 -5.5q-5 -5 -9 -9.5t-8 -9.5q-3 -3 -5.5 -6.5t-4.5 -6.5q-4 -7 -4 -15q-2 -4 -2 -6q-1 -2 -0.5 -3t-0.5 -2l-4 -8t-1 -9v-14zM323 55q0 5 -0.5 10t-1.5 10l-1 2
q0 1 -0.5 1.5t-0.5 1.5q-1 2 -1 8q0 2 -0.5 2.5t-0.5 2.5q-1 1 -1 2q0 8 -6 14q-5 5 -9 10t-9 10q-4 5 -14 7q-18 3 -34 -6q-2 -2 -4 -6q-3 -8 -12 -6q-6 1 -11.5 2t-10.5 5q-3 2 -5.5 3t-5.5 2q-6 2 -10 6t-8 9q-6 8 -5 13q0 2 1 4l2 4q4 7 3 16q-1 4 0.5 7t3.5 5
q6 11 12.5 21t12.5 20q8 14 17 26.5t18 25.5q5 8 10 15t9 15q2 3 4 9v2h-3q-8 -3 -15 -6.5t-14 -9.5q-8 -8 -18 -11q-8 -2 -15 -5.5t-13 -7.5q-15 -10 -29 -11q-5 0 -10.5 0.5t-11.5 1.5h-8t-9 -1l-2 -2q-4 -4 -6 -7q-3 -3 -5.5 -6.5t-5.5 -6.5l-2 -2q-10 -10 -22 -19
q-2 0 -3 -1q0 1 0.5 1.5t0.5 1.5q4 8 7.5 15.5t7.5 15.5q2 4 3.5 7.5t3.5 7.5t-3 4l-27 6q-11 3 -19 10q-6 5 -12.5 9.5t-13.5 9.5q-5 4 -7.5 8t-5.5 9q-4 7 -6.5 14.5t-3.5 15.5q-1 13 5 26q4 14 16 26q6 7 18 14q4 2 7.5 4.5t8.5 4.5q7 3 14 2t14 -3q19 -5 31 -16
q15 -14 21 -29t6 -29q0 -5 0.5 -9.5t0.5 -9.5q0 -4 -0.5 -7.5t-0.5 -7.5q0 -5 5 -5q9 0 17.5 2.5t16.5 5.5t14 7.5t12 8.5q5 3 9 4.5t9 3.5q4 1 7 3l6 4q11 8 23 14.5t23 14.5l10 8l10 8q7 7 11 10q5 5 11 0q5 -5 10.5 -7.5t11.5 -5.5q6 -2 13 -5q4 -2 7 -3q8 -1 17 -10
q4 -3 7.5 -6.5l7.5 -7.5l3 -6q2 -7 -4 -8q-7 -3 -8 -10q-2 -5 -4.5 -9.5t-5.5 -9.5q-10 -18 -23 -38q-4 -6 -8 -11t-7 -11q-5 -8 -9.5 -15t-9.5 -15q-5 -7 -9.5 -14t-9.5 -14q-5 -6 -7 -11q-5 -6 3 -8q5 -2 10 -2.5t10 -2.5q13 -4 28 -14q9 -4 19 -12q10 -6 17 -14.5
t13 -17.5q4 -6 6.5 -12t4.5 -13q5 -11 7 -22t6 -22q1 -4 1.5 -7t1.5 -7q1 -3 2.5 -3.5t3.5 -1.5q8 0 15 -2t14 -5q4 -1 7.5 -1.5t8.5 -0.5q9 -1 18 -3l18 -4q5 -1 9.5 -3t9.5 -2q1 0 5 -2q-3 -2 -7 -4q-1 0 -1 -1q-2 -3 -5 -6t-4 -6q-2 -7 -6 -11t-8 -9q-2 -4 -4 -6
q-5 -6 -12 -6q-6 -1 -16 1l-2 1q-2 2 -5 2.5t-6 2.5q-4 1 -6 2.5t-7 1.5q-2 0 -4.5 1t-4.5 2q-1 1 -3 1q-5 1 -6 -4q-2 -13 -1.5 -25t-0.5 -24q0 -3 -1 -6l-2 -6q-1 -6 -1.5 -12t-0.5 -12q-1 -1 -0.5 -2t-0.5 -2q-4 -7 -4.5 -14.5t-2.5 -15.5q-2 -11 -3.5 -21.5t-5.5 -21.5
q-2 -5 -5 -8.5t-5 -8.5q-5 -8 -9 -15t-9 -15q-4 -6 -8.5 -12t-9.5 -12q-1 -1 -2 -1t-2 -1q-4 -2 -5 -4l-3.5 -3.5l-3.5 -3.5q-4 -4 -5 -7q0 -4 -3 -5q-10 -12 -22.5 -20.5t-25.5 -17.5q-7 -5 -14 -9.5t-14 -9.5q-5 -3 -10.5 -4t-10.5 -3l-24 -6h-16h-2h-33q-11 0 -21 2
t-20 5q-13 4 -25 9l-24 10q-7 4 -13.5 7t-11.5 8q-5 3 -10 8l-10 10v1q-7 5 -8.5 13.5t-6.5 15.5q-2 3 -3.5 6.5t-3.5 5.5q-5 6 -7 12.5t-4 14.5q-1 4 -1 12q0 7 -2 10v3v37q0 10 6 19q5 11 6 21q1 8 1 15.5t5 15.5q2 3 4.5 6t5.5 6q5 5 8.5 10t8.5 10q2 2 2 4q2 7 7 10.5
t10 7.5q14 7 22 16q9 11 20 18t23 13q7 3 13.5 5.5t13.5 4.5q2 1 3.5 2t3.5 2q9 6 19 9l6 2l6 2q6 2 14 4q5 2 9 2.5t9 1.5h3h61q6 0 11.5 -1t11.5 -1q5 -1 10.5 -1.5t10.5 2.5z" />
    <glyph glyph-name="braceleft" unicode="{" horiz-adv-x="276" 
d="M55 487q0 5 0.5 6t-0.5 6q1 11 1 22.5t1 22.5t1.5 21t4.5 21q6 18 20 35.5t33 25.5q21 8 44 8t44 -8q6 -2 11 -5l10 -6t9.5 -5.5t7.5 -5.5q5 -5 4.5 -12t-5.5 -12q-9 -9 -20 -4q-2 0 -2.5 1t-2.5 2t-3 0.5t-3 -0.5q-5 0 -11 4q-8 4 -15 6t-15 4q-5 2 -10.5 1.5t-7.5 -6.5
q-6 -13 -8 -31q-2 -7 -3.5 -14.5t0.5 -15.5t3.5 -15.5t4.5 -15.5q4 -13 11 -28q13 -29 18 -60q3 -16 3.5 -31.5t0.5 -31.5q1 -17 -2 -33t-5 -33q-4 -29 -21 -53q-2 -4 -5 -7t-5 -7t-0.5 -6.5t3.5 -5.5q5 -5 8.5 -10.5t8.5 -10.5q5 -7 9 -13t8 -13q5 -7 8 -13.5t6 -13.5
q8 -15 13.5 -29.5t7.5 -30.5q4 -30 -2 -63q-4 -17 -7 -33t-6 -33t-4.5 -32.5t1.5 -32.5q2 -5 3.5 -11.5t6.5 -10.5q11 -8 26 -8q9 0 18 0.5t18 1.5q8 1 15.5 -0.5t15.5 -0.5q4 1 13 4.5t11 -3.5q2 -5 -4.5 -10.5t-10.5 -7.5q-13 -8 -27 -11q-8 -1 -15 -0.5t-15 0.5
q-16 0 -33 -1t-32 6q-6 3 -11 -2q-4 -6 -9 -3q-5 2 -10 6t-8 9q-4 6 -10 10q-2 2 -4 5t-4 5q-8 13 -12 25q-4 16 -5.5 31.5t-2.5 31.5q-2 16 0.5 32t4.5 33q2 16 4 33t0 33q-2 17 -6 32q-2 7 -5.5 13.5t-7.5 12.5q-8 12 -12.5 25.5t-15.5 23.5q-3 3 -5 6t-5 6q-3 2 -6 5
t-6 5q-5 5 -10.5 8.5t-10.5 8.5q-2 2 -4.5 6t-0.5 7q2 2 3.5 4.5t2.5 5.5q1 6 8 8.5t12 4.5q13 6 21 18.5t11.5 26.5t4 29.5t-2.5 27.5q-3 16 -9 31t-10 30t-6.5 26t-4.5 26z" />
    <glyph glyph-name="bar" unicode="|" horiz-adv-x="201" 
d="M109 -96q-3 1 -6.5 1.5t-6.5 -0.5t-3 -3.5v-4.5q0 -9 -2 -14l-3 -6q-2 1 -8 1v-11q-2 0 -4.5 1t-5.5 2q-2 0 -3 -1q-2 0 -3 0.5t-3 0.5q-6 2 -9.5 7t-5.5 10q-2 6 -2 12.5t-1 13.5q-2 10 -2 15q0 4 -0.5 7.5t-0.5 7.5q-1 4 0 7t3 7t2 14v36q0 17 -0.5 33.5t-0.5 33.5
q0 8 1 16t0 16q-1 9 -0.5 17.5t0.5 16.5v16.5t1 16.5q0 8 -1.5 16.5t-1.5 16.5q1 17 0.5 33.5t-1.5 33.5q0 17 1 33.5t1 33.5q0 8 0.5 16t-0.5 16t-1.5 16.5t0.5 16.5q2 17 1.5 34.5t0.5 34.5q0 17 1 33.5t3 33.5q1 8 2.5 15.5t0.5 15.5t-0.5 16.5t1.5 17.5v15.5t1 15.5
q1 7 2.5 15t6.5 13q4 5 11.5 5.5t12.5 -1.5q5 -1 8.5 -2t7.5 -3q3 -1 5.5 0.5t6.5 -0.5q3 -1 7 -7t9 -7q5 -4 10 -8.5t8 -10.5q2 -3 2 -5.5t1 -6.5q1 -3 2.5 -5t3.5 -4q5 -6 6 -12.5t3 -13.5q4 -16 3.5 -32t-0.5 -33v-32q0 -8 0.5 -16.5t-0.5 -16.5q-1 -16 -1 -31.5v-30.5
v-32q0 -9 -1 -18t1 -18q1 -8 0 -15.5t-1 -15.5q0 -9 0.5 -17.5t-0.5 -17.5q-1 -16 -1.5 -32t0.5 -32q1 -17 -1 -34l-4 -34q-1 -8 -1.5 -16.5t-2.5 -16.5q-1 -8 -3.5 -15t-4.5 -15q-3 -11 -4 -22t-5 -21q-2 -5 -2.5 -9t-2.5 -8q-2 -5 -3.5 -10t-1.5 -10q0 -11 -2.5 -21.5
t-8.5 -20.5q-3 -4 -6 -8.5t-3 -9.5q2 -11 -2 -19z" />
    <glyph glyph-name="braceright" unicode="}" horiz-adv-x="269" 
d="M216 487q-2 -15 -4.5 -26t-6.5 -26t-10 -30t-9 -31q-3 -12 -2.5 -27.5t4 -29.5t11.5 -26.5t22 -18.5q5 -2 11.5 -4.5t7.5 -8.5q1 -3 2.5 -5.5t3.5 -4.5q2 -3 -0.5 -7t-4.5 -6q-5 -5 -10.5 -8.5t-10.5 -8.5q-3 -2 -6 -5t-6 -5l-9 -12q-11 -10 -16 -23.5t-13 -25.5
q-4 -6 -7.5 -12.5t-5.5 -13.5q-2 -8 -3 -16l-2 -16q-2 -16 -0.5 -33t3.5 -33q2 -17 4.5 -33t1.5 -32q-2 -16 -3.5 -31.5t-5.5 -31.5q-2 -7 -5 -13t-7 -12t-8 -10q-2 -2 -5 -4.5t-5 -5.5q-2 -5 -7.5 -9t-10.5 -6q-5 -3 -9 3q-4 5 -11 2q-15 -7 -31.5 -6t-32.5 1
q-8 0 -15.5 -0.5t-15.5 0.5q-12 3 -27 11q-4 2 -10.5 7.5t-4.5 10.5q2 7 11 3.5t14 -4.5q8 -1 15 0.5t15 0.5q9 -1 18 -1.5t18 -0.5q14 0 27 8q5 4 6 10.5t3 11.5q3 17 1.5 32.5t-4.5 32.5l-12 66q-3 16 -4 31.5t1 31.5t8 30.5t14 29.5q3 7 6 13.5t7 13.5t8.5 13t9.5 13
q4 5 7.5 10.5t8.5 10.5q6 6 3 12q-4 6 -10 14q-17 24 -21 53q-2 17 -4 33t-2 33q0 16 0.5 31.5t2.5 31.5q4 31 18 60l6 14l6 14q2 8 4 15.5t4 15.5t0 15.5t-3 14.5q-2 8 -3.5 15.5t-5.5 15.5q-2 6 -7.5 6.5t-10.5 -1.5q-8 -2 -15 -4t-14 -6q-8 -4 -12 -4q-2 0 -3 0.5
t-3 -0.5t-2.5 -2t-2.5 -1q-10 -5 -19 4q-5 5 -6 12t4 12q4 3 8.5 5.5t8.5 5.5q5 3 10.5 6t10.5 5q21 8 44 8t44 -8q19 -8 33 -25.5t21 -35.5q4 -11 4 -21t1 -21t1.5 -22.5t0.5 -22.5q-1 -5 -0.5 -6t0.5 -6z" />
    <glyph glyph-name="asciitilde" unicode="~" horiz-adv-x="442" 
d="M385 227q-14 -7 -21 -11t-23 -7q-8 -1 -14.5 1.5t-14.5 1.5q-3 -1 -6 -2.5t-6 -2.5q-4 -2 -7.5 -1.5t-6.5 1.5q-15 3 -29 10t-27 15q-14 8 -25.5 17.5t-23.5 19.5q-5 5 -10.5 8t-12.5 4q-4 0 -7 1.5t-7 2.5q-9 4 -17 5q-5 1 -12 2t-12 -3q-2 -2 -3.5 -4.5t-3.5 -4.5
q-2 -3 -4.5 -5.5t-3.5 -5.5q-2 -3 -3.5 -4.5l-3.5 -3.5t-2 -5t-2 -5q-3 -5 -7.5 -10.5t-10.5 -7.5t-13.5 1.5t-12.5 5.5q-3 2 -5.5 3t-4.5 4q-2 4 -2 8t-1 8q-1 17 5.5 31t13.5 28q5 12 15 25q4 6 9 12.5t11 11.5q2 2 5.5 2.5t6.5 1.5q4 2 7 2.5t7 2.5q8 2 16 2.5t16 0.5
q33 2 63 -9q15 -5 28.5 -14t27.5 -18q12 -8 24.5 -17t23.5 -20q10 -11 15 -22q5 -8 12 -7q6 0 13.5 0.5t12.5 2.5q14 7 24 17q5 5 8 10l6 10q4 7 7.5 13.5t5.5 14.5q2 4 4 8.5t7 2.5q10 -6 10 -18q0 -15 -3 -28q-2 -10 -2 -15q-1 -3 0 -6t1 -7q-1 -7 -4.5 -13.5t-7.5 -11.5
q-6 -8 -8 -12q-3 -7 0 -11l-10 -5z" />
    <glyph glyph-name="nonbreakingspace" unicode="&#xa0;" horiz-adv-x="1000" 
 />
    <glyph glyph-name="exclamdown" unicode="&#xa1;" horiz-adv-x="255" 
d="M116 219q2 -3 3 -2t3 -3q6 -9 11.5 -19t10.5 -20q10 -17 16 -37q7 -20 8.5 -41t3.5 -42q1 -11 1.5 -22.5t2.5 -22.5q1 -11 3 -21t4 -21q5 -21 9 -42t6 -43q2 -17 4 -32.5t4 -32.5t6 -32.5t6 -31.5q2 -15 3.5 -31.5t-7.5 -29.5q-5 -7 -9.5 -13.5t-9.5 -12.5
q-5 -5 -9.5 -8.5t-9.5 -8.5q-6 -5 -10 -10.5t-11 -9.5q-6 -3 -14 -6t-15 -3q-16 0 -23 14q-7 11 -7 26q0 8 -1.5 16.5t-3.5 16.5t-2.5 16t-2.5 16q-3 17 -5 33t-4 33q-9 66 -16.5 132t-11.5 133q-1 17 -1.5 33t-2.5 33q-3 16 -3 35q0 8 -1 15t3 14q5 11 16 22t23 13
q5 1 8.5 0t7.5 -1q8 2 12 0q5 -3 4 -2.5t1 0.5zM132 336q-2 0 -2 -3.5t-1 -5.5t-2.5 -3.5t-2.5 -4.5q-2 -5 -3.5 -9.5t-5.5 -8.5q-4 -5 -9.5 -8t-10.5 -5t-11 -1.5t-11 -0.5q-6 -1 -11 -2t-10 4q-8 8 -11 19q-5 11 -7 24q-1 7 1 12.5t0 12.5q-1 6 -1.5 12t1.5 13q2 5 5.5 9
t7.5 8q8 8 17.5 16.5t21.5 4.5q11 -3 16.5 -13t10.5 -20l6 -12t6 -13q2 -6 3 -12t3 -13z" />
    <glyph glyph-name="cent" unicode="&#xa2;" horiz-adv-x="279" 
d="M187 417v-1q-1 -1 -2 -1zM137 96v-1v1zM140 97h-1q-1 0 -1 -0.5t-1 -0.5q1 0 1.5 0.5t1.5 0.5zM153 338q-6 -19 -8.5 -37.5t-6.5 -37.5t2 -32.5t17.5 -20t26 -4.5t28.5 14q6 6 11 13t12 12q6 5 13 7t8 -8q2 -9 -2 -16t-9 -15t-9 -15.5t-10 -13.5t-14.5 -8.5t-16.5 -4.5
q-19 -5 -36 -6v-5q-1 -10 -3 -19.5t-4 -18.5q-1 -5 -1.5 -9t-2.5 -8q-3 -5 -8 -8q-1 -1 -2 -1l-1 -1q-9 -2 -13 6.5t-5 15.5q-2 19 1 34q0 7 3 15q-6 1 -12 1t-11 2q-10 2 -18.5 9t-16.5 13q-14 12 -23.5 27t-13.5 32q-5 20 -6 42t1 42q2 19 12.5 38t22.5 34q11 14 30.5 27
t40.5 16q18 2 37 0v11.5t1 10.5q2 8 3.5 16t4.5 16q3 7 7 16.5t11 12.5q3 1 7 1t6 -3q2 -4 0 -7q0 -4 1 -7q1 -9 0 -18v-9.5t-1 -9.5q-1 -8 -2 -15t-3 -15q5 -1 11 -2t11 -3q17 -9 27.5 -25t12.5 -33q1 -9 -7 -11.5t-16 2.5q-8 7 -7.5 16t-6.5 17q-11 11 -27 11q-5 0 -8 -1
q-2 -2 -4 -3q0 -1 -1 -1h-2v-1h1h-1q-2 -2 -1.5 -5.5t-0.5 -6.5q-2 -8 -6.5 -15.5t-8.5 -15.5t-8 -17t-6 -17z" />
    <glyph glyph-name="sterling" unicode="&#xa3;" horiz-adv-x="350" 
d="M277 344q5 -2 5 -9q1 -4 1 -7.5v-6.5q0 -8 -7 -17q-9 -9 -24 -14q-7 -2 -13.5 -4t-13.5 -4h-3q-8 -1 -15 -1h-15q-2 0 -3 -0.5t-3 -0.5q-6 -1 -7 -8l-3 -45q-2 -14 -3.5 -28t-3.5 -28q-1 -8 -2.5 -17t-3.5 -18v-11q-1 -6 -1 -12t-1 -12q-2 -7 -6 -11q-4 -6 -4 -10
q-1 -8 -3.5 -16t-9.5 -15q-2 -3 -4 -6.5t-4 -6.5q-3 -6 2 -8q3 -1 5.5 -2t5.5 -2l16 -4l16 -4t16 -3l16 -2q5 -1 8.5 -1h7.5q13 1 22 7t17 14q5 5 9.5 10.5t11.5 8.5q4 1 6 8l4 12l4 12t3.5 11.5t3.5 10.5l1 2q2 1 3 2t2 1q3 0 5 -4q1 -3 2 -6.5t0 -7.5q-1 -12 -2 -23.5
t-2 -23.5q0 -4 -1.5 -7.5t0.5 -8.5q2 -2 -1 -5q-16 -27 -40 -40l-9 -3q-8 -2 -16 -2.5t-16 -2.5h-15h-8t-8 1q-13 1 -25 2.5t-23 6.5q-22 8 -50 10q-2 0 -3 0.5t-3 0.5q-5 0 -9 -0.5t-9 -4.5q-7 -6 -13 0q-2 1 -4 1h-4q-8 -1 -15 -2t-15 -2q-5 0 -11 2q-11 6 -3 15
q12 15 28 19q1 0 1.5 0.5t2.5 0.5q8 2 8 9q0 3 2 5q5 11 7 23.5t4 25.5q4 25 6 54q1 15 1 30t-3 29q-1 2 -1 5q-1 14 -1.5 28t-1.5 28q0 8 -8 10q-5 1 -9 2t-9 2q-9 1 -21 -2q-13 -6 -27 2q-1 1 -2 1.5t-2 1.5q-7 6 -1 12q5 7 11 10q9 3 17.5 6t17.5 5q5 2 9 2h9q9 1 8 10
q-2 18 -3.5 35.5t0.5 35.5q2 20 5 40t9 40q12 44 38 80l12 16t13 16q14 14 30 22t34 13q17 5 33.5 2.5t32.5 -9.5q2 -1 2.5 -1t2.5 -1q13 -4 22.5 -12t17.5 -19t12 -23t6 -26q2 -19 -5 -32q-2 -3 -1.5 -6.5t-0.5 -7.5q-2 -10 -5.5 -18t-11.5 -16l-6 -6q-7 -7 -13 -2
q-6 3 -3 12q2 6 4.5 12t4.5 13q1 2 1 4t1 4v39q-1 12 -3.5 23t-8.5 21q-5 8 -12 3l-6 -3q-5 -2 -9 -5t-9 -5q-31 -16 -40 -53q-3 -11 -6 -20.5t-6 -20.5q-3 -13 -7 -25t-6 -25q-2 -12 -2.5 -24.5t1.5 -24.5q1 -8 0.5 -17t0.5 -17v-9t1 -9q0 -7 8 -7q2 0 3.5 0.5t3.5 -0.5
q8 -3 16.5 -1.5t16.5 3.5q5 2 10 3.5t10 3.5q16 6 26 19q1 2 2 2.5t3 2.5z" />
    <glyph glyph-name="currency" unicode="&#xa4;" horiz-adv-x="308" 
d="M217 499q1 12 -4.5 21t-14.5 16t-19.5 10.5t-20.5 4.5q-11 1 -21.5 -4t-18.5 -12q-9 -8 -14.5 -20.5t-7.5 -24.5q-3 -9 -1 -23q1 -8 4.5 -12t8.5 -9q8 -7 19 -15t23 -3q5 2 9.5 6t9.5 9q12 9 22 19q9 8 18 15.5t8 21.5q0 7 0.5 6.5t0.5 -3t-0.5 -5t-0.5 1.5zM217 387
q-6 -1 -8.5 -6t-5.5 -9q-8 -9 -20 -11q-15 -2 -31 1.5t-31 8.5q-7 2 -14 5t-15 4q-7 2 -13 -4.5t-11 -11.5q-3 -3 -11 -9l-4.5 -4.5t-4.5 -2.5q-14 -2 -19 11q-2 7 2.5 12.5t8.5 10.5q3 3 5.5 6t5.5 5q1 2 5 6q7 4 5 8q-8 14 -17 28t-14 30q-5 15 -4.5 30.5t3.5 30.5
q3 17 10 29l4 6t4 7q2 2 4 4.5t2 5.5q0 2 -2 4l-4 4q-2 4 -5 7t-5 6q-4 5 -10 11.5t-7 13.5q-1 6 3.5 8t11 1.5t13 -2.5t9.5 -4q5 -4 9 -9.5t8 -10.5q2 -2 4 -4.5t4 -3.5q3 -1 6 1t5 4q7 4 13 8t14 6q7 2 14.5 2t15.5 1q29 3 57 -11q8 -3 13 -7q5 -2 10 4q5 5 10.5 11
t11.5 11q10 7 23 3q7 -3 5.5 -8.5t-4.5 -9.5q-8 -10 -15 -23q-5 -5 -8 -11q-2 -4 0.5 -7t4.5 -6q12 -17 20.5 -39t0.5 -42q-2 -5 -4.5 -10.5t-4.5 -10.5t-4 -10.5t-5 -10.5q-3 -4 -7 -6t-6 -6q-2 -2 -2.5 -4.5t-2.5 -4.5q-1 -2 -2 -4.5t-2 -5.5q0 -4 4.5 -6t6.5 -4
q4 -5 8 -9.5t9 -9.5q6 -9 11 -19l-3 -9q0 -6 -2 -9q-4 -5 -7.5 -5t-8.5 2q-10 5 -17 12t-11.5 15t-11.5 16q-5 -1 -2 -1.5t2 1.5z" />
    <glyph glyph-name="yen" unicode="&#xa5;" horiz-adv-x="356" 
d="M210 387q6 13 8.5 22t7.5 22q7 14 14.5 27.5t16.5 25.5q10 14 19.5 28t19.5 28q9 13 18 26.5t20 25.5q2 2 7.5 8t12 11.5t12.5 8t8 -3.5q2 -5 0 -13t-4 -13q-3 -8 -6 -15t-8 -14q-8 -14 -15.5 -28.5t-14.5 -29.5q-3 -6 -6 -11.5t-4 -12.5q0 -4 -2 -6t-4 -5q-2 -4 -4 -7
t-4 -7q-5 -5 -9.5 -10t-8.5 -11q-5 -7 -8.5 -14.5t-8.5 -14.5q-2 -3 -5 -5t-5 -4q-6 -6 -8 -10q-3 -5 -7 -12t0 -14q2 -3 7 -2.5t8 0.5h17q8 0 17.5 -0.5t17.5 1.5q7 1 13 1t13 -3l6 -3q2 -2 1 -4q-2 -2 -0.5 -2.5t3.5 -2.5t0.5 -3t-3.5 -3q-5 -2 -12.5 -4t-10.5 -7
q-2 -2 -2.5 -5t-2.5 -5q-4 -4 -10 -6q-3 -2 -6 -2.5t-5 -2.5q-3 -2 -4 -4t-3 -4t-4.5 -2h-4.5q-5 1 -9.5 1t-9.5 1t-8.5 1t-7.5 1q-2 0 -5.5 0.5t-5.5 -0.5q-4 -2 -2.5 -11t1.5 -12q1 -8 1 -15.5t1 -15.5q0 -6 5.5 -6t10.5 1q11 0 21 1.5t21 -0.5q9 -1 20 -5q5 -1 8.5 -3
t7.5 -4q-4 -5 -6 -7q2 -2 2.5 -3.5t2.5 -3.5q-7 -3 -15 -2.5t-15 0.5q-9 -1 -18 -0.5t-17 -0.5q-6 0 -12 -0.5t-11 -5.5t-6.5 -12.5t-0.5 -15.5q1 -3 1 -6.5t2 -6.5q1 -3 0 -6.5t-1 -6.5q0 -8 1.5 -16t-0.5 -16t-1 -14t1 -14q1 -6 -1 -14q-2 -6 -2 -8q1 -2 0.5 -4.5
t-0.5 -4.5q-1 -8 -2.5 -14.5t-1.5 -14.5v-6t-2 -6q-2 -2 -5.5 -3.5t-6.5 1.5q-4 4 -10 3q-3 -2 -6 -1.5t-6 -0.5q-3 0 -4.5 -2t-3.5 -3t-3.5 -1t-1.5 -2q0 -3 -2 -9q-4 -7 -9 -5q-4 4 -5 7q-2 8 -2.5 16t-2.5 16q-2 7 -4.5 13.5t-4.5 14.5t-3 16.5t-1 17.5q-1 17 -0.5 34.5
t0.5 34.5v32q-5 4 -14 2t-15 -2q-3 0 -12 -0.5t-18.5 0.5t-15.5 4t-2 9q4 5 11 6.5t12 3.5q8 2 17 3.5t17 3.5q4 1 10.5 1t8.5 5q3 6 1.5 14t-1.5 14q-1 8 -1.5 15.5t-1.5 15.5q0 5 -0.5 10t-6.5 7q-16 3 -32 2.5t-32 1.5t-29 6q-2 0 -5 1.5t-5.5 3.5t-2.5 4t4 5q3 3 8 3.5
t10 0.5q12 0 24 3q12 2 24 3t23 3q-14 31 -30 60.5t-31 59.5q-32 60 -54 123q-3 8 -6 15t-5 15q-1 5 -2 13.5t4 12.5t12 2t12 -4q15 -5 30 -12q27 -15 45 -40.5t32 -52.5q11 -20 19 -41.5t20 -41.5q11 -19 21 -39l20 -40q2 3 2.5 4t1.5 4z" />
    <glyph glyph-name="brokenbar" unicode="&#xa6;" horiz-adv-x="163" 
d="M68 -120q-5 -2 -11 -2.5t-11 2.5q-2 1 -2.5 2t-1.5 2q-2 2 -2.5 2t-2.5 2q-6 2 -8 8q-3 5 -3.5 10.5t-0.5 10.5q-1 8 -1 17t-1 17l-2 34t-1 34t0.5 34t1.5 34q2 35 6 68q3 17 6.5 34t7.5 34q2 6 2.5 13.5t3.5 12.5t8.5 5.5t10.5 -1.5q11 -5 19.5 -16.5t13.5 -22.5
q4 -9 4 -18.5t2 -19.5q3 -11 2.5 -22.5t-2.5 -22.5q-3 -23 -6.5 -44.5t-7.5 -44.5q-4 -21 -6 -43t-5 -44q-1 -5 -1 -10.5t-1 -11.5v-9.5t-2 -9.5q-2 -4 -4 -7t-2 -8q0 -6 0.5 -10t-3.5 -9q-8 -2 -3 0.5t3 -0.5zM145 643q-2 -33 -2 -66t-6 -65l-6 -33q-2 -8 -3.5 -16.5
t-4.5 -16.5q-2 -7 -5 -12.5t-5 -12.5q-2 -8 -4.5 -15.5t-4.5 -15.5t-3 -15.5t-3 -15.5v-15.5t-4 -14.5q-2 -2 -4 -2.5t-3 -3.5q-2 -7 -5 -8q-6 -4 -11 2.5t-9 9.5q-5 4 -10.5 5.5t-9.5 6.5t-4 11v11q0 8 1 16.5t2 17.5q0 8 -0.5 15.5t0.5 15.5q5 54 7 108t10 108
q2 12 4.5 24t4.5 24q2 9 10.5 11.5t16.5 2.5q6 -1 11.5 -3.5t10.5 -4.5q11 -5 18 -13q8 -8 9 -18.5t2 -21.5v-5v1.5v3t0 0.5z" />
    <glyph glyph-name="section" unicode="&#xa7;" horiz-adv-x="336" 
d="M119 194q0 -14 4 -25q2 -7 5.5 -13t7.5 -12q6 -10 16 -23q2 -2 3.5 -5.5t4.5 -4.5q4 0 7 1.5t6 3.5q6 5 11.5 8.5t11.5 8.5t9.5 10.5t6.5 12.5q7 15 10 30t-3 30q-5 14 -12.5 26.5t-15.5 23.5l-18 21q-2 3 -5.5 5.5t-7.5 0.5q-5 -2 -9 -6.5t-7 -8.5q-4 -6 -6.5 -13
t-4.5 -13q-5 -14 -8 -29t-6 -29q0 -5 0.5 -5t0.5 1.5t-0.5 3t-0.5 0.5zM-6 -93q0 14 3.5 28.5t12.5 25.5q5 5 10 6.5t11 1.5q7 -1 15.5 -0.5t13.5 -4.5q4 -4 7 -10t1 -11q-2 -7 -6 -13t-7 -13q-10 -27 3 -56q5 -13 14 -23.5t22 -16.5q5 -3 11.5 -5.5t12.5 -2.5q7 -1 12 6
t9 12q4 6 8.5 11.5t8.5 11.5t4.5 12.5t-0.5 14.5q-2 8 -2.5 15t-2.5 15t-5.5 14.5t-7.5 12.5q-4 5 -9 10l-10 10q-5 6 -9 12.5t-9 13.5q-8 14 -17.5 28t-18.5 28q-8 14 -16.5 28t-14.5 29q-7 16 -13 31t-11 31q-10 31 -5 61t22 56q14 22 36 41q8 8 21 16q5 3 11 6t10 8
q2 4 -1 8t-5 7q-8 12 -16 28q-6 14 -9 28q-2 10 -1 15t2 8.5t1 8.5q-1 8 0 15t3 15t2 16t2 16q4 14 12 26t17 22q20 22 44 33q14 8 30 9l32 2q15 0 30.5 -2.5t29.5 -10.5q12 -6 20 -17q4 -6 6 -12q2 -4 4 -6.5t4 -6.5q8 -12 9 -28.5t-1 -30.5q-2 -16 -7 -28q-3 -6 -4 -12.5
t-6 -11.5q-8 -8 -20.5 -3.5t-14.5 15.5q-1 7 2 13t6.5 12t6.5 12t2 13q-2 13 -5.5 28.5t-14.5 24.5q-11 10 -28 8t-29 -8q-26 -13 -32 -41q-2 -7 -2 -14t-2 -15t-2.5 -15.5t0.5 -15.5q2 -15 7 -29t14 -27t20.5 -23.5t22.5 -21.5q20 -23 37 -47.5t20 -56.5q0 -4 2 -14
q1 -5 0.5 -8t-0.5 -8q0 -8 1 -17t0 -17q-2 -16 -7.5 -30.5t-8.5 -29.5q-1 -4 -1.5 -7.5t-2.5 -5.5q-2 -3 -4.5 -4.5t-4.5 -3.5t-2.5 -5t-2.5 -6t-4.5 -6t-4.5 -5q-5 -5 -11 -10.5t-11 -10.5t-10.5 -9.5t-12.5 -6.5q-7 0 -8 -4q0 -3 2 -6t3 -5q5 -7 10 -13t9 -13q7 -13 8 -26
v-6.5t1 -6.5q2 -4 3.5 -7.5t2.5 -7.5q3 -7 4 -13.5t2 -13.5q1 -4 2 -7t1 -7q1 -5 0.5 -9t-1.5 -9q-4 -15 -7.5 -30.5t-10.5 -29.5q-12 -26 -39 -37q-16 -7 -31 -12.5t-32 -2.5q-8 2 -16 3.5t-16 3.5t-17 3t-17 3q-12 3 -23.5 8.5t-19.5 16.5q-7 9 -11.5 20.5t-7.5 22.5
q-3 12 -5 24t-2 25z" />
    <glyph glyph-name="dieresis" unicode="&#xa8;" horiz-adv-x="236" 
d="M171 699q-12 0 -21 4.5t-10 18.5q-1 13 8 29t23 18q15 2 24.5 -10.5t12.5 -25.5q3 -15 -7 -25q-6 -6 -8.5 -7.5t-10.5 -2.5q-2 0 -4.5 0.5t-6.5 0.5zM48 699q-12 0 -21 4.5t-10 18.5q-1 13 8 29t23 18q15 2 24.5 -10.5t12.5 -25.5q3 -15 -7 -25q-6 -6 -8.5 -7t-9.5 -2
h-12z" />
    <glyph glyph-name="copyright" unicode="&#xa9;" horiz-adv-x="495" 
d="M283 596h1h-1zM473 426q1 -4 2 -7.5t1 -7.5q-1 -8 -0.5 -16t-1.5 -16q-1 -4 -2.5 -6t-3.5 -4q-2 -3 -2.5 -7t-1.5 -7q-3 -15 -9 -32q-1 -4 -1.5 -6.5t0.5 -6.5q2 -7 -1 -13q-2 -8 -5.5 -15t-7.5 -14t-8 -13t-9 -12q-1 -2 -3.5 -4.5t-0.5 -4.5q2 -4 -4 -9
q-12 -11 -23.5 -22.5t-25.5 -19.5t-27 -16t-27 -14q-8 -2 -15 -3.5t-15 -3.5q-8 -1 -16.5 -0.5t-16.5 0.5q-4 1 -7.5 0t-6.5 -1q-7 0 -15 2t-16 3.5t-16 4.5q-15 4 -29 11l-28 14q-26 13 -46 30q-20 19 -32 42q-7 14 -10 30.5t-6 32.5q-2 14 -3.5 27t-3.5 27q-1 2 -0.5 2
t-0.5 4q-1 15 1 30.5t5 30.5q2 8 2 15t2 15q1 16 8 32q11 29 28 52.5t40 44.5q11 11 22 18q7 4 14 5.5t14 4.5q14 8 27.5 13.5t29.5 7.5q13 3 29 3q8 -1 15.5 -3t15.5 -1q7 1 14 0q4 -2 7.5 -2.5t7.5 -2.5q8 -2 15 -4t15 -5q56 -21 91 -70q9 -13 15.5 -27t11.5 -29
q3 -8 6 -15.5t5 -15.5q3 -8 2 -15q-1 -5 -2 -8t0 -8zM420 378q2 16 2.5 32.5t-7.5 31.5q-7 14 -6.5 30t-2.5 31q-2 8 -4.5 14t-5.5 12q-5 7 -7 14t-7 13q-7 11 -15.5 21t-21.5 12q-7 2 -13.5 3.5t-14.5 2.5q-15 3 -33 1h6.5t-1.5 0h-4.5t-1.5 0q-7 0 -14 1t-14 -1t-12 -6.5
t-10 -9.5q-25 -22 -36 -48q-7 -15 -11.5 -30t-8.5 -31t-8.5 -32t-5.5 -33q-2 -17 -1 -34.5t0 -34.5q0 -17 3 -32q0 -5 0.5 -8.5t0.5 -7.5q1 -5 3 -9l4 -8l12 -27q2 -6 5 -11.5t8 -10.5q1 -2 5 -4q0 -3 2 -5q6 -6 9 -8q6 -3 13 -5.5t13 -5.5q5 -3 10.5 -7.5t12.5 -4.5
q3 0 6 -1t6 -1q6 0 14 6q7 3 13 5q3 0 5.5 -1t5.5 1q8 3 14 8.5t12 10.5q5 4 11 8.5t10 10.5q4 7 7.5 14.5t8.5 14.5q8 14 17 28t17 29q4 7 5 13t2 14q1 9 1.5 17.5t1.5 17.5zM282 269q2 0 1.5 -0.5t-4.5 0.5h3zM326 482q11 -7 17.5 -19t8.5 -25q1 -7 -4.5 -9t-10.5 2
q-5 5 -4.5 12.5t-4.5 12.5q-7 9 -17 9q-6 0 -9 -3q-2 -2 -1.5 -5.5t-0.5 -5.5q-2 -6 -5 -12t-5 -11q-2 -7 -4 -13.5t-4 -13.5q-4 -14 -6 -28.5t-4 -28.5q-2 -8 0 -14t4 -14l4 -10t8 -7q11 -5 17.5 -0.5t13.5 12.5q5 5 7.5 9.5t7.5 9.5q4 4 8.5 5.5t5.5 -6.5q0 -11 -8 -24
q-3 -5 -5.5 -11t-6.5 -11t-9.5 -6.5t-10.5 -3.5q-6 -2 -12.5 -3t-13.5 -1h-3q-8 0 -16 0.5t-16 2.5q-6 2 -11.5 6.5t-10.5 9.5q-19 20 -23 45q-3 16 -4.5 32.5t0.5 32.5q1 14 8 29t15 27q7 11 19 20.5t26 11.5q8 2 15 1.5t15 -1.5q8 0 15.5 0.5t14.5 -4.5z" />
    <glyph glyph-name="ordfeminine" unicode="&#xaa;" horiz-adv-x="279" 
d="M100 458q0 -6 1.5 -16.5t5.5 -19.5t10 -13t17 2q4 2 7.5 5.5l7.5 7.5q3 3 7 6.5t6 8.5t1.5 10.5t-0.5 10.5l3 24q1 5 2 9.5t1 9.5q-1 5 -4 10t-6 9q-2 5 -4.5 8t-7.5 3q-5 -1 -11 -1.5t-11 -2.5t-9 -12q-2 -5 -4 -8.5t-4 -8.5t-2 -9.5t-1 -9.5q-2 -6 -3 -11.5t-2 -11.5
q0 -5 0.5 -4t0.5 3v3t-1 -2zM181 540q4 8 7.5 15.5t8.5 15.5q2 4 5.5 7t8.5 2q14 -2 24 -12q3 -2 5 -5.5t4 -6.5q2 -4 4.5 -7.5t1.5 -8.5q0 -4 -1.5 -7.5t-2.5 -7.5q-2 -7 -4 -17q-4 -17 -12 -38q-3 -8 -6 -17t-5 -19q-1 -9 -1 -18.5v-18.5q5 0 13 2q3 1 5 3l4 4q5 5 10.5 6
t8.5 -6q2 -6 0 -11.5t-6 -10.5q-3 -5 -9 -9q-2 -2 -5.5 -3.5t-5.5 -3.5q-5 -6 -11.5 -4t-11.5 4q-15 7 -27 18q-3 2 -5.5 4t-6.5 1t-7.5 -2.5t-6.5 -3.5q-8 -4 -15.5 -7.5t-15.5 -5.5q-14 -3 -29.5 -0.5t-28.5 8.5q-26 13 -39 35q-7 12 -8 24t1 25q3 16 7 30.5t11 27.5
q11 20 28 35q8 8 19 17t24 10q11 0 22 -4.5t19 -12.5q4 -3 6.5 -7t5.5 -8q7 -7 17 -12q1 3 0 4.5t-2.5 1t-1.5 -2t4 -3.5z" />
    <glyph glyph-name="guillemotleft" unicode="&#xab;" horiz-adv-x="309" 
d="M295 400q0 -14 -11.5 -23t-22.5 -17l-27 -15q-4 -2 -7 -4.5t-7 -4.5q-2 -2 -5.5 -4t-4.5 -4q-1 -5 5.5 -11.5t9.5 -8.5q12 -13 25 -25l10.5 -10.5t10.5 -11.5t8 -13t6 -15q2 -5 0.5 -10.5t-6.5 -7.5q-6 -2 -12.5 1t-11.5 6t-9 8t-9 10q-5 6 -11 10.5t-12 9.5
q-14 8 -25 19t-23 22q-9 9 -14 22q-4 8 -0.5 12.5t9.5 9.5q10 7 20 13t20 13q18 12 34 28q7 7 16 11.5t18 7.5q5 2 8.5 2.5t7.5 -2.5q8 -4 10 -12q1 -2 0.5 -3.5t-0.5 -2.5zM160 400q0 -14 -11.5 -23t-22.5 -17l-27 -15q-4 -2 -7 -4.5t-7 -4.5q-2 -2 -5.5 -4t-4.5 -4
q-1 -5 5.5 -11.5t9.5 -8.5q12 -13 25 -25l10.5 -10.5t10.5 -11.5t8 -13t6 -15q2 -5 0.5 -10.5t-6.5 -7.5q-6 -2 -12.5 1t-11.5 6t-9 8t-9 10q-5 6 -11 10.5t-12 9.5q-14 8 -25 19t-23 22q-9 9 -14 22q-4 8 -0.5 12.5t9.5 9.5q10 7 20 13t20 13q18 12 34 28q7 7 16 11.5
t18 7.5q5 2 8.5 2.5t7.5 -2.5q8 -4 10 -12q1 -2 0.5 -3.5t-0.5 -2.5z" />
    <glyph glyph-name="logicalnot" unicode="&#xac;" horiz-adv-x="358" 
d="M285 231q2 5 3.5 9.5t-0.5 9.5t-10 5h-12q-17 0 -33.5 1t-33.5 3t-34.5 2.5t-34.5 1.5q-8 0 -16.5 0.5t-16.5 0.5h-17t-17 2q-6 2 -10.5 5t-9.5 7q-4 5 -7.5 10.5t-8.5 8.5q-12 7 -7 18q2 6 10 7t13 1q17 2 33.5 3t33.5 1q17 1 33.5 -0.5t33.5 -3.5q14 -2 28 -3t28 -3
t28.5 -2.5t28.5 -2.5q13 -2 20 -10q5 -4 9.5 -8t7.5 -9q6 -11 7 -25.5t0 -27.5q-2 -14 -6 -27t-9 -26q-2 -5 -5.5 -9t-5.5 -9t-3 -9.5t-4 -8.5q-4 -5 -7.5 -2.5t-6.5 8.5t-4.5 12.5t-1.5 8.5v10.5v18.5t0.5 17.5t1.5 7.5l1 5z" />
    <glyph glyph-name="uni00AD" unicode="&#xad;" horiz-adv-x="462" 
d="M443 334q2 -1 1.5 -1t1.5 -2q-4 -1 -7 -2t-7 -2q-3 -1 -2.5 -5.5t0.5 -7.5l-3.5 -3.5t-5.5 -2.5q-2 -1 -2.5 -1t-2.5 -1q-3 -1 -3 -1.5t-1 -2.5q-2 -3 -7 -3q-4 0 -10 -2q-2 0 -3.5 -0.5t-3.5 -0.5q-1 0 -2.5 1t-2.5 0q-4 -2 -7.5 -4t-7.5 -4q-6 -3 -12.5 -6.5
t-13.5 -3.5q-4 0 -7 1t-6 1q-5 0 -8 -1.5t-7 -2.5q-7 -3 -14 -4.5t-15 -3.5t-12 0q-4 0 -5 3q-2 -1 -5 -1.5t-5 -1.5q-4 0 -7 -1t-6 0q-6 3 -13 1q-8 -1 -15 -1h-15t-14 3q-5 1 -13 -1q-6 -2 -9 0q-2 0 -3 3q-1 2 -8 0q-2 0 -6 -1.5t-6 -0.5q-4 4 -11 0q-15 -6 -31 -1
q-8 2 -14.5 4.5t-14.5 4.5q-14 1 -28 9q-11 6 -21 16t-8 24q2 15 15.5 19t25.5 6q17 2 33 4t33 3q8 1 16.5 0.5t16.5 -0.5q9 0 17.5 0.5t17.5 1.5q34 2 67.5 2t67.5 -3q17 -2 34 -3t34 -1q15 -2 31 0q7 1 13.5 -0.5t8.5 -9.5q1 -5 -5 -11q1 -2 1 -1.5t1 -0.5z" />
    <glyph glyph-name="registered" unicode="&#xae;" horiz-adv-x="509" 
d="M319 596h1h-1zM509 426q1 -4 2 -7.5t1 -7.5q-1 -8 -1 -16t-2 -16q0 -4 -2 -6l-4 -4q-2 -3 -2 -7t-1 -7q-3 -15 -9 -32q-2 -6 -1 -13q1 -5 -1 -13q-3 -8 -6 -15t-7 -14t-8 -13t-9 -12q-1 -2 -3.5 -4.5t-1.5 -4.5q2 -3 0.5 -5t-3.5 -4q-12 -11 -24 -22.5t-26 -19.5l-26 -16
t-27 -14q-8 -2 -15 -3.5t-15 -3.5q-9 -1 -17 -0.5t-16 0.5q-4 1 -7.5 0t-7.5 -1q-5 0 -15 2q-8 2 -15.5 3.5t-15.5 4.5q-15 4 -29 11l-28 14q-26 13 -46 30q-20 19 -32 42q-7 14 -10 30.5t-6 32.5q-2 14 -3.5 27t-3.5 27q0 -2 0 2t0.5 9.5t0.5 11v7.5v12t0.5 7t1 6.5
t2.5 11.5t2 15t1 15q3 17 9 32q11 29 28 52.5t40 44.5q8 9 22 18q7 4 13.5 5.5t13.5 4.5q14 8 27.5 13.5t29.5 7.5q15 3 30 3q8 -1 15.5 -3t15.5 -1q6 1 14 0q4 -2 7.5 -2.5t7.5 -2.5q8 -2 15 -4t15 -5q55 -21 90 -70q10 -13 16.5 -27t11.5 -29q3 -8 6 -15.5t5 -15.5
q3 -8 2 -15q-1 -5 -2 -8t0 -8zM456 378q2 16 2.5 32.5t-7.5 31.5q-7 14 -6.5 30t-2.5 31q-2 8 -4.5 14t-6.5 12q-4 7 -6 14t-7 13q-7 11 -15.5 21t-21.5 12q-7 2 -13.5 3.5t-14.5 2.5q-15 3 -33 1h6.5t-1.5 0h-4.5t-1.5 0q-7 0 -14 1t-14 -1q-8 -2 -12.5 -6.5l-9.5 -9.5
q-25 -22 -36 -48q-7 -15 -11.5 -30t-8.5 -31t-8.5 -32t-5.5 -33t-1 -34.5v-34.5q0 -8 0.5 -16t1.5 -16q1 -5 1.5 -8.5t0.5 -7.5q1 -5 2.5 -9t3.5 -8q4 -7 7 -13.5t6 -13.5q2 -6 4.5 -11.5t7.5 -10.5q2 -2 3 -2.5t2 -1.5q2 -4 3 -5q3 -5 9 -8t12.5 -5.5t13.5 -5.5
q5 -3 10.5 -7.5t12.5 -4.5q3 0 6 -1t6 -1q6 0 14 6q8 4 13 5q3 0 5.5 -1t5.5 1q7 3 13.5 8.5t12.5 10.5q5 4 11 8.5t10 10.5q4 7 7.5 14.5t8.5 14.5q8 14 17 28t17 29q4 7 5 13t2 14q1 9 1.5 17.5t1.5 17.5zM395 329q-1 2 0 0.5t5 -11.5q-1 3 -2 5.5t-3 5.5zM406 479
q1 -3 1 -6.5t1 -6.5q1 -8 0.5 -14t-3.5 -12q-5 -10 -11.5 -19t-15.5 -14q-9 -6 -19 -7.5t-20 -5.5q17 -14 31.5 -30t24.5 -35q2 -3 3.5 -8t1.5 -3q0 -4 0.5 -8t-1.5 -8q-4 -5 -7 -7.5t-9 -0.5q-9 2 -17 9t-13 13q-13 14 -20 29q-5 9 -10 18.5t-13 15.5q-7 -14 -7.5 -30.5
t-2.5 -31.5q-1 -4 -1 -8t-1 -8q-1 -2 -2 -4.5t-2 -4.5q-2 -5 -5 -10t-8 -9q-5 -5 -8 -1q-2 2 -4 1.5t-4 0.5q-3 2 -6 4.5t-5 4.5q-3 3 -6.5 6t-5.5 7q-5 5 -5 12.5v13.5q-2 18 0 35q0 17 1.5 34t3.5 34q2 15 4.5 28.5t11.5 26.5q3 5 7 10.5t9 7.5q3 2 6 1t6 -1q5 1 8 2.5
l7 3.5q15 7 28 8q8 2 15.5 0.5t15.5 -3.5q5 -2 11 -3.5t11 -4.5q9 -5 19 -15l3 -3t2 -4zM376 451q2 4 -6 7.5t-10 4.5q-7 4 -11 6t-12 -1q-5 -3 -12 -6t-10 -8t-3 -12.5t-2 -12.5q2 -4 0.5 -11.5t3.5 -9.5q5 -1 12 4.5t10 7.5q6 4 12.5 7t12.5 8q4 2 8.5 6.5t6.5 9.5z" />
    <glyph glyph-name="macron" unicode="&#xaf;" horiz-adv-x="401" 
d="M367 701q-4 -2 -6.5 -2t-4.5 -4q-1 -6 2 -11q1 -3 2.5 -5.5t1.5 -5.5q-1 -3 -3.5 -3t-4.5 -2q-2 -1 -1.5 -2.5t-0.5 -2.5q-2 -2 -5.5 -2h-6.5q-15 -3 -34 -1q-8 1 -15 2t-15 1h-35q-17 0 -34 -1l-34 -2t-33.5 0.5t-33.5 3.5q-16 2 -32.5 3t-32.5 6q-4 0 -6 5q-1 2 -3 3.5
t-4 3.5q-9 5 -13 18q-2 8 -0.5 16t11.5 10q10 3 20.5 4t21.5 2q12 1 24 1.5t25 -0.5q24 -1 48.5 -3.5t48.5 -3.5q25 -2 49.5 -2.5t49.5 -3.5q5 -1 10 -1.5t10 -1.5t8.5 -3t8.5 -3q8 -2 11 -4.5t6 -8.5q-3 -1 -3.5 3.5t3.5 -3.5z" />
    <glyph glyph-name="degree" unicode="&#xb0;" horiz-adv-x="197" 
d="M80 586q-1 -7 2.5 -14.5t9.5 -12.5q7 -5 13.5 -4t13.5 4q5 2 9 3.5t8 3.5q4 3 6 7.5t4 8.5q5 8 8.5 18t3.5 20q0 7 -3.5 15.5t-10.5 11.5q-4 2 -8 1.5t-8 -1.5l-21 -3q-14 -3 -19 -19q-4 -9 -5.5 -18.5t-2.5 -20.5q0 -3 0 -1v4v2.5t0 -5.5zM184 614q-2 -14 -7 -23
q-2 -3 -3.5 -5.5t-3.5 -5.5q-2 -4 -2 -7.5t-1 -7.5q-2 -7 -5.5 -12t-8.5 -10q-5 -6 -10 -11t-12 -10q-12 -8 -25.5 -12t-28.5 0q-26 7 -46 28q-11 11 -14 27t-3 31q0 14 2 29.5t10 28.5q4 6 8.5 11.5t9.5 10.5q5 4 11 10t12 8q17 4 33 6t33 -4q23 -8 36 -32q3 -6 5.5 -12.5
t5.5 -13.5q3 -6 3.5 -12t0.5 -12q0 -3 0 -1.5v3.5v2.5t0 -4.5z" />
    <glyph glyph-name="plusminus" unicode="&#xb1;" horiz-adv-x="444" 
d="M224 130h-6.5t-5.5 -3q-2 -1 -2 -2.5t-1 -3.5q-2 -5 -6 -9q-1 -1 -5.5 -6t-6.5 -5q-4 1 -5.5 -2.5t-3.5 -6.5q-2 3 -6 11q-2 -2 -5 -3t-5 -3l-4 -4t-4 -3q-8 -2 -11 2.5t-4 10.5q-1 7 -4 12q-5 5 -6 11q-2 8 -1.5 17t1.5 17l2 34l2 34q1 8 1 16t1 16q0 7 -5 8
q-4 0 -8 0.5t-9 1.5l-14 4l-14 4q-8 2 -15 5.5t-14 6.5l-13 6.5t-12 8.5q-6 6 -2.5 12t9.5 8q16 6 31 10t32 8q8 2 15.5 4t15.5 3q2 1 6 1t6 2t2 7t1 8q4 34 8.5 67.5t12.5 66.5q2 6 5.5 8t8.5 4q8 2 15 4.5t15 1.5q7 -1 13.5 -3t11.5 -7q3 -2 4.5 -4.5t3.5 -4.5
q3 -2 6.5 -4t6.5 -4q11 -9 15 -20q4 -8 3 -15t-3 -15q-2 -17 -5 -34t-5 -34q-2 -8 1 -9.5t11 -0.5t17 2l18 2q16 2 32 2.5t31 -4.5q11 -5 17 -12.5t13 -15.5t14.5 -19t2.5 -22q-5 -13 -17.5 -13.5t-23.5 -0.5q-14 -1 -28.5 -1t-28.5 -2t-27.5 -4t-27.5 -3q-3 0 -6 -0.5
t-6 -0.5q-2 -1 -5 -1q-3 -1 -3 -2t-1 -4q-2 -7 -3 -13t-2 -14q-2 -14 -2 -27.5t-2 -27.5q-1 -7 -2.5 -12.5t-2.5 -12.5q-2 -8 -3 -14.5t-3 -14.5q-4 -1 -4 -0.5t-2 0.5zM425 17q2 -1 1.5 -1t1.5 -2q-4 -1 -7 -2t-7 -2q-3 -1 -2.5 -5.5t0.5 -7.5l-3.5 -3.5t-5.5 -2.5
q-2 -1 -2.5 -1t-2.5 -1q-3 -1 -3 -1.5t-1 -2.5q-2 -3 -7 -3q-4 0 -10 -2q-2 0 -3.5 -0.5t-3.5 -0.5q-1 0 -2.5 1t-2.5 0q-4 -2 -7.5 -4t-7.5 -4q-6 -3 -12.5 -6.5t-13.5 -3.5q-4 0 -7 1t-6 1q-5 0 -8 -1.5t-7 -2.5q-7 -3 -14 -4.5t-15 -3.5t-12 0q-4 0 -5 3q-2 -1 -5 -1.5
t-5 -1.5q-4 0 -7 -1t-6 0q-6 3 -13 1q-8 -1 -15 -1h-15t-14 3q-5 1 -13 -1q-6 -2 -9 0q-2 0 -3 3q-1 2 -8 0q-2 0 -6 -1.5t-6 -0.5q-4 4 -11 0q-15 -6 -31 -1q-8 2 -14.5 4.5t-14.5 4.5q-14 1 -28 9q-11 6 -21 16t-8 24q2 15 15.5 19t25.5 6q17 2 33 4t33 3q8 1 16.5 0.5
t16.5 -0.5q9 0 17.5 0.5t17.5 1.5q34 2 67.5 2t67.5 -3q17 -2 34 -3t34 -1q15 -2 31 0q7 1 13.5 -0.5t8.5 -9.5q1 -5 -5 -11q1 -2 1 -1.5t1 -0.5z" />
    <glyph glyph-name="twosuperior" unicode="&#xb2;" horiz-adv-x="266" 
d="M157 483q4 -2 4 -1t7 0q8 -1 15.5 -2t15.5 0q10 0 21 9q3 4 9.5 12.5t12.5 5.5q5 -3 3 -10t-4 -11q-4 -8 -8.5 -13.5t-9.5 -11.5q-8 -12 -19 -14q-8 -2 -16.5 -2h-16.5q-17 2 -33 5t-33 5q-15 3 -31 3q-7 0 -14 -1.5t-14 0.5q-5 2 -9.5 5.5t-7.5 7.5q-5 6 0.5 12t9.5 10
q10 12 21.5 22t22.5 21t20 22.5t17 24.5q8 14 17 25.5t13 27.5q1 4 3 10.5t2 12.5t-2.5 10.5t-9.5 4.5q-7 1 -13.5 -1t-13.5 -4q-16 -3 -27 -12q-12 -7 -16 -17q-4 -6 -5.5 -11.5t-7.5 -10.5q-12 -10 -25 -4q-6 2 -11.5 6.5t-6.5 11.5q-2 14 6 25t18 19l9.5 9.5t9.5 8.5
q6 4 12 7.5t13 5.5q41 16 85 -2q18 -7 30.5 -25t13.5 -38v-22.5t-4 -22.5q-8 -22 -19 -40q-10 -18 -24 -37l-14 -16t-12 -17q8 -3 9 -2.5t7 -0.5z" />
    <glyph glyph-name="threesuperior" unicode="&#xb3;" horiz-adv-x="222" 
d="M195 625q-4 -15 -8 -20.5t-12 -17.5q-2 -4 -6.5 -9.5t0.5 -10.5t9.5 -8.5t8.5 -9.5q6 -10 8 -21q1 -4 0.5 -7t0.5 -6q0 -5 1.5 -8.5t0.5 -8.5q0 -7 -3 -13.5t-5 -13.5q-4 -11 -15 -22q-5 -5 -10.5 -6.5t-11.5 -3.5q-8 -2 -15 -6t-15 -6q-15 -4 -29 0q-8 2 -16.5 2
t-16.5 2q-13 3 -24 10.5t-16 21.5q-2 5 -3 11.5t1 11.5q1 5 5.5 11t9.5 1q5 -4 5.5 -11.5t1.5 -12.5q3 -11 13 -15q6 -2 13.5 -3t13.5 -1q8 -1 16 -0.5t14 4.5q6 2 7.5 6.5l3.5 10.5q2 8 3.5 15.5t0.5 15.5q-1 12 -8 25q-3 6 -8 11q-2 3 -4.5 6.5t-5.5 5.5q-5 4 -12.5 3.5
t-13.5 -1.5q-5 -1 -14.5 -3t-14.5 3q-6 6 -2.5 10.5t11 7t16 3.5t11.5 2q7 2 11.5 5t9.5 7q6 4 11 8t10 9q10 11 14 24.5t-2 27.5q-2 6 -7 7.5t-10 2.5q-6 2 -12.5 4t-13.5 3q-13 0 -23.5 -8t-17.5 -17q-3 -5 -5.5 -8t-7.5 -5q-4 -2 -9.5 -2t-8.5 4q-3 5 -1.5 11t5.5 10
q5 5 9 10t9 10q18 20 39 27q13 4 26 2.5t25 -3.5q23 -4 42 -22q10 -9 14 -22t6 -26q0 -13 0 -12t1 -2z" />
    <glyph glyph-name="acute" unicode="&#xb4;" horiz-adv-x="132" 
d="M20 715q-5 5 -5 14t2 17q3 11 7.5 20.5t9.5 19.5q11 19 24 32q6 7 15 16.5t20 9.5q3 0 7.5 -2t5.5 -6q0 -5 -3 -8q-2 -2 -2 -4t-1 -4q-1 -6 -3 -11.5t-4 -10.5t-4.5 -10.5t-5.5 -10.5q-5 -11 -12 -20.5t-13 -20.5q-3 -5 -5.5 -9.5t-7.5 -7.5q-4 -3 -8 -4t-9 -2
q-4 1 -4.5 0.5t-3.5 1.5z" />
    <glyph glyph-name="mu" unicode="&#xb5;" horiz-adv-x="455" 
d="M341 58q-5 -6 -4.5 -5t-3.5 -5q-3 -6 -6.5 -11t-8.5 -10q-16 -17 -42 -22q-16 -4 -31 -8t-32 -6q-7 -1 -13 -3.5t-13 -3.5q-8 -1 -15.5 0t-15.5 0q-6 0 -8 -4.5t-4 -9.5q-2 -8 -3 -16.5t-3 -17.5q-3 -17 -6.5 -33t-5.5 -33q-3 -17 -5 -34l-4 -34q-1 -8 -1.5 -16t-2.5 -16
q-1 -8 -1.5 -15.5t-3.5 -15.5q-6 -11 -6.5 -23.5t-15.5 -17.5q-5 -2 -8.5 -4.5t-5.5 -7.5q-2 -7 -7.5 -6.5t-9.5 5.5q-5 5 -5.5 12.5t-1.5 14.5q-2 8 -2 16.5t-1 16.5q-2 17 -3 33.5t-2 33.5q-1 35 -2 69t-1 69v69v34.5t1 34.5q1 8 1.5 15.5t0.5 15.5q-1 9 -1.5 18t-1.5 17
q-3 34 -3 69t3 70l2 34t4 34q2 17 5.5 33t7.5 33q2 11 7.5 24.5t19.5 14.5q16 2 30 -4.5t27 -14.5q12 -7 18 -17.5t9 -23.5q4 -16 2 -32t-1 -32l3 -69q1 -17 0 -34t-3 -34t-2.5 -33.5t-1.5 -33.5q0 -8 -0.5 -16.5t-1.5 -16.5q0 -5 -0.5 -8.5t-1.5 -7.5q-1 -5 -2 -9t0 -8
q2 -13 14 -19.5t23 -7.5q8 0 14.5 0.5t13.5 0.5q14 0 28 6q12 5 22 13t18 18q5 6 7 13t4 15l12 33q2 8 5 15t5 15t0.5 17t-2.5 17q-2 17 -1.5 34t0.5 34v35t1 35q0 17 1 34.5t2 35.5q1 8 1 16t1 16q1 5 1 14t6 12q12 8 27.5 7t26.5 -11t14 -25t3 -29q0 -33 -4.5 -66
t-7.5 -65q-2 -17 -4 -33t-2 -33q-1 -17 0 -34l2 -34q0 -16 1.5 -31.5t6.5 -30.5q5 -16 10.5 -31t11.5 -30q2 -5 -2.5 -9.5t-9.5 -4.5q-7 1 -14 4t-13 6q-6 4 -9.5 10t-7.5 13l-12 24q-5 -8 -6 -8t-4 -5z" />
    <glyph glyph-name="paragraph" unicode="&#xb6;" horiz-adv-x="474" 
d="M202 238q-5 -3 -5.5 -3.5t-6.5 -2.5q-8 -2 -15.5 -3t-15.5 -3q-16 -2 -30.5 0t-28.5 10q-12 7 -26 15t-22 20q-9 13 -18.5 26.5t-14.5 28.5t-6.5 31.5t-1.5 32.5q1 17 3 34t7 33q8 29 23.5 56t35.5 49q23 24 46 38q13 8 26 13.5t29 0.5q7 -3 14 -5t15 0q4 1 6.5 2t6.5 1
q5 1 9 0.5t9 -0.5q17 0 34 2.5t34 1.5q8 0 15.5 0.5t15.5 0.5t16 2t16 -1q3 -1 5.5 -2.5t5.5 -2.5q4 -1 7 0t7 0q14 -2 27 -11q9 -6 12 -19q2 -8 5 -15t5 -15q5 -17 4.5 -33t-2.5 -33q-2 -34 -5.5 -67.5t-7.5 -68.5q-2 -17 0.5 -33.5t2.5 -33.5q0 -8 -0.5 -16.5t-0.5 -16.5
q0 -4 -1 -7.5t0 -6.5q1 -9 0 -18q-2 -17 -4.5 -33.5t-4.5 -33.5q-2 -8 -2 -15v-15t-2 -16t-2 -16q-1 -8 0 -15.5t0 -15.5l-3 -33q-1 -8 -2 -16.5t-2 -16.5t-1.5 -16.5t-2.5 -16.5t-0.5 -15t-0.5 -14q-2 -8 -4 -15t-2 -15q1 -8 1.5 -15.5t0.5 -15.5q0 -7 -2 -12t-10 -4
q-7 0 -11 5.5t-6.5 13t-4 15.5t-1.5 13q-1 8 0 15.5t1 15.5t0.5 17t1.5 17q2 17 4 34.5t4 34.5q1 13 -2 31q-2 18 0 35q0 9 1 17l2 16l2 18t0 17q-2 8 -3 16l-2 16v17t1 17t1.5 15.5t-0.5 15.5q-2 9 -2 17.5v17.5q-1 34 0 68t4 68t4 68q0 8 1 16t-1 16q-2 6 -6 6
q-5 1 -9 1.5t-8 0.5q-8 -1 -10.5 -5t-7.5 -8t-12.5 -3t-13.5 1h-6h-4t-1 -3q-1 -5 -1 -15q0 -9 -0.5 -18t-0.5 -18q-1 -17 -0.5 -34t-0.5 -34q-2 -17 -3.5 -33.5t-4.5 -33.5q-2 -17 -6 -32.5t-8 -32.5q-6 -31 -4 -66q-1 -8 0.5 -15.5t1.5 -14.5q1 -9 0 -18t-1 -18
q-1 -33 -6 -68q-2 -17 -3.5 -34t-3.5 -34q-4 -34 -8.5 -67.5t-6.5 -67.5q-1 -10 -7.5 -20t-17.5 -11q-13 -1 -19.5 10t-8.5 22q-2 15 -1.5 31t2.5 31q2 16 3 31.5t2 30.5q1 16 2 31.5t2 31.5t2 31.5t2 31.5q0 16 -1 31.5t-1 31.5q0 14 0.5 28.5t-1.5 29.5q-3 -2 -4.5 -3.5
t-4.5 -3.5z" />
    <glyph glyph-name="periodcentered" unicode="&#xb7;" horiz-adv-x="130" 
d="M108 299q2 -5 3.5 -5t3.5 -5q4 -5 4.5 -11t-0.5 -12q-1 -14 -7.5 -25t-13.5 -23q-3 -4 -6 -10t-8 -8q-5 -3 -12.5 -2.5t-12.5 0.5q-10 0 -19 6q-5 3 -7.5 8t-7.5 9q-9 7 -11 18t0.5 22.5t8 22.5t10.5 19q6 9 13.5 15.5t18.5 6.5q15 0 22.5 -6t18.5 -14q2 -3 2.5 -3.5
t-0.5 -2.5z" />
    <glyph glyph-name="cedilla" unicode="&#xb8;" horiz-adv-x="150" 
d="M86 -44q11 -5 16.5 -6.5t14.5 -11.5q5 -5 6 -12.5t3 -14.5q2 -8 2 -15t-5 -15q-11 -21 -35.5 -31.5t-46.5 -0.5q-10 4 -18 14q-4 4 -8 10t-3 12q2 7 8 5.5t10 -3.5q6 -2 9.5 -7.5t10.5 -7.5q11 -3 22 4q4 3 8.5 8t6.5 10q2 9 -4 17.5t-16 9.5h-21t-17 11t2 23t12 21
q4 6 7.5 12.5t8.5 12.5q3 5 7 9.5t11 -0.5q6 -5 6.5 -10.5t-0.5 -12.5q-2 -8 -3 -14.5t-3 -14.5q2 -1 4 -1t5 -1z" />
    <glyph glyph-name="onesuperior" unicode="&#xb9;" horiz-adv-x="183" 
d="M138 475q8 0 10.5 -0.5t10.5 -2.5q7 -1 13 -2t8 -9q1 -6 -6 -9t-16.5 -4.5t-19 -2t-13.5 -0.5q-8 -1 -15.5 -2t-15.5 1t-15.5 3t-16.5 0q-8 -1 -15.5 -2.5t-14.5 0.5q-6 2 -10 6.5t1 9.5q7 10 21 12q5 1 15 1h5t5 2q4 4 2.5 12.5t-2.5 13.5q-1 8 -1 17v18q0 16 1.5 32
t2.5 33q1 8 1 16.5v16.5q1 4 1 8v8v7t-2 6q-4 2 -10.5 -4t-8.5 -8q-14 -11 -29 -15q-5 -2 -10.5 -3.5t-9.5 3.5q-7 11 6 19q10 7 25 13q7 4 13 8t12 9q5 5 9.5 9t5.5 11q1 5 3 8.5t7 5.5q12 2 23.5 -5t19.5 -15q10 -12 13 -24q2 -8 2 -15v-15q1 -17 3.5 -33t0.5 -33
q-1 -17 -5 -32.5t-8 -32.5q-2 -9 -4.5 -19.5t-0.5 -20.5q4 0 5.5 -0.5t3.5 0.5z" />
    <glyph glyph-name="ordmasculine" unicode="&#xba;" horiz-adv-x="230" 
d="M205 519q1 -3 0.5 -0.5l-1 5t-1 2.5t1.5 -7q6 -34 -2 -69t-28 -62q-10 -15 -21 -26q-12 -10 -29 -12q-8 -2 -16 -2t-16 4q-13 6 -24 17q-40 40 -46 96q-2 17 3 32t10 31q5 14 11 25.5t16 22.5q9 9 20 17q5 3 11 5.5t11 7.5q9 8 23 6.5t24 -5.5q27 -11 37.5 -36.5
t15.5 -51.5zM159 403q9 11 14 23t7 26q1 8 -0.5 14.5t-1.5 14.5t-1.5 15.5t-3.5 15.5t-4 13.5t-7 10.5q-5 4 -10.5 8t-11.5 -3q-1 -1 -5 -1l-6 -3l-9 -9q-10 -10 -14 -20q-6 -11 -8.5 -23t-3.5 -24q-1 -13 1.5 -25t5.5 -25q3 -14 15 -17q12 -2 23.5 -1.5t19.5 10.5z" />
    <glyph glyph-name="guillemotright" unicode="&#xbb;" horiz-adv-x="309" 
d="M16 400q0 1 -0.5 2.5t0.5 3.5q2 8 10 12q4 3 7.5 2.5t8.5 -2.5q9 -3 18 -7.5t16 -11.5q16 -16 34 -28q10 -7 20 -13t20 -13q6 -5 9.5 -9.5t-0.5 -12.5q-5 -13 -14 -22q-12 -11 -23 -22t-25 -19q-6 -5 -12 -9.5t-11 -10.5q-5 -5 -9 -10t-9 -8t-11.5 -6t-12.5 -1
q-5 2 -6.5 7.5t0.5 10.5q3 8 6 15t8 13t10.5 11.5l10.5 10.5q13 12 25 25q3 2 9.5 8.5t5.5 11.5q-1 2 -4.5 4t-5.5 4q-4 2 -7 4.5t-7 4.5l-27 15q-11 8 -22.5 17t-11.5 23zM151 400q0 1 -0.5 2.5t0.5 3.5q2 8 10 12q4 3 7.5 2.5t8.5 -2.5q9 -3 18 -7.5t16 -11.5
q16 -16 34 -28q10 -7 20 -13t20 -13q6 -5 9.5 -9.5t-0.5 -12.5q-5 -13 -14 -22q-12 -11 -23 -22t-25 -19q-6 -5 -12 -9.5t-11 -10.5q-5 -5 -9 -10t-9 -8t-11.5 -6t-12.5 -1q-5 2 -6.5 7.5t0.5 10.5q3 8 6 15t8 13t10.5 11.5l10.5 10.5q13 12 25 25q3 2 9.5 8.5t5.5 11.5
q-1 2 -4.5 4t-5.5 4q-4 2 -7 4.5t-7 4.5l-27 15q-11 8 -22.5 17t-11.5 23z" />
    </font>
</defs>
</svg>
